<svg width="379" height="227" viewBox="0 0 379 227" fill="none" xmlns="http://www.w3.org/2000/svg">
<path d="M118.067 22.3777H121.028L122.879 22.8761L124.359 23.8729L125.47 25.5342L126.025 27.1955L126.21 28.6906V30.3519L125.84 33.5084L124.915 37.1633L123.804 40.4859L121.954 45.1375L121.398 46.3004L121.583 47.7956L122.694 51.1182L124.359 54.773L126.21 58.2618L128.616 61.9166L131.021 65.0731L132.687 67.0667L134.167 67.2328L133.982 66.9005V63.744L134.353 60.5876L133.797 57.9295L132.317 53.444L131.207 49.1246L130.651 45.6359V40.652L131.207 38.6584L132.317 36.9971L133.612 36.1665L134.908 35.8342H137.128L139.534 36.4987L141.015 37.4955L142.125 38.9907L142.68 41.1504V43.1439L142.125 46.1343L141.015 49.4569L139.534 52.9456L136.943 57.7634L135.463 60.0892L135.278 62.2489L135.093 67.2328H292.393L293.133 67.7312L293.318 113.583L294.243 117.072L295.354 111.589L295.724 110.925L300.535 108.599L305.347 106.606L309.788 105.11H310.343V106.439L309.418 111.922L307.938 118.069L306.457 122.72L305.717 124.381L300.535 126.043L300.35 126.209L304.606 127.04L304.051 128.535L302.386 131.857H308.308L311.454 132.19L314.785 132.854L317.19 133.519L317.931 135.18L318.856 138.835L319.226 141.659V145.978L318.671 149.633L317.746 152.79L316.265 156.278L314.415 159.435L312.564 161.761L310.898 163.588L307.567 166.579L304.606 168.572L302.571 169.735L299.425 170.566L297.204 170.898H293.133V179.204L292.763 179.537L271.111 179.703L270 188.009L269.26 192.495L269.075 193.492L268.335 193.658L268.15 196.482H268.52L268.89 197.645L269.26 200.967H305.717V201.964L269.075 202.13L267.41 202.629H264.634L263.153 202.296L262.968 202.13H238.355L73.2832 201.964V200.967H148.787V199.971L149.897 198.143L151.378 196.98L152.858 196.316L153.784 196.15H170.809V179.537H86.2373L85.8672 179.204V167.243L82.9062 167.908H78.2798L75.1338 167.243L72.1729 166.08L69.2119 164.419L66.9912 162.924L64.4004 160.93L62.3647 159.103L60.6992 157.275L58.4785 154.451L56.813 151.793L55.3325 148.969L53.8521 144.982L52.9268 140.828L52.7417 139.499V132.854L53.4819 128.701L54.5923 125.046L55.3325 124.381L59.0337 123.385L63.29 122.72L65.5107 122.554H71.9878L70.1372 119.065L69.397 117.404V117.072L74.3936 116.075L72.543 115.41L67.9165 113.915L66.0659 108.433L64.5854 102.951L63.4751 97.4684L62.7349 92.8168V91.82L66.0659 92.8168L70.8774 94.6442L76.2441 96.97L79.7603 98.7975L80.6855 102.951L81.2407 105.609L82.5361 100.957L82.7212 100.625L83.6465 100.957L85.8672 102.286V88.4974H74.5786L73.6533 87.8329L73.4683 87.5006V86.3377L94.75 48.1278L95.3052 47.6294L96.6006 47.4633L97.7109 47.9617L101.597 54.9392L103.818 53.7763L104.558 53.6101H107.149L109.925 54.4408L112.701 55.9359L115.106 57.7634L116.587 58.9263L119.918 61.9166L121.583 63.744L123.619 65.9037L124.544 67.0667H131.207L128.801 64.0763L126.395 60.5876L123.989 56.6005L122.509 53.6101V53.1117L121.583 52.9456L118.623 51.6166L115.106 49.623L112.516 48.1278L108.074 46.3004L104.003 44.3068L101.412 42.6455L99.5615 41.1504L98.2661 39.8213L97.5259 38.16V36.831L98.2661 35.502L99.0063 34.6713L101.042 33.5084L101.782 33.3423H103.448L105.298 34.0068L106.964 35.1697L108.629 36.831L110.48 39.3229L112.701 43.1439L114.181 46.3004L114.921 48.1278V48.4601L115.847 48.7924L118.993 50.6198L121.398 51.7827H121.769L120.103 46.9649L119.178 44.3068L117.142 39.9875L115.106 34.5052L114.181 30.6842L113.996 29.189V27.0293L114.551 24.8696L115.662 23.5406L116.587 22.8761L118.067 22.3777Z" fill="#7C9EF6"/>
<path d="M118.067 22.3777H121.028L122.879 22.8761L124.359 23.8729L125.47 25.5342L126.025 27.1955L126.21 28.6906V30.3519L125.84 33.5084L124.915 37.1633L123.804 40.4859L121.954 45.1375L121.398 46.3004L121.583 47.7956L122.694 51.1182L124.359 54.773L126.21 58.2618L128.616 61.9166L131.021 65.0731L132.687 67.0667L134.167 67.2328L133.982 66.9005V63.744L134.353 60.5876L133.797 57.9295L132.317 53.444L131.207 49.1246L130.651 45.6359V40.652L131.207 38.6584L132.317 36.9971L133.612 36.1665L134.908 35.8342H137.128L139.534 36.4987L141.015 37.4955L142.125 38.9907L142.68 41.1504V43.1439L142.125 46.1343L141.015 49.4569L139.534 52.9456L136.943 57.7634L135.463 60.0892L135.278 62.2489L135.093 67.2328H292.393L293.133 67.7312L293.318 113.583L294.243 117.072L295.354 111.589L295.724 110.925L300.535 108.599L305.347 106.606L309.788 105.11H310.343V106.439L309.418 111.922L307.938 118.069L306.457 122.72L305.717 124.381L300.535 126.043L300.35 126.209L304.606 127.04L304.051 128.535L302.386 131.857H308.308L311.454 132.19L314.785 132.854L317.19 133.519L317.931 135.18L318.856 138.835L319.226 141.659V145.978L318.671 149.633L317.746 152.79L316.265 156.278L314.415 159.435L312.564 161.761L310.898 163.588L307.567 166.579L304.606 168.572L302.571 169.735L299.425 170.566L297.204 170.898H293.133V179.204L292.763 179.537L271.111 179.703L270 188.009L269.26 192.495L269.075 193.492L268.335 193.658L268.15 196.482H268.52L268.89 197.645L269.26 200.967H305.717V201.964L269.075 202.13L267.41 202.629H264.634L263.153 202.296L262.968 202.13H238.355L73.2832 201.964V200.967H148.787V199.971L149.897 198.143L151.378 196.98L152.858 196.316L153.784 196.15H170.809V179.537H86.2373L85.8672 179.204V167.243L82.9062 167.908H78.2798L75.1338 167.243L72.1729 166.08L69.2119 164.419L66.9912 162.924L64.4004 160.93L62.3647 159.103L60.6992 157.275L58.4785 154.451L56.813 151.793L55.3325 148.969L53.8521 144.982L52.9268 140.828L52.7417 139.499V132.854L53.4819 128.701L54.5923 125.046L55.3325 124.381L59.0337 123.385L63.29 122.72L65.5107 122.554H71.9878L70.1372 119.065L69.397 117.404V117.072L74.3936 116.075L72.543 115.41L67.9165 113.915L66.0659 108.433L64.5854 102.951L63.4751 97.4684L62.7349 92.8168V91.82L66.0659 92.8168L70.8774 94.6442L76.2441 96.97L79.7603 98.7975L80.6855 102.951L81.2407 105.609L82.5361 100.957L82.7212 100.625L83.6465 100.957L85.8672 102.286V88.4974H74.5786L73.6533 87.8329L73.4683 87.5006V86.3377L94.75 48.1278L95.3052 47.6294L96.6006 47.4633L97.7109 47.9617L101.597 54.9392L103.818 53.7763L104.558 53.6101H107.149L109.925 54.4408L112.701 55.9359L115.106 57.7634L116.587 58.9263L119.918 61.9166L121.583 63.744L123.619 65.9037L124.544 67.0667H131.207L128.801 64.0763L126.395 60.5876L123.989 56.6005L122.509 53.6101V53.1117L121.583 52.9456L118.623 51.6166L115.106 49.623L112.516 48.1278L108.074 46.3004L104.003 44.3068L101.412 42.6455L99.5615 41.1504L98.2661 39.8213L97.5259 38.16V36.831L98.2661 35.502L99.0063 34.6713L101.042 33.5084L101.782 33.3423H103.448L105.298 34.0068L106.964 35.1697L108.629 36.831L110.48 39.3229L112.701 43.1439L114.181 46.3004L114.921 48.1278V48.4601L115.847 48.7924L118.993 50.6198L121.398 51.7827H121.769L120.103 46.9649L119.178 44.3068L117.142 39.9875L115.106 34.5052L114.181 30.6842L113.996 29.189V27.0293L114.551 24.8696L115.662 23.5406L116.587 22.8761L118.067 22.3777ZM110.665 71.2199L111.035 72.2167L118.993 86.5039L118.808 87.8329L118.067 88.3313L90.1235 88.4974V174.22H242.242V175.882L242.612 178.872L242.797 179.537H208.191V196.15L225.216 196.316L227.067 196.814L228.732 197.977L229.658 199.306L230.028 199.971L230.213 200.967H237.43L238.17 199.638L239.096 198.974L240.206 198.475H240.946L241.501 199.638L241.687 201.3L249.644 201.134L250.014 200.635V201.134L252.79 200.967L253.715 200.635V200.967H263.153L263.708 196.648H264.079L263.894 195.153L263.523 193.99L261.488 193.325L261.118 192.993L260.562 179.537H254.085V192.827L251.495 193.159L251.125 184.687L250.014 170.732L249.644 167.077V164.751L249.829 164.087H250.199V163.588L250.754 163.422L251.68 162.259V161.927L252.42 161.595L252.975 160.93V160.598L253.715 160.266L255.011 159.103L256.306 157.774L258.527 155.78V159.435L256.306 162.425L254.271 164.751L253.16 165.914L253.345 168.406L253.9 174.22H260.377V171.729L260.192 168.738L259.452 163.422L259.082 158.77V156.611L259.822 152.624L261.673 145.978V145.314L264.819 145.812L266.669 145.978H269.075L271.481 145.646L273.702 144.982L274.072 148.138V151.959L273.146 157.94L272.776 163.92L271.851 172.559V174.22H288.876V71.2199H110.665Z" fill="#1C2488"/>
<path d="M157.67 80.8555L158.595 81.1877L160.631 82.5168L163.407 84.0119L167.663 86.0055L170.624 87.1684L175.436 88.8297L179.877 89.9926L183.208 90.8233L185.799 91.3217L191.906 92.1523L197.643 92.6507L201.714 92.8168L202.454 92.983V103.615L202.084 110.427L201.344 117.736L200.604 122.554L200.233 123.883H223.366L225.216 124.548L226.882 125.711L227.992 127.04L228.547 128.701V131.193L227.807 132.688L226.697 134.017L225.401 135.014L223.736 135.678L222.996 135.844H197.087L196.717 137.34L195.237 140.828L193.386 143.985L191.721 146.477L189.13 149.633L186.909 151.793L183.948 154.451L181.357 156.278L178.582 158.106L174.88 160.099L170.809 162.093L165.257 164.253L161.556 165.582L158.225 166.579L156.745 166.412L151.193 164.585L145.271 162.259L141.015 160.266L138.239 158.77L134.723 156.611L132.687 155.116L130.096 153.122L128.246 151.461L124.915 147.806L122.879 144.982L120.658 141.161L119.363 138.503L118.252 135.512V134.848L120.473 134.017L122.509 132.688L123.989 131.027L124.915 129.365L125.47 128.036H138.054L138.239 139.832L138.794 140.33H175.991L176.546 140.164V117.902H138.424L138.239 118.235L138.054 124.215H125.655L124.729 122.222L123.619 120.561L122.139 119.065L120.103 117.902L118.252 117.238L117.512 117.072L114.366 116.906L114.181 116.74L113.626 111.257L113.256 105.775V92.983L113.996 92.8168L120.288 92.4846L126.21 91.82L132.872 90.6571L137.684 89.4942L142.68 87.9991L147.492 86.1716L150.453 84.8426L154.524 82.849L157.115 81.1877L157.67 80.8555Z" fill="#FDCD5B"/>
<path d="M283.14 34.6714H345.689L347.355 35.0036L348.465 35.6682L349.576 36.8311L350.131 38.1601V94.4782L349.576 96.3056L348.465 97.4685L347.17 98.133L346.43 98.2992H293.133L292.948 67.7313L292.393 67.399L279.253 67.2329V37.8279L279.809 36.6649L280.919 35.502L282.399 34.8375L283.14 34.6714Z" fill="#E5F1FD"/>
<path d="M118.067 22.3777H121.028L122.879 22.8761L124.359 23.8729L125.47 25.5342L126.025 27.1955L126.21 28.6906V30.3519L125.84 33.5084L124.915 37.1633L123.804 40.4859L121.954 45.1375L121.398 46.3004L121.583 47.7956L122.694 51.1182L124.359 54.773L126.21 58.2618L128.616 61.9166L131.021 65.0731L132.687 67.0667L134.167 67.2328L133.982 66.9005V63.744L134.353 60.5876L133.797 57.9295L132.317 53.444L131.207 49.1246L130.651 45.6359V40.652L131.207 38.6584L132.317 36.9971L133.612 36.1665L134.908 35.8342H137.128L139.534 36.4987L141.015 37.4955L142.125 38.9907L142.68 41.1504V43.1439L142.125 46.1343L141.015 49.4569L139.534 52.9456L136.943 57.7634L135.463 60.0892L135.278 62.2489L135.093 67.2328H292.393L293.133 67.7312L293.318 113.583L294.243 117.072L295.354 111.589L295.724 110.925L300.535 108.599L305.347 106.606L309.788 105.11H310.343V106.439L309.418 111.922L307.938 118.069L306.457 122.72L305.717 124.381L300.535 126.043L300.35 126.209L304.606 127.04L304.051 128.535L302.386 131.857H308.308L311.454 132.19L314.785 132.854L317.19 133.519L317.931 135.18L318.856 138.835L319.226 141.659V145.978L318.671 149.633L317.746 152.79L316.265 156.278L314.415 159.435L312.564 161.761L310.898 163.588L307.567 166.579L304.606 168.572L302.571 169.735L299.425 170.566L297.204 170.898H293.133V179.204L292.763 179.537H271.111L271.666 173.39H271.851V174.22H288.876V71.2199L110.48 71.386L109.74 69.7247L105.854 62.9134L101.597 55.2714L102.522 54.4408L103.818 53.7763L104.558 53.6101H107.149L109.925 54.4408L112.701 55.9359L115.106 57.7634L116.587 58.9263L119.918 61.9166L121.583 63.744L123.619 65.9037L124.544 67.0667H131.207L128.801 64.0763L126.395 60.5876L123.989 56.6005L122.509 53.6101V53.1117L121.583 52.9456L118.623 51.6166L115.106 49.623L112.516 48.1278L108.074 46.3004L104.003 44.3068L101.412 42.6455L99.5615 41.1504L98.2661 39.8213L97.5259 38.16V36.831L98.2661 35.502L99.0063 34.6713L101.042 33.5084L101.782 33.3423H103.448L105.298 34.0068L106.964 35.1697L108.629 36.831L110.48 39.3229L112.701 43.1439L114.181 46.3004L114.921 48.1278V48.4601L115.847 48.7924L118.993 50.6198L121.398 51.7827H121.769L120.103 46.9649L119.178 44.3068L117.142 39.9875L115.106 34.5052L114.181 30.6842L113.996 29.189V27.0293L114.551 24.8696L115.662 23.5406L116.587 22.8761L118.067 22.3777Z" fill="#1D258A"/>
<path d="M265.559 112.752L270.741 114.414L273.702 115.743L275.182 116.906L276.478 118.401L277.958 121.059L279.253 124.215L279.994 126.541L281.659 131.027L282.399 133.353V134.183L279.809 135.678L277.033 136.675L275.922 137.007H274.997V138.835L274.442 143.653L274.072 144.483L273.146 145.148L270.741 145.812L269.075 145.978H266.669L262.413 145.48L261.673 145.314L261.488 146.643L259.822 152.624L259.082 156.611V158.77L259.452 163.422L260.192 168.738L260.377 171.729V174.221H253.9L253.345 168.406L253.16 165.914L254.641 164.419L256.861 161.761L258.527 159.435V155.78L255.196 158.77L253.9 160.099L253.345 160.598H252.975L252.605 161.429L252.05 161.927H251.68L251.31 162.758L250.569 163.588H250.199V164.087H249.829L249.644 164.751V167.077L250.384 175.051L251.125 184.687L251.495 193.159L254.085 192.827V179.537H260.562L261.118 192.993L262.228 193.658L263.708 194.156L264.079 195.984V196.648H263.708L263.153 200.967H253.715V200.635L252.79 200.967L250.014 201.134V200.469L249.644 201.134L241.687 201.3L241.316 199.14L240.946 198.476L239.651 198.642L238.17 199.638L237.43 200.967H230.213L229.843 199.805L228.917 198.143L227.622 197.146L226.697 196.648L225.216 196.316L208.191 196.15V179.537H242.797L242.427 177.377L242.057 173.224L241.872 170.566V165.083L242.242 163.422L243.352 160.764L245.943 155.448L248.904 149.633L250.199 147.307L250.939 145.646L252.42 142.988L251.865 142.656L252.235 141.161L253.16 138.004L252.235 138.17H246.683L240.761 137.672L238.911 137.34V137.174H263.894L264.079 135.678H250.569L250.014 133.02L250.199 130.861L250.754 127.372L250.384 127.206L250.199 126.209V124.382L250.754 121.225L251.68 119.232L252.79 117.57L254.085 116.573L257.231 115.078L257.972 114.58L259.637 114.912H261.858L263.708 114.248L265.189 113.251L265.559 112.752Z" fill="#0C165D"/>
<path d="M273.146 144.982H273.702L274.072 146.311L274.257 148.138V151.959L273.332 157.94L272.961 163.921L272.036 172.559L271.851 173.39L271.481 177.377L270.371 185.185L269.445 191.664L269.26 193.159L268.89 193.658H268.335L268.15 196.482H268.52L268.89 197.645L269.26 200.967H305.717V201.964L269.075 202.13L267.41 202.629H264.634L263.153 202.297L262.968 202.13H238.355L73.2832 201.964V200.967H148.787V199.971L149.897 198.143L151.378 196.98L152.858 196.316L153.784 196.15L170.809 195.984L170.994 179.537H208.006L208.191 195.984L225.216 196.15L227.067 196.648L228.732 197.811L229.843 199.306L230.213 199.971V200.967H237.43L237.615 200.137L238.726 198.974L240.206 198.309L241.131 198.476L241.687 199.638V201.3L244.092 201.134H249.644L250.014 200.137L250.384 199.971L250.014 201.134L250.384 200.967L252.79 200.801L253.715 200.635V200.967H263.153V199.306L263.523 196.98L263.708 196.648H264.079L263.523 194.156L261.488 193.492L260.933 192.993L260.562 184.853V179.537H254.085V192.827L253.16 193.159L251.31 193.326L250.939 184.687L249.829 170.732L249.459 167.077V164.751L249.829 164.087H250.199V163.588L251.125 162.758L251.68 161.927L252.605 161.262L252.975 160.598L254.456 159.435L256.491 157.441L258.527 155.614H258.712V159.435L256.491 162.425L254.456 164.751L253.345 165.914L253.53 168.406L253.9 172.227V174.221H260.377L260.007 168.738L259.267 163.422L258.897 158.77V156.611L259.637 152.624L261.673 145.314L264.819 145.646L266.669 145.812H269.075L271.481 145.48L273.146 144.982Z" fill="#1B2587"/>
<path d="M62.7349 91.8201L66.0659 92.8168L70.8774 94.6443L76.2441 96.9701L79.7603 98.7975L80.6855 102.951L81.2407 105.609L82.5361 100.957L82.7212 100.625L83.6465 100.957L85.8672 102.286V167.243L82.9062 167.908H78.2798L75.1338 167.243L72.1729 166.08L69.2119 164.419L66.9912 162.924L64.4004 160.93L62.3647 159.103L60.6992 157.275L58.4785 154.451L56.813 151.793L55.3325 148.969L53.8521 144.982L52.9268 140.828L52.7417 139.499V132.854L53.4819 128.701L54.5923 125.046L55.3325 124.382L59.0337 123.385L63.29 122.72L65.5107 122.554H71.9878L70.1372 119.065L69.397 117.404V117.072L74.3936 116.075L72.543 115.411L67.9165 113.915L66.0659 108.433L64.5854 102.951L63.4751 97.4685L62.7349 92.8168V91.8201Z" fill="#00917C"/>
<path d="M48.3003 43.4762H49.2256V44.473H103.448L105.668 44.9714L109.925 46.9649L113.256 48.294L115.106 49.4569L118.623 51.4504L121.583 52.7795L122.509 53.1117L124.544 57.265L126.765 60.9198L129.541 64.7408L131.392 67.0667V67.2328H124.544L122.139 64.5747L120.473 62.7473L118.252 60.5876L115.477 58.0956L112.886 56.2682L110.85 55.1053L109 54.2746L107.149 53.7763H104.558L102.708 54.4408L101.597 55.1053L99.7466 51.9488L97.5259 47.9617L96.6006 47.6294L95.3052 47.7956L94.3799 49.1246L73.6533 86.3377V87.5006L74.5786 88.3313L85.8672 88.4974V102.286L85.127 101.954L82.7212 100.625L81.981 103.615L81.4258 105.609L81.0557 105.775L79.9453 100.127L80.1304 98.9636L80.6855 97.4684V95.3088L79.9453 93.6474L79.02 92.6507L77.5396 91.82L76.2441 91.4878L69.0269 91.3216L67.3613 90.8232L65.6958 89.6603L64.7705 88.3313L64.4004 87.1684V85.1748L65.1406 83.5135L66.6211 82.0184L68.1016 81.3538L68.6567 81.1877L73.0981 81.0216L74.7637 80.5232L76.0591 79.5264L76.6143 78.5296L76.7993 76.8683L76.0591 75.0409L74.7637 74.0441L73.8384 73.7119L49.9658 73.5457L47.7451 73.0473L46.0796 71.8844L44.9692 70.2231L44.7842 69.7247V67.0667L45.5244 65.5715L46.8198 64.2424L48.6704 63.4118L49.4106 63.2457H56.4429L55.7026 62.415L56.0728 61.7505L56.813 62.0828L57.1831 62.7473L56.813 63.2457L63.8452 63.0795L65.5107 62.415L66.6211 61.5844L67.5464 59.9231L67.7314 58.594L67.1763 56.9327L65.8809 55.6037L63.29 54.4408L62.5498 54.2746L51.0762 54.1085V54.6069L50.1509 54.773L49.9658 54.1085H39.7876L38.1221 53.444L36.6416 52.2811L35.9014 51.1182L35.7163 50.4537V48.1278L36.8267 46.1343L38.1221 45.1375L40.1577 44.473H48.3003V43.4762Z" fill="#D0DFFE"/>
<path d="M125.47 128.036H138.054L138.239 139.832L138.794 140.33H175.991L176.546 140.164L176.731 139.832L176.916 135.844H194.682L193.756 138.336L191.536 142.49L189.685 145.314L187.279 148.138L185.429 149.966L184.133 151.295L182.098 152.956L178.952 155.116L176.176 156.777L172.29 158.77L169.329 160.099L166.183 161.429L159.891 163.588L158.41 164.087L156.745 163.92L150.823 161.927L145.456 159.767L141.2 157.774L137.684 155.78L134.538 153.62L131.947 151.627L129.541 149.467L127.875 147.64L125.47 144.649L123.619 141.659L121.954 138.503L120.473 134.682V134.017L122.509 132.688L123.989 131.027L124.915 129.365L125.47 128.036Z" fill="#FDCD5C"/>
<path d="M157.67 80.8555L158.595 81.1877L160.631 82.5168L163.407 84.0119L167.663 86.0055L170.624 87.1684L175.436 88.8297L179.877 89.9926L183.208 90.8233L185.799 91.3217L191.906 92.1523L197.643 92.6507L201.714 92.8168L202.454 92.983V103.615L202.084 110.427L201.344 117.736L200.604 122.554L200.233 123.883H223.366L225.216 124.548L226.882 125.711L227.992 127.04L228.547 128.701V131.193L227.807 132.688L226.697 134.017L225.401 135.014L223.736 135.678L222.996 135.844H197.087L196.717 137.34L195.237 140.828L193.386 143.985L191.721 146.477L189.13 149.633L186.909 151.793L183.948 154.451L181.357 156.278L178.582 158.106L174.88 160.099L170.809 162.093L165.257 164.253L161.556 165.582L158.225 166.579L156.745 166.412L151.193 164.585L145.271 162.259L141.015 160.266L138.239 158.77L134.723 156.611L132.687 155.116L130.096 153.122L128.246 151.461L124.915 147.806L122.879 144.982L120.658 141.161L119.363 138.503L118.252 135.512V134.848L120.473 134.183L122.139 138.503L124.544 142.988L126.58 145.812L128.246 147.806L130.466 150.132L132.687 152.125L134.723 153.62L138.239 155.946L141.94 157.94L146.566 160.099L152.673 162.425L157.3 163.92H158.41L164.332 161.927L168.588 160.266L171.549 158.937L174.695 157.441L178.211 155.448L181.357 153.288L183.393 151.627L184.874 150.464L186.539 148.803L188.945 145.978L190.61 143.653L192.831 139.832L194.312 136.509L194.497 136.011L176.916 135.844V139.832H176.731V118.235H176.916V123.883H197.828L198.198 120.893L199.123 113.583L199.493 108.599L199.678 104.446L199.863 94.6443H195.422L189.87 94.1459L183.208 93.1491L178.026 91.9862L171.364 89.9926L167.108 88.3313L163.037 86.5039L159.521 84.5103L158.04 83.5135L157.115 83.8458L153.784 85.8394L150.453 87.5007L146.566 89.162L141.755 90.8233L136.943 92.1523L131.392 93.3152L125.84 94.1459L120.103 94.6443H115.847L116.032 106.273L116.587 114.081L116.772 116.906H114.366L114.181 116.74L113.626 111.257L113.256 105.775V92.983L113.996 92.8168L120.288 92.4846L126.21 91.82L132.872 90.6571L137.684 89.4942L142.68 87.9991L147.492 86.1716L150.453 84.8426L154.524 82.849L157.115 81.1877L157.67 80.8555Z" fill="#FCFCFD"/>
<path d="M309.788 105.11H310.343V106.44L309.418 111.922L307.938 118.069L306.457 122.72L305.717 124.382L300.535 126.043L300.35 126.209L304.606 127.04L304.051 128.535L302.386 131.857H308.308L311.454 132.19L314.785 132.854L317.19 133.519L317.931 135.18L318.856 138.835L319.226 141.659V145.978L318.671 149.633L317.746 152.79L316.265 156.279L314.415 159.435L312.564 161.761L310.898 163.588L307.567 166.579L304.606 168.572L302.571 169.735L299.425 170.566L297.204 170.898H293.133V113.583H293.318L294.243 117.072L295.354 111.59L295.724 110.925L300.535 108.599L305.347 106.606L309.788 105.11Z" fill="#00917C"/>
<path d="M303.311 49.1246H326.999L327.184 59.9231L330.7 63.0796L332.18 64.2425L332.92 64.907V74.7087L334.771 75.0409L336.251 75.8716L337.362 77.2006L337.732 78.1974V80.3571L336.807 80.5232L336.622 78.3635L335.881 77.0345L334.771 76.2038L332.92 75.7054V80.5232H329.774L327.184 80.6893L326.258 81.52L326.073 81.8522L325.888 84.8426H297.389V84.0119L299.055 82.3506L299.24 82.0184H299.61L299.98 81.3538L302.201 79.028L303.126 77.8651H303.496L303.866 77.2006L305.902 75.0409L308.123 72.7151L309.788 70.8877L310.713 69.7248L309.048 71.3861L307.382 73.2135L305.162 75.5393L303.496 77.3667L301.275 79.6925L299.61 81.52L297.574 83.6797H297.389V64.907L299.795 62.7473L301.275 61.5844L303.126 59.9231L303.311 49.1246Z" fill="#82A2F6"/>
<path d="M95.8604 47.4634L97.1558 47.6295L97.896 48.294L108.444 67.2328L109.925 69.7248L110.85 71.5522L119.178 86.5039L118.993 87.833L118.067 88.4975H74.5786L73.6533 87.833L73.4683 87.5007V86.3378L94.75 48.1279L95.3052 47.6295L95.8604 47.4634Z" fill="#0B155B"/>
<path d="M110.665 71.22H288.876V76.0377L113.256 76.2039L110.665 71.5522V71.22Z" fill="#6D7CF9"/>
<path d="M157.855 86.8362L159.521 87.833L162.481 89.4943L166.738 91.4878L170.254 92.8169L176.361 94.6443L181.728 95.8072L187.649 96.6378L191.351 96.9701L196.162 97.3024V107.104L195.607 115.244L194.867 121.059L194.312 123.717H176.916L176.731 118.235L176.546 117.902L171.734 117.736L171.549 117.57L171.364 113.085L170.624 110.427L169.329 108.101L168.033 106.606L166.368 105.11L164.332 103.948L162.296 103.117L160.261 102.619L157.855 102.286L157.67 101.788V87.3346L157.855 86.8362Z" fill="#EDB64F"/>
<path d="M265.559 112.752L270.741 114.414L273.702 115.743L275.182 116.906L276.478 118.401L277.958 121.059L279.253 124.215L279.994 126.541L281.659 131.027L282.399 133.353V134.183L279.809 135.678L277.033 136.675L275.922 137.007H274.997V138.835L274.442 143.653L274.072 144.483L273.146 145.148L270.741 145.812L269.075 145.978H266.669L262.413 145.48L257.787 144.483L253.715 143.32L251.865 142.656L252.235 141.161L253.16 138.004L252.235 138.17H246.683L240.761 137.672L238.911 137.34V137.174H263.894L264.079 135.678H250.569L250.014 133.02L250.199 130.861L250.754 127.372L250.384 127.206L250.199 126.209V124.382L250.754 121.225L251.68 119.232L252.79 117.57L254.085 116.573L257.231 115.078L257.972 114.58L259.637 114.912H261.858L263.708 114.248L265.189 113.251L265.559 112.752Z" fill="#FDCD5B"/>
<path d="M138.424 117.736H176.546L176.731 117.902V140.164L175.991 140.496H138.794L138.239 140.164V128.036H147.122L147.307 132.688L148.232 133.519L149.342 133.353L149.897 132.854L150.083 128.036H151.193L151.378 130.03L151.748 130.694L152.118 130.861H153.414L153.969 130.362L154.154 128.036H156.189L156.004 129.365L154.894 134.349V135.346H159.891L160.076 134.682L158.595 128.203V127.87L160.076 126.873L160.631 125.544L160.446 124.049L159.706 123.052L158.595 122.388L156.93 122.222L155.634 122.72L154.709 123.551L154.339 124.215H138.239V117.902L138.424 117.736Z" fill="#0B155A"/>
<path d="M208.191 179.537H242.797L243.167 181.198L244.092 187.179L245.388 192.993L245.573 193.492L248.164 194.156L248.349 195.983L247.238 195.817L246.498 196.482L247.238 196.814L247.423 197.479L245.573 196.648L246.498 197.479L246.313 198.143L245.203 197.479H244.647L245.573 198.309L245.203 198.642L244.092 197.977L241.131 198.309L239.466 198.808L238.355 199.472L237.615 200.469L237.43 200.967H230.213L229.843 199.804L228.917 198.143L227.622 197.146L226.697 196.648L225.216 196.316L208.191 196.15V179.537Z" fill="#E4F0FD"/>
<path d="M283.14 34.6714H345.689L347.355 35.0036L348.465 35.6682L349.576 36.8311L350.131 38.1601V94.4782L349.576 96.3056L348.465 97.4685L347.17 98.133L346.43 98.2992H293.133V97.6346L346.06 97.4685L347.91 96.804L348.65 95.9733L349.021 94.9766L349.206 42.4795L348.835 42.6456H280.549L280.179 42.4795L279.994 67.2329H279.253V37.8279L279.809 36.6649L280.919 35.502L282.399 34.8375L283.14 34.6714Z" fill="#9FA5FE"/>
<path d="M261.673 145.314L264.819 145.646L268.705 145.978V148.304L269.445 149.965L270.371 150.962L272.221 152.125V154.617L271.666 160.764L270.556 170.566L268.52 190.169L268.335 192.661L267.225 192.993H263.338L261.673 192.329L261.303 192.162V191.83H260.933L260.748 189.504L260.562 184.853V179.537H254.085V192.827L253.16 193.159L251.31 193.325L250.939 184.687L249.829 170.732L249.459 167.077V164.751L249.829 164.087H250.199V163.588L251.125 162.757L251.68 161.927L252.605 161.262L252.975 160.598L254.456 159.435L256.491 157.441L258.527 155.614H258.712V159.435L256.491 162.425L254.456 164.751L253.345 165.914L253.53 168.406L253.9 172.227V174.22H260.377L260.007 168.738L259.267 163.422L258.897 158.77V156.611L259.637 152.624L261.673 145.314Z" fill="#0B155A"/>
<path d="M213.373 44.473H215.963L217.814 45.1375L218.924 45.9682L220.035 47.6295L220.405 48.7924V49.4569L250.199 49.2908L251.495 48.294L252.975 47.7956H255.751L257.602 48.6263L258.897 49.7892L259.637 51.2844L259.822 53.1118L259.267 54.7731L258.527 55.7699L258.342 56.1021L261.303 60.5876L261.673 61.086V62.2489L260.748 62.9135L259.637 62.7473L258.897 62.0828L258.342 61.2521L214.483 61.086L213.188 60.4215L212.447 59.2586V54.1086L211.522 53.7763L210.227 52.7795L209.301 51.1182L209.116 50.6198V48.294L209.856 46.7988L211.152 45.4698L212.262 44.8053L213.373 44.473Z" fill="#FDCD5B"/>
<path d="M170.994 179.537H208.006V196.15H170.994V179.537Z" fill="#0B155A"/>
<path d="M62.7349 91.8201L66.0659 92.8168L70.8774 94.6443L76.2441 96.9701L79.7603 98.7975L80.6855 102.951L81.2407 105.609L82.5361 100.957L82.7212 100.625L83.6465 100.957L85.8672 102.286V138.336L84.9419 137.838L82.5361 135.845L80.5005 134.017L78.835 132.19L77.3545 130.528L75.1338 127.538L73.4683 125.046L71.2476 121.225L69.397 117.404V117.072L74.3936 116.075L72.543 115.411L67.9165 113.915L66.0659 108.433L64.5854 102.951L63.4751 97.4685L62.7349 92.8168V91.8201Z" fill="#006D5A"/>
<path d="M113.441 116.906H117.512L119.733 117.57L121.583 118.567L123.434 120.062L124.729 121.89L125.655 124.049L138.054 124.215V118.235H138.239V124.215H154.339L154.709 123.219L156.189 122.222L157.67 122.056L159.335 122.554L160.446 123.717L160.816 124.714L160.631 126.209L159.891 127.206L158.965 127.87H158.595L159.15 129.864L160.261 134.682L160.076 135.346L159.891 135.512H154.894L154.709 135.346L154.894 133.519L156.189 128.036H154.154V130.362L153.414 131.027H152.118L151.378 130.528L151.193 130.03V128.036H150.083V132.854L149.342 133.519L148.232 133.685L147.307 133.02L147.122 132.688V128.036H138.239V139.832H138.054V128.036H125.47L125.285 128.867L124.544 130.362L123.249 132.19L121.398 133.685L119.733 134.515L116.957 135.346H113.811L110.85 134.515L110.11 134.183V133.851L109.185 133.519L107.889 132.522L106.409 130.694L105.483 128.701L105.113 126.873V124.714L105.668 122.72L106.964 120.56L108.259 119.231L110.665 117.736L112.701 117.072L113.441 116.906Z" fill="#625FFC"/>
<path d="M326.813 59.9231L327.554 60.2554L330.7 63.0796L332.18 64.2425L332.92 64.907V74.7087L334.771 75.0409L336.251 75.8716L337.362 77.2006L337.732 78.1974V80.3571L336.807 80.5232L336.622 78.3635L335.881 77.0345L334.771 76.2038L332.92 75.7054V80.5232H329.774L327.184 80.6893L326.258 81.52L326.073 81.8523L325.888 84.8426H297.389V84.0119L299.055 82.3506L299.24 82.0184H299.61L299.98 81.3539L302.201 79.028L303.126 77.8651H303.496L303.866 77.2006L305.902 75.0409L308.123 72.7151L309.788 70.8877L311.083 69.3925H319.596L321.077 71.0538L324.408 74.5425L323.297 73.2135L321.262 71.0538L319.966 69.5586V69.3925H326.813V59.9231Z" fill="#625FFC"/>
<path d="M176.916 135.844H194.682L194.126 137.34L190.425 137.506L188.945 140.33L187.094 143.154L184.874 145.812L182.653 148.138L181.172 149.467L179.137 150.962L176.731 152.624L173.585 154.451L169.514 156.445L165.072 158.272L159.706 160.099L157.855 160.598V140.496L175.991 140.33L176.546 140.164L176.731 139.832L176.916 135.844Z" fill="#ECB54F"/>
<path d="M309.788 105.11H310.343V106.44L309.418 111.922L307.938 118.069L306.457 122.72L305.717 124.382L300.535 126.043L300.35 126.209L304.606 127.04L304.051 128.535L302.386 131.857L300.35 135.18L298.129 138.17L296.464 140.33L296.834 144.649L297.759 149.799V150.63L296.464 151.959L295.168 152.956L293.873 154.285L293.318 154.451L293.133 154.783V113.583H293.318L294.243 117.072L295.354 111.59L295.724 110.925L300.535 108.599L305.347 106.606L309.788 105.11Z" fill="#006D5A"/>
<path d="M271.111 179.537H292.578V179.703L286.656 179.869L287.396 181.198L288.691 182.195L290.172 182.693L302.386 182.859L304.051 183.358L305.347 184.188L306.457 185.683L306.827 187.012V188.342L306.087 190.169L304.792 191.498L302.941 192.329L301.646 192.495H268.89L269.26 192.329L269.63 189.006L270.186 185.185L270.926 179.703L271.111 179.537Z" fill="#D0DFFD"/>
<path d="M118.067 22.3777H121.028L122.879 22.8761L124.359 23.8729L125.47 25.5342L126.025 27.1955L126.21 28.6906V30.3519L125.84 33.5084L124.915 37.1633L123.804 40.4859L121.954 45.1375L121.398 46.3004L121.583 47.7956L122.694 51.1182L124.359 54.773L126.21 58.2618L128.616 61.9166L131.021 65.0731L132.687 67.0667V67.2328H131.392L128.801 64.0763L126.395 60.5876L123.989 56.6005L122.509 53.6101V53.1117L121.583 52.9456L118.623 51.6166L115.106 49.623L112.516 48.1278L108.074 46.3004L104.003 44.3068L101.412 42.6455L99.5615 41.1504L98.2661 39.8213L97.5259 38.16V36.831L98.2661 35.502L99.0063 34.6713L101.042 33.5084L101.782 33.3423H103.448L105.298 34.0068L106.964 35.1697L108.629 36.831L110.48 39.3229L112.701 43.1439L114.181 46.3004L114.921 48.1278V48.4601L115.847 48.7924L118.993 50.6198L121.398 51.7827H121.769L120.103 46.9649L119.178 44.3068L117.142 39.9875L115.106 34.5052L114.181 30.6842L113.996 29.189V27.0293L114.551 24.8696L115.662 23.5406L116.587 22.8761L118.067 22.3777Z" fill="#00917C"/>
<path d="M156.004 102.286H159.15L161.741 102.785L163.962 103.615L165.812 104.612L167.663 106.107L169.144 107.602L170.439 109.596L171.364 112.088L171.549 113.085L171.734 117.736H143.42V114.414L143.791 111.922L144.901 109.264L146.011 107.602L147.677 105.775L149.527 104.446L151.378 103.449L154.709 102.452L156.004 102.286Z" fill="#FDFDFD"/>
<path d="M226.697 121.89H247.423L247.793 122.222L250.014 132.356L250.569 134.848V135.678H264.079V136.841L263.894 137.173H230.028L227.622 136.675L227.252 136.343V134.682L227.437 133.02L228.177 131.525L228.362 131.193V128.701L227.807 127.04L227.252 126.375L226.512 123.219V122.056L226.697 121.89Z" fill="#1C2488"/>
<path d="M64.2153 101.289H64.4004L65.6958 106.606L67.1763 111.257V111.589H34.9761L33.1255 110.925L31.645 109.762L30.7197 108.433L30.5347 107.768V105.277L31.2749 103.781L32.5703 102.452L34.0508 101.788L34.606 101.622H64.2153V101.289Z" fill="#D0DFFE"/>
<path d="M243.167 182.693H243.352L244.462 189.006L245.203 192.495H220.775L218.924 192.163L217.444 191.332L216.148 190.003L215.593 188.342V186.846L216.148 185.351L217.814 183.69L219.294 183.025L220.035 182.859L243.167 182.693Z" fill="#D0DFFD"/>
<path d="M176.176 35.1697H177.471L179.322 35.8342L180.432 36.6648L181.357 36.4987L183.023 36.0003H185.799L188.02 36.6648L190.055 37.9939L191.351 39.3229L192.091 40.1536L193.016 39.6552L194.497 39.8213L195.792 40.8181L196.162 39.9874L197.828 38.3261L199.678 37.3294L200.789 36.9971H202.824L204.86 37.6616L206.71 39.1568L207.081 39.6552H209.301L210.412 40.1536L211.707 41.4826L211.892 42.1471H158.78L159.15 41.3165L160.076 40.3197L161.741 39.3229L162.852 38.9907H165.072L166.553 39.6552H166.923L167.663 38.3261L169.144 37.3294L169.699 37.1632H171.734L172.845 37.6616L173.215 36.831L174.695 35.6681L176.176 35.1697Z" fill="#B7CDFF"/>
<path d="M134.908 35.8342H137.128L139.534 36.4987L141.015 37.4955L142.125 38.9907L142.68 41.1504V43.1439L142.125 46.1343L141.015 49.4569L139.534 52.9456L136.943 57.7634L135.463 60.0892L135.278 62.2489L135.093 67.2328H134.167L133.982 66.9005V63.7441L134.353 60.5876L133.797 57.9295L132.317 53.444L131.207 49.1246L130.651 45.6359V40.652L131.207 38.6584L132.317 36.9971L133.612 36.1665L134.908 35.8342Z" fill="#00917C"/>
<path d="M138.239 128.036H147.122L147.307 132.688L148.232 133.519L149.342 133.353L149.897 132.854L150.083 128.036H151.193L151.378 130.03L151.748 130.694L152.118 130.861H153.414L153.969 130.362L154.154 128.036H156.189L156.004 129.365L154.894 134.349V135.346L159.706 135.512V135.678H157.485V140.33H175.991V140.496H138.794L138.239 140.164V128.036Z" fill="#1D258A"/>
<path d="M69.9521 118.567L70.3223 119.065L72.1729 122.554V122.72H65.5107L61.9946 123.053L58.2935 123.717L54.9624 124.714L54.0371 127.372L53.2969 130.362L52.9268 130.03H43.4888L42.0083 129.698L40.5278 128.867L39.4175 127.704L38.8623 126.707L38.6772 125.877V124.382L39.2324 122.886L40.1577 121.723L41.8232 120.727L43.1187 120.394L67.5464 120.228L69.397 119.398L69.9521 118.567Z" fill="#D0DFFE"/>
<path d="M105.668 45.3036L106.594 45.4697L111.59 47.6294L113.441 48.4601L117.142 50.6197L120.288 52.281L122.509 53.1117L124.544 57.2649L126.765 60.9198L129.541 64.7408L131.392 67.0666V67.2327H124.544L122.139 64.5747L120.473 62.7472L118.252 60.5875L115.477 58.0956L112.886 56.2682L110.85 55.1053L109 54.2746L106.224 53.6101L105.298 53.444L106.224 52.7794L107.334 51.2843L107.704 49.9552V48.7923L107.149 47.131L106.409 46.1342L105.668 45.3036Z" fill="#E4F0FD"/>
<path d="M310.528 163.754L315.34 163.92L317.005 164.253L318.856 165.249L320.151 166.911L320.521 168.074V170.067L319.781 171.729L318.486 173.058L316.635 173.888L315.71 174.054H293.318V179.038H293.133V170.898L297.204 170.732L300.905 170.067L302.756 169.403L305.347 167.908L307.938 166.08L310.528 163.754Z" fill="#D0DFFD"/>
<path d="M105.298 126.209H109.185L109.74 127.87L110.665 129.532L112.146 130.694L113.811 131.359L115.847 131.525L117.882 131.027L119.733 130.03L120.843 128.535L121.583 126.375L121.769 126.209H157.485L157.3 127.206L156.375 128.203L154.154 128.036V130.362L153.414 131.027H152.118L151.378 130.528L151.193 130.03V128.036H150.083V132.854L149.342 133.519L148.232 133.685L147.307 133.02L147.122 132.688V128.036H138.239V139.832H138.054V128.036H125.47L125.285 128.867L124.544 130.362L123.249 132.19L121.398 133.685L119.733 134.515L116.957 135.346H113.811L110.85 134.515L110.11 134.183V133.851L109.185 133.519L107.889 132.522L106.409 130.694L105.483 128.701L105.113 126.375L105.298 126.209Z" fill="#5556E4"/>
<path d="M156.745 106.439H158.595L161.371 107.104L163.222 108.101L164.517 109.098L165.812 110.759L166.738 112.752L166.923 113.583V117.736H148.232V113.583L148.972 111.423L150.083 109.762L151.008 108.765L152.488 107.768L154.339 106.938L156.745 106.439Z" fill="#FECE5C"/>
<path d="M104.558 53.6101H107.149L109.925 54.4408L112.701 55.9359L115.106 57.7634L116.587 58.9263L119.918 61.9166L121.583 63.744L123.619 65.9037L124.544 67.2328H108.259L101.597 55.2714L102.522 54.4408L103.818 53.7762L104.558 53.6101Z" fill="#00907B"/>
<path d="M254.085 179.537H260.562L261.118 192.993L262.228 193.658L263.708 194.156L264.079 195.983V196.648H263.708L263.153 200.967H253.715L253.53 197.479L253.16 196.648L252.79 196.482V193.99L252.975 193.824H254.085V179.537Z" fill="#CDDCFD"/>
<path d="M283.14 34.6714H345.689L347.355 35.0036L348.465 35.6682L349.576 36.8311L350.131 38.1601V94.4782L349.576 96.3056L348.465 97.4685L347.17 98.133L346.43 98.2992H293.133V97.6346L346.06 97.4685L347.91 96.804L348.65 95.9733L349.206 94.6443V42.3134L349.021 37.8279L348.095 36.4988L346.615 35.6682H282.77L281.289 36.3327L280.549 37.1633L280.179 38.1601L279.994 67.2329H279.253V37.8279L279.809 36.6649L280.919 35.502L282.399 34.8375L283.14 34.6714Z" fill="#809FF7"/>
<path d="M43.6738 87.8329H45.5244L47.7451 88.6635L49.2256 89.8264L50.3359 91.82V92.3184L51.6313 92.4845L53.1118 93.4813L54.2222 94.9765L54.4072 95.9733H25.5381L25.7231 94.9765L26.8335 93.6474L27.9438 92.9829L28.499 92.8168H30.1646L30.5347 92.9829L30.9048 92.1523L32.2002 90.8232L33.6807 89.9926L34.791 89.6603H37.752L38.8623 89.9926L39.7876 89.8264L41.083 88.8297L42.9336 87.999L43.6738 87.8329Z" fill="#B7CDFF"/>
<path d="M274.442 137.174H274.997V138.835L274.442 143.653L274.072 144.483L273.146 145.148L270.741 145.812L269.075 145.978H266.669L262.413 145.48L257.787 144.483L253.715 143.32L251.865 142.656L252.235 141.161L253.16 138.004L254.826 138.503L256.121 138.835H258.712L261.673 138.17L262.783 137.838H269.63L273.517 137.34L274.442 137.174Z" fill="#FDCD5B"/>
<path d="M332.92 75.7054L334.401 75.8716L335.511 76.5361L336.622 77.8651L336.807 78.3635V80.5232L337.917 80.3571L339.027 80.8555L339.583 81.3539L339.768 81.8523V89.162L339.027 90.1588L338.472 90.491H327.369L326.443 89.9926L326.073 89.3281V81.52L327.184 80.5232L330.145 80.3571L332.92 80.5232V75.7054Z" fill="#FDCD5B"/>
<path d="M279.438 125.711L279.809 126.209L280.734 128.369L282.399 133.353V134.183L279.809 135.678L277.033 136.675L273.517 137.506L269.63 138.004H262.783L259.822 138.835L258.712 139.001H256.121L253.9 138.336L253.53 138.17H246.683L240.761 137.672L238.911 137.34V137.174H263.894L264.079 135.678H256.121L255.936 135.18L257.417 134.848L259.822 135.014L261.673 135.18L264.819 134.183L269.26 132.854L273.517 132.024L275.367 131.857L274.812 130.694L273.517 129.033L274.072 128.535L277.588 126.873L279.438 125.711Z" fill="#B1592E"/>
<path d="M271.481 101.289H278.698L280.364 101.954L281.289 103.117L281.474 103.781V110.427L280.734 111.756L279.624 112.586L279.068 112.752H271.111L269.63 111.922L268.89 110.925L268.705 110.427V103.781L269.26 102.618L270.186 101.788L271.481 101.289Z" fill="#6E7DFA"/>
<path d="M271.111 84.3442H279.068L280.179 84.8426L281.104 85.8394L281.474 86.6701V93.3153L280.919 94.4782L279.994 95.3088L278.328 95.8072H271.666L270.186 95.3088L269.26 94.4782L268.705 93.3153V86.6701L269.445 85.341L270.556 84.5104L271.111 84.3442Z" fill="#6E7DFA"/>
<path d="M250.014 84.3442H257.972L259.082 84.8426L260.007 85.6733L260.377 86.3378V93.6475L259.452 94.9766L258.342 95.6411L257.231 95.8072H250.754L249.089 95.3088L247.979 94.1459L247.608 92.4846V87.6668L247.793 86.1717L248.904 84.8426L250.014 84.3442Z" fill="#6E7DFA"/>
<path d="M302.941 60.0892L303.311 60.2554V69.3925H310.713L310.343 70.057L308.123 72.3829L306.457 74.2103L304.236 76.5361L302.571 78.3635L300.35 80.6894L298.685 82.5168L297.574 83.6797H297.389V64.907L299.795 62.7473L301.275 61.5844L302.941 60.0892Z" fill="#625FFC"/>
<path d="M258.527 155.614H258.712V159.435L256.491 162.425L254.456 164.751L253.345 165.914L253.53 168.406L253.9 172.227L254.271 179.537L254.085 192.827L253.16 193.159L251.31 193.326L250.939 184.687L249.829 170.732L249.459 167.077V164.751L249.829 164.087H250.199V163.588L251.125 162.758L251.68 161.927L252.605 161.262L252.975 160.598L254.456 159.435L256.491 157.441L258.527 155.614Z" fill="#0B155A"/>
<path d="M302.016 125.378L302.571 125.544L317.375 125.711L319.226 126.375L320.707 127.538L321.632 128.867L322.002 130.362L321.817 132.19L321.262 133.519L319.781 135.014L318.856 135.512H318.116L317.931 135.844L317.19 133.685L313.489 132.688L310.343 132.19L308.308 132.023H302.201L303.496 129.365L304.606 127.04L302.941 126.873L299.98 126.209L300.535 125.877L302.016 125.378Z" fill="#D0DFFE"/>
<path d="M32.3853 76.0377H34.9761L36.8267 76.7022L38.8623 78.0313L40.8979 79.8587L41.083 80.191L42.0083 80.0248H44.0439L45.5244 80.6894L46.6348 81.8523L46.8198 82.6829H14.2495L14.6196 82.0184L15.915 80.8555L17.5806 80.0248L18.5059 79.6926H20.7266L22.207 80.191L22.5771 79.5264L24.0576 78.3635L24.9829 78.0313H26.6484L27.9438 78.5297L29.6094 77.2006L31.8301 76.2038L32.3853 76.0377Z" fill="#B7CDFF"/>
<path d="M273.146 144.982H273.702L274.072 146.311L274.257 148.138V151.959L273.332 157.94L272.961 163.921L272.036 172.559L271.851 173.39L271.481 177.377L270.371 185.185L269.445 191.664L269.26 193.159L268.89 193.658H268.335L268.15 196.482H268.52L268.89 197.645V199.638L267.78 198.808L267.225 198.642H265.189L263.708 199.306L263.338 199.638V197.811L263.708 196.648H264.079L263.523 194.156L261.488 193.492L260.933 192.993V191.83H261.303V192.163L262.598 192.495L263.338 192.827H267.225L268.335 192.661V190.169L270.371 170.566L271.666 159.103L272.036 154.617V152.125L270.926 151.461L270 150.796L268.89 149.301L268.52 148.304V146.145L269.075 145.812L271.481 145.48L273.146 144.982Z" fill="#0E1761"/>
<path d="M326.813 59.9231L327.554 60.2554L330.7 63.0796L332.18 64.2425L332.92 64.907V74.7087L334.771 75.0409L336.251 75.8716L337.362 77.2006L337.732 78.1974V80.3571L336.807 80.5232L336.622 78.3635L335.881 77.0345L334.771 76.2038L333.291 75.7054L331.255 76.0377L329.959 76.8684L329.219 78.1974L329.034 80.3571H327.924V78.1974L326.258 76.37L324.963 75.0409V74.7087H324.593L323.297 73.2135L321.262 71.0538L319.966 69.5586V69.3925H326.813V59.9231Z" fill="#625FFC"/>
<path d="M101.782 33.3423H103.448L105.298 34.0068L106.964 35.1697L108.629 36.831L110.48 39.323L112.701 43.144L114.181 46.3004L114.736 47.6295V48.1279L113.811 47.7956L111.405 46.1343L108.814 43.9746L107.519 42.6456L105.668 40.4859L104.373 38.8246H104.003L104.188 39.8214L106.039 42.1472L108.259 44.473L110.295 46.3004L112.146 47.6295L111.59 47.7956L106.594 45.6359L103.448 43.9746L100.487 41.981L98.8213 40.4859L97.7109 38.8246L97.5259 38.1601V36.831L98.2661 35.502L99.0063 34.6713L101.042 33.5084L101.782 33.3423Z" fill="#00917C"/>
<path d="M138.424 117.736H157.485V122.056L155.819 122.554L154.894 123.219L154.339 124.215H138.239V117.902L138.424 117.736Z" fill="#1C2488"/>
<path d="M73.4683 201.134H237.245L237.43 201.798H73.4683V201.134Z" fill="#01040A"/>
<path d="M114.736 120.561H116.772L118.993 121.557L119.918 122.222L121.028 123.717L121.583 125.378V126.707L121.028 128.535L119.918 130.03L118.252 131.027L116.587 131.525L114.921 131.691L113.256 131.359L111.405 130.362L110.11 129.033L109.37 127.538V124.88L110.11 123.219L111.775 121.557L113.811 120.727L114.736 120.561Z" fill="#7C9EF6"/>
<path d="M329.404 164.253H333.846L335.696 164.917L336.807 165.748L337.732 167.077L338.102 168.074V170.067L337.362 171.729L336.437 172.725L336.251 173.556L334.401 173.888L333.661 174.054H329.959L326.999 173.556L326.628 172.393L325.888 171.562L325.333 170.399V167.908L326.443 165.914L327.739 164.917L329.404 164.253Z" fill="#D1E0FE"/>
<path d="M78.835 132.19L79.7603 133.02L82.3511 135.512L84.0166 137.007L85.8672 138.336V151.793L84.5718 150.796L77.1694 144.151L77.3545 142.49L78.2798 137.173L78.835 132.19Z" fill="#00917C"/>
<path d="M252.975 47.7957H255.751L257.602 48.6263L258.897 49.7892L259.637 51.2844L259.822 53.1118L259.267 54.7731L258.527 55.7699L258.342 56.1022L261.303 60.5877L261.673 61.0861V62.249L260.748 62.9135L259.637 62.7474L258.897 62.0828L255.936 57.5973L252.975 57.4312L251.31 56.7667L249.829 55.6038L248.904 53.9425V51.2844L249.829 49.6231L251.495 48.294L252.975 47.7957Z" fill="#1C2789"/>
<path d="M256.676 102.452H262.413L263.894 102.951L264.819 103.948L265.374 105.609V108.931L264.634 110.094L264.079 110.925L264.264 112.586L264.449 113.915L262.598 114.912L261.858 115.078H259.637L258.712 114.746L258.897 113.583L257.787 113.251L256.861 111.922L256.306 109.596L256.121 107.436L255.381 105.277V104.114L256.121 102.785L256.676 102.452Z" fill="#AB5731"/>
<path d="M250.384 101.289H257.602L259.082 101.788L259.637 102.452L256.676 102.618L255.936 103.283L255.566 104.114V105.277L256.306 107.436L256.676 110.593L257.231 112.254L257.417 112.752H250.199L248.719 112.088L247.979 111.257L247.608 109.43V104.446L247.979 102.951L249.089 101.788L250.384 101.289Z" fill="#6D7CF9"/>
<path d="M319.226 142.656H319.411V143.653H324.963L327.184 144.649L328.294 145.812L329.034 147.307L329.219 149.135L328.849 150.63L327.739 152.125L326.443 153.122L325.333 153.62L324.593 153.786H317.375L317.746 152.291L318.671 148.803L319.041 145.978L319.226 142.656Z" fill="#D0DFFE"/>
<path d="M240.206 198.309L241.131 198.475L241.687 199.638V201.3L244.092 201.134H249.644L250.014 200.137L250.384 199.971L250.014 201.134L250.384 200.967L252.79 200.801L253.715 200.635V200.967H263.153V199.306L263.894 198.974L265.189 198.475H267.225L268.52 199.14H269.075L269.26 200.967H305.717V201.964L269.075 202.13L267.41 202.629H264.634L263.153 202.296L262.968 202.13H238.355L237.43 201.632L237.245 201.134H230.583V200.967H237.43L237.615 200.137L238.726 198.974L240.206 198.309Z" fill="#738DF2"/>
<path d="M213.373 44.473H215.963L217.814 45.1375L218.924 45.9682L220.035 47.6295L220.405 48.7924V50.2876L219.665 52.115L218.369 53.444L216.889 54.2747L215.778 54.607H213.743L212.077 54.1086L210.412 52.9457L209.486 51.6166L209.116 50.6198V48.294L209.856 46.7988L211.152 45.4698L212.262 44.8053L213.373 44.473Z" fill="#183286"/>
<path d="M274.072 151.959L274.257 152.457H278.883L280.364 153.122L281.104 153.953L281.474 154.783V161.595L280.734 162.924L279.438 163.754L278.698 163.92H273.146L272.961 163.754V161.595L273.146 157.94L274.072 151.959Z" fill="#6D7CF9"/>
<path d="M157.67 106.606H159.521L161.741 107.27L163.407 108.267L164.517 109.098L165.812 110.759L166.738 112.752L166.923 113.583V117.736H148.232V117.57L157.67 117.404V106.606Z" fill="#EDB64F"/>
<path d="M254.271 192.329H260.748L261.488 193.325L263.708 194.156L264.079 195.983V196.648H263.708L263.153 200.967H253.715L253.53 197.479L253.16 196.648L252.79 196.482V193.99L254.085 193.658L254.271 192.329Z" fill="#E5F1FD"/>
<path d="M66.8062 123.551L67.5464 123.883V128.867L66.8062 133.685V134.682L76.0591 142.988L76.4292 143.154L77.5396 136.177L77.9097 131.359H78.2798L78.835 132.024V133.685L78.2798 138.336L77.5396 142.49L77.3545 144.151L85.8672 151.793V152.79L84.5718 151.793L81.981 149.467L80.5005 149.633L74.7637 150.63L69.7671 151.128L66.9912 151.295H62.7349L58.8486 150.962L58.1084 150.796L57.9233 150.298L58.4785 149.966L61.6245 150.298H68.2866L73.8384 149.799L79.9453 148.803L80.8706 148.47L71.2476 139.832L69.0269 139.998L63.6602 140.33H61.4395L56.6279 139.998L54.7773 139.666L54.4072 139.167L54.5923 138.835L57.5532 139.167L59.7739 139.333H65.1406L70.1372 139.001L68.8418 137.672L57.1831 127.206L57.3682 126.541L58.1084 126.874L65.5107 133.519L65.8809 133.685L66.0659 131.857L66.436 129.365L66.6211 123.717L66.8062 123.551Z" fill="#01BAA1"/>
<path d="M258.712 159.269H258.897L259.452 163.422L260.192 168.738L260.377 171.729V174.22H253.9L253.345 168.406L253.16 165.914L254.641 164.419L256.861 161.761L258.712 159.269Z" fill="#7A9BF5"/>
<path d="M95.3052 61.9166H97.1558L98.2661 62.5811L98.8213 63.5779V76.0377L98.0811 77.0345L97.1558 77.5328H95.3052L94.0098 76.5361L93.8247 76.0377V63.4118L94.5649 62.415L95.3052 61.9166Z" fill="#FCFDFD"/>
<path d="M279.809 135.512L280.179 135.678V136.011L281.104 136.841L281.474 137.672V144.649L280.549 145.978L279.624 146.643L279.068 146.809H274.257V148.138H274.072L273.702 144.982L273.332 144.815L274.072 144.317L274.627 140.994L274.997 137.007L278.143 136.177L279.809 135.512Z" fill="#6E7DF9"/>
<path d="M119.733 29.6874L120.473 29.8535L120.288 31.8471L119.918 35.5019V39.1568L120.288 42.6455L121.213 46.7988L122.694 51.1181L124.359 54.773L126.21 58.2617L128.616 61.9166L131.021 65.0731L132.687 67.0666V67.2328H131.392L128.801 64.0763L126.395 60.5876L123.989 56.6004L122.509 53.6101V53.1117L121.583 52.9456L118.623 51.6165L115.106 49.623L112.516 48.1278L111.035 46.9649L108.814 45.1375L107.334 43.8084L105.298 41.4826L103.818 39.489L104.003 38.6584L104.743 38.9907L106.964 41.8149L108.814 43.6423L110.11 44.9713L111.59 46.1342L113.996 47.7955L114.921 48.1278V48.4601L115.847 48.7923L118.993 50.6198L121.398 51.7827H121.769L120.103 46.9649L119.548 45.1375L118.993 41.8149L118.808 39.6552V35.1697L119.178 31.6809L119.548 29.8535L119.733 29.6874Z" fill="#006F5B"/>
<path d="M283.14 34.6714H345.689L347.355 35.0036L348.465 35.6682L349.576 36.8311L349.946 37.8279L349.391 37.6617L348.465 36.3327L347.54 35.6682L346.8 35.3359H282.955L281.659 35.8343L280.549 37.1633L280.179 38.1601L279.994 67.2329H279.253V37.8279L279.809 36.6649L280.919 35.502L282.399 34.8375L283.14 34.6714Z" fill="#87A0F8"/>
<path d="M306.457 132.688L307.012 132.854L307.197 137.672L307.752 141.327H308.123L314.785 135.346L315.34 135.512L314.97 136.177L304.051 145.978V146.145L307.938 146.477H313.304L316.45 146.145H317.561L317.375 146.809L315.525 147.141L313.674 147.307H307.382L303.866 146.975H302.941L294.613 154.451V154.617L299.425 155.448L303.681 155.946L306.087 156.112H310.898L314.415 155.946V156.611L311.083 156.943H305.717L300.35 156.445L295.168 155.614L293.503 155.448L293.133 155.614L293.318 154.451L294.243 153.62L294.983 153.288L295.354 152.624L297.204 151.128L297.574 150.63L297.389 148.969L296.649 144.649L296.279 140.33L297.019 139.665L297.204 140.33L297.574 144.317L298.314 148.636L298.5 149.799L299.98 148.636L306.827 142.49L306.642 140.496L306.272 138.004V132.854L306.457 132.688Z" fill="#01BAA1"/>
<path d="M64.7705 93.6475L65.5107 93.8136L68.1016 96.8039L70.6924 99.9604L71.4326 100.791L71.6177 97.8007L71.8027 97.3023L72.543 97.4685L72.728 102.286L77.1694 107.602L79.02 109.762L83.8315 115.41V115.743H84.2017V113.251L84.7568 106.107L84.9419 105.277H85.6821V107.935L85.127 115.244V117.072L85.8672 117.902V119.231L85.127 118.567L82.3511 115.244L80.8706 113.583L70.6924 113.417L70.5073 112.752L70.6924 112.586L79.9453 112.42L76.9844 108.931L76.7993 108.599L74.0234 108.433L68.1016 108.267L67.7314 108.101L67.9165 107.436H75.689L73.0981 104.28L70.5073 101.289L67.7314 97.9668L65.8809 95.8072L64.5854 94.312L64.7705 93.6475Z" fill="#00917C"/>
<path d="M156.93 122.056L158.595 122.222L159.706 122.886L160.446 123.717L160.816 124.714L160.631 126.209L159.891 127.206L158.965 127.87H158.595L159.15 129.864L160.261 134.682L160.076 135.346L159.891 135.512H154.894L154.709 135.346L154.894 133.519L156.004 128.701L156.56 127.704L157.3 126.873L157.485 125.711L156.93 124.714L156.189 124.381L154.524 124.215L154.709 123.219L156.189 122.222L156.93 122.056Z" fill="#7A9BF5"/>
<path d="M227.252 133.186L227.622 133.353L227.437 135.844V136.509L224.846 137.34H196.717L197.087 135.844L222.996 135.678L225.031 135.014L226.142 134.349L227.252 133.186Z" fill="#6E7DF9"/>
<path d="M114.921 120.561H116.772L118.993 121.557L119.918 122.222L121.028 123.717L121.583 125.378V126.707L121.028 128.535L119.918 130.03L118.252 131.027L117.512 131.359H116.957L116.217 128.036L115.662 125.877L114.921 121.89V120.561Z" fill="#FBFCFD"/>
<path d="M247.238 195.651L248.164 195.817L248.534 195.984L248.904 196.814L249.644 196.98H251.865L252.605 196.814V196.482L253.345 196.648L253.715 197.479V200.635L252.79 200.967L250.014 201.134V200.469L249.644 201.134L241.687 201.3L241.316 199.14L240.946 198.309L241.131 198.143L244.092 197.811L245.388 198.475L245.203 197.977L244.462 197.479L245.203 197.313L246.313 197.977V197.479L245.573 196.98V196.648L246.313 196.814L247.423 197.479L246.868 196.648L246.498 196.482L246.683 195.984L247.238 195.651Z" fill="#0E1761"/>
<path d="M296.094 140.33L296.464 140.828L297.019 145.978L297.759 149.799V150.63L296.464 151.959L295.168 152.956L293.873 154.285L293.318 154.451L293.133 154.783V143.32L294.428 142.157L296.094 140.33Z" fill="#00917C"/>
<path d="M256.676 102.452H262.413L263.894 102.951L264.819 103.948L265.374 105.609V107.769L264.264 107.602L263.708 107.935L263.153 109.264L262.228 108.931L261.673 105.941L261.303 105.443L260.192 105.277L257.602 105.775H256.491L256.676 107.104H257.787L257.972 107.935L256.861 108.101L256.121 107.436L255.381 105.277V104.114L256.121 102.785L256.676 102.452Z" fill="#1C2489"/>
<path d="M252.235 138.004H253.16L252.975 139.167L251.865 142.656L252.605 142.988L250.384 146.975L250.754 147.141L250.199 147.307L250.014 146.809L248.534 145.978L247.793 144.815L247.608 143.32V138.336L247.793 138.17L252.235 138.004Z" fill="#6E7CF9"/>
<path d="M253.9 174.22H260.377L260.562 179.37L260.377 179.537H254.271L254.085 179.37L253.9 174.22Z" fill="#1C2488"/>
<path d="M135.093 62.9135L135.278 63.2457H140.274L141.94 63.7441L143.05 64.4086L144.346 65.7377L144.901 67.2328H135.093V62.9135Z" fill="#D1E0FE"/>
<path d="M308.123 106.606L308.863 106.772L308.123 107.935L306.272 110.094L303.311 113.583L300.905 116.407L299.055 118.733L305.902 118.567V119.231L305.162 119.398L299.055 119.564L297.944 119.896L295.539 122.886L303.311 123.052L303.496 123.717L303.311 123.883L294.428 124.049L293.318 125.378H293.133V124.215L295.724 121.225L298.5 117.902L300.35 115.743L301.646 114.248L301.831 109.928H302.571L302.756 112.919L304.421 110.925L306.272 108.765L308.123 106.606Z" fill="#00917C"/>
<path d="M216.519 44.8053L217.444 44.9714L218.924 45.9682L220.035 47.6295L220.405 48.7924V50.2876L219.665 52.115L218.369 53.4441L216.889 54.2747L215.778 54.607H213.743L212.077 54.1086L210.412 52.9457L209.486 51.6166V51.1182H209.856L210.042 51.4505L211.892 51.6166V50.2876H212.262L212.447 51.4505H216.148L215.963 51.9489H216.704L216.519 52.7795V53.2779L217.259 51.9489H218.924L218.739 51.7828L217.444 51.6166L217.629 49.7892H219.85L219.479 47.7956L219.294 47.4634L217.444 47.2972L217.629 48.7924H217.259L216.889 47.2972L214.113 47.4634V47.1311H213.002V46.965H216.704L216.333 45.8021L216.889 45.9682L217.259 46.965L218.554 46.7989V46.4666L217.259 45.4698L216.148 45.1376L216.519 44.8053Z" fill="#203A8E"/>
<path d="M250.939 127.538L252.42 127.87L254.085 128.036L254.456 129.199L254.826 130.861L254.641 132.688L253.9 135.678H250.569L250.014 133.02L250.199 130.861L250.754 127.87L250.939 127.538Z" fill="#B2592E"/>
<path d="M313.859 71.7183H316.08L317.561 72.5489L318.486 73.5457L318.671 73.878V76.3699L317.746 77.5328L317.19 77.8651H315.895L315.525 77.2006L314.415 77.8651H312.934L312.194 77.2006V75.5393L312.934 74.5425L314.044 73.7118H316.635L316.45 75.207L316.265 77.2006L317.375 76.8683L317.746 75.8715V74.0441L317.005 73.0473L315.895 72.5489H313.859L312.564 73.0473L311.639 74.0441L311.269 74.7086V77.0344L311.824 78.1973L312.749 78.8619L313.119 79.028H315.34L316.265 78.8619L316.45 79.5264L315.155 79.8586H313.119L311.639 79.1941L310.528 77.8651L310.158 77.0344V75.3731L310.898 73.5457L312.194 72.3828L313.859 71.7183Z" fill="#ECF1FE"/>
<path d="M326.999 60.0892L327.739 60.4215L330.7 63.0796L332.18 64.2425L332.735 64.7409L332.55 65.4054L328.109 69.3925H326.999V60.0892Z" fill="#1C2489"/>
<path d="M269.26 201.134H305.717V201.964H269.26V201.134Z" fill="#060A24"/>
<path d="M302.941 60.0892L303.311 60.2554V69.3925H301.46L299.425 67.2328L297.944 65.5715L297.574 64.7409L299.795 62.7473L301.275 61.5844L302.941 60.0892Z" fill="#1C2488"/>
<path d="M272.591 145.148L273.146 145.314L272.961 146.975L272.406 156.611L271.851 162.093L270.556 173.722L270.371 174.553H270.186V172.559L271.296 162.259L271.851 156.943L272.036 154.617V152.125L270.926 151.461L270 150.796L268.89 149.301L268.52 148.304V146.144L269.075 145.812L271.481 145.48L272.591 145.148Z" fill="#101964"/>
<path d="M250.199 118.401H252.05L251.865 119.232L250.939 121.225L250.384 124.382V127.206L250.939 127.372L250.384 130.861L250.014 132.356L249.644 131.691L247.608 122.222L247.423 121.89L247.979 120.062L248.719 119.065L250.199 118.401Z" fill="#6F7DF9"/>
<path d="M128.061 62.9135L128.801 63.7441L131.021 66.5683L131.392 67.2328H124.544L122.139 64.5748L121.213 63.578V63.2457H128.061V62.9135Z" fill="#CFDEFE"/>
<path d="M240.206 198.309L241.131 198.475L241.687 199.638V201.3L244.092 201.134H249.644L250.014 200.137L250.384 199.971L250.014 201.134L250.384 200.967L252.79 200.801L253.715 200.635V200.967H262.968V201.134H253.9L253.715 201.632L252.235 201.964L247.793 202.13H238.355L237.43 201.632L237.245 201.134H230.583V200.967H237.43L237.615 200.137L238.726 198.974L240.206 198.309Z" fill="#7793F3"/>
<path d="M259.452 144.982H260.748L261.673 145.314L261.488 146.643L259.822 152.624L259.082 156.611V160.1H258.897L258.527 158.77V155.614L258.157 154.783L257.602 154.119L257.417 153.62V149.799L258.157 146.975L258.527 146.311L258.897 146.145L259.452 144.982Z" fill="#0D165E"/>
<path d="M345.875 170.067L346.985 170.4L352.537 172.725V173.224L346.06 177.211H345.875V170.067Z" fill="#B7CDFF"/>
<path d="M276.478 118.401H279.068L280.549 119.232L281.289 120.228L281.474 120.727V127.538L280.919 128.535L280.549 128.369L279.624 126.209L278.513 122.72L276.848 119.232L276.478 118.401Z" fill="#6F7EF9"/>
<path d="M282.955 35.1697H346.8L348.28 36.0003L349.206 36.9971L349.576 37.6616L349.761 39.6552V41.4826L349.391 42.1471H349.206L349.021 37.8278L348.095 36.4987L346.615 35.6681H282.77L281.474 36.0003L282.029 35.5019L282.955 35.1697Z" fill="#6E7DFA"/>
<path d="M253.53 49.9553H255.011L256.121 50.4537L257.046 51.4505L257.231 51.9489V53.2779L256.491 54.4408L255.381 55.1054L253.715 55.2715L252.235 54.607L251.495 53.6102L251.31 52.115L252.05 50.786L252.975 50.1215L253.53 49.9553Z" fill="#FCCC5B"/>
<path d="M136.018 43.3101H136.758L136.573 44.8052L135.648 48.4601L135.093 52.6133V57.5972L135.463 60.4214L135.278 62.2489L135.093 67.2328H134.167L133.982 66.9005V63.744L134.353 60.5876L133.982 58.4279V52.1149L134.538 48.294L135.648 44.1407L136.018 43.3101Z" fill="#006F5C"/>
<path d="M117.327 120.893L118.438 121.225L119.918 122.222L121.028 123.717L121.583 125.378V126.707L121.028 128.535L119.918 130.03L119.178 130.196L118.067 125.544L117.327 121.225V120.893Z" fill="#FCCD5D"/>
<path d="M267.41 193.824H268.335L268.15 196.482H268.52L268.89 197.645V199.638L267.78 198.808L267.225 198.642H265.189L263.708 199.306L263.338 199.638V197.811L263.708 196.648H264.079L263.708 195.153V194.156L267.41 193.824Z" fill="#0F1966"/>
<path d="M281.104 36.0004L281.474 36.1665L280.549 37.1633L280.179 38.1601L279.994 67.2328H279.253V38.4923L279.809 37.6617L280.919 36.1665L281.104 36.0004Z" fill="#7A9BF6"/>
<path d="M258.712 49.4569L259.822 49.623L261.118 50.6198L261.488 51.4505V59.0924L261.118 59.9231L260.562 59.757L258.157 56.1021L259.267 54.4408L259.637 53.1118L259.452 51.2843L258.712 49.7892V49.4569Z" fill="#FDCC5B"/>
<path d="M227.992 132.356H230.583L231.138 132.688V133.186L230.768 133.352L231.508 133.851L231.323 134.515V135.014L231.693 135.678L231.138 136.177L231.508 136.509V137.007L230.028 137.173L227.622 136.675L227.252 136.343V134.682L227.437 133.02L227.992 132.356Z" fill="#B2592E"/>
<path d="M204.305 127.04H204.86L205.415 128.867H205.785L205.97 128.036L206.34 127.04L207.266 127.206L207.821 127.538L207.451 128.202L206.525 129.365L208.746 129.033V130.528L206.525 130.362L207.821 131.691V132.023L206.896 132.522H206.34L205.6 130.694L204.675 132.522L203.75 132.19L203.379 132.023L203.75 131.193L204.675 130.196L202.454 130.528V129.033L204.675 129.365L203.564 128.036L203.379 127.538L204.305 127.04Z" fill="#FECE5C"/>
<path d="M211.522 127.04L212.077 127.206L212.817 128.701L213.558 127.04L214.668 127.372L215.038 127.538L214.668 128.202L213.743 129.199V129.365L215.963 129.033V130.362L215.593 130.528L213.743 130.362L215.038 131.691V132.023L213.928 132.522H213.558L212.817 130.861L212.447 131.359L211.892 132.522L210.782 132.19L210.597 131.691L211.892 130.196L209.671 130.528V129.033L211.707 129.199L210.597 127.87V127.538L211.522 127.04Z" fill="#FECE5C"/>
<path d="M197.087 127.04H197.643L198.383 128.867L199.308 127.04L200.233 127.372L200.604 127.538L200.233 128.202L199.308 129.365L201.529 129.033V130.528L199.308 130.362L200.604 131.691V132.023L199.678 132.522L199.123 132.356L198.383 130.694L197.643 132.356H196.902L196.162 132.023L196.532 131.359L197.458 130.362L195.422 130.528L195.237 130.362V129.033L197.458 129.199L196.162 127.87V127.538L197.087 127.04Z" fill="#FECE5C"/>
<path d="M182.838 127.04H183.208L183.948 128.701L184.318 128.202L184.874 127.04L185.984 127.372L186.354 127.704L184.874 129.365L187.094 129.033V130.528L184.874 130.196L185.984 131.359L186.354 131.857L185.244 132.522H184.874L184.133 130.861L183.763 131.193L183.208 132.522L182.468 132.356L181.913 132.023L182.098 131.359L183.023 130.362L180.987 130.528V129.033L183.023 129.365L182.283 128.369L181.728 127.704L182.838 127.04Z" fill="#FECE5C"/>
<path d="M218.739 127.04H219.109L219.85 128.701L220.22 128.202L220.775 127.04L221.885 127.372L222.07 128.036L220.775 129.365L222.996 129.033V130.528L220.775 130.196L221.885 131.359L222.255 131.857L221.145 132.522H220.775L220.035 130.861L219.665 131.193L219.109 132.522L217.999 132.19L217.629 131.691L218.924 130.362L216.889 130.528V129.033L218.924 129.199L217.629 127.87L218.369 127.206L218.739 127.04Z" fill="#FECE5C"/>
<path d="M190.055 127.04H190.425L191.166 128.867L192.091 127.04L193.201 127.372V128.036L191.906 129.532L194.126 129.033H194.312V130.528L192.091 130.362L193.386 131.691V132.023L192.461 132.522L191.906 132.356L191.166 130.694L190.425 132.522L189.685 132.356L188.945 132.023L189.315 131.359L190.24 130.362L188.205 130.528V129.033L190.24 129.365L189.13 128.036L188.945 127.538L190.055 127.04Z" fill="#FECE5C"/>
<path d="M332.735 75.5393L333.291 75.7054H332.92V80.5232H330.145L329.219 79.5264L328.849 79.6926L329.219 77.699L330.33 76.37L331.81 75.7054L332.735 75.5393Z" fill="#6462FB"/>
<path d="M332.92 75.7054L334.401 75.8716L335.511 76.5361L336.622 77.8651L336.807 78.3635V80.3571H332.92V75.7054Z" fill="#E1EDFC"/>
<path d="M332.18 74.7086H333.476L335.141 75.207L336.251 75.8715L337.362 77.2006L337.732 78.1973V80.357L336.807 80.5232L336.622 78.3635L335.881 77.0344L334.771 76.2038L333.291 75.7054L331.255 76.0377L329.959 76.8683L329.219 78.1973L329.034 80.357H327.924V78.6957L328.479 77.0344L329.774 75.7054L330.885 75.0409L332.18 74.7086Z" fill="#1E268C"/>
<path d="M328.294 37.3293H329.774L330.885 37.9939L331.255 38.6584V39.9874L330.515 40.9842L329.959 41.3165H328.109L326.999 40.4858L326.813 40.1536V38.6584L327.554 37.6616L328.294 37.3293Z" fill="#FECE5C"/>
<path d="M342.914 37.3293H344.209L345.319 37.9939L345.689 38.4923V40.1536L344.764 41.1503L344.394 41.3165H342.543L341.618 40.6519L341.248 39.9874V38.6584L341.803 37.8277L342.914 37.3293Z" fill="#B2592E"/>
<path d="M335.511 37.3293H336.807L337.732 37.8277L338.472 38.8245L338.287 40.3197L337.362 41.1503L336.992 41.3165H335.326L334.401 40.8181L333.846 39.6552L334.031 38.4923L334.771 37.6616L335.511 37.3293Z" fill="#FECE5C"/>
<path d="M213.373 44.473H215.963L216.704 44.8053L216.519 44.9714L218.184 45.9682L218.924 46.7988L218.554 46.965H217.259L216.704 45.9682L216.333 45.8021L216.704 46.4666V46.965H212.632L212.817 45.9682H212.447L212.262 46.7988L212.077 46.965H210.782L210.412 46.6327L211.707 45.3037L212.262 44.8053L213.373 44.473Z" fill="#193486"/>
<path d="M84.9419 158.77H85.8672V159.435L84.2017 159.933L79.5752 160.764L75.1338 161.262L72.9131 161.428H68.6567L68.4717 160.93L68.6567 160.598L73.6533 160.432L78.6499 159.933L83.4614 159.103L84.9419 158.77Z" fill="#01BAA1"/>
<path d="M224.846 53.7762H225.957L226.697 55.9359L227.622 53.7762H228.547L229.288 55.4375L229.473 55.9359L230.213 53.9424L230.398 53.7762H231.323L230.953 55.2714L230.213 57.265L230.028 57.4311H228.917L228.177 55.6037L227.807 56.1021L227.252 57.4311H226.142L225.401 55.7698L224.846 53.7762Z" fill="#1F2F8D"/>
<path d="M238.355 53.7762H239.466L240.206 55.9359L241.131 53.7762H242.057L242.797 55.4375L242.982 55.9359L243.907 53.7762H244.833L244.462 55.2714L243.722 57.265L243.537 57.4311H242.427L241.687 55.6037L240.946 57.0988L240.761 57.4311H239.651L238.911 55.7698L238.355 53.7762Z" fill="#1E2E8C"/>
<path d="M231.508 53.7762H232.619L233.544 55.9359L234.284 53.9424L234.469 53.7762H235.395L236.32 55.7698L237.06 53.7762H238.17L236.875 57.4311H235.765L234.839 55.4375L234.099 57.4311H232.804L231.508 53.7762Z" fill="#1E2E8C"/>
<path d="M252.05 193.99H252.79V196.482L252.235 196.98L251.865 197.146H249.644L248.719 196.814L248.349 195.984L248.164 194.156L252.05 193.99Z" fill="#B2592E"/>
<path d="M108.259 59.9231L109.185 60.2554L110.85 61.5844L113.996 63.578L117.512 65.4054L121.398 67.0667V67.2328H118.993L115.477 65.5715L112.331 63.7441L109.37 61.7505L108.074 60.7537L108.259 59.9231Z" fill="#006D5A"/>
<path d="M133.982 63.0796L134.167 63.7441V67.2328H132.687L130.281 64.4086L129.541 63.2457L133.982 63.0796Z" fill="#CFDDFE"/>
<path d="M268.89 185.85H269.075V188.175L268.705 191.664L268.52 192.495H269.26L269.075 193.492L267.41 193.99L266.299 194.156H263.523L261.488 193.492L260.933 192.993V191.83H261.303V192.163L262.598 192.495L263.338 192.827H267.225L268.335 192.661V190.169L268.705 186.514L268.89 185.85Z" fill="#202785"/>
<path d="M332.18 82.3506H333.476L334.216 83.0151V84.178L333.846 84.6764H333.476L333.846 86.8361L333.661 87.6667H331.995L331.81 87.3345L331.995 84.6764L331.44 84.178V83.0151L332.18 82.3506Z" fill="#222991"/>
<path d="M73.6533 120.727H85.8672V121.557H73.8384L73.6533 120.727Z" fill="#00917C"/>
<path d="M272.591 145.148L273.146 145.314L272.961 146.975L272.406 156.611L271.851 162.093L270.556 173.722L270.371 174.553H270.186V172.559L271.296 162.259L271.851 156.943L272.036 154.617V152.125L271.666 151.793L272.221 151.627L272.591 145.48L272.221 145.314L272.591 145.148Z" fill="#3036A9"/>
<path d="M211.892 50.2876H212.262L212.447 51.4505H216.148L215.963 51.9489H212.632L213.558 53.4441V53.7763L214.853 54.1086V54.4408L215.223 54.607H213.743L212.077 54.1086L210.412 52.9457L209.486 51.6166V51.1182H209.856L210.042 51.4505L211.892 51.6166V50.2876Z" fill="#1B3987"/>
<path d="M95.4902 79.1942H96.9707L97.896 79.8587L98.0811 80.191V81.52L97.1558 82.3507L96.7856 82.5168H95.6753L94.75 81.8523L94.3799 81.0216L94.5649 80.0249L95.4902 79.1942Z" fill="#F6F8FD"/>
<path d="M217.444 47.2972H219.294L219.85 48.294L220.035 49.4569L219.85 49.7892H217.629V51.1182L217.444 51.6166H218.739L219.109 51.9489L218.184 52.115L217.259 51.9489L217.074 52.7795L216.519 53.4441H216.148L216.704 51.9489H215.963L216.148 51.4505L216.889 51.2844L217.074 49.9553L214.113 49.7892V49.6231L216.704 49.4569L217.074 49.2908L217.259 48.7924H217.629L217.444 47.2972Z" fill="#2C43A2"/>
<path d="M212.447 47.2972H216.889L217.259 48.4602V49.2908H212.262V47.9618L212.447 47.2972Z" fill="#DEEAFD"/>
<path d="M293.133 164.087L294.798 164.253L298.5 164.751L300.535 164.917L305.162 165.083L305.347 165.748H300.165L295.539 165.249L293.133 164.751V164.087Z" fill="#01BAA1"/>
<path d="M212.262 49.623L217.259 49.7892L217.074 51.2843L216.889 51.4505H212.447L212.262 51.1182V49.623Z" fill="#FDCD5B"/>
<path d="M253.9 201.134H262.968V201.964H252.235V201.798L253.715 201.466L253.9 201.134Z" fill="#070B28"/>
<path d="M252.42 142.988L253.715 143.154L255.381 143.653L254.456 144.317L252.05 146.477L251.125 146.975H250.384L250.754 145.978L252.235 143.154L252.42 142.988Z" fill="#0F1964"/>
<path d="M267.41 193.824H268.335L268.15 196.482L266.854 195.485H265.559L264.634 195.651L264.264 196.482L263.894 195.984L263.708 194.156L267.41 193.824Z" fill="#B35B2E"/>
<path d="M237.43 127.704H238.726L239.651 128.535V129.698L238.911 130.362L237.615 130.528L236.69 129.864L236.505 128.867L237.06 128.036L237.43 127.704Z" fill="#FCCB5A"/>
<path d="M212.632 51.9489H216.704L216.519 52.7795L215.778 53.7763L215.223 54.1085H214.113L213.188 53.2779L212.632 52.2811V51.9489Z" fill="#FCCC5B"/>
<path d="M216.519 44.8053L217.444 44.9714L218.924 45.9682L220.035 47.6295L220.405 48.7924V49.9553L219.85 50.2876L219.665 48.294L219.294 47.4634L217.444 47.2972L217.629 48.7924H217.259L216.889 47.2972L214.113 47.4634V47.1311H213.002V46.965H216.704L216.333 45.8021L216.889 45.9682L217.259 46.965L218.554 46.7989V46.4666L217.259 45.4698L216.148 45.1376L216.519 44.8053Z" fill="#183684"/>
<path d="M214.113 44.8053H215.223L216.148 45.6359L216.704 46.4666V46.965H212.632L213.002 45.9682L214.113 44.8053Z" fill="#DCE9FC"/>
<path d="M252.42 198.808H253.715V200.635L252.79 200.967L250.014 201.134L250.199 200.303L251.125 199.472L251.865 198.974L252.42 198.808Z" fill="#0C155D"/>
<path d="M314.6 74.2102H315.525L315.71 74.7086L315.34 76.2038L314.415 77.2005H313.489L313.119 76.8683V75.5392L314.229 74.3763L314.6 74.2102Z" fill="#6765FC"/>
<path d="M293.133 130.196H300.72L300.905 130.861H293.133V130.196Z" fill="#00917C"/>
<path d="M310.713 69.5586V70.057L308.493 72.3828L306.827 74.2102L304.606 76.5361L303.496 77.8651H303.126L302.756 78.5296L301.09 80.357L299.61 82.0183H299.24L298.87 82.6829L298.129 83.3474L298.314 82.6829L299.98 81.0216L301.646 79.1941L305.717 74.8748L307.382 73.0473L309.603 70.7215L310.713 69.5586Z" fill="#D5E0FE"/>
<path d="M27.9438 63.744L29.0542 64.5747L30.3496 65.9037L32.9404 68.3957L34.2358 69.7247L36.4565 71.8844V72.2166H35.9014L34.606 70.8876L31.8301 68.2295L29.9795 66.4021V66.0698H29.6094L28.314 64.7408L27.7588 63.9101L27.9438 63.744Z" fill="#D1E0FE"/>
<path d="M26.8335 64.5747L28.1289 65.5715L29.7944 67.2328L33.8657 71.2199L35.1611 72.5489L34.791 72.8812L32.9404 71.2199L31.645 69.8909L27.2036 65.5715L26.6484 64.7408L26.8335 64.5747Z" fill="#D1E0FE"/>
<path d="M313.304 184.022L314.6 185.019L319.041 189.338L321.077 191.332L321.447 191.996H320.892L318.116 189.338L316.82 188.009L314.6 185.85L313.304 184.521V184.022Z" fill="#D1E0FE"/>
<path d="M253.53 117.736H253.715V123.219L254.085 126.541L254.271 127.87L253.715 127.206L253.16 125.378L252.975 124.215V120.727L253.53 117.736Z" fill="#EDB64F"/>
<path d="M29.0542 63.2457L29.7944 63.578L31.46 65.0732L32.7554 66.4022L35.7163 69.2264L37.0117 70.5554L37.3818 70.8877V71.3861L36.6416 71.0538L35.3462 69.7248L32.5703 67.0667L31.2749 65.7377L29.0542 63.578V63.2457Z" fill="#D1E0FE"/>
<path d="M314.415 183.358L315.155 183.69L317.931 186.348L319.226 187.677L321.817 190.169L322.742 191.332H322.187L320.892 190.169L319.596 188.84L317.375 186.68L315.71 185.019L314.415 183.69V183.358Z" fill="#D1E0FE"/>
<path d="M315.71 182.859L316.45 183.025L318.486 185.019L320.151 186.68L322.372 188.84L323.667 190.169V190.501L322.927 190.169L321.632 189.006L320.336 187.677L317.746 185.185L315.71 183.192V182.859Z" fill="#D1E0FE"/>
<path d="M260.748 147.64H260.933L260.748 149.135L259.452 154.285L259.082 156.611V160.099H258.897L258.527 158.77V155.614L258.342 154.783H258.712L259.267 152.624L260.562 147.806L260.748 147.64Z" fill="#2C32A2"/>
<path d="M270.371 116.906L270.556 117.57L270 120.228V121.89L270.556 124.381L271.481 126.209L271.296 126.541L270.186 125.046L269.445 123.052L269.26 122.222V120.062L270 117.57L270.371 116.906Z" fill="#EDB64F"/>
<path d="M25.9082 65.7377L26.6484 66.0699L29.2393 68.5619L33.3105 72.549L33.4956 73.0474L32.7554 72.8813L30.1646 70.3893L28.8691 69.0603L26.2783 66.5683L25.9082 65.7377Z" fill="#D1E0FE"/>
<path d="M30.7197 62.9135L31.46 63.2457L34.4209 66.0699L36.0864 67.7312L38.1221 69.7248V70.3893L37.1968 69.7248L35.9014 68.3957L33.3105 65.9038L30.7197 63.2457V62.9135Z" fill="#D1E0FE"/>
<path d="M126.025 51.7827L126.95 52.4472L128.246 53.7763L130.836 56.2682L132.502 57.9295L133.427 58.9263L132.872 59.0924L130.096 56.4344L128.061 54.4408L126.395 52.7795L125.84 51.9488L126.025 51.7827Z" fill="#D1E0FE"/>
<path d="M209.486 49.623H211.707L211.892 50.2876V51.6166H210.042L209.486 50.6198V49.623Z" fill="#D8E3FD"/>
<path d="M312.379 185.185L313.119 185.517L314.415 186.68L315.71 188.009L318.301 190.501L319.966 192.163V192.495L319.226 192.163L317.375 190.501L316.08 189.172L313.489 186.68L312.379 185.517V185.185Z" fill="#D1E0FE"/>
<path d="M126.765 50.7859L127.505 51.1181L129.726 53.2778L131.392 54.9391L133.427 56.9327L133.797 57.4311V57.7633L133.057 57.4311L130.836 55.2714L129.171 53.6101L126.95 51.4504L126.58 50.952L126.765 50.7859Z" fill="#CFDEFE"/>
<path d="M217.444 47.2972H219.294L219.85 48.294V49.2908H217.629L217.444 47.2972Z" fill="#E0ECFD"/>
<path d="M210.042 47.2972H211.892V48.7924L211.707 49.2908H209.486L209.671 47.9618L210.042 47.2972Z" fill="#DFECFD"/>
<path d="M251.125 190.833H251.31L251.495 193.159L254.085 192.827V193.824L252.05 194.156H250.939V193.658L247.793 193.492L247.053 193.159H249.089L251.125 193.325V190.833Z" fill="#1B237D"/>
<path d="M317.375 182.693L318.116 182.859L319.596 184.188L320.892 185.517L323.482 188.009L324.408 189.172H323.853L322.372 187.843L321.077 186.514L318.486 184.022L317.375 182.693Z" fill="#D1E0FE"/>
<path d="M245.203 192.661L247.053 192.993V193.325L250.939 193.658V194.156H247.608L245.573 193.658L245.203 192.661Z" fill="#161F6F"/>
<path d="M84.7568 128.535H85.8672V129.365L82.3511 129.698H81.0557V129.033L81.2407 128.867L84.7568 128.535Z" fill="#00917C"/>
<path d="M217.629 49.7892H219.85L219.665 51.1182L219.294 51.6166H217.444L217.629 49.7892Z" fill="#FBC959"/>
<path d="M309.048 112.752L310.343 113.749L313.119 116.407L314.785 118.069L315.155 118.733H314.6L312.009 116.241L310.343 114.58L309.418 113.583L309.048 113.417V112.752Z" fill="#CFDEFE"/>
<path d="M311.824 186.514L312.564 186.846L315.525 189.671L317.561 191.664L318.116 192.495L317.375 192.329L314.6 189.671L312.934 188.009L311.824 186.846V186.514Z" fill="#D1E0FE"/>
<path d="M125.47 53.1118L126.395 53.7763L127.69 55.1054L130.281 57.5973L131.577 58.9264L131.021 59.0925L128.986 57.2651L127.69 55.936L125.47 53.7763V53.1118Z" fill="#D1E0FE"/>
<path d="M25.5381 67.0667L26.6484 67.8973L27.9438 69.2263L30.5347 71.7183L31.645 73.0473L30.9048 72.8812L29.4243 71.5522L28.1289 70.2231L25.9082 68.0634L25.5381 67.7312V67.0667Z" fill="#D1E0FE"/>
<path d="M309.603 111.589L310.343 111.922L312.009 113.417L313.304 114.746L315.525 116.906L315.34 117.57L314.97 116.906H314.6L313.304 115.577L311.083 113.417L309.603 111.922V111.589Z" fill="#D1E0FE"/>
<path d="M32.7554 62.9135L34.0508 63.9102L35.3462 65.0731L36.6416 66.4022L38.6772 68.3957V68.8941L37.937 68.5619L36.6416 67.2328L34.0508 64.7409L32.7554 63.4118V62.9135Z" fill="#D1E0FE"/>
<path d="M71.2476 114.912L74.7637 115.909L74.3936 116.241L71.8027 116.74L71.0625 116.573L71.2476 114.912Z" fill="#C9D8FE"/>
<path d="M308.678 114.414L309.418 114.746L312.194 117.404L313.859 119.065L314.229 119.398V119.896L313.489 119.564L309.418 115.577L308.678 114.912V114.414Z" fill="#D0DEFE"/>
<path d="M211.892 47.2972L212.262 47.4634V49.2908H217.074L216.704 49.6231H212.262V50.2876H211.707V49.6231L209.486 49.4569V49.2908H211.707L211.892 47.2972Z" fill="#0D4B72"/>
<path d="M319.226 182.693L320.151 182.859L321.817 184.521L324.038 186.68L324.593 187.345L324.408 187.843L323.112 186.68L321.817 185.351L319.226 182.859V182.693Z" fill="#D1E0FE"/>
<path d="M127.69 49.9553L128.431 50.1215L130.096 51.7828L132.132 53.7763L132.687 54.1086L132.872 54.9392L132.132 54.607L129.541 52.115L127.875 50.4537L127.69 49.9553Z" fill="#CFDEFD"/>
<path d="M308.308 115.909L309.048 116.241L311.269 118.401L313.304 120.394V120.727L312.564 120.561L311.269 119.232L308.678 116.74L308.308 116.407V115.909Z" fill="#CFDEFE"/>
<path d="M107.704 65.9038L112.516 67.0667V67.2328H108.259L107.704 66.2361V65.9038Z" fill="#C7D5FE"/>
<path d="M258.527 146.311L258.712 146.975L257.972 149.633L257.787 150.796V153.122L258.342 154.285L258.157 154.783L257.602 154.119L257.417 153.62V149.799L258.157 146.975L258.527 146.311Z" fill="#2F34A6"/>
<path d="M217.259 50.7859H217.629L217.444 51.6165H218.739L219.109 51.9488L218.184 52.1149L217.259 51.9488L217.074 52.7794L216.519 53.444H216.148L216.704 51.9488H215.963L216.148 51.4504L216.889 51.2843L217.259 50.7859Z" fill="#263398"/>
<path d="M261.118 111.257L261.303 111.756L260.377 112.752L259.267 112.919L258.527 111.922V111.756L260.748 111.423L261.118 111.257Z" fill="#E6F1FD"/>
<path d="M210.597 51.9489H212.077L213.188 53.9424L212.077 53.6102L210.597 52.4472V51.9489Z" fill="#DCDFE7"/>
<path d="M311.824 188.175L312.934 189.006L314.229 190.335L316.08 192.163L315.525 192.329L313.859 190.833L312.564 189.504L311.824 188.674V188.175Z" fill="#D1E0FE"/>
<path d="M307.938 117.404L308.678 117.736L310.713 119.73L312.009 121.059V121.391L311.269 121.059L309.603 119.564L308.308 118.235L307.938 117.902V117.404Z" fill="#CFDEFE"/>
<path d="M213.002 44.9714V45.4698L212.077 46.965H210.782L210.412 46.6327L211.892 45.4698L213.002 44.9714Z" fill="#D6E2FD"/>
<path d="M216.333 45.1376L217.259 45.3037L218.924 46.6327L218.554 46.965H217.259L216.333 45.1376Z" fill="#D7E3FD"/>
<path d="M125.47 55.1053L126.765 56.1021L129.356 58.5941L129.541 58.9263L128.616 58.7602L126.58 56.7666L125.47 55.4376V55.1053Z" fill="#D1E0FE"/>
<path d="M217.259 51.9489L218.924 52.115L218.369 52.9456L216.519 53.9424V53.444L217.259 51.9489Z" fill="#FAC859"/>
<path d="M311.639 111.756L312.379 111.922V112.254H312.749L315.34 114.912L315.525 115.577L314.229 114.58L311.639 112.088V111.756Z" fill="#D1E0FE"/>
<path d="M25.5381 68.894L27.9438 71.0537L29.2393 72.3828V72.8812L28.6841 72.715L27.3887 71.386L25.7231 69.7247L25.5381 68.894Z" fill="#D1E0FE"/>
<path d="M265.374 196.482H267.04L267.78 196.814V197.313H265.004L264.264 197.479L264.449 196.814L265.374 196.482Z" fill="#6E84F1"/>
<path d="M265.559 197.313H266.854L267.78 197.645V198.143H265.189L264.264 198.309L264.449 197.645L265.559 197.313Z" fill="#6E84F0"/>
<path d="M34.791 63.2457L35.7163 63.578L37.3818 65.2393L38.4922 66.4022L38.3071 66.9006L37.0117 65.7377V65.4054H36.6416L35.3462 64.0764L34.791 63.2457Z" fill="#D1E0FE"/>
<path d="M319.781 69.5586H320.151L323.482 73.2135L324.593 74.3764L324.408 74.7086L322.557 72.8812L320.892 71.0538L319.781 69.8909V69.5586Z" fill="#D6E1FD"/>
<path d="M272.591 145.148L273.146 145.314L272.961 146.975L272.776 150.796H272.591L272.406 149.965V147.972L272.591 145.48L272.221 145.314L272.591 145.148Z" fill="#272E99"/>
<path d="M249.459 129.531L250.384 129.698L250.199 131.857L249.829 132.356L249.459 130.861V129.531Z" fill="#768FF3"/>
<path d="M129.171 49.2908L130.466 50.2876L131.577 51.4505H131.947L132.132 52.4472L130.836 51.4505L128.986 49.623L129.171 49.2908Z" fill="#CDDBFE"/>
<path d="M209.671 47.4634L209.856 47.9618L209.486 49.4569H211.337V49.6231H209.486L209.856 51.1182H209.301L209.116 50.6198V48.294L209.671 47.4634Z" fill="#16297C"/>
<path d="M216.333 53.2778L216.519 53.7762L217.629 53.444L217.259 54.1085L215.778 54.6069L214.853 54.4407V54.1085L216.333 53.2778Z" fill="#213291"/>
<path d="M346.8 35.0035L347.725 35.1697L349.206 36.3326L349.946 37.4955V37.8277L349.391 37.6616L348.465 36.3326L347.54 35.6681L346.8 35.3358V35.0035Z" fill="#82A0F7"/>
<path d="M307.567 118.733L307.752 119.065H308.123L309.418 120.394L310.343 121.391L309.973 121.723L307.752 119.564L307.567 118.733Z" fill="#CFDEFE"/>
<path d="M251.125 190.833H251.31V193.325L252.05 193.492L251.125 193.658L247.793 193.492L247.053 193.159H249.089L251.125 193.325V190.833Z" fill="#4C4ED5"/>
<path d="M212.262 49.623H214.113L213.188 50.4537L212.632 51.4505L212.262 51.1182V49.623Z" fill="#D7E0FD"/>
<path d="M259.822 107.104H261.118L261.303 107.769L260.933 108.101L259.637 107.935V107.27L259.822 107.104Z" fill="#1E268B"/>
<path d="M324.593 74.7086H324.963L326.628 76.536L328.109 78.1973H327.554L325.333 75.8715L324.593 75.0409V74.7086Z" fill="#CED9FE"/>
<path d="M312.009 172.725H313.674V173.556H312.194L312.009 172.725Z" fill="#B7CDFF"/>
<path d="M58.8486 63.9102L59.5889 64.2424L60.144 64.5747L59.7739 65.4053L58.4785 64.7408L58.8486 63.9102Z" fill="#B7CDFF"/>
<path d="M323.297 172.725H324.963L324.778 173.556H323.482L323.297 172.725Z" fill="#B7CDFF"/>
<path d="M72.728 172.725H74.3936L74.2085 173.556H72.9131L72.728 172.725Z" fill="#B7CDFF"/>
<path d="M41.8232 127.87L42.5635 128.036V128.701L41.8232 129.199L41.2681 129.033L41.083 128.535L41.8232 127.87Z" fill="#B7CDFF"/>
<path d="M45.1543 125.877H45.5244L45.8945 126.541L44.7842 127.206H44.4141L44.0439 126.541L45.1543 125.877Z" fill="#B7CDFF"/>
<path d="M61.9946 65.7377L63.29 66.2361L63.105 67.0667L61.9946 66.7345L61.6245 66.5683L61.9946 65.7377Z" fill="#B7CDFF"/>
<path d="M48.6704 50.1215H49.5957L49.7808 51.4505L49.0405 51.6166L48.6704 50.786V50.1215Z" fill="#B7CDFF"/>
<path d="M342.173 172.725H343.654V173.556H342.173V172.725Z" fill="#B7CDFF"/>
<path d="M338.472 172.725H339.953V173.556H338.472V172.725Z" fill="#B7CDFF"/>
<path d="M334.586 172.725H336.066V173.556H334.586V172.725Z" fill="#B7CDFF"/>
<path d="M330.885 172.725H332.365V173.556H330.885V172.725Z" fill="#B7CDFF"/>
<path d="M327.184 172.725H328.664V173.556H327.184V172.725Z" fill="#B7CDFF"/>
<path d="M319.596 172.725H321.077V173.556H319.596V172.725Z" fill="#B7CDFF"/>
<path d="M315.895 172.725H317.375V173.556H315.895V172.725Z" fill="#B7CDFF"/>
<path d="M308.308 172.725H309.788V173.556H308.308V172.725Z" fill="#B7CDFF"/>
<path d="M304.606 172.725H306.087V173.556H304.606V172.725Z" fill="#B7CDFF"/>
<path d="M76.6143 172.725H78.0947V173.556H76.6143V172.725Z" fill="#B7CDFF"/>
<path d="M69.0269 172.725H70.5073V173.556H69.0269V172.725Z" fill="#B7CDFF"/>
<path d="M65.3257 172.725H66.8062V173.556H65.3257V172.725Z" fill="#B7CDFF"/>
<path d="M34.4209 158.272H34.791L35.3462 159.435L34.4209 159.767L33.8657 158.604L34.4209 158.272Z" fill="#B7CDFF"/>
<path d="M32.2002 141.825L32.9404 141.991L32.7554 143.32L31.8301 143.154L32.0151 141.991L32.2002 141.825Z" fill="#B7CDFF"/>
<path d="M36.8267 132.688L37.5669 133.02L37.1968 133.851L36.6416 134.183L36.0864 133.851L36.4565 133.186L36.8267 132.688Z" fill="#B7CDFF"/>
<path d="M48.3003 124.381L49.0405 124.548L48.8555 125.212L47.7451 125.544L47.375 124.88L48.3003 124.381Z" fill="#B7CDFF"/>
<path d="M366.601 95.3087H367.526V96.6378H366.601V95.3087Z" fill="#B7CDFF"/>
<path d="M363.825 82.1844H364.195L364.75 83.3474L363.825 83.6796L363.27 82.5167L363.825 82.1844Z" fill="#B7CDFF"/>
<path d="M50.1509 53.2778L50.7061 53.444L50.8911 54.6069L50.1509 54.773L49.5957 53.6101L50.1509 53.2778Z" fill="#B7CDFF"/>
<path d="M213.002 46.965H216.704L216.519 47.2972L214.113 47.4634V47.1311H213.002V46.965Z" fill="#065768"/>
<path d="M48.3003 46.7988H49.2256V48.1279H48.3003V46.7988Z" fill="#B7CDFF"/>
<path d="M61.6245 172.725H63.105L62.9199 173.556H61.6245V172.725Z" fill="#B7CDFF"/>
<path d="M47.1899 170.067L48.3003 170.4L48.4854 170.898L48.3003 171.23L47.375 171.064L46.8198 170.566L47.1899 170.067Z" fill="#B7CDFF"/>
<path d="M356.608 74.3763L357.348 74.7086L357.718 75.0409L357.533 75.7054L356.608 75.3731L356.238 74.7086L356.608 74.3763Z" fill="#B7CDFF"/>
<path d="M310.713 69.5586V70.057L308.493 72.3828L307.938 72.8812L308.123 72.2167L310.528 69.7247L310.713 69.5586Z" fill="#D2DDFE"/>
<path d="M32.5703 155.282H33.4956L33.8657 156.445L32.9404 156.611L32.5703 155.78V155.282Z" fill="#B7CDFF"/>
<path d="M31.8301 151.959H32.5703L32.7554 153.288L32.0151 153.454L31.645 152.291L31.8301 151.959Z" fill="#B7CDFF"/>
<path d="M31.2749 148.636H32.2002V149.966H31.46L31.2749 149.633V148.636Z" fill="#B7CDFF"/>
<path d="M254.456 143.653H255.381L254.456 144.317L252.05 146.477L251.68 146.311L254.085 144.151L254.456 143.653Z" fill="#353AAE"/>
<path d="M33.1255 138.669L34.0508 138.835L33.6807 139.998L33.3105 140.164L32.7554 139.998L33.1255 138.669Z" fill="#B7CDFF"/>
<path d="M347.355 121.059L347.91 121.225V121.89L346.615 122.222L346.43 121.391L347.355 121.059Z" fill="#B7CDFF"/>
<path d="M357.163 116.075L357.718 116.407L357.533 117.072L356.608 117.57L356.238 116.906L357.163 116.075Z" fill="#B7CDFF"/>
<path d="M307.752 72.7151V73.2135L305.717 75.3732L304.977 75.8716L305.347 75.207L307.567 72.8812L307.752 72.7151Z" fill="#D7E2FE"/>
<path d="M56.0728 61.7505L56.813 62.0827L57.1831 62.7473L56.4429 63.0795L55.7026 62.415L56.0728 61.7505Z" fill="#B7CDFF"/>
<path d="M54.2222 172.227L55.5176 172.393V173.224L54.0371 173.058L54.2222 172.227Z" fill="#B7CDFF"/>
<path d="M50.521 171.396L51.6313 171.562L52.0015 171.729L51.8164 172.393L50.521 172.227L50.3359 171.895L50.521 171.396Z" fill="#B7CDFF"/>
<path d="M43.8589 168.406L44.5991 168.572L45.1543 168.904L44.9692 169.569L44.229 169.403L43.6738 169.071L43.8589 168.406Z" fill="#B7CDFF"/>
<path d="M41.083 166.246L42.1934 166.911L41.8232 167.741L40.7129 167.077L40.8979 166.412L41.083 166.246Z" fill="#B7CDFF"/>
<path d="M38.4922 163.92L39.6025 164.751L39.2324 165.249L38.4922 165.083L37.937 164.253L38.4922 163.92Z" fill="#B7CDFF"/>
<path d="M343.654 121.89H344.209V122.72L342.914 122.886L342.729 122.056L343.654 121.89Z" fill="#B7CDFF"/>
<path d="M350.686 119.896L351.426 120.062L351.241 120.727L350.131 121.059L349.946 120.228L350.686 119.896Z" fill="#B7CDFF"/>
<path d="M363.825 108.267L364.565 108.433L364.38 109.264L363.825 109.762L363.27 109.264L363.825 108.267Z" fill="#B7CDFF"/>
<path d="M366.416 88.4974H366.786L366.971 89.8265L366.231 89.9926L365.861 88.6636L366.416 88.4974Z" fill="#B7CDFF"/>
<path d="M361.79 79.3604L362.345 79.5265L362.715 80.0249L362.53 80.6894L361.79 80.5233L361.419 80.0249V79.5265L361.79 79.3604Z" fill="#B7CDFF"/>
<path d="M359.384 76.7021L360.124 77.0344L360.494 77.6989L359.754 78.0312L359.014 77.3667L359.384 76.7021Z" fill="#B7CDFF"/>
<path d="M53.667 59.2585L54.2222 59.4247L54.7773 60.2553L54.4072 60.5876H53.8521L53.2969 59.9231V59.4247L53.667 59.2585Z" fill="#B7CDFF"/>
<path d="M34.791 135.512L35.5312 135.844L35.1611 136.841L34.606 137.007L34.2358 136.841L34.606 135.844L34.791 135.512Z" fill="#B7CDFF"/>
<path d="M354.017 118.235H354.572L354.757 118.899L353.832 119.398L353.277 119.232L353.462 118.567L354.017 118.235Z" fill="#B7CDFF"/>
<path d="M359.754 113.749L360.494 114.081L360.124 114.746L359.384 115.244L359.014 114.58L359.754 113.749Z" fill="#B7CDFF"/>
<path d="M365.306 105.11L366.046 105.277L365.861 106.273L365.676 106.606L364.936 106.44L365.121 105.443L365.306 105.11Z" fill="#B7CDFF"/>
<path d="M366.601 98.6313H367.526L367.341 99.9604H366.601V98.6313Z" fill="#B7CDFF"/>
<path d="M366.601 91.9862H367.341L367.526 93.1491L366.601 93.3152V91.9862Z" fill="#B7CDFF"/>
<path d="M365.121 85.3409L365.861 85.5071L366.046 86.5039L365.306 86.67L364.936 86.0055L365.121 85.3409Z" fill="#B7CDFF"/>
<path d="M353.647 72.3828L354.757 73.0473L354.387 73.7119L353.277 73.2135L353.462 72.5489L353.647 72.3828Z" fill="#B7CDFF"/>
<path d="M36.0864 161.262H36.6416L37.1968 162.259L36.4565 162.591L35.7163 161.595L36.0864 161.262Z" fill="#B7CDFF"/>
<path d="M257.417 150.464H257.602L257.787 153.122L258.342 154.285L258.157 154.783L257.602 154.119L257.417 153.62V150.464Z" fill="#3F43C1"/>
<path d="M366.231 101.954L366.971 102.12L366.786 103.283H365.861L366.231 101.954Z" fill="#B7CDFF"/>
<path d="M361.975 111.257L362.715 111.423L362.345 112.254L362.16 112.586L361.419 112.254L361.79 111.423L361.975 111.257Z" fill="#B7CDFF"/>
<path d="M51.6313 56.4343L52.1865 56.6005L52.5566 57.5972L51.8164 57.7634L51.2612 56.9327V56.6005L51.6313 56.4343Z" fill="#B7CDFF"/>
<path d="M48.3003 43.4762H49.0405V44.8052H48.1152L48.3003 43.4762Z" fill="#B7CDFF"/>
<path d="M57.7383 172.725H59.2188V173.556L57.7383 173.39V172.725Z" fill="#B7CDFF"/>
<path d="M31.46 145.314H32.2002V146.643L31.2749 146.477L31.46 145.314Z" fill="#B7CDFF"/>
<path d="M39.2324 130.196L39.9727 130.528L39.0474 131.525L38.4922 131.193L38.8623 130.528L39.2324 130.196Z" fill="#B7CDFF"/>
<path d="M319.781 69.5586H320.151L321.817 71.386L322.187 71.8844H321.632L319.781 69.8909V69.5586Z" fill="#CED9FE"/>
<path d="M48.8555 39.9874H49.0405V41.4826H48.3003V40.1536L48.8555 39.9874Z" fill="#B7CDFF"/>
<path d="M339.027 122.388H340.508V123.052H339.027V122.388Z" fill="#B7CDFF"/>
<path d="M335.326 122.388H336.807V123.052H335.326V122.388Z" fill="#B7CDFF"/>
<path d="M327.739 122.388H329.219V123.052H327.739V122.388Z" fill="#B7CDFF"/>
<path d="M324.038 122.388H325.518V123.052H324.038V122.388Z" fill="#B7CDFF"/>
<path d="M316.45 122.388H317.931V123.052H316.45V122.388Z" fill="#B7CDFF"/>
<path d="M312.749 122.388H314.229V123.052H312.749V122.388Z" fill="#B7CDFF"/>
<path d="M309.048 122.388H310.528V123.052H309.048V122.388Z" fill="#B7CDFF"/>
<path d="M48.3003 36.6649H49.0405V37.994H48.3003V36.6649Z" fill="#B7CDFF"/>
<path d="M48.3003 33.3423H49.0405V34.6713H48.3003V33.3423Z" fill="#B7CDFF"/>
<path d="M48.3003 30.0197H49.0405V31.3487H48.3003V30.0197Z" fill="#B7CDFF"/>
<path d="M48.3003 23.2084H49.0405V24.5374H48.3003V23.2084Z" fill="#B7CDFF"/>
<path d="M48.3003 19.8857H49.0405V21.2148H48.3003V19.8857Z" fill="#B7CDFF"/>
<path d="M48.3003 16.5631H49.0405V17.8922H48.3003V16.5631Z" fill="#B7CDFF"/>
<path d="M101.227 54.1085H102.708L102.522 54.6069L101.597 55.1053L101.227 54.6069V54.1085Z" fill="#DCE8FD"/>
<path d="M320.336 122.388H321.632L321.817 123.052H320.336V122.388Z" fill="#B7CDFF"/>
<path d="M258.342 154.783L259.082 154.949V156.611L258.712 157.275L258.342 154.783Z" fill="#3B3FBA"/>
<path d="M246.313 196.15L246.498 196.482L247.238 196.814L247.423 197.479L246.683 197.146L245.758 196.482L246.313 196.15Z" fill="#6E82F1"/>
<path d="M331.625 122.388H332.92V123.052H331.625V122.388Z" fill="#B7CDFF"/>
<path d="M48.3003 26.6971H49.0405V27.8601H48.3003V26.6971Z" fill="#B7CDFF"/>
<path d="M245.388 196.814L246.498 197.479L246.313 198.143L244.833 197.313L245.388 196.814Z" fill="#6F85F2"/>
<path d="M293.133 137.34H294.243L294.428 138.004H293.133V137.34Z" fill="#00917C"/>
<path d="M244.092 197.479L245.203 197.811L245.573 198.476H245.018L243.722 197.811L244.092 197.479Z" fill="#7489F2"/>
</svg>
