<svg width="60" height="61" viewBox="0 0 60 61" fill="none" xmlns="http://www.w3.org/2000/svg">
<path d="M30 60C46.5685 60 60 46.5685 60 30C60 13.4315 46.5685 0 30 0C13.4315 0 0 13.4315 0 30C0 46.5685 13.4315 60 30 60Z" fill="#113358"/>
<path d="M24.8408 40.3723L27.2914 28.0139L31.19 34.8168L30.848 36.4041L30.3758 38.785L24.8408 40.3723Z" fill="#E7001E"/>
<path d="M45.4766 38.785C44.1192 38.785 43.0271 39.9209 43.0991 41.2941C43.1665 42.5816 44.3221 43.5469 45.6114 43.5469H46.2703C46.7086 43.5469 47.0639 43.1916 47.0639 42.7533V39.5787C47.0639 39.1404 46.7086 38.785 46.2703 38.785H45.4766Z" fill="#F0D7AF"/>
<path d="M49.4442 49.1025C46.376 49.1025 43.8887 51.5898 43.8887 54.658C43.8887 57.7263 46.376 60.2136 49.4442 60.2136C52.5125 60.2136 54.9998 57.7263 54.9998 54.658C54.9998 51.5898 52.5125 49.1025 49.4442 49.1025ZM49.4442 57.8326C47.691 57.8326 46.2696 56.4113 46.2696 54.658C46.2696 52.9048 47.691 51.4834 49.4442 51.4834C51.1975 51.4834 52.6188 52.9048 52.6188 54.658C52.6188 56.4113 51.1975 57.8326 49.4442 57.8326Z" fill="black"/>
<path d="M49.4443 55.4517C49.2412 55.4517 49.0381 55.3742 48.8832 55.2191L41.7403 48.0763C41.4303 47.7663 41.4303 47.264 41.7403 46.954C42.0503 46.6439 42.5526 46.6439 42.8627 46.954L50.0055 54.0968C50.3155 54.4068 50.3155 54.9091 50.0055 55.2191C49.8504 55.3742 49.6474 55.4517 49.4443 55.4517Z" fill="#8A8895"/>
<path d="M34.3655 54.658C31.7355 54.658 29.6036 52.5261 29.6036 49.8961V45.1342H19.2861V54.658H31.9845H34.3655Z" fill="#FEC12B"/>
<path d="M35.4979 55.4517H23.2536C22.8149 55.4517 22.46 55.0967 22.46 54.658C22.46 54.2193 22.8149 53.8644 23.2536 53.8644H35.4979C36.0187 53.8644 36.5062 53.6086 36.803 53.1807L42.0222 45.6419C42.6298 44.7637 42.7561 43.6476 42.3593 42.6556L40.3759 37.696C40.255 37.3937 39.9651 37.1977 39.6388 37.1977H37.5393C37.1006 37.1977 36.7457 36.8428 36.7457 36.4041C36.7457 35.9654 37.1006 35.6104 37.5393 35.6104H39.6389C40.6186 35.6104 41.4859 36.1979 41.8501 37.1062L43.8335 42.0666C44.4279 43.5539 44.2388 45.228 43.3273 46.5455L38.1082 54.0844C37.5145 54.941 36.5387 55.4517 35.4979 55.4517Z" fill="#FEC12B"/>
<path d="M30.3971 45.1342H15.3178C14.4411 45.1342 13.7305 44.4236 13.7305 43.5469C13.7305 42.6702 14.4411 41.9596 15.3178 41.9596H30.3971C31.2738 41.9596 31.9844 42.6702 31.9844 43.5469C31.9844 44.4236 31.2738 45.1342 30.3971 45.1342Z" fill="#E34941"/>
<path d="M41.5075 55.4517C41.0688 55.4517 40.7139 55.0967 40.7139 54.658C40.7139 49.8442 44.6302 45.9279 49.444 45.9279C50.9779 45.9279 52.4869 46.3316 53.8068 47.0943C54.1866 47.3137 54.3168 47.7996 54.0975 48.1786C53.8774 48.5584 53.3907 48.6879 53.0132 48.4693C51.9335 47.8454 50.6997 47.5153 49.444 47.5153C45.5052 47.5153 42.3012 50.7193 42.3012 54.6581C42.3012 55.0967 41.9462 55.4517 41.5075 55.4517Z" fill="#FFC536"/>
<path d="M37.5395 36.4041H31.984C31.3829 36.4041 30.833 36.0646 30.564 35.5267L27.3894 29.1775C26.9977 28.3931 27.3154 27.4398 28.0994 27.0476C28.8829 26.6554 29.8363 26.9724 30.2292 27.7575L32.9647 33.2293H37.5395C38.4161 33.2293 39.1268 33.9401 39.1268 34.8167C39.1268 35.6932 38.4161 36.4041 37.5395 36.4041Z" fill="#FF4F19"/>
<path d="M25.1556 38.785H36.0806C37.1115 38.785 38.0818 39.288 38.6754 40.1313C39.2695 40.9737 39.4168 42.0565 39.07 43.0276L35.2479 52.8883C35.0025 53.5146 34.4034 53.8974 33.7695 53.8974C33.5769 53.8974 33.3812 53.8618 33.1909 53.7874C32.3747 53.4673 31.9722 52.5465 32.2918 51.7305L36.0973 41.9147L26.4281 41.9596C25.5515 41.9596 24.8408 41.2489 24.8408 40.3723" fill="#1983BF"/>
<path d="M34.296 21.3555C34.1479 21.0981 33.8875 20.9463 33.5682 20.9602C27.6855 21.2656 27.6855 21.674 27.6855 22.4158C27.6855 22.8297 27.9204 25.3044 27.9677 25.7965C27.9863 25.9965 28.0809 26.1818 28.232 26.3151C28.9582 26.9569 29.8914 27.3102 30.8601 27.3102C33.0481 27.3102 34.8284 25.53 34.8284 23.342C34.8285 22.6444 34.6448 21.957 34.296 21.3555Z" fill="#FFE0B1"/>
<path d="M20.8727 54.658C20.8727 56.4113 19.4514 57.8326 17.6981 57.8326C15.9449 57.8326 14.5235 56.4114 14.5235 54.658H12.1426C12.1426 57.7263 14.6299 60.2136 17.6981 60.2136C20.7664 60.2136 23.2537 57.7264 23.2537 54.658H20.8727Z" fill="black"/>
<path d="M17.8446 45.2011C13.3116 45.7889 9.64259 49.1121 8.53228 53.4604C8.27771 54.4573 9.05073 55.4259 10.0796 55.4259H25.6774C26.2537 54.2681 26.535 52.9374 26.3918 51.5253C25.9725 47.3885 21.968 44.6665 17.8446 45.2011Z" fill="#FFFBFF"/>
<path d="M35.774 20.7595C34.555 18.4412 31.8903 17.2558 29.2571 18.0155C27.3801 18.5571 25.9059 20.1223 25.4594 22.0241C25.1217 23.462 25.337 24.9002 26.071 26.1492C26.2082 26.3828 26.4701 26.5166 26.7409 26.5166H29.0769C29.4777 26.5166 29.8492 26.3063 30.0554 25.9625L31.8719 22.934C32.0154 22.6948 32.2739 22.5483 32.553 22.5483H34.6906C35.1223 22.5483 35.5137 22.3267 35.7377 21.9562C35.96 21.5872 35.974 21.1401 35.774 20.7595Z" fill="#4CB5B7"/>
<path d="M12 42.0689H24.069V30H12V42.0689Z" fill="#DCA167"/>
<path d="M20.6217 35.1724L18.0354 33.4483L15.4492 35.1724V30H20.6217V35.1724Z" fill="#996E44"/>
</svg>
