<svg width="379" height="227" viewBox="0 0 379 227" fill="none" xmlns="http://www.w3.org/2000/svg">
<path d="M267.432 19.425H328.782L331.625 20.1675L334.231 21.6525L336.599 23.88L338.257 26.6025L339.205 29.5725L339.442 158.025L341.574 165.203L343.469 173.123L346.548 188.22V188.715H361.945L362.892 189.458L362.656 190.695L361.708 191.19H341.574V196.388L340.626 198.615L338.731 200.1L337.784 200.348L327.835 200.595L324.992 202.328L308.648 202.575L306.99 205.545L304.858 208.02L302.489 210.248L299.173 212.228L295.383 213.465L293.962 213.713H288.987L284.961 212.723L281.171 210.743L279.039 209.01L277.617 207.773L275.249 204.555L274.301 202.823V202.328H247.297L155.627 202.575L153.969 205.545L151.363 208.515L149.468 210.248L146.626 211.98L142.362 213.465L140.941 213.713H135.966L131.939 212.723L128.149 210.743L125.07 208.268L122.701 205.298L121.28 202.823V202.328H115.121L112.752 202.08L113.226 205.793V208.763L109.91 208.515V208.02H109.436V208.515H108.489L106.594 204.308L103.988 197.378L101.856 190.695L100.435 184.755L99.9612 182.28H99.0137L97.8294 183.518L96.1712 190.2L94.5131 190.943L94.2762 191.19L90.0125 191.438L88.3544 193.17L86.4594 194.903L81.9587 199.605L81.0112 199.358L79.59 197.13L79.8269 195.645L81.9587 191.19H60.64L60.8769 189.705L67.2725 172.875L69.4044 167.183V165.698L68.22 164.46L58.5081 159.51L56.3762 159.263L55.1919 160.5L53.7706 163.965L51.6387 163.223L50.6912 163.718L47.1381 172.38L42.8744 183.023L39.5581 191.19H17.5287L16.3444 190.448L16.5812 189.21L17.055 188.715L25.3456 188.468L28.6619 173.123L30.7937 164.708L33.3994 156.788L36.005 150.353L39.3212 143.175L42.6375 136.988L45.9537 131.543L49.27 126.593L52.5862 122.138L55.6656 118.425L58.5081 115.208L62.0612 111.495L63.9562 109.763L67.7462 106.545L72.2469 103.328L77.2212 100.358L78.1687 100.11V39.225H128.623L128.86 39.4725L129.097 64.7175L130.281 64.47L130.518 64.7175V67.1925L129.571 73.38L128.623 73.6275V75.1125H128.386L128.149 73.1325L127.676 72.885L126.965 77.835L120.096 88.4775L119.385 89.4675L118.201 89.22L113.937 86.4975L111.094 84.765L111.568 85.755V87.4875L110.621 89.9625V91.9425L111.331 92.685L112.752 93.18L112.042 93.675H110.384L108.489 92.9325L107.304 91.4475L106.594 89.22L106.357 86.745L105.172 85.26L103.751 84.27L102.804 83.0325L102.567 82.29V79.815L102.804 78.5775L104.936 77.5875L106.12 76.35L106.831 74.865V69.1725L105.883 67.6875L103.751 65.46L102.093 66.945L101.146 67.6875L101.382 68.43L99.4875 68.6775L98.7769 69.6675V71.895L97.5925 71.6475L97.1187 71.1525L97.3556 72.885L97.8294 74.1225V76.845L97.3556 80.31L95.9344 80.805L92.855 81.795L90.7231 83.0325L89.5387 85.0125L86.4594 90.9525L83.1431 97.3875L80.3006 102.833L79.3531 106.545V112.733L79.8269 130.058L77.9319 132.038L77.2212 134.018V136.74L77.4581 137.483L76.7475 139.463L79.1162 140.7L79.8269 138.473L80.7744 136.245L82.6694 132.285L82.9062 126.345L84.5644 107.535L88.5912 100.605L91.9075 94.9125L92.3812 94.665L94.0394 99.615L94.9869 102.338V105.555L93.3287 111.248L91.9075 114.96L91.6706 115.455L93.5656 115.703L97.8294 116.445L100.198 116.693H106.12L111.331 116.198L109.199 108.03V104.07L110.147 99.8625L112.279 96.8925L112.752 95.655L112.989 93.18L115.358 94.4175L117.964 96.15L118.674 96.3975H121.043L122.464 95.16L125.07 88.725L128.386 80.31H128.86L129.097 105.803L131.466 108.525L133.834 112.238L136.44 117.435L139.993 125.85L140.467 127.335L142.599 127.088H145.441V48.63H164.154L167.707 52.59L169.602 54.57L171.261 56.55L173.392 58.7775L175.051 60.7575L177.419 63.2325L179.077 65.2125L181.209 67.44L182.631 69.1725V70.1625H211.766V64.47H217.451V56.55H223.373V39.225L226.216 40.71L231.19 43.68V56.55H238.059V64.47H243.271V80.805H251.798L252.035 103.08L255.351 100.358L256.772 99.3675L257.009 30.315L257.72 27.345L258.904 24.87L261.036 22.395L263.642 20.6625L266.247 19.6725L267.432 19.425Z" fill="#F6D355"/>
<path d="M78.1687 39.2251H128.623L128.86 39.4726L129.097 64.7176L130.281 64.4701L130.518 64.7176V67.1926L129.571 73.3801L128.623 73.6276V75.1126H128.386L128.149 73.1326L127.676 72.8851L126.965 77.8351L120.096 88.4776L119.385 89.4676L118.201 89.2201L113.937 86.4976L111.094 84.7651L111.568 85.7551V87.4876L110.621 89.9626V91.9426L111.331 92.6851L112.752 93.1801L112.042 93.6751H110.384L108.489 92.9326L107.304 91.4476L106.594 89.2201L106.357 86.7451L105.172 85.2601L103.751 84.2701L102.804 83.0326L102.567 82.2901V79.8151L102.804 78.5776L104.936 77.5876L106.12 76.3501L106.831 74.8651V69.1726L105.883 67.6876L103.751 65.4601L102.093 66.9451L101.146 67.6876L101.382 68.4301L99.4875 68.6776L98.7769 69.6676V71.8951L97.5925 71.6476L97.1187 71.1526L97.3556 72.8851L97.8294 74.1226V76.8451L97.3556 80.3101L95.9344 80.8051L92.855 81.7951L90.7231 83.0326L89.5387 85.0126L86.4594 90.9526L83.1431 97.3876L80.3006 102.833L79.3531 106.545V112.733L79.8269 130.058L77.9319 132.038L77.2212 134.018V136.74L77.4581 137.483L76.7475 139.463L79.1162 140.7L79.8269 138.473L80.7744 136.245L82.6694 132.285L82.9062 126.345L84.5644 107.535L88.5912 100.605L91.9075 94.9126L92.3812 94.6651L94.0394 99.6151L94.9869 102.338V105.555L93.3287 111.248L91.9075 114.96L91.6706 115.455L93.5656 115.703L97.8294 116.445L100.198 116.693H106.12L111.331 116.198L109.199 108.03V104.07L110.147 99.8626L112.279 96.8926L112.752 95.6551L112.989 93.1801L115.358 94.4176L117.964 96.1501L118.674 96.3976H121.043L122.464 95.1601L125.07 88.7251L128.386 80.3101H128.86L129.097 105.803L131.466 108.525L133.834 112.238L136.44 117.435L139.993 125.85L140.23 127.335L134.071 127.83L127.676 128.325L126.254 129.315L125.544 130.305L125.307 132.78L125.781 133.028L123.175 135.255L122.227 136.245H121.754V136.74L119.859 138.473L117.49 140.7L114.174 143.67L112.752 145.155L112.279 148.125L109.91 169.163L110.147 173.37L113.226 205.793V208.763L109.91 208.515V208.02H109.436V208.515H108.489L106.594 204.308L103.988 197.378L101.856 190.695L100.435 184.755L99.9612 182.28H99.0137L97.8294 183.518L96.1712 190.2L94.5131 190.943L94.2762 191.19L90.0125 191.438L88.3544 193.17L86.4594 194.903L81.9587 199.605L81.0112 199.358L79.59 197.13L79.8269 195.645L81.9587 191.19H60.64L60.8769 189.705L67.2725 172.875L69.4044 167.183V165.698L68.22 164.46L58.5081 159.51L56.3762 159.263L55.1919 160.5L53.7706 163.965L51.6387 163.223L50.6912 163.718L47.1381 172.38L42.8744 183.023L39.5581 191.19H17.5287L16.3444 190.448L16.5812 189.21L17.055 188.715L25.3456 188.468L28.6619 173.123L30.7937 164.708L33.3994 156.788L36.005 150.353L39.3212 143.175L42.6375 136.988L45.9537 131.543L49.27 126.593L52.5862 122.138L55.6656 118.425L58.5081 115.208L62.0612 111.495L63.9562 109.763L67.7462 106.545L72.2469 103.328L77.2212 100.358L78.1687 100.11V39.2251Z" fill="#275A2E"/>
<path d="M267.432 19.425H328.782L331.625 20.1675L334.231 21.6525L336.599 23.88L338.257 26.6025L339.205 29.5725L339.442 158.025L341.574 165.203L343.469 173.123L346.548 188.22V188.715H361.945L362.892 189.458L362.656 190.695L361.708 191.19H341.574L341.337 183.27L340.863 178.815L339.916 175.845L338.494 173.37L336.126 170.895L333.52 168.915L333.283 29.5725L332.336 27.84L331.151 26.85L329.73 26.355L319.544 26.1075V28.83L318.597 31.0575L316.939 32.5425L315.281 33.285H283.539L281.171 32.295L279.512 30.315L279.039 29.0775V26.1075L266.721 26.355L264.826 27.0975L263.405 28.83L263.168 29.5725L262.931 142.433L261.51 141.938L257.009 139.71L250.14 136.74L243.744 134.265L236.401 131.79L229.295 129.81L220.294 127.83L212.714 126.593L203.476 125.603L198.738 125.355L187.842 125.108L186.657 118.92L185.947 114.218L182.631 113.97V70.1625H211.766V64.4701H217.451V56.55H223.373V39.225L226.216 40.71L231.19 43.68V56.55H238.059V64.4701H243.271V80.805H251.798L252.035 103.08L255.351 100.358L256.772 99.3675L257.009 30.315L257.72 27.345L258.904 24.87L261.036 22.395L263.642 20.6625L266.247 19.6725L267.432 19.425Z" fill="#629F68"/>
<path d="M56.3763 159.015L58.5082 159.263L68.6938 164.46L69.6413 165.698L69.4044 167.925L62.7719 185.25L60.64 191.19H81.9588L81.485 192.675L79.8269 196.388L80.0638 197.378L81.2482 199.358L82.1957 199.11L87.8807 193.17L89.7757 191.438L90.0125 191.19L94.2763 190.943L95.2238 190.2H96.1713L96.4082 188.22L97.5925 183.518L99.2507 181.785L100.198 182.28L101.619 188.715L103.278 194.655L105.646 201.338L108.252 207.525L108.489 208.515H109.436V208.02H109.91V208.515L113.226 208.763L112.753 202.08L121.28 202.328L122.938 205.298L125.544 208.515L128.149 210.495L131.939 212.475L135.966 213.465H140.941L144.731 212.475L147.573 211.238L150.653 209.01L153.021 206.535L155.153 203.07L155.627 202.328L257.009 202.08L274.301 202.328L276.196 205.545L278.091 208.02L280.46 210L283.776 211.98L287.566 213.218L288.988 213.465H293.962L297.989 212.475L301.779 210.495L304.148 208.515L306.279 206.288L307.464 204.308L323.334 205.298L339.916 206.783L348.917 208.02L353.654 209.01L356.497 210L357.444 210.743L357.208 211.733L355.549 212.723L351.996 213.713L343.943 214.95L332.573 216.188L320.255 217.178L303.2 218.168L279.039 219.158L252.509 219.9L238.296 220.148L217.451 220.395H172.682L151.837 220.148L128.386 219.653L111.094 219.158L92.855 218.415L73.905 217.425L57.5607 216.188L44.2957 214.703L37.4263 213.465L33.8732 212.228L32.9257 211.485L33.1625 210.495L34.8207 209.505L38.6107 208.515L42.4007 207.773L38.3738 205.545L37.9 204.555V203.07L40.0319 197.873L38.3738 197.378L37.6632 196.635L37.9 194.903L38.8475 192.428L42.8744 182.528L45.7169 175.35L49.7438 165.45L50.6913 163.47L51.8757 162.975L53.5338 163.718L55.4288 159.758L56.3763 159.015Z" fill="#FEF1BA"/>
<path d="M292.778 62.7375L323.334 62.985L323.571 142.185V159.263L323.334 159.51H313.149L306.516 157.778L300.594 156.54L292.541 155.303L289.698 154.56L285.198 153.323L279.039 151.095L272.406 147.878L272.169 147.63V62.985L292.778 62.7375Z" fill="#FBFDFD"/>
<path d="M128.386 80.3099H128.86L129.097 105.802L131.466 108.525L133.834 112.237L136.44 117.435L139.993 125.85L140.23 127.335L134.071 127.83L127.676 128.325L126.254 129.315L125.544 130.305L125.307 132.78L125.781 133.027L123.175 135.255L122.228 136.245H121.754V136.74L119.859 138.472L117.49 140.7L114.174 143.67L112.753 145.155L112.279 148.125L109.91 169.162L110.147 173.37L113.226 205.792V208.762L109.91 208.515V208.02H109.436V208.515H108.489L106.594 204.307L103.988 197.377L101.856 190.695L100.435 184.755L99.9613 182.28H99.0138L97.8294 183.517L96.1713 190.2L94.5131 190.942L94.2763 191.19L90.0125 191.437L88.3544 193.17L86.4594 194.902L81.9588 199.605L81.0113 199.357L79.59 197.13L79.8269 195.645L81.9588 191.19H60.64L60.8769 189.705L67.2725 172.875L69.4044 167.182V164.955L70.8256 161.49L71.2994 161.737L71.7731 164.212V170.895L70.8256 175.597L69.6413 178.567L68.4569 180.052L67.2725 180.547V188.715H78.1688V141.937L78.6425 140.7H79.1163L79.8269 138.472L80.7744 136.245L82.6694 132.285L82.9063 126.345L84.5644 107.535L88.5913 100.605L91.9075 94.9124L92.3813 94.6649L94.0394 99.6149L94.9869 102.337V105.555L93.3288 111.247L91.9075 114.96L91.6706 115.455L93.5656 115.702L97.8294 116.445L100.198 116.692H106.12L111.331 116.197L109.199 108.03V104.07L110.147 99.8624L112.279 96.8924L112.753 95.6549L112.989 93.1799L115.358 94.4174L117.964 96.1499L118.674 96.3974H121.043L122.464 95.1599L125.07 88.7249L128.386 80.3099Z" fill="#1B5265"/>
<path d="M199.923 152.333L200.87 152.58L202.528 157.778L203.476 162.728L203.713 167.183L206.318 166.935L261.984 164.708V157.283L262.931 157.035L263.168 157.283L263.405 159.51V164.708L279.276 163.965L284.961 163.718H291.119L290.172 164.213L284.25 165.945L279.513 167.925L274.538 170.648L271.696 172.875L269.327 175.103L267.669 176.835L265.3 180.3L263.168 185.003L261.984 188.963L261.036 193.913L260.089 194.16H203.713L203.239 195.645L202.291 195.398V193.913L201.107 194.16H167.708L167.234 193.913L166.997 188.715L166.049 184.26L164.391 180.3L162.733 177.33L160.601 174.608L158.469 172.133L156.101 169.905L155.39 169.163L157.996 168.915L200.396 167.183H202.291L201.818 161.738L200.633 156.54L199.686 153.57L199.923 152.333Z" fill="#ECB000"/>
<path d="M145.441 48.63H164.154L167.708 52.59L169.603 54.57L171.261 56.55L173.393 58.7775L175.051 60.7575L177.419 63.2325L179.078 65.2125L181.209 67.44L182.631 69.1725V113.97H185.947L186.421 115.455L187.842 124.365V125.108L175.524 125.355L150.179 126.84L145.441 127.088V48.63Z" fill="#619F68"/>
<path d="M267.432 19.425H328.782L331.625 20.1675L334.231 21.6525L336.599 23.88L338.257 26.6025L339.205 29.5725L339.442 158.025L341.574 165.203L343.469 173.123L346.548 188.22V188.715H361.945L362.892 189.458L362.656 190.695L361.708 191.19H341.574L341.337 183.27L340.863 178.815L339.916 175.845L338.494 173.37L336.126 170.895L333.52 168.915L333.283 29.5725L332.336 27.84L331.151 26.85L329.73 26.355L319.544 26.1075V28.83L318.597 31.0575L316.939 32.5425L315.281 33.285H283.539L281.171 32.295L279.512 30.315L279.039 29.0775V26.1075L266.721 26.355L264.826 27.0975L263.405 28.83L263.168 29.5725L262.931 142.433L261.51 141.938L257.009 139.71L252.035 137.483L251.798 137.235V108.278L254.404 108.03L254.641 102.833H257.009V30.315L257.72 27.345L258.904 24.87L261.036 22.395L263.642 20.6625L266.247 19.6725L267.432 19.425Z" fill="#615551"/>
<path d="M78.1687 39.2251H128.623L128.86 39.4726L129.097 64.7176L130.281 64.4701L130.518 64.7176V67.1926L129.571 73.3801L128.623 73.6276V75.1126H128.386L128.149 73.1326L127.676 72.8851L126.965 77.8351L120.096 88.4776L119.385 89.4676L118.201 89.2201L113.937 86.4976L111.094 84.7651L111.568 85.7551V87.4876L110.621 89.9626V91.9426L111.331 92.6851L112.752 93.1801L112.042 93.6751H110.384L108.489 92.9326L107.304 91.4476L106.594 89.2201L106.357 86.7451L105.172 85.2601L103.751 84.2701L102.804 83.0326L102.567 82.2901V79.8151L102.804 78.5776L104.936 77.5876L106.12 76.3501L106.831 74.8651V69.1726L105.883 67.6876L103.751 65.4601L102.093 66.9451L101.146 67.6876L101.382 68.4301L99.4874 68.6776L98.7768 69.6676V71.8951L97.5924 71.6476L97.1187 71.1526L97.3556 72.8851L97.8293 74.1226V76.8451L97.3556 80.3101L95.9343 80.8051L92.8549 81.7951L90.7231 83.0326L89.5387 85.0126L86.4593 90.9526L83.1431 97.3876L80.3006 102.833L79.3531 106.545V112.733L79.8268 130.058L78.1687 131.543V100.358L77.6949 100.11H78.1687V39.2251Z" fill="#62A068"/>
<path d="M191.158 129.315H200.87L208.924 130.058L217.925 131.543L226.453 133.523L234.033 135.75L242.56 138.72L249.903 141.69L257.483 145.155L265.3 149.115L271.459 152.58L275.486 155.055L275.723 155.798L255.114 154.313L254.404 154.065L254.167 152.828L253.93 149.363L252.983 147.135L252.272 146.145V145.65L248.956 143.918L248.008 143.67H244.929L243.271 144.413L242.086 145.65L241.613 146.393L241.376 149.115L242.086 151.343L242.56 152.333L243.744 152.828L244.218 153.075L248.008 153.323L248.482 153.818L239.244 153.323L203.239 151.343L172.208 149.858L160.128 149.363L148.758 149.115L144.731 144.908L143.073 142.928L138.572 138.225L138.809 137.483L143.546 135.503L148.521 134.018L157.048 132.285L166.049 131.048L176.472 130.058L184.999 129.563L191.158 129.315Z" fill="#615651"/>
<path d="M268.616 38.73H327.361L328.546 39.225L329.493 40.4625V165.945L327.361 165.202L324.519 163.717L322.387 162.727V162.48H326.177V59.7675H269.564V145.897L267.906 145.402L266.721 144.66V40.4625L267.906 38.9775L268.616 38.73Z" fill="#FDFDFD"/>
<path d="M136.914 170.647H139.993L143.783 171.39L147.573 173.122L150.416 175.102L153.258 177.825L155.627 181.042L157.759 185.002L159.417 189.705L160.364 194.655L160.601 197.872V200.347L160.364 202.327L155.627 202.575L153.969 205.545L151.363 208.515L149.468 210.247L146.626 211.98L142.362 213.465L140.941 213.712H135.966L131.939 212.722L128.149 210.742L125.07 208.267L122.701 205.297L121.28 202.822V202.327H116.543L116.306 202.08V195.892L117.016 191.437L118.438 186.487L121.043 181.29L123.412 178.072L126.018 175.35L129.571 172.875L133.124 171.39L136.914 170.647Z" fill="#3F4B48"/>
<path d="M288.987 170.647H292.304L295.857 171.39L298.936 172.627L302.016 174.607L304.858 177.33L306.99 179.805L309.122 183.27L311.017 187.725L312.201 192.18L312.675 195.397V202.327L308.648 202.575L306.99 205.545L304.858 208.02L302.489 210.247L299.173 212.227L295.383 213.465L293.962 213.712H288.987L284.961 212.722L281.171 210.742L279.039 209.01L277.617 207.772L275.249 204.555L274.301 202.822V202.327H268.616V195.15L269.327 190.942L270.985 185.745L273.117 181.537L275.249 178.567L276.907 176.587L280.223 173.865L284.013 171.885L287.329 170.895L288.987 170.647Z" fill="#3F4B48"/>
<path d="M182.631 70.41H211.766V80.805H203.949V125.355H198.738L187.842 125.108L186.657 118.92L185.947 114.218L182.631 113.97V70.41Z" fill="#275A2E"/>
<path d="M92.1443 94.665L92.6181 95.655L94.9868 102.338V105.555L93.3287 111.248L91.9075 114.96L90.2493 118.92L90.7231 119.415H89.7756L88.8281 123.87H89.3018V124.365H88.5912L88.8281 128.078H89.3018V128.573H88.8281L90.0125 133.523V134.018L90.7231 134.265L90.4862 135.255L91.1968 137.235L91.6706 139.463L91.9075 139.958H92.3812V140.453H91.9075L93.3287 145.403V145.898L93.8025 146.145V146.888H94.2762V147.383H93.8025L94.9868 151.343V151.838L95.6975 152.085L95.4606 153.075L96.645 157.283L97.1187 158.52L97.5925 159.015L97.3556 160.005L98.0662 162.48V163.47L98.7768 163.718L99.0137 165.945L99.4875 167.183H99.9612V167.678L97.5925 169.163L97.1187 169.905L95.9343 170.648L95.4606 171.638L94.5131 172.133L94.2762 173.123L93.3287 173.37L92.3812 174.855L91.4337 175.845L90.7231 177.083L89.3018 178.815L88.1175 180.795L87.8806 181.785H87.4068V182.775L86.6962 183.023L85.0381 185.993V186.983H84.3275V188.22H83.8537L83.6168 188.715H78.1687V141.938L78.6425 140.7H79.1162L79.8268 138.473L80.7743 136.245L82.6693 132.285L82.9062 126.345L84.5643 107.535L88.5912 100.605L91.9075 94.9125L92.1443 94.665Z" fill="#619F68"/>
<path d="M103.514 65.2124L105.172 66.6974L106.831 68.6774L107.067 69.1724V74.8649L106.12 76.8449L104.225 78.3299L102.804 78.5774V82.2899L103.514 83.7749L104.699 84.7649L106.357 86.2499L106.594 86.7449L107.067 90.4574L108.252 92.4374L109.436 93.1799L110.384 93.4274H112.042L110.857 92.4374L110.384 91.9424V89.9624L111.331 87.4874V85.7549L110.857 84.5174L112.042 85.0124L116.779 87.9824L118.674 89.2199L119.622 88.9724L120.569 87.4874L121.991 87.9824L124.833 89.7149L122.938 94.6649L121.517 96.3974L121.043 96.6449H118.674L116.069 95.1599L113.226 93.4274L112.752 96.3974L111.331 98.6249L110.384 99.8624L109.436 104.07V108.03L111.331 115.455V116.197L108.726 116.692L106.12 116.94H100.198L94.9869 116.197L91.6706 115.455L94.5131 106.545L94.75 105.555V102.337L92.1444 94.9124L88.1175 101.842L84.8012 107.535L83.1431 126.345L82.9062 132.285L81.0112 136.245L79.8269 138.967L79.1162 140.7L76.9844 139.957L76.5106 139.462L77.2212 136.987L76.9844 136.74V134.017L77.695 132.037L79.59 130.057L79.1162 112.732V106.545L80.0637 102.832L84.0906 94.9124L86.9331 89.4674L90.0125 83.5274L91.4337 82.2899L94.0394 81.0524L97.1187 80.3099L97.5925 76.8449V74.1224L96.8819 72.3899V70.9049L98.0662 71.6474H98.54V69.6674L99.7244 68.4299H101.382L100.909 67.4399L102.804 65.9549L103.514 65.2124Z" fill="#FDB829"/>
<path d="M56.3762 159.015L58.5081 159.263L68.6937 164.46L69.6412 165.698L69.4043 167.925L62.7718 185.25L60.64 191.19L59.4556 193.913L56.1393 202.823L54.955 205.793L55.1918 207.278L55.9025 209.01L55.6656 211.238L54.0075 213.218L53.06 213.713H50.6912L48.7962 212.475L47.8487 210.495L39.0843 206.04L38.1368 205.05L37.9 204.555V203.07L40.0318 197.873L38.3737 197.378L37.6631 196.635L37.9 194.903L38.8475 192.428L42.8743 182.528L45.7168 175.35L49.7437 165.45L50.6912 163.47L51.8756 162.975L53.5337 163.718L55.4287 159.758L56.3762 159.015Z" fill="#F65F32"/>
<path d="M128.386 80.3099H128.86L129.097 105.802L131.466 108.525L133.834 112.237L136.44 117.435L139.993 125.85L140.23 127.335L134.071 127.83L127.676 128.325L126.254 129.315L125.544 130.305L125.307 132.78L125.781 133.027L123.175 135.255L122.227 136.245H121.754V136.74L119.859 138.472L117.49 140.7L112.516 145.155V144.165H112.042V143.67H112.516V140.452L112.989 138.72H112.516V138.225H113.226L113.463 134.512L113.7 132.532V126.592L112.989 121.89L112.516 121.642L112.752 120.652L111.568 117.187V116.445H111.094L110.857 116.94L110.384 116.197H111.331L109.199 108.03V104.07L110.147 99.8624L112.279 96.8924L112.752 95.6549L112.989 93.1799L115.358 94.4174L117.964 96.1499L118.674 96.3974H121.043L122.464 95.1599L125.07 88.7249L128.386 80.3099Z" fill="#62A069"/>
<path d="M266.721 26.1075H279.039L279.276 29.0775L280.223 31.0575L281.408 32.295L283.539 33.0375H315.518L317.649 31.8L318.834 30.315L319.308 28.83L319.544 26.1075H329.73L330.441 26.6025L324.282 33.0375L322.387 34.77L318.597 38.73L268.616 38.9775L267.432 39.72L266.958 40.4625L266.721 144.413L265.3 143.918L262.931 142.68V29.5725L263.642 28.0875L264.826 26.85L266.721 26.1075Z" fill="#FCCF73"/>
<path d="M300.121 118.672L301.779 120.157L316.939 135.997L316.465 136.987L298.226 156.045L294.436 155.55L282.118 142.68L280.223 140.947L279.749 139.957L300.121 118.672Z" fill="#BAE9EF"/>
<path d="M269.564 59.7675H326.177V162.48H321.676L313.859 159.757V159.51L323.334 159.262V62.985H272.169V147.63L269.801 146.392L269.564 146.145V59.7675Z" fill="#528A94"/>
<path d="M202.054 131.79H206.081L215.556 133.028L224.321 134.76L231.901 136.74L238.77 138.968L244.929 141.195L252.983 144.66L255.351 145.898L255.588 146.145V152.828H254.167L253.93 149.363L252.983 147.135L252.272 146.145V145.65L248.956 143.918L248.008 143.67H244.929L243.271 144.413L242.086 145.65L241.613 146.393L241.376 149.115L242.086 151.343L242.56 152.085H239.954L203.239 149.858L202.054 149.61V131.79Z" fill="#A3DFE7"/>
<path d="M189.737 131.542H197.317V149.362L190.447 149.115L158.943 147.382V134.265L161.075 133.77L169.602 132.78L179.077 132.037L189.737 131.542Z" fill="#A2DFE7"/>
<path d="M288.988 180.795H293.962L296.804 181.785L299.173 183.27L301.542 185.498L303.437 188.963L304.148 191.685V196.14L303.2 199.358L301.542 202.328L299.41 204.555L296.568 206.288L294.436 207.03L293.014 207.278H289.935L287.093 206.535L284.25 205.05L281.881 202.823L280.223 200.348L279.276 198.12L278.802 195.893V191.933L279.513 189.21L280.934 186.24L283.066 183.765L285.671 182.033L288.04 181.043L288.988 180.795Z" fill="#A0DEE6"/>
<path d="M135.966 180.795H140.704L143.783 181.785L146.389 183.518L148.284 185.25L149.942 187.973L150.889 190.695L151.126 191.685V196.14L150.179 199.358L148.758 201.833L146.626 204.308L144.02 206.04L141.178 207.03L139.993 207.278H136.914L133.834 206.535L130.755 204.803L128.623 202.575L126.965 199.853L126.018 197.378L125.781 196.14V191.685L126.728 188.468L128.149 185.993L130.044 183.765L132.65 182.033L135.019 181.043L135.966 180.795Z" fill="#A0DFE6"/>
<path d="M330.441 26.355L331.862 27.0975L333.283 28.83L333.52 29.5725V132.037L331.625 133.77L329.73 135.75H329.493L329.256 40.4625L328.309 39.225L327.361 38.9775L318.597 38.73L320.018 36.9975L323.808 33.0375L325.703 31.305L330.441 26.355Z" fill="#FCA92A"/>
<path d="M300.121 62.985H323.334V70.6575L323.097 70.905L322.861 97.14H317.176L316.939 73.38H315.281L315.044 97.14L309.359 96.8925V72.39L314.096 67.44V66.2025L313.859 65.955H312.675L307.937 70.905L306.99 70.41L300.121 63.2325V62.985Z" fill="#B9E8EE"/>
<path d="M70.8256 161.49L71.2994 161.737L71.7731 164.212V170.895L70.8256 175.597L69.6413 178.567L68.4569 180.052L67.2725 180.547V188.715H83.6169L83.8538 187.972L84.3275 186.982L84.8013 186.735L85.0381 185.497L86.6963 182.775H87.4069L87.17 181.785L87.8806 181.29L88.3544 180.052L90.0125 177.577L91.9075 174.855H92.3813L92.855 173.617L93.8025 172.875L94.2763 173.122L94.0394 172.38L95.2238 171.39L96.1713 170.152L97.1188 169.657L98.3031 168.42L99.2506 167.925V177.577L99.7244 181.785L97.8294 183.517L96.1713 190.2L94.5131 190.942L94.2763 191.19L90.0125 191.437L88.3544 193.17L86.4594 194.902L81.9588 199.605L81.0113 199.357L79.59 197.13L79.8269 195.645L81.9588 191.19H60.64L60.8769 189.705L67.2725 172.875L69.4044 167.182V164.955L70.8256 161.49Z" fill="#1B5265"/>
<path d="M311.017 59.7675H326.177V162.48H321.676L313.859 159.757V159.51L323.334 159.262V62.7375H308.411L309.833 61.005L311.017 59.7675Z" fill="#588C91"/>
<path d="M295.857 110.753H322.624V130.553L318.834 134.513L317.886 134.018L303.437 118.92L303.674 117.683L304.621 115.208L304.384 113.475L303.437 112.733L301.779 112.98L301.068 113.723V116.445L299.41 114.96L296.094 111.248L295.857 110.753Z" fill="#BAE9EF"/>
<path d="M60.4031 191.19H81.9588L81.485 192.675L79.8269 196.388L80.0638 197.378L81.2481 199.358L81.7219 199.853L81.0113 202.823L81.2481 204.555L83.1431 207.03L82.9063 208.268L81.7219 208.515L77.9319 205.545L77.4581 205.05H74.6156L54.7181 206.535L54.955 205.298L58.5081 195.893L60.1663 191.438L60.4031 191.19Z" fill="#FDF6CD"/>
<path d="M306.753 75.1125H306.99V108.525H294.672V87.735L306.753 75.1125Z" fill="#BAE9EF"/>
<path d="M101.619 59.0249H103.514L105.409 60.0149L106.357 61.2524L108.252 64.2224L109.436 65.4599L108.726 65.7074L109.673 66.9449L109.91 67.6874V70.1624L108.726 72.8849L108.963 74.8649H107.778V78.8249L108.252 81.7949L110.621 84.0224L111.568 85.7549V87.4874L110.621 89.9624V91.9424L111.331 92.6849L112.753 93.1799L112.042 93.6749H110.384L108.489 92.9324L107.304 91.4474L106.594 89.2199L106.357 86.7449L105.173 85.2599L103.751 84.2699L102.804 83.0324L102.567 82.2899V79.8149L102.804 78.5774L104.936 77.5874L106.12 76.3499L106.831 74.8649V69.1724L105.883 67.6874L103.751 65.4599L102.093 66.9449L101.146 67.6874L101.383 68.4299L99.4875 68.6774L98.7769 69.6674V71.8949L97.5925 71.6474L97.1188 71.1524L97.3557 72.8849L97.8294 74.1224V76.8449L97.3557 80.3099L95.9344 80.8049L92.855 81.7949L90.7232 83.0324L89.5388 85.0124L87.4069 88.9724L86.9332 89.2199L86.6963 88.4774V85.2599L87.8807 82.2899L90.4863 78.0824L91.1969 76.5974L91.4338 75.3599V73.1324L90.96 70.6574V67.1924L91.9075 64.4699L93.5657 62.2424L95.9344 60.7574L98.0663 60.0149L100.435 59.5199L101.619 59.0249Z" fill="#625651"/>
<path d="M288.987 174.113H293.725L297.041 174.855L300.594 176.34L302.252 177.578L302.016 180.053L300.831 184.508H300.121L298.226 182.775L295.62 181.538L293.962 181.043H288.987L286.145 182.033L283.776 183.518L281.881 185.25L280.223 187.973L279.276 190.695L279.039 191.933V195.893L279.749 198.863L281.171 201.585L283.066 203.813L282.829 204.308L278.802 205.545L276.67 205.793L276.433 206.288L274.301 202.823V202.328H268.616V202.08H274.064L273.117 199.605L272.406 195.893V191.933L273.117 188.22L274.301 185.003L275.959 182.28L278.091 179.805L279.749 178.073L282.829 176.093L285.671 174.855L288.987 174.113Z" fill="#615551"/>
<path d="M135.966 174.113H140.704L144.02 174.855L146.862 176.093L149.231 177.578L148.994 180.053L147.81 184.508H147.099L145.441 183.023L142.599 181.538L140.704 181.043H135.966L133.124 182.033L130.755 183.518L128.86 185.25L127.202 187.973L126.254 190.448L126.017 191.685V196.14L126.965 199.358L128.386 201.833L130.044 203.813L129.807 204.308L125.781 205.545L123.175 206.04L121.28 202.823V202.328H116.542V202.08H121.043L119.859 198.863L119.385 195.893V191.933L120.096 188.22L121.517 184.508L123.412 181.538L125.307 179.31L128.149 177.083L131.939 175.103L135.966 174.113Z" fill="#615551"/>
<path d="M272.169 76.3501L275.959 80.3101L274.538 82.2901L274.301 112.98L274.064 114.218L275.723 116.198L280.934 121.643L280.46 122.633L276.433 126.84V128.078L277.618 128.325L279.513 126.593L282.355 123.623L283.303 124.118L285.434 126.345L287.329 128.078L287.566 129.068L272.643 144.66H272.169V76.3501Z" fill="#BAE9EF"/>
<path d="M77.9318 142.927H78.1687V188.715H67.2725V180.547L68.9306 179.31L70.3518 176.34L71.2993 172.38L71.5362 170.895V164.212L71.0625 160.995L73.6681 154.065L77.4581 144.165L77.9318 142.927Z" fill="#27592E"/>
<path d="M99.2507 181.785L100.198 182.28L101.619 188.715L103.278 194.655L105.646 201.338L106.12 202.575V203.318L104.936 203.565L82.9063 204.555L81.2482 204.803L80.7744 204.06L81.0113 201.585L81.485 199.853L87.8807 193.17L89.7757 191.438L90.0125 191.19L94.2763 190.943L95.2238 190.2H96.1713L96.4082 188.22L97.5925 183.518L99.2507 181.785Z" fill="#FDF6CD"/>
<path d="M292.304 90.21H292.541V109.762L290.882 111.742L282.829 120.157L281.881 119.662L276.433 113.97V106.792L292.304 90.21Z" fill="#BAE9EF"/>
<path d="M92.1444 94.665L92.6182 95.655L94.9869 102.338V105.555L93.3288 111.248L91.9076 114.96L90.2494 118.92L90.7232 119.415H89.7757L88.8282 123.87H89.3019V124.365H88.5913L88.8282 128.078H89.3019V128.573H88.8282L90.0126 133.523V134.018L90.7232 134.265L90.4863 135.255V136.493H82.4326L82.1957 136.245V133.523L82.6694 132.285L82.9063 126.345L84.5644 107.535L88.5913 100.605L91.9076 94.9125L92.1444 94.665Z" fill="#8BC491"/>
<path d="M56.1394 147.878H57.3238L57.7975 148.62L58.2713 150.353L59.9294 150.6L60.4032 151.095V154.56L60.1663 156.54L61.8244 156.788L62.535 157.53L62.7719 159.758L62.2982 161.243L60.8769 160.748L57.7975 159.263H56.3763L55.1919 160.5L53.7707 163.965L51.6388 163.223L50.6913 163.718L47.1382 172.38L43.585 181.29L41.4532 180.3L40.2688 178.815L39.5582 177.083L39.3213 175.845V168.915L40.0319 165.45L41.9269 161.49L44.0588 159.263L45.2432 158.768H47.1382L48.7963 160.253L49.7438 161.985L50.6913 161.49V159.758L50.4544 157.53L51.165 156.293L51.4019 156.045H52.8232L53.2969 156.293L52.8232 154.808V151.838L53.7707 150.353L54.7182 150.105L55.4288 150.6L55.6657 148.373L56.1394 147.878Z" fill="#619F68"/>
<path d="M295.62 62.985H297.041L306.042 72.39L305.569 73.38L294.199 85.26L293.251 84.765L284.25 75.36L284.724 74.37L295.62 62.985Z" fill="#A3E0E8"/>
<path d="M136.914 170.647H139.993L143.783 171.39L147.573 173.122L150.416 175.102L153.258 177.825L155.627 181.042L157.759 185.002L159.417 189.705L160.364 194.655L160.601 197.872V200.347L160.364 202.08H155.627L156.811 198.12L157.048 196.635V191.19L156.101 187.23L154.916 184.507L153.258 181.785L151.126 179.31L148.284 177.082L144.731 175.35L142.125 174.607L140.704 174.36H135.966L131.939 175.35L128.149 177.33L126.018 179.062L124.596 180.3L122.464 183.27L120.806 186.735L119.859 190.2L119.622 191.932V195.892L120.333 199.605L121.043 202.08H116.306V195.892L117.016 191.437L118.438 186.487L121.043 181.29L123.412 178.072L126.018 175.35L129.571 172.875L133.124 171.39L136.914 170.647Z" fill="#221A15"/>
<path d="M288.987 170.647H292.304L295.857 171.39L298.936 172.627L302.016 174.607L304.858 177.33L306.99 179.805L309.122 183.27L311.017 187.725L312.201 192.18L312.675 195.397V201.585L312.438 202.08H308.648L309.596 199.357L310.069 196.882V190.942L309.122 186.982L307.227 183.022L305.332 180.547L303.674 178.815L301.305 177.082L298.462 175.597L295.383 174.607L293.725 174.36H288.987L284.961 175.35L281.171 177.33L279.039 179.062L276.67 181.537L275.012 184.26L273.827 186.735L272.88 190.2L272.643 191.932V195.892L273.354 199.605L274.064 202.08H268.616V195.15L269.327 190.942L270.985 185.745L273.117 181.537L275.249 178.567L276.907 176.587L280.223 173.865L284.013 171.885L287.329 170.895L288.987 170.647Z" fill="#221A15"/>
<path d="M147.573 184.755L148.758 185.993L150.179 188.468L151.126 191.685V196.14L150.179 199.358L148.758 201.833L146.626 204.308L144.02 206.04L141.178 207.03L139.993 207.278H136.914L133.834 206.535L130.755 204.803L130.281 204.06L134.071 202.08H134.545L133.124 200.595L137.151 196.388H137.388L137.624 199.605L138.572 198.863L138.809 196.388L139.756 197.13L140.704 196.883L140.467 195.893L139.993 195.15H142.362L143.073 193.665H139.993L141.414 191.933L144.731 188.468L145.915 189.21L146.389 187.725L147.573 184.755Z" fill="#5DC0C6"/>
<path d="M300.594 184.755L301.779 185.993L303.2 188.468L304.147 191.685V196.14L303.2 199.358L301.542 202.328L299.41 204.555L296.567 206.288L294.436 207.03L293.014 207.278H289.935L287.092 206.535L284.25 205.05L283.302 204.06L287.092 202.08H287.566L286.382 200.843L286.856 199.853L290.172 196.388H290.409V199.853L291.593 198.863L291.83 196.388L292.777 197.13L293.725 196.883L293.488 195.893L293.014 195.15L295.383 194.903L296.094 193.913L293.014 193.665L294.436 191.933L297.752 188.468L298.936 189.21L299.41 187.725L300.594 184.755Z" fill="#5DC1C6"/>
<path d="M231.19 136.74L233.559 137.235L243.034 140.452L249.666 143.175L255.114 145.65L255.588 146.145V152.827H254.167L253.93 149.362L252.983 147.135L252.272 146.145V145.65L248.956 143.917L248.008 143.67H244.929L243.271 144.412L242.086 145.65L241.613 146.392L241.376 149.115L242.086 151.342L242.56 152.085H239.954L223.847 151.095V150.847H225.031L225.268 149.61L230.479 138.472L231.19 136.74Z" fill="#A1DFE5"/>
<path d="M323.097 132.78H323.334L323.571 142.185V159.263L323.334 159.51H313.149L311.727 159.015L313.149 157.283L313.859 156.54L314.807 156.788L316.702 158.768V159.263L319.781 159.015L315.754 154.808L317.176 153.075L320.255 149.858L320.492 148.868L320.018 148.125L318.597 148.373L314.333 152.828L313.386 152.333L309.122 147.878L309.596 146.888L323.097 132.78Z" fill="#A3E0E8"/>
<path d="M189.737 131.542H197.317V149.362L190.447 149.115L181.683 148.62V148.372H183.104L183.578 146.887L187.605 138.225L190.211 132.532L190.447 132.037L189.737 131.542Z" fill="#A2DFE7"/>
<path d="M272.169 62.985H292.541L291.119 64.7175L282.829 73.38L281.881 72.885L277.854 68.6775H276.67L276.433 68.925V70.1625L280.934 74.865L280.46 75.855L277.618 78.825L275.959 77.34L272.643 73.875L272.169 73.6275V62.985Z" fill="#B9E8EE"/>
<path d="M254.641 102.833H257.009V139.463L255.825 139.215L252.035 137.483L251.798 137.235V108.278L254.404 108.03L254.641 102.833Z" fill="#28592F"/>
<path d="M110.384 163.223H138.098V163.47L132.887 164.46L129.334 165.45L124.833 167.183L120.569 169.658L117.964 171.885L115.595 174.36L113.463 177.578L111.805 181.043L111.094 182.775H110.857L109.673 170.895L109.91 166.935L110.384 163.223Z" fill="#ECAF01"/>
<path d="M171.498 111.495H179.314L179.551 118.672L180.499 114.217L180.736 113.97H185.947L186.421 115.455L187.842 124.365V125.107L175.524 125.355H171.498V123.622H178.604L179.078 120.9L179.314 119.91H171.498V111.495Z" fill="#5EC5CA"/>
<path d="M271.932 86.25H272.169V147.63L269.801 146.393L269.564 146.145V88.725L270.748 87.4875L271.932 86.25Z" fill="#528691"/>
<path d="M333.046 37.4924H333.283V77.8349L329.73 81.5474H329.493V40.9574L331.625 38.7299L333.046 37.4924Z" fill="#FCCF73"/>
<path d="M103.514 65.2124L105.172 66.6974L106.831 68.6774L107.067 69.1724V74.8649L106.12 76.8449L104.225 78.3299L102.804 78.5774V82.2899L103.514 83.7749L104.699 84.7649L104.462 86.9924L103.277 87.9824H101.382L99.2506 86.4974L97.3556 84.2699L95.4606 81.2999V80.8049L97.1187 80.3099L97.5924 76.8449V74.1224L96.8818 72.3899V70.9049L98.0662 71.6474H98.5399V69.6674L99.7243 68.4299H101.382L100.909 67.4399L102.804 65.9549L103.514 65.2124Z" fill="#FAD49D"/>
<path d="M202.054 131.79H206.081L213.898 132.78L214.372 133.275L209.398 143.918L206.792 149.61L206.555 149.858H203.239L202.054 149.61V131.79Z" fill="#A0DFE6"/>
<path d="M70.8256 161.49L71.2994 161.737L71.7731 164.212V170.895L70.8256 175.597L69.6413 178.567L68.4569 180.052L67.2725 180.547V188.715H83.38L82.6694 190.447L83.1431 190.695L82.4325 190.942L81.9588 191.685V191.19H60.64L60.8769 189.705L67.2725 172.875L69.4044 167.182V164.955L70.8256 161.49Z" fill="#615A52"/>
<path d="M339.205 158.025L339.679 158.767L341.574 165.202L343.469 173.122L346.548 188.22V188.715H361.945L362.892 189.457L362.656 190.695L361.708 191.19H341.574L341.337 183.27L340.863 178.815L339.916 175.845L339.205 174.607V158.025Z" fill="#63A169"/>
<path d="M48.5593 186.24L50.2175 186.487L56.3762 189.21L57.0868 189.705L56.85 191.19L52.5862 201.832L51.6387 203.812L49.9806 203.565L43.3481 200.595L43.1112 200.347L43.3481 198.615L48.0856 186.735L48.5593 186.24Z" fill="#F6D355"/>
<path d="M128.86 105.802L130.518 107.287L133.124 111L135.966 116.445L139.046 123.622L140.23 126.345V127.335L134.071 127.83L128.86 128.077V105.802Z" fill="#285A2F"/>
<path d="M324.282 186.24H330.914L333.994 186.735L336.363 187.972L338.258 189.952L339.679 192.922L339.916 194.655V196.882H329.493L327.124 195.892L324.993 193.417L324.045 190.942L323.571 188.715V186.487L324.282 186.24Z" fill="#F65F32"/>
<path d="M183.341 131.79H190.684L188.552 136.493L185.236 143.67L183.104 148.373H177.419L174.814 148.125L175.287 146.64L180.972 134.265L181.92 132.038L183.341 131.79Z" fill="#A3E0E7"/>
<path d="M244.929 143.422H248.008L250.614 144.412L252.272 145.65L253.693 147.877L254.167 149.362L254.404 154.065L255.114 154.312H254.404V157.035L253.693 158.52L252.746 159.262H250.377L249.193 158.025L248.956 157.53L248.719 154.312L248.008 153.57L244.218 153.322L242.56 152.332L241.376 150.352L241.139 147.63L241.613 145.897L242.797 144.412L243.981 143.67L244.929 143.422Z" fill="#ECAF02"/>
<path d="M266.248 105.555H266.721V144.412L265.3 143.917L262.931 142.68V109.02L266.248 105.555Z" fill="#FDCF76"/>
<path d="M325.703 85.5076H325.94L326.177 124.613V139.463L324.282 141.195L323.571 141.69V87.7351L325.703 85.5076Z" fill="#528691"/>
<path d="M169.602 132.78H171.497L169.366 137.483L166.523 143.67L164.865 147.383L165.576 147.63H162.97L158.943 147.383V134.265L161.075 133.77L169.602 132.78Z" fill="#A2DFE7"/>
<path d="M332.809 132.285H333.283V168.42L332.099 167.925L329.256 166.193L329.493 135.75L332.809 132.285Z" fill="#FED7A0"/>
<path d="M223.61 135.008H225.268L230.716 136.493L231.19 136.74L230.479 138.968L225.268 150.105L225.031 150.848H220.057L216.741 150.6L216.977 149.363L221.478 139.71L223.61 135.008Z" fill="#A3E0E7"/>
<path d="M272.169 76.3501L275.959 80.3101L274.538 82.2901L274.301 97.3876L272.88 99.1201H272.406L272.643 139.463L276.433 135.75L283.776 128.078H284.25V127.583H284.724V127.088L285.908 126.593L287.566 128.325L287.329 129.315L272.643 144.66H272.169V76.3501Z" fill="#A3E0E7"/>
<path d="M277.381 82.0425L279.039 83.5275L287.329 92.19L285.908 93.9225L276.67 103.575H276.433V83.0325L277.381 82.0425Z" fill="#BAE9EF"/>
<path d="M322.387 168.172H326.651L329.73 168.915L332.573 170.647L334.704 172.627L335.889 174.36V175.597L335.415 176.092H326.651L323.571 175.597L319.308 173.865L316.465 172.132L315.754 171.39L315.991 169.905L317.649 169.162L320.492 168.42L322.387 168.172Z" fill="#A6E1E8"/>
<path d="M125.781 132.78H132.413L130.992 134.513L126.965 138.473L124.122 141.195L121.043 144.165L117.49 147.63L115.358 149.61L112.279 149.363L112.042 148.125L112.516 145.155L114.884 142.68L117.49 140.453L119.148 138.72L121.043 136.988L121.754 136.74V136.245L124.359 134.018L125.781 132.78Z" fill="#A5E0E8"/>
<path d="M51.6387 162.975L53.5337 163.718L53.2968 165.203L48.7962 176.34L44.7693 186.488L40.2687 197.625L39.5581 197.873L38.1368 197.13L37.6631 196.635L37.9 194.903L38.8475 192.428L42.8743 182.528L45.7168 175.35L49.7437 165.45L50.6912 163.47L51.6387 162.975Z" fill="#F6D254"/>
<path d="M154.679 134.76H155.39V147.135H150.652L148.757 145.403L144.731 141.443L142.362 139.215L142.125 138.473L145.915 136.988L151.363 135.503L154.679 134.76Z" fill="#A1DFE6"/>
<path d="M333.046 89.4675H333.283V117.435L330.678 120.158L329.493 121.148V92.9325L331.151 91.2L333.046 89.4675Z" fill="#FCCF73"/>
<path d="M293.488 111.99L294.436 112.485L298.699 116.94L297.278 118.672L289.224 127.087L287.566 125.602L284.25 122.137L284.724 121.147L293.488 111.99Z" fill="#BAE9EF"/>
<path d="M83.1431 114.465H84.0906L83.38 123.87L83.1431 126.345L82.9062 132.285L81.0112 136.245L79.8269 138.967L79.1162 140.7L76.9844 139.957L76.5106 139.462L77.2212 136.987L76.9844 136.74V134.017L77.695 132.037L79.59 130.057L79.3531 120.9V115.207L81.485 114.712L83.1431 114.465Z" fill="#FED79D"/>
<path d="M302.253 68.6775L303.911 70.1625L306.043 72.39L305.569 73.38L294.199 85.26L293.251 84.765L290.172 81.5475L290.883 80.31L293.725 77.5875L301.068 69.915L302.253 68.6775Z" fill="#BAE9EF"/>
<path d="M323.334 62.985H323.571L323.808 141.442L325.703 139.462H326.177V162.48H321.676L313.859 159.757V159.51L323.334 159.262V62.985Z" fill="#63C5C8"/>
<path d="M323.098 142.185H323.571V159.262L323.334 159.51H313.149L311.728 159.015L313.149 157.282L313.859 156.54L314.807 156.787L316.702 158.767V159.262L319.781 159.015L315.754 154.807L317.176 153.075L320.255 149.857L320.492 148.867L320.018 148.125L318.597 148.372L314.333 152.827L313.386 152.332L313.859 152.085L314.333 151.095L316.702 148.867L323.098 142.185Z" fill="#B8E8EE"/>
<path d="M229.058 65.955H235.217V80.805H229.058V65.955Z" fill="#8EC792"/>
<path d="M220.531 65.955H226.689V80.805H220.531V65.955Z" fill="#8EC792"/>
<path d="M82.1957 173.37H92.8551L92.6182 174.36L90.7232 176.835V177.33L89.5388 178.567L88.1176 180.795L87.8807 181.785H87.4069V182.775L86.6963 183.022L85.0382 185.992V186.982H84.3276V188.22H83.8538L83.6169 188.715H82.1957V173.37Z" fill="#8BC491"/>
<path d="M56.3762 169.657L58.0344 169.905L62.535 171.885L62.7719 172.132L62.535 173.865L58.9819 182.775L57.7975 183.022L52.3494 180.547V179.062L55.9025 170.152L56.3762 169.657Z" fill="#F6D355"/>
<path d="M300.121 118.672L301.779 120.157L302.253 121.147L298.699 124.612L290.883 132.78L288.988 134.512L281.881 141.937L280.934 141.69L279.749 140.452L280.223 139.462L300.121 118.672Z" fill="#A3E0E8"/>
<path d="M209.161 111.99H223.847V117.682H209.161V111.99Z" fill="#8EC792"/>
<path d="M209.161 99.615H223.847V105.307H209.161V99.615Z" fill="#8EC792"/>
<path d="M209.161 86.9924H223.847V92.6849H209.161V86.9924Z" fill="#8EC792"/>
<path d="M232.137 99.615H246.824L246.587 105.307H232.137V99.615Z" fill="#8EC792"/>
<path d="M232.137 86.9924H246.587L246.824 87.9824V91.9424L246.587 92.6849H232.137V86.9924Z" fill="#8EC792"/>
<path d="M232.137 124.613H246.587L246.824 130.058L246.587 130.305H232.137V124.613Z" fill="#8EC792"/>
<path d="M232.137 111.99H246.587L246.824 112.485L246.587 117.682H232.137V111.99Z" fill="#8EC792"/>
<path d="M76.5106 139.71L78.6425 140.452L78.4056 141.937L77.2212 145.402L71.5362 160.252L69.6412 164.955H68.9306L64.43 162.48L63.7194 161.985L64.1931 160.995L65.8512 159.262L67.0356 158.767H68.9306L69.8781 156.787L73.905 146.392L76.5106 139.71Z" fill="#144C5F"/>
<path d="M99.2506 181.785L100.198 182.28L101.619 188.715L103.277 194.655L104.936 199.605L103.751 199.358L100.672 197.378L97.5925 194.655L97.1187 193.418H94.9869L94.2762 192.675V190.943L95.2237 190.2H96.1712L96.4081 188.22L97.5925 183.518L99.2506 181.785Z" fill="#ECAD02"/>
<path d="M277.854 141.938L278.802 142.185L282.355 146.145L290.172 154.312L289.698 154.56L285.197 153.322L279.039 151.095L274.301 148.867L274.064 148.62V145.897L277.854 141.938Z" fill="#BAE9EF"/>
<path d="M92.1443 94.665L92.6181 95.655L94.9868 102.338V105.555L93.5656 110.505H93.3287V108.03L84.5643 108.278L84.8012 107.04L87.8806 101.843L91.9075 94.9125L92.1443 94.665Z" fill="#62A068"/>
<path d="M82.1957 54.5701H93.3288V61.5001H82.1957V54.5701Z" fill="#8EC792"/>
<path d="M82.1957 161.738H93.3288V168.42H82.1957V161.738Z" fill="#8EC792"/>
<path d="M82.1957 151.095H93.3288V157.777H82.1957V151.095Z" fill="#8EC792"/>
<path d="M82.1957 43.9275H93.3288V50.61H82.1957V43.9275Z" fill="#8EC792"/>
<path d="M91.9076 139.958H92.3813V140.453H91.9076L93.3288 145.403V147.135H82.1957V140.205L91.9076 139.958Z" fill="#8DC691"/>
<path d="M282.355 76.845L283.303 77.34L292.304 86.745L291.83 87.735L288.988 90.705L287.329 89.22L279.039 80.5575L280.46 78.825L282.355 76.845Z" fill="#A3E0E8"/>
<path d="M114.174 108.03H124.596V114.96H114.174V108.03Z" fill="#8EC792"/>
<path d="M114.174 97.3875H124.596V104.317H114.174V97.3875Z" fill="#8EC792"/>
<path d="M114.174 54.5701H124.596V61.5001H114.174V54.5701Z" fill="#8EC792"/>
<path d="M114.174 118.92H124.596V125.603H114.174V118.92Z" fill="#8EC792"/>
<path d="M114.174 65.46H124.596V72.1425H114.174V65.46Z" fill="#8EC792"/>
<path d="M114.174 43.9275H124.596V50.61H114.174V43.9275Z" fill="#8EC792"/>
<path d="M114.174 76.1025H124.596L124.833 81.0525L123.649 82.785H114.174V76.1025Z" fill="#8DC691"/>
<path d="M114.174 129.562H124.596L124.833 133.77L122.227 136.245L120.096 136.492H114.174V129.562Z" fill="#8DC692"/>
<path d="M160.364 111.495H168.418V119.91H160.364V111.495Z" fill="#8EC792"/>
<path d="M149.231 111.495H157.285V119.91H149.231V111.495Z" fill="#8EC792"/>
<path d="M149.231 99.3674H157.285V107.782H149.231V99.3674Z" fill="#8EC792"/>
<path d="M149.231 75.36H157.285V83.775H149.231V75.36Z" fill="#8EC792"/>
<path d="M149.231 63.2325H157.285V71.6475H149.231V63.2325Z" fill="#8EC792"/>
<path d="M149.231 51.105H157.285V59.52H149.231V51.105Z" fill="#8EC792"/>
<path d="M160.364 99.3674H168.181L168.418 99.6149V107.782H160.364V99.3674Z" fill="#8EC792"/>
<path d="M160.364 75.36H168.418V83.5275L168.181 83.775H160.364V75.36Z" fill="#8EC792"/>
<path d="M160.364 63.2325H168.418V71.4L168.181 71.6475H160.364V63.2325Z" fill="#8EC792"/>
<path d="M171.498 111.495H179.314L179.551 119.662L179.314 119.91H171.498V111.495Z" fill="#8EC792"/>
<path d="M171.498 99.3674H179.314V107.782H171.498V99.3674Z" fill="#8EC792"/>
<path d="M160.364 87.4875H168.418V95.655H160.364V87.4875Z" fill="#8EC792"/>
<path d="M149.231 87.4875H157.285V95.655H149.231V87.4875Z" fill="#8EC792"/>
<path d="M171.498 75.36H179.314V83.775H171.498V75.36Z" fill="#8EC792"/>
<path d="M98.7769 43.9275H108.489V50.61H98.7769V43.9275Z" fill="#8EC792"/>
<path d="M130.044 69.915L130.992 70.1625L131.466 73.1325V75.855L129.571 78.33L128.86 80.31H128.386L128.149 81.5475L124.833 89.715L123.649 89.22L120.806 87.4875L121.28 86.25L126.728 77.835L127.439 73.38L127.676 72.885L128.386 73.1325L128.623 73.6275L129.334 73.38L129.808 70.41L130.044 69.915Z" fill="#FED89F"/>
<path d="M171.498 87.4875H179.314V95.655H171.498V87.4875Z" fill="#8EC792"/>
<path d="M244.929 143.422H248.008L248.956 143.917L248.719 148.372L247.771 151.342L246.587 153.322H244.218L242.56 152.332L241.376 150.352L241.139 147.63L241.613 145.897L242.797 144.412L243.981 143.67L244.929 143.422Z" fill="#F6D356"/>
<path d="M82.1957 65.46H91.4338L91.1969 67.1925V70.6575L91.4338 72.1425H82.1957V65.46Z" fill="#8EC792"/>
<path d="M84.8012 108.03H93.3287V111.248L91.9075 114.96H84.0906L84.3275 110.258L84.5643 108.278L84.8012 108.03Z" fill="#8DC691"/>
<path d="M25.3456 188.468L40.5056 188.715L39.5581 191.19H17.5287L16.3444 190.448L16.5812 189.21L17.055 188.715L25.3456 188.468Z" fill="#625C53"/>
<path d="M333.046 117.435H333.283V132.037L329.73 135.75H329.493V121.147L330.678 119.91L333.046 117.435Z" fill="#FEBA29"/>
<path d="M309.359 99.3674H315.044V108.525H309.122V102.09L309.359 99.3674Z" fill="#A3E0E8"/>
<path d="M307.464 149.363L309.122 150.848L311.964 153.818L312.438 154.808L309.122 158.273L300.831 156.54L302.253 154.808L307.464 149.363Z" fill="#A3E0E8"/>
<path d="M98.7769 54.5701H108.489V61.5001H106.357L105.409 60.2626L103.514 59.2726H101.619L99.9612 60.0151H98.7769V54.5701Z" fill="#8EC792"/>
<path d="M317.176 99.3674H322.861V108.525H317.176V99.3674Z" fill="#BAE9EF"/>
<path d="M315.518 135.255L316.465 135.503L316.939 136.493L298.226 156.045L296.094 155.798V155.055L298.699 152.333L300.594 150.6L308.885 141.938H309.359L309.833 140.948L311.728 139.215L315.518 135.255Z" fill="#A4E0E8"/>
<path d="M341.574 188.715H361.945L362.892 189.457L362.656 190.695L361.708 191.19H341.574V188.715Z" fill="#615C53"/>
<path d="M286.856 23.385H309.359L309.596 23.6325V25.365L309.359 25.6125H286.856L286.619 25.365V23.6325L286.856 23.385Z" fill="#201813"/>
<path d="M50.9281 205.545H52.8231L54.7181 206.535L55.6656 208.02L55.9024 210.248L55.1918 211.98L53.5337 213.465L53.0599 213.713H50.6912L48.7962 212.475L48.0856 211.238V208.268L49.0331 206.783L50.2174 205.793L50.9281 205.545Z" fill="#615B54"/>
<path d="M82.9063 129.562H88.8282L89.3019 130.305L90.0126 134.017L90.7232 134.265L90.4863 135.255V136.492H82.4326L82.1957 136.245V133.522L82.6694 132.285L82.9063 129.562Z" fill="#8CC591"/>
<path d="M82.1957 76.1025H91.1969L90.9601 77.5875L88.5913 81.5475L87.8807 82.785H82.1957V76.1025Z" fill="#8EC792"/>
<path d="M277.381 82.0425L279.039 83.5275L283.302 87.9825L282.829 88.9725L279.039 92.685L276.67 95.16H276.433V83.0325L277.381 82.0425Z" fill="#A3E0E8"/>
<path d="M109.436 208.02H109.91V208.515L113.226 208.763L113.463 208.268V208.763L116.542 209.258L120.569 210L121.043 210.248L120.806 211.485L119.622 212.228L112.752 213.218L111.094 213.713H108.962L107.778 212.475L108.015 210.495L108.489 208.515H109.436V208.02Z" fill="#5EC4C8"/>
<path d="M266.248 91.9425H266.484V105.555L263.168 109.02H262.931V95.4075L266.248 91.9425Z" fill="#FEBA29"/>
<path d="M272.169 76.3501L275.959 80.3101L274.538 82.2901L274.301 97.3876L272.88 99.1201H272.406L272.169 99.6151V76.3501Z" fill="#9BDDE4"/>
<path d="M70.8256 161.49L71.2993 161.737L71.7731 164.212V170.895L70.8256 175.597L69.6412 178.567L68.4568 180.052L67.2725 180.547V176.092L68.6937 175.102L69.6412 173.122V171.885L68.6937 172.132L67.9831 174.112L67.2725 174.607V172.875L69.4043 167.182V164.955L70.8256 161.49Z" fill="#619E68"/>
<path d="M300.594 111H311.964L311.017 112.237L309.122 113.97L304.148 119.167L303.437 118.92L303.674 117.682L304.621 115.207L304.384 113.475L303.437 112.732L301.779 112.98L301.068 113.722V116.445L299.41 114.96L298.463 113.97L298.699 112.98L300.594 111Z" fill="#A1DFE6"/>
<path d="M333.046 77.835H333.283V89.4675L331.625 91.2L329.73 92.9325H329.493V81.5475L333.046 77.835Z" fill="#FEBA29"/>
<path d="M214.372 133.027L216.741 133.275L216.267 134.76L211.529 144.907L209.397 149.61L209.161 149.857H206.555L208.687 145.155L212.477 136.74L214.372 133.027Z" fill="#E3FAFC"/>
<path d="M79.3531 196.635L80.3006 197.873L81.2481 199.358L81.7219 199.853L81.0112 202.823L81.2481 204.555L83.1431 207.03L82.9062 208.268L81.7219 208.515L77.9319 205.545L76.9844 204.308L76.5106 201.585V198.863L77.2212 197.378L79.3531 196.635Z" fill="#5EC5C9"/>
<path d="M188.079 131.79H190.684L188.553 136.493L185.236 143.67L183.104 148.373H180.499L180.973 146.888L185.473 137.235L187.842 132.038L188.079 131.79Z" fill="#E4FBFD"/>
<path d="M44.2957 161.985L45.4801 162.232L45.7169 168.667L46.4276 167.43L47.6119 167.677L47.3751 168.915L46.4276 170.152L45.4801 170.4L45.7169 174.36L46.1907 174.112L45.9538 175.35L44.2957 179.31L44.0588 178.567L42.6376 178.32L41.2163 177.082L40.7426 176.34V175.102L41.4532 174.855L42.1638 175.597L43.1113 176.835L44.0588 177.082L43.8219 174.855L42.1638 173.865L41.2163 172.627L41.4532 171.39L42.4007 171.637L43.3482 172.875L43.8219 173.122L44.0588 168.172L43.1113 167.677L42.4007 166.44L42.6376 165.202L43.5851 165.45L43.8219 165.697L44.0588 162.232L44.2957 161.985Z" fill="#625551"/>
<path d="M113.937 129.562H114.174V136.493L121.754 136.245V136.74L119.859 138.473L117.49 140.7L112.516 145.155V144.165H112.042V143.67H112.516V140.453L112.989 138.72H112.516V138.225H113.226L113.463 134.513L113.937 129.562Z" fill="#619E6B"/>
<path d="M296.567 115.208L297.515 115.703L298.699 117.188L289.224 127.088L287.566 125.603L287.329 124.613L293.962 117.683L295.857 115.95L296.567 115.208Z" fill="#A3E0E8"/>
<path d="M297.752 59.7675H311.017L309.596 61.5L308.411 62.7375H295.146L296.567 61.005L297.752 59.7675Z" fill="#144C60"/>
<path d="M172.208 132.532H174.103L173.629 134.017L168.418 145.155L167.234 147.63H165.576L164.865 147.382L165.339 145.897L168.181 139.71L171.261 133.027L172.208 132.532Z" fill="#E3FAFC"/>
<path d="M125.781 132.78H132.413L130.992 134.513L126.965 138.473L124.123 141.195L121.043 144.165L120.806 143.67L123.412 138.225L125.781 132.78Z" fill="#E4FAFB"/>
<path d="M228.821 136.245L230.716 136.492L231.19 136.74L230.479 138.967L225.268 150.105L225.031 150.847H222.426L222.663 149.61L225.268 144.165L227.874 138.472L228.821 136.245Z" fill="#E3FAFC"/>
<path d="M209.161 124.613H223.847V128.325L221.715 128.078L214.609 126.84L209.161 126.098V124.613Z" fill="#8DC691"/>
<path d="M271.932 86.25H272.169V99.615L269.801 102.09H269.564V88.725L270.748 87.4875L271.932 86.25Z" fill="#144C60"/>
<path d="M325.703 124.86H325.94V139.462L323.808 141.69H323.571V127.087L325.703 124.86Z" fill="#144C60"/>
<path d="M294.673 46.8975H297.041L298.463 50.61L299.647 54.075V54.57H297.752L297.278 53.58L294.436 53.3325L294.199 54.57H292.067L294.436 47.3925L294.673 46.8975Z" fill="#FDD079"/>
<path d="M182.867 114.218H186.184L187.842 124.365V125.108H184.762L182.867 114.218Z" fill="#A1DEE6"/>
<path d="M171.498 63.48L173.156 64.965L179.314 71.4V71.6475H171.498V63.48Z" fill="#8EC792"/>
<path d="M160.364 51.3525L162.023 52.8375L168.181 59.2725V59.52H160.364V51.3525Z" fill="#8EC792"/>
<path d="M322.387 168.172H323.808L323.334 169.657L321.203 174.36L319.781 174.112L317.176 172.627L315.754 171.39L315.991 169.905L317.649 169.162L320.492 168.42L322.387 168.172Z" fill="#A6E1E9"/>
<path d="M322.387 88.7251H322.624V96.8926H317.176V94.1701L322.387 88.7251Z" fill="#A3E0E8"/>
<path d="M258.904 147.63L262.694 149.61L267.432 152.333L269.09 153.57L268.379 153.818L260.563 153.323L258.904 153.075V147.63Z" fill="#9FDDE3"/>
<path d="M288.277 83.0325L289.224 83.5275L292.304 86.745L291.83 87.735L288.988 90.705L287.329 89.22L284.961 86.745L286.382 85.0125L288.277 83.0325Z" fill="#BAE9EF"/>
<path d="M300.357 46.8975H302.252L303.437 48.63L303.911 48.8775L304.384 47.64L304.858 46.8975H306.753L306.279 48.3825L305.095 50.3625L305.332 51.6L306.99 54.075V54.57H304.858L303.674 52.59L302.726 53.8275L302.252 54.57H300.121L301.779 51.6L302.252 50.3625L300.357 47.3925V46.8975Z" fill="#FDCF77"/>
<path d="M84.0906 114.96H91.6706L90.9599 117.187L90.2493 118.92L90.7231 119.415H89.7756V118.92H83.6168L83.8537 115.207L84.0906 114.96Z" fill="#619F68"/>
<path d="M323.808 168.172H326.651L327.835 168.42L326.651 171.39L324.519 175.597L323.097 175.35L320.966 174.607L323.097 169.657L323.808 168.172Z" fill="#E4FAFC"/>
<path d="M82.1957 86.745H86.6963L87.1701 89.4675L85.0382 93.4275H82.1957V86.745Z" fill="#8DC691"/>
<path d="M125.307 133.027H125.781L125.307 134.512L121.043 143.67L120.333 144.907L117.964 147.135L116.779 148.125L117.253 146.64L121.043 138.472L121.754 136.245L124.359 134.017L125.307 133.027Z" fill="#A6E1E8"/>
<path d="M90.4863 97.3875L91.6707 97.635L92.855 100.11V102.832L91.9075 104.317H86.6963L87.17 103.08L90.0125 98.13L90.4863 97.3875Z" fill="#8DC691"/>
<path d="M325.703 85.5076H325.94V96.8926L323.808 99.1201H323.571V87.7351L325.703 85.5076Z" fill="#144C60"/>
<path d="M331.625 170.152L333.046 171.142L334.704 172.627L335.889 174.36V175.597L335.415 176.092H328.782L330.914 171.39L331.625 170.152Z" fill="#E4FAFC"/>
<path d="M64.43 180.795L65.8513 181.043L66.0881 188.468L65.8513 188.715H61.5875L61.8244 187.23L64.1931 181.043L64.43 180.795Z" fill="#28592F"/>
<path d="M149.231 123.622H157.285V126.345L149.231 126.84V123.622Z" fill="#8DC691"/>
<path d="M88.3544 124.86H88.5912L88.8281 128.077H89.3019V128.572H88.8281V129.562H82.9062V126.345L83.1431 125.602H88.3544V124.86Z" fill="#619F69"/>
<path d="M149.468 150.848H150.416V169.41L149.231 169.163L148.994 155.303L149.231 151.095L149.468 150.848Z" fill="#EEB104"/>
<path d="M97.3556 183.765L97.5925 184.508L96.1712 190.2L94.5131 190.943L94.2762 191.19H90.0125L95.4606 185.498L97.3556 183.765Z" fill="#615C53"/>
<path d="M105.409 125.85H105.646V127.583L104.462 131.543V134.018L107.778 154.808L109.91 168.42V169.163H109.436L107.778 159.263L105.409 144.165L103.277 130.553V128.82L103.751 129.315V130.8H104.225L104.699 128.573L105.172 126.098L105.409 125.85Z" fill="#201813"/>
<path d="M291.83 185.25L293.962 185.498L296.331 186.735L296.804 187.478L292.067 192.428H291.83V185.25Z" fill="#615551"/>
<path d="M138.809 185.25L140.941 185.498L143.309 186.735L143.783 187.478L139.046 192.428H138.809V185.25Z" fill="#615551"/>
<path d="M285.908 46.8975H291.593V48.135H289.698V54.57H287.803V48.3825H285.908V46.8975Z" fill="#FDCF78"/>
<path d="M272.406 76.845L274.064 78.33L275.959 80.31L274.538 82.29L274.301 97.14H274.064L273.827 84.5175L273.117 85.26H272.643L272.406 85.755V76.845Z" fill="#BAE9EF"/>
<path d="M207.739 160.005H216.03L215.793 161.738L214.846 162.48H208.924L207.739 161.243V160.005Z" fill="#625551"/>
<path d="M111.568 153.57L113.226 155.055L115.595 157.53L115.121 158.52L113.463 160.253H110.858L111.094 156.293L111.568 153.57Z" fill="#F65F32"/>
<path d="M317.176 99.3674H322.624L322.387 100.605L319.544 103.327L317.649 105.307H317.176V99.3674Z" fill="#A3E0E8"/>
<path d="M289.698 185.25H290.409V192.428L288.751 190.943L285.671 187.725L286.856 186.488L289.698 185.25Z" fill="#615551"/>
<path d="M136.677 185.25H137.388V192.18L136.44 191.685L132.65 187.725L133.834 186.487L136.677 185.25Z" fill="#615551"/>
<path d="M297.752 188.468L298.699 189.458L299.647 192.18V193.418L296.331 193.665H293.014L294.436 191.933L297.752 188.468Z" fill="#615551"/>
<path d="M302.253 112.485L303.911 112.732L304.858 113.97L304.621 115.95L303.2 118.92H302.253L301.068 116.445L300.831 115.455V113.722L301.779 112.732L302.253 112.485Z" fill="#F55F32"/>
<path d="M144.731 188.468L145.678 189.458L146.389 191.19L146.626 193.418L143.309 193.665H139.993L141.414 191.933L144.731 188.468Z" fill="#625551"/>
<path d="M160.364 123.622H168.418V125.602L167.234 125.85L162.97 126.097H160.364V123.622Z" fill="#8DC691"/>
<path d="M277.854 141.938L278.802 142.185L279.749 143.175L279.512 144.165L275.012 148.867L274.064 148.62V145.897L277.854 141.938Z" fill="#A4E0E8"/>
<path d="M208.924 156.54H214.846L216.03 157.778V158.768L207.739 159.015L207.976 157.283L208.924 156.54Z" fill="#625551"/>
<path d="M96.1712 189.21L96.4081 190.2H98.7769L99.7244 190.695L99.9612 191.19V192.675L99.2506 193.417H94.9869L94.2762 192.675V190.942L95.2237 190.2H96.1712V189.21Z" fill="#F65F32"/>
<path d="M300.121 62.985H307.701L307.227 63.975L304.384 66.945L303.437 66.6975L300.121 63.2325V62.985Z" fill="#A3E0E8"/>
<path d="M131.466 188.962L132.413 189.457L136.203 193.417V193.665H130.044L130.281 191.437L131.466 188.962Z" fill="#615551"/>
<path d="M293.014 195.15H299.647L299.173 197.377L297.752 199.605L296.804 199.11L294.436 196.635L293.014 195.397V195.15Z" fill="#424B48"/>
<path d="M284.487 188.962L285.434 189.457L289.224 193.417V193.665H283.066L283.303 191.437L284.487 188.962Z" fill="#615651"/>
<path d="M181.92 132.038H183.104L180.972 136.988L176.235 147.135L175.761 148.125H174.814L175.287 146.64L180.972 134.265L181.92 132.038Z" fill="#E4FBFD"/>
<path d="M139.993 195.15H146.626L146.152 197.13L144.968 199.357H144.02L141.414 196.635L139.993 195.397V195.15Z" fill="#424B48"/>
<path d="M315.754 169.657L316.228 169.905L315.991 171.39L318.36 173.122L320.966 174.36L323.571 175.35L326.651 175.845H335.415L335.889 175.35L336.362 174.36L336.599 174.607V176.092L335.652 176.835H327.835L323.571 176.092L320.018 174.855L316.465 172.875L315.281 171.885L315.044 170.4L315.754 169.657Z" fill="#F5BD2D"/>
<path d="M92.1444 94.665L92.6181 95.655L94.9869 102.338V104.07L93.8025 104.318L93.3288 104.565H91.6706L92.6181 102.833V100.11L91.4338 97.635L90.7231 97.3875L91.1969 96.15L92.1444 94.665Z" fill="#625952"/>
<path d="M223.61 135.008H224.794L224.321 136.245L219.109 147.383L217.688 150.353H216.741L217.214 148.868L221.241 140.205L223.61 135.008Z" fill="#E3FAFC"/>
<path d="M67.0356 158.767H68.9306L69.1675 159.51L67.5094 163.717L66.325 163.47L63.7194 161.985L64.1931 160.995L65.8512 159.262L67.0356 158.767Z" fill="#619E6A"/>
<path d="M80.0637 132.78L80.5375 133.275L80.0637 136.493L80.5375 136.74L79.8269 138.968L79.1162 140.7L76.9844 139.958L76.5106 139.463L77.695 136.493L80.0637 132.78Z" fill="#FDB629"/>
<path d="M50.9281 207.525H52.8231L53.7706 208.267L54.0075 210.247L53.2969 211.485L52.8231 211.732H50.9281L49.7438 210.495V208.762L50.9281 207.525Z" fill="#FAFDFD"/>
<path d="M130.281 195.15H136.203L134.782 196.882L132.413 199.357H131.702L130.281 196.387V195.15Z" fill="#615551"/>
<path d="M283.302 195.15H289.224L287.803 196.882L285.434 199.357L284.487 198.862L283.302 196.387V195.15Z" fill="#615551"/>
<path d="M308.174 46.8975H310.069V54.57H308.174V46.8975Z" fill="#FEBA29"/>
<path d="M138.809 196.387L140.23 197.625L141.888 199.605L143.072 201.09L140.704 202.327L138.809 202.575V196.387Z" fill="#3F4B48"/>
<path d="M128.386 132.78H132.413L130.992 134.513L126.965 138.473L125.781 139.215L126.491 136.988L128.386 132.78Z" fill="#A7E1E9"/>
<path d="M129.334 64.47L130.518 64.7175V67.1925L129.571 73.38L128.623 73.6275V75.1125H128.386L128.149 71.1525L129.097 64.7175L129.334 64.47Z" fill="#615D54"/>
<path d="M271.696 140.453H272.169V147.63L269.801 146.393L269.564 146.145V142.68L271.696 140.453Z" fill="#164D60"/>
<path d="M291.83 196.387L293.488 197.872L296.094 200.595L295.857 201.337L293.725 202.327L292.067 202.575L291.83 196.387Z" fill="#3F4B48"/>
<path d="M137.151 196.387H137.388V200.1L137.151 202.327L135.493 202.08L133.834 201.337L133.124 200.595L137.151 196.387Z" fill="#625551"/>
<path d="M290.172 196.387H290.409V200.1L290.172 202.327L288.514 202.08L286.619 201.09V200.1L290.172 196.387Z" fill="#625551"/>
<path d="M319.544 168.667H320.729L318.597 173.37L316.465 172.132L315.754 171.39L315.991 169.905L317.649 169.162L319.544 168.667Z" fill="#A2DFE7"/>
<path d="M121.28 136.74H121.754L121.043 138.967L116.542 148.372L115.121 149.61L115.832 147.382L119.859 138.72L120.569 137.482L121.28 136.74Z" fill="#E3FAFC"/>
<path d="M317.886 52.59H325.703L325.94 53.8275L325.703 54.075H317.886L317.649 52.8375L317.886 52.59Z" fill="#E4FBFD"/>
<path d="M317.886 50.115H325.703L325.94 51.3525L325.466 51.6H317.886L317.649 50.3625L317.886 50.115Z" fill="#E4FBFD"/>
<path d="M317.886 47.64H325.703L325.94 48.8775L325.466 49.125H317.886L317.649 47.8875L317.886 47.64Z" fill="#E4FBFD"/>
<path d="M317.886 45.165H325.703L325.94 46.155L324.756 46.65H318.123L317.649 46.4025L317.886 45.165Z" fill="#E4FBFD"/>
<path d="M171.498 123.622H178.604L178.367 125.107L175.524 125.355H171.498V123.622Z" fill="#8DC691"/>
<path d="M322.387 128.325H322.624V130.552L318.834 134.512L317.886 134.017L317.412 133.275L318.36 132.285H318.834L319.071 131.542H319.544L319.781 130.8L321.676 129.067L322.387 128.325Z" fill="#A5E0E8"/>
<path d="M97.3557 183.765L97.5925 184.508L96.4082 188.715H92.6182L94.0394 186.983L97.3557 183.765Z" fill="#65A26E"/>
<path d="M330.204 169.41L331.388 169.905L331.625 170.4L329.019 175.845L328.782 176.093H327.361L327.835 174.608L330.204 169.41Z" fill="#A6E1E8"/>
<path d="M114.884 86.745H121.043L119.859 88.9725L119.385 89.4675L118.201 89.22L114.884 86.9925V86.745Z" fill="#8CC590"/>
<path d="M329.019 168.915L329.967 169.163L330.204 169.905L327.361 176.093L325.94 175.845L328.072 170.895L329.019 168.915Z" fill="#E4FAFB"/>
<path d="M98.0663 194.902L100.198 195.645L103.988 196.882L104.936 199.605L103.751 199.357L100.672 197.377L98.0663 195.15V194.902Z" fill="#F6D357"/>
<path d="M313.859 156.54L314.807 156.788L316.702 158.768V159.263L313.149 159.51L311.728 159.015L313.149 157.283L313.859 156.54Z" fill="#BAE9EF"/>
<path d="M95.2238 81.795L95.9344 82.5375L97.3556 85.26L99.4875 87.735L101.619 88.4775L103.988 88.23L104.936 87.4875H105.409L104.936 88.4775L103.514 89.22H100.909L98.54 87.9825L96.4081 85.26L95.2238 82.785V81.795Z" fill="#ECB000"/>
<path d="M334.231 172.38L335.415 173.618L335.889 174.36V175.598L335.415 176.093H332.573L333.52 173.618L334.231 172.38Z" fill="#A3E0E7"/>
<path d="M320.492 168.42H322.15L320.966 171.39L319.781 173.865L318.597 173.37L319.071 171.885L320.492 168.668V168.42Z" fill="#E4FAFB"/>
<path d="M306.753 104.812H306.99V108.525H303.437L303.911 107.535L305.806 105.802L306.753 104.812Z" fill="#A3E0E8"/>
<path d="M56.1394 153.323L57.3238 153.57V159.015L56.1394 159.263V153.323Z" fill="#625551"/>
<path d="M98.54 76.845L101.619 78.33L102.804 78.5775L102.567 80.5575L100.672 80.0625L99.4875 79.0725L98.54 77.34V76.845Z" fill="#FCCB6F"/>
<path d="M302.252 113.228H303.437L304.147 113.97V115.455L303.437 116.198H302.252L301.305 114.96L301.779 113.723L302.252 113.228Z" fill="#FEF8ED"/>
<path d="M262.694 202.328H274.301V203.07L262.694 202.823V202.328Z" fill="#FEF7CE"/>
<path d="M298.463 189.705L299.173 190.447L299.647 192.18V193.417H296.568L297.989 190.695L298.463 189.705Z" fill="#3F4B48"/>
<path d="M112.752 202.08L121.28 202.327V202.822L119.148 203.07H112.989L112.752 202.08Z" fill="#FEF6CD"/>
<path d="M145.441 189.705L146.152 190.695L146.626 192.427V193.417H143.546L144.968 190.695L145.441 189.705Z" fill="#3F4B48"/>
<path d="M114.174 140.205H117.727L116.542 141.442L114.411 143.422H114.174V140.205Z" fill="#8DC692"/>
<path d="M48.3225 189.458L49.9806 189.705L54.4813 191.685L54.7181 192.675L52.5863 191.933L48.5594 190.2L48.3225 189.458Z" fill="#2F5C62"/>
<path d="M311.728 153.818L312.438 154.808L309.122 158.273L307.701 158.025L308.885 156.788L311.728 153.818Z" fill="#BAE9EF"/>
<path d="M315.754 169.657L316.228 169.905L315.991 171.39L318.36 173.122L321.202 174.607L321.439 175.102L320.018 174.855L316.465 172.875L315.281 171.885L315.044 170.4L315.754 169.657Z" fill="#F1B613"/>
<path d="M95.6975 87.9825H96.1712L95.9343 89.22L92.6181 94.665H91.9075L92.3812 93.4275L94.9868 88.9725L95.6975 87.9825Z" fill="#ECAF00"/>
<path d="M95.6975 123.128H96.1713L95.9344 125.603L94.5131 128.573L92.6181 130.553L91.4338 131.295L90.7231 131.048L91.9075 130.058H92.3813V129.563L93.5656 128.82L94.0394 127.83H94.5131L95.2238 125.603L95.6975 123.128Z" fill="#1F1914"/>
<path d="M114.174 143.422H114.648L114.174 144.907L112.516 148.62H112.279V146.145L112.753 144.907L114.174 143.422Z" fill="#E1FAFC"/>
<path d="M308.174 46.8975H310.069V54.57H309.832L309.596 47.8875L308.174 49.125V46.8975Z" fill="#FDD388"/>
<path d="M305.332 52.095L306.516 53.3325L306.99 54.57H304.858L304.384 53.8275L304.621 52.8375L305.332 52.095Z" fill="#FDBB2E"/>
<path d="M309.359 99.3674H311.964L310.543 101.1L309.359 102.09V99.3674Z" fill="#BAE9EF"/>
<path d="M107.778 76.1025H108.489V82.0425L108.015 81.795L107.778 80.31V76.1025Z" fill="#8EC792"/>
<path d="M56.3762 171.885L58.5081 172.628L61.1137 173.865V174.36L59.6925 174.113L56.3762 172.628V171.885Z" fill="#365E62"/>
<path d="M54.2444 157.53L55.1919 158.025L55.6656 159.758L55.1919 160.5L54.2444 160.005L53.7706 158.025L54.2444 157.53Z" fill="#625551"/>
<path d="M103.278 70.6575H103.751L104.699 72.885L104.462 74.1225L103.041 74.37V73.6275H104.225L103.278 71.895V70.6575Z" fill="#FCCE6C"/>
<path d="M295.62 49.3724H296.094L296.804 51.8474H295.146L295.383 50.1149L295.62 49.3724Z" fill="#FEFCF0"/>
<path d="M289.698 200.348H290.172V202.328L288.514 202.08L288.04 201.585L289.698 200.348Z" fill="#3F4B48"/>
<path d="M136.677 200.348H137.151V202.328L135.493 202.08L135.019 201.585L136.677 200.348Z" fill="#3F4B48"/>
<path d="M65.1407 178.568H65.8513V181.043L64.4301 180.795L65.1407 178.568Z" fill="#609A6A"/>
<path d="M317.886 173.122L319.308 173.617L321.203 174.607L321.439 175.102L320.018 174.855L317.649 173.617L317.886 173.122Z" fill="#F2B817"/>
<path d="M100.198 73.875L101.146 74.37L103.277 75.1125V75.6075L101.146 75.36L100.198 74.6175V73.875Z" fill="#FCCF72"/>
<path d="M66.0881 161.985L67.2724 162.232V163.717L65.8512 163.222L66.0881 161.985Z" fill="#625551"/>
<path d="M124.359 90.705H124.596V93.4275H123.412L124.122 91.2L124.359 90.705Z" fill="#8BC48F"/>
<path d="M138.809 196.387L140.23 197.625L139.519 198.367H139.046L138.809 198.862V196.387Z" fill="#615653"/>
<path d="M291.83 196.387L293.014 197.377L292.541 198.367L291.83 198.615V196.387Z" fill="#625551"/>
<path d="M336.126 174.36L336.599 174.607V176.092L336.126 176.587H335.178L335.652 175.597L336.126 174.36Z" fill="#EFB40C"/>
<path d="M109.673 164.955L110.147 165.45L109.91 168.42H109.673L109.436 165.202L109.673 164.955Z" fill="#315663"/>
</svg>
