<svg width="379" height="227" viewBox="0 0 379 227" fill="none" xmlns="http://www.w3.org/2000/svg">
<path d="M223.61 29.462H327.361V29.6419L266.011 34.6787H264.116L264.353 178.407L273.828 180.925L287.566 184.523L295.62 186.681L309.359 190.279L319.308 192.977L319.071 192.438L318.36 185.962L316.228 185.602L307.701 183.443L283.776 177.507L268.853 173.73V137.573L275.012 138.472L284.961 140.091L293.488 141.53L304.621 143.329L307.701 143.869L308.174 144.228L309.122 148.905L310.306 151.604L312.201 153.583L313.859 154.842L317.886 157L320.492 158.619L322.624 160.058L323.098 160.238V178.766H316.465L316.228 178.946H329.493L328.546 174.809L326.888 168.333L324.756 161.497V160.958H325.94L326.651 162.577L328.309 167.973L331.151 178.766L333.994 178.946L333.52 170.312V161.857L333.757 150.704L334.704 150.524V168.333L334.941 173.909L335.415 178.766L337.31 178.946V174.449L337.784 168.513L338.731 162.757L339.205 160.598L339.679 160.238L340.153 160.418L339.679 163.476L338.968 168.153L338.731 171.031L338.494 178.946H349.864V183.623H347.733L347.496 186.861L346.074 198.194L345.838 199.813L359.339 199.993V200.353L345.601 200.532L343.469 201.612H322.387L320.966 200.892L320.018 200.532H307.938V200.892L306.043 202.151L299.884 206.469L297.989 207.728L294.436 210.246L289.698 213.484L287.093 215.283L286.619 215.823H220.057L221.478 214.384L225.031 211.865L226.926 210.606H227.4V210.246L229.295 208.987L232.848 206.469L233.559 205.929H230.479L219.583 205.569L212.714 205.03L209.634 204.49L209.161 203.95L209.634 203.231H205.134L205.371 201.792L206.555 201.072L209.398 200.712H158.233L162.259 201.612L162.733 201.971V203.411L154.679 203.59L152.548 203.95L151.6 204.13L148.284 204.31L147.099 204.49L142.599 204.67L133.598 204.85H121.754L113.7 204.67L109.673 204.49L108.489 204.31L105.173 204.13L103.751 203.77L101.383 203.59L100.909 200.712H89.5388L87.17 201.792H86.6963V202.151L85.0381 202.691L84.8013 202.871H36.2419L36.005 202.691V200.532H12.7913V199.993L36.005 199.813V167.614L38.1369 166.894L43.1113 165.635L43.3481 141.71L45.48 140.991L50.9281 139.551H84.5644V164.735H91.9075V199.633L100.909 199.813L101.146 198.194L101.383 197.654H100.435V196.395L100.672 195.676L103.278 167.973L104.225 158.08V142.25L103.988 124.621L103.751 116.346L103.514 115.267V109.691L104.225 106.273L104.462 105.733H103.988L103.514 104.834L100.198 102.315L97.8294 99.9769L97.5925 99.4372V96.1993L98.3031 92.4217L99.9613 87.0252L103.041 80.1895L105.646 75.3326L107.541 72.4545L109.436 70.8355L111.805 70.116L114.174 69.7562L117.016 69.5763V67.5976L117.49 66.6982V63.6401L115.832 61.6614L114.884 59.3229L113.7 56.085V53.5666L114.411 51.7677L115.832 50.1488L117.016 49.0695L118.911 48.3499H119.385L119.622 47.4505H122.228L123.412 47.2706H126.728L129.334 47.8103L131.466 48.8896L133.361 50.3287L133.598 50.6884L135.966 50.3287H139.993V50.6884L141.178 51.0482V51.7677L139.519 52.4873H139.046V52.8471L137.151 53.3867L134.308 53.9264L133.598 54.1062L134.071 57.1643L135.729 59.143V60.2223L138.335 60.5821L147.099 62.7407L158.706 65.9786L164.865 67.7775L171.261 69.5763L177.893 71.3752L184.999 73.174L193.527 74.9729L201.107 76.2321L205.134 76.7717L207.739 73.174L208.45 72.4545H208.924L209.161 71.7349L210.819 70.6556L210.582 69.7562L208.45 66.1585L206.555 62.0212L206.081 60.9419V60.0424L204.423 59.6827L203.949 59.3229L204.186 58.2436L205.371 56.8045L205.608 52.4873L206.318 50.5086L207.503 49.0695L208.924 48.17L210.819 47.4505L213.424 46.9109H217.688L220.768 47.6304L223.61 48.8896V29.462Z" fill="#9BE7F1"/>
<path d="M216.977 22.6265H335.415L335.652 106.273L336.599 107.892L338.968 111.669L340.626 115.087L341.574 118.145L341.811 119.225V123.362L340.152 131.277V134.875L340.626 139.911L340.863 140.271L342.521 137.033L345.364 131.097L347.496 127.499L349.154 125.161L351.286 122.822L354.128 120.304L357.444 118.325L361.234 116.886L362.656 116.706H365.261L367.156 117.246L368.341 117.965L369.288 119.404V121.383L368.104 123.542L365.498 125.7L363.603 127.14L361.708 128.938L359.339 131.277L357.207 133.975L355.076 137.033L353.181 140.991L352.233 144.049L350.575 151.784L348.917 155.561L347.022 158.26L345.127 160.058L343.232 160.958H340.626L340.152 160.778V160.418L339.442 160.598L338.257 166.714L337.784 170.852L337.31 178.946H335.415L335.178 178.766L334.704 173.91L334.467 168.333V154.842L334.704 150.525L333.994 150.704L333.757 161.857V170.312L334.231 178.587L333.994 178.946H331.151L330.677 178.227L329.019 171.391L326.887 163.836L325.94 161.138L324.756 160.958L326.414 165.995L328.309 172.65L329.493 177.687V178.946H316.228V183.264H315.991L315.754 178.946L316.465 178.587H322.861L323.097 160.238L321.913 159.879L320.255 158.619L317.886 157.18L314.57 155.381L312.201 153.762L310.543 152.143L309.596 150.525L308.885 148.906L307.937 144.229L306.753 143.869L294.672 141.89L285.671 140.451L269.327 137.753L268.853 137.573V173.73L270.985 174.089L282.355 176.968L301.305 181.645L309.596 183.803L318.36 185.962L318.834 188.3L319.307 192.977L316.702 192.438L304.384 189.2L282.592 183.443L272.406 180.745L264.352 178.587L264.116 178.407V34.6787L283.302 33.0598L324.992 29.642L223.61 29.4621V48.8896L222.426 48.5299L219.583 47.4506L216.977 46.9109V22.6265Z" fill="#88D7B0"/>
<path d="M223.61 29.462H327.361V29.6419L266.011 34.6787H264.116L264.353 178.407L273.828 180.925L287.566 184.523L295.62 186.681L309.359 190.279L318.834 192.797L319.308 193.157L319.544 195.496H263.879L262.221 192.977L260.799 191.718L259.615 187.221L259.141 185.242V184.523L252.983 186.142L250.14 185.962L248.719 186.501L247.771 187.401L251.088 192.078L252.746 194.236L252.509 195.316L252.272 195.496H224.558L225.979 190.999L221.478 190.819L219.346 190.639L218.399 189.919L217.688 189.739H214.609L213.898 182.904L212.477 166.894L210.582 146.747V145.668H208.924L208.687 145.488L208.45 142.25L207.739 103.215V99.2573L204.66 99.797L201.581 99.4372L194.948 97.0987L190.448 95.2999L184.289 92.4217L179.078 89.9033L172.445 86.8453L171.024 86.1257L170.787 85.4062L170.076 85.2263L169.129 83.9671L168.892 83.0677L167.944 82.1683L168.181 81.6286L169.839 81.8085L172.208 82.7079L174.103 83.2476L175.761 83.0677L175.998 81.9884L176.235 81.6286L177.183 81.9884L177.419 82.3482V83.6073L177.183 84.3269L179.314 84.8665L188.079 87.3849L196.606 89.7234L201.818 90.9826L202.291 90.0832L204.423 87.5648L204.897 87.0252L204.66 85.2263L203.949 82.3482V79.6499L204.66 77.851L205.608 76.2321L207.739 73.174L208.45 72.4545H208.924L209.161 71.735L210.819 70.6556L210.582 69.7562L208.45 66.1585L206.555 62.0212L206.081 60.9419V60.0424L204.423 59.6827L203.949 59.3229L204.186 58.2436L205.371 56.8045L205.608 52.4873L206.318 50.5086L207.503 49.0695L208.924 48.1701L210.819 47.4505L213.424 46.9109H217.688L220.768 47.6304L223.61 48.8896V29.462Z" fill="#F3AC48"/>
<path d="M103.988 56.8046H111.331L113.7 56.9845L114.174 56.8046L115.121 59.323L116.069 61.6615L117.727 63.6402V66.6982L117.253 67.5976V69.5764L117.016 69.7563L112.753 70.116L110.384 70.6557L108.963 71.3752L107.541 72.8143L105.646 75.6925L102.804 81.2689L100.198 87.0252L98.54 92.4217L97.8294 96.1993V99.4372L98.7769 100.696L101.383 103.035L103.988 105.014V105.733H104.462L103.751 109.691V115.267L103.988 116.346L104.225 124.621L104.462 142.25V158.08L101.146 192.977L100.909 195.676L100.435 197.654H101.383L100.909 199.813H91.6706L91.9075 164.735H84.5644V139.552L50.9281 139.731L43.585 141.71L43.3481 165.635L40.9794 166.354L36.2419 167.614L36.005 199.813L35.5313 199.993H12.7913V199.813H27.4775L23.9244 189.919L21.5556 182.364L19.6606 175.528L17.7656 166.714L16.5813 159.519L15.8706 152.503L15.6338 148.186V140.991L16.1075 134.515L17.055 127.859L18.7131 120.484L20.3713 115.087L22.2663 110.23L24.3981 105.373L27.4775 99.797L29.6094 96.3792L31.7413 93.3212L35.0575 89.1838L37.4263 86.4855L40.7425 83.0677L43.3481 80.7292L45.0063 79.2902L47.8488 76.9517L50.4544 74.9729L52.3494 73.7137L55.9025 71.3752L61.5875 68.1373L66.7988 65.6189L71.0625 63.8201L77.9319 61.3017L85.9856 59.1431L92.6181 57.8839L100.198 56.9845L103.988 56.8046Z" fill="#9BE7F1"/>
<path d="M123.412 47.2706H126.728L129.334 47.8103L131.466 48.8896L133.361 50.3287L133.597 50.6884L135.966 50.3287H139.993V50.6884L141.178 51.0482V51.7677L139.519 52.4873H139.046V52.8471L137.151 53.3867L134.308 53.9264L133.597 54.1062L134.071 57.5241L135.256 58.9631L135.493 59.8626L133.597 60.762L133.124 62.2011L131.939 63.9999H131.466L130.992 64.8993L129.807 65.6189L128.149 66.3384L125.544 66.6982L125.781 68.497L127.676 69.2166L128.149 69.5763L128.386 71.9148L131.702 75.5125L133.597 77.6712L135.019 79.47V86.8453L134.545 92.2418H166.049V118.145L161.786 119.944L161.075 120.304H136.44L137.151 123.002L140.704 138.832L145.204 158.979L149.231 176.968L153.732 197.115V197.474H140.704L139.283 194.596L133.597 181.824L130.281 174.629L127.439 168.153L123.649 159.878L121.754 155.561H121.517L117.253 176.248L113.226 195.855L112.752 197.474H100.672L100.909 192.977L104.225 158.08V142.25L103.988 124.621L103.751 116.346L103.514 115.267V109.691L104.225 106.273L104.462 105.733H103.988L103.514 104.834L100.198 102.315L97.8294 99.9769L97.5925 99.4372V96.1993L98.3031 92.4217L99.9612 87.0252L103.041 80.1895L105.646 75.3326L107.541 72.4545L109.436 70.8355L111.805 70.116L114.174 69.7562L117.016 69.5763V67.5976L117.49 66.6982V63.6401L115.832 61.6614L114.884 59.3229L113.7 56.085V53.5666L114.411 51.7677L115.832 50.1488L117.016 49.0695L118.911 48.3499H119.385L119.622 47.4505H122.228L123.412 47.2706Z" fill="#28355D"/>
<path d="M223.61 29.462H327.361V29.6419L266.011 34.6787H264.116L264.353 178.407L273.828 180.925L287.566 184.523L295.62 186.681L309.359 190.279L318.834 192.797L319.308 193.157L319.544 195.496H263.879L262.221 192.977L260.799 191.718L259.615 187.221L259.141 185.242V184.343H258.431L257.009 178.587L254.878 172.291L252.983 167.614L252.035 165.815L250.614 162.577L249.193 159.699L247.534 156.461L245.639 152.863L244.455 142.07L245.166 141.53L248.008 140.991L247.534 139.372L243.981 131.097L241.613 125.7L238.296 117.965L236.875 114.727L236.638 108.791L235.928 105.373L234.98 102.675L233.085 99.2573L230.716 96.5591L228.584 94.5803V92.4217L229.769 92.9614L233.322 97.9981L235.691 101.416L238.533 106.453L240.902 110.95L242.323 113.828L243.981 117.246L246.35 122.462L246.587 123.002V127.499H247.061L248.008 126.06H248.482L249.666 129.838L250.614 130.198L250.377 127.499L250.851 127.679L252.035 130.377V130.737H252.983L252.272 128.039V127.499L253.693 128.758V129.118L254.641 129.298L254.167 127.859L253.219 126.6L253.456 126.24L254.641 127.139L255.825 127.679L255.351 126.6L254.167 125.161L252.983 122.462L252.509 121.743L250.377 112.929L248.008 104.834L246.113 99.4372L243.981 94.2206L241.376 88.824V87.9246L241.613 87.5648L239.718 84.6867L236.875 80.7292L234.98 78.3907L232.374 75.1528L229.769 72.4545L226.689 70.4758L224.321 69.3965L222.426 69.0367L222.189 63.4603L220.531 62.3809L219.583 60.9419V60.0424L221.004 58.7833L221.241 58.4235V56.9844L220.294 56.4447H218.636L217.214 57.1643L216.267 57.7039L215.083 56.9844L213.898 55.1856V52.8471L214.135 52.4873L210.345 53.2068H207.739L206.318 53.0269L206.081 55.3654L205.608 55.7252V52.4873L206.318 50.5086L207.503 49.0695L208.924 48.1701L210.819 47.4505L213.424 46.9109H217.688L220.768 47.6304L223.61 48.8896V29.462Z" fill="#1C474E"/>
<path d="M268.853 137.573L275.012 138.472L284.961 140.091L293.488 141.53L304.621 143.329L307.701 143.869L308.174 144.228L309.122 148.905L310.306 151.604L312.201 153.582L313.859 154.842L317.886 157L320.492 158.619L322.624 160.058L323.098 160.238V178.766H316.465L316.228 178.946H329.493L328.546 174.809L326.888 168.333L324.756 161.497V160.958H325.94L326.651 162.577L328.309 167.973L331.151 178.766L333.994 178.946L333.52 170.312V161.857L333.757 150.704L334.704 150.524V168.333L334.941 173.909L335.415 178.766L337.31 178.946V174.449L337.784 168.513L338.731 162.757L339.205 160.598L339.679 160.238L340.153 160.418L339.679 163.476L338.968 168.153L338.731 171.031L338.494 178.946H349.864V183.623H347.733L347.496 186.861L346.074 198.194L345.838 199.813L359.339 199.993V200.353L345.601 200.532L343.469 201.612H322.387L320.966 200.892L320.018 200.532H307.938V200.892L306.043 202.151L299.884 206.469L297.989 207.728L294.436 210.246L289.698 213.484L287.093 215.283L286.619 215.823H220.057L221.478 214.384L225.031 211.865L226.926 210.606H227.4V210.246L229.295 208.987L232.848 206.469L234.743 205.389L236.638 203.95L238.533 202.691L239.718 201.792L241.376 200.353H224.321V199.993H246.587L246.35 200.712L246.824 201.971L248.008 201.792L250.851 200.712L252.983 199.993L320.255 199.813L320.018 199.453L319.071 192.977L318.36 185.962L316.228 185.602L307.701 183.443L283.776 177.507L268.853 173.73V137.573Z" fill="#E4E5E5"/>
<path d="M328.072 29.462H329.019V97.2786L328.072 96.559L326.414 94.5803L324.993 93.3211L323.808 92.6016V60.4022L321.676 60.5821L301.542 60.9419H295.857V112.389L293.488 113.468L292.541 113.828V60.9419L291.356 61.1218L267.906 61.4815L268.143 123.722L272.88 124.441L292.304 126.96L292.541 123.002H293.251L295.383 124.981L295.857 125.341V127.319L297.278 127.499L296.568 126.96L296.804 126.24L297.752 126.96V127.859L298.699 128.039L301.068 130.377L302.016 131.457V131.816L299.173 131.637L284.961 129.658V135.234L287.329 135.414L303.911 137.933V134.335L304.621 134.874L306.279 137.573L307.464 140.631L307.938 142.61V143.329L301.779 142.43L268.616 137.033H268.143L267.906 174.089L270.511 174.629L279.276 176.788L287.803 178.946L297.989 181.465L306.516 183.623L315.281 185.782L318.597 186.681L319.308 192.977L316.702 192.438L304.384 189.2L282.592 183.443L272.406 180.745L264.353 178.586L264.116 178.407V34.6787L283.303 33.0597L324.993 29.6419L328.072 29.462Z" fill="#E3E5E5"/>
<path d="M50.9281 139.552H84.5644V164.735H91.9075V199.813L100.909 199.993V200.353L90.7231 200.532L88.5913 201.072L87.17 201.792H86.6963V202.151L85.0381 202.691L84.8013 202.871H36.2419L36.005 202.691V200.532H12.7913V199.993L36.005 199.813V167.614L38.1369 166.894L43.1113 165.635L43.3481 141.71L45.48 140.991L50.9281 139.552Z" fill="#F3AC48"/>
<path d="M123.412 47.2706H126.728L129.334 47.8103L131.466 48.8896L133.361 50.3287L133.597 50.6884L135.966 50.3287H139.993V50.6884L141.178 51.0482V51.7677L139.519 52.4873H139.046V52.8471L137.151 53.3867L134.308 53.9264L133.597 54.1062L134.071 57.5241L135.256 58.9631L135.493 59.8626L133.597 60.762L133.124 62.2011L131.939 63.9999H131.466L130.992 64.8993L129.807 65.6189L128.149 66.3384L125.544 66.6982L125.781 68.497L127.676 69.2166L128.149 69.5763L128.386 71.9148L131.702 75.5125L133.597 77.6712L135.019 79.47V86.8453L134.545 92.2418H166.049V118.145L161.786 119.944L161.075 120.304L136.44 120.484L134.071 120.843H131.939L130.518 121.203H126.728L126.017 120.664L124.596 120.304L124.122 118.865L122.938 118.145H121.754L118.911 116.166L115.358 113.648L110.621 110.41L107.304 107.892L106.12 107.172V106.812L105.172 106.453L103.988 105.733L103.514 104.834L100.198 102.315L97.8294 99.9769L97.5925 99.4372V96.1993L98.3031 92.4217L99.9612 87.0252L103.041 80.1895L105.646 75.3326L107.541 72.4545L109.436 70.8355L111.805 70.116L114.174 69.7562L117.016 69.5763V67.5976L117.49 66.6982V63.6401L115.832 61.6614L114.884 59.3229L113.7 56.085V53.5666L114.411 51.7677L115.832 50.1488L117.016 49.0695L118.911 48.3499H119.385L119.622 47.4505H122.228L123.412 47.2706Z" fill="#FD4746"/>
<path d="M333.994 150.525H334.704V168.333L334.941 173.91L335.415 178.766L337.31 178.946V174.449L337.784 168.513L338.731 162.757L339.205 160.598L339.679 160.238L340.153 160.418L339.679 163.476L338.968 168.153L338.731 171.031L338.494 178.946H349.864V183.623H347.733L347.496 186.861L346.074 198.194L345.838 199.813L359.339 199.993V200.353L345.601 200.532L343.469 201.612H322.387L320.966 200.892L320.018 200.532H307.938V200.892L306.043 202.151L299.884 206.469L297.989 207.728L294.436 210.246L289.698 213.484L287.093 215.283L286.619 215.823H220.057L221.478 214.384L225.031 211.865L226.926 210.606H227.4V210.246L229.295 208.987L232.848 206.469L234.743 205.389L236.638 203.95L238.533 202.691L239.718 201.792L241.376 200.353H224.321V199.993H246.587L246.35 200.712L246.824 201.972L248.008 201.792L250.851 200.712L252.983 199.993L320.255 199.813L320.018 199.453L319.071 192.977L318.36 186.681L318.123 183.623H316.228V178.946H329.493L328.546 174.809L326.888 168.333L324.756 161.498V160.958H325.94L326.651 162.577L328.309 167.973L331.151 178.766L333.994 178.946L333.52 170.312V161.857L333.757 150.704L333.994 150.525Z" fill="#F3AD49"/>
<path d="M282.829 61.6614H291.83V114.727L290.646 116.526V119.224L291.83 121.383V126.42L288.751 126.06L269.564 123.542L268.853 123.362V62.0211L273.591 61.8413L282.829 61.6614Z" fill="#E4E5E5"/>
<path d="M216.977 22.6265H335.415V106.093L334.704 105.373L332.099 101.596L330.914 99.9769L329.256 98.1781L328.782 97.2786L329.019 29.4621L327.361 29.642L223.61 29.4621V48.8896L222.426 48.5299L219.583 47.4506L216.977 46.9109V22.6265Z" fill="#A4D7DF"/>
<path d="M315.281 61.1217H323.098V92.0619L321.676 91.882H319.071L317.413 92.6015L315.754 94.0406L314.807 95.8395L314.096 97.8182L313.623 100.696V104.834L314.333 108.431L316.228 112.749L319.071 116.886L321.676 120.124L323.098 121.923V130.377L319.071 130.018L315.991 129.478L314.807 127.319L312.675 122.103L310.543 118.505L309.122 116.706L306.99 114.907L305.095 113.648L302.016 112.569L299.884 112.209H296.568V61.4815L315.281 61.1217Z" fill="#E4E5E5"/>
<path d="M135.019 120.484H136.44L136.914 121.743L141.414 142.07L145.915 162.217L149.231 176.967L153.732 197.115V197.474H140.704L139.283 194.596L133.598 181.824L130.281 174.629L127.439 168.153L123.649 159.878L121.517 154.842L121.991 151.963L124.123 141.53L126.491 129.838L127.913 123.002L128.149 121.383L128.386 121.203L131.703 120.843L132.413 120.664H134.071L135.019 120.484Z" fill="#1B243E"/>
<path d="M224.558 144.408H225.979L229.058 150.884L230.006 152.863L230.716 154.842L232.374 158.08L234.033 161.677L235.217 163.836L238.77 170.851L241.376 175.528L244.455 181.105L247.534 186.321L248.008 187.761L251.088 192.078L252.746 194.236L252.509 195.316L252.272 195.496H224.558L225.979 190.998L221.478 190.819L219.346 190.639L218.399 189.919L217.688 189.739H214.609L213.898 182.904L212.477 166.894L210.582 146.747V145.668L218.162 145.128L224.558 144.408Z" fill="#C7673A"/>
<path d="M258.194 184.523H259.141L260.799 191.178L261.51 192.078L263.168 193.877L263.879 194.956V195.496H319.544L319.781 195.855L320.255 199.813L319.781 199.993L252.982 200.173L248.245 201.792L247.534 202.151L246.587 201.972L246.113 200.532L246.587 199.993H224.321V200.353H241.376L240.902 201.072L239.481 202.331L237.822 203.411H237.349L237.112 203.95L235.217 205.209L234.033 206.109L232.374 205.929L223.847 205.749L216.741 205.389L211.766 204.85L209.634 204.49L209.161 203.95L209.634 203.231H205.134L205.371 201.792L206.555 201.072L209.397 200.712H158.232L162.259 201.612L162.733 201.972V203.411L154.679 203.59L152.547 203.95L151.6 204.13L148.284 204.31L147.099 204.49L142.599 204.67L133.597 204.85H121.754L113.7 204.67L109.673 204.49L108.489 204.31L105.172 204.13L103.751 203.77L101.382 203.59L100.909 200.712L90.7231 200.532V200.353H100.909V199.993H91.9075V199.813H100.909L101.146 198.194L101.382 197.654H112.279V198.014L113.463 198.374L114.647 199.453L115.121 199.633L141.177 199.813L141.414 197.654H152.311L153.258 198.374V198.734L154.679 199.273V199.813L211.766 199.633L214.372 198.374H214.846L214.609 197.654L214.135 191.718V189.919H215.319V189.559H217.688L218.872 190.099L219.346 190.459L225.979 190.999L225.742 192.618L224.794 195.316H252.272L252.509 194.236L249.429 190.099L247.534 187.221L249.429 185.962L251.561 185.782L252.982 185.962L258.194 184.523Z" fill="#E0E4E2"/>
<path d="M335.415 22.6265H335.652L335.889 70.116L338.968 72.0948L341.337 73.7137L342.995 74.9729L345.127 76.9517L347.496 79.2902L350.101 82.3482L352.944 86.4855L355.076 90.0832L357.444 95.4798L359.103 100.337L360.524 105.913L361.708 112.389L362.182 116.526L362.656 116.886L360.761 117.246L357.444 118.505L355.076 119.944L353.654 120.844L351.523 122.822L349.864 124.621L347.969 127.139L346.311 129.838L344.416 133.615L341.337 139.911L340.863 140.811H340.626L340.153 137.573L339.916 134.875V131.277L341.574 123.362V119.225L340.626 115.807L339.205 112.569L337.31 109.331L335.652 106.813L335.415 106.273V22.6265Z" fill="#9BE7F1"/>
<path d="M107.778 72.2747L108.015 72.6344L106.357 76.412L103.988 82.3482L102.093 87.2051L99.7244 93.8608L98.7769 97.0988V99.2574L100.672 101.236L102.33 102.495V102.855L103.041 103.035L104.699 104.474L106.357 105.733L108.252 106.992L111.331 109.331L113.226 110.59L116.306 112.749L118.201 114.008L121.991 116.706L123.412 117.426V117.066L124.359 116.706L125.307 115.987H125.781L126.017 115.447L127.913 114.727L128.86 115.447L136.677 115.627V114.368H128.386L128.149 113.648L127.439 112.929V112.569H126.965L124.833 110.41V94.4005H160.838V119.944L160.601 120.304L136.44 120.484L134.071 120.844H131.939L130.518 121.203H126.728L126.017 120.664L124.596 120.304L124.122 118.865L122.938 118.145H121.754L118.911 116.167L115.358 113.648L110.621 110.41L107.304 107.892L106.12 107.172V106.813L105.172 106.453L103.988 105.733L103.514 104.834L100.198 102.315L97.8294 99.9769L97.5925 99.4373V96.1993L98.3031 92.4217L99.9612 87.0252L103.041 80.1896L105.646 75.3327L107.541 72.4545L107.778 72.2747Z" fill="#F3AC48"/>
<path d="M78.1688 42.4138H84.0906L88.3544 42.7736L92.3813 43.4931L95.9344 44.5724L98.3031 45.8316L99.7244 47.4506L100.198 48.35V50.8684L99.0138 52.3075L97.1188 53.3868L93.5656 54.1063L88.1175 54.646L82.1956 55.7253L77.2213 56.9845L72.4838 58.6034L67.5094 60.5822L63.7194 62.381L59.6925 64.5396L56.85 66.1586L54.4813 67.5977L52.1125 69.2166L50.2175 70.4758L49.0331 71.3753H48.5594L48.0856 72.0948L45.0063 74.4333L43.1113 75.3327H40.9794L39.5581 74.6132L37.9 73.1741L36.4788 71.0155L35.7681 69.0368V64.8994L36.9525 61.4816L38.8475 58.4236L41.69 55.3655L46.1906 51.9477L48.0856 50.8684L52.3494 48.7098L56.1394 47.0908L60.64 45.4719L65.3775 44.2127L70.5888 43.1334L75.0894 42.5937L78.1688 42.4138Z" fill="#9BE7F1"/>
<path d="M221.004 87.7448H221.241L221.004 90.443L220.531 93.3212L220.294 96.1993V98.8976L221.241 103.215L224.084 112.929L225.742 118.505L228.584 127.679L232.138 138.472L232.848 140.991L233.559 143.149L232.611 143.509L221.478 144.948L216.267 145.488L213.424 145.668H208.924L208.687 145.488L208.45 142.25L207.739 103.215L207.503 99.0775L209.398 97.9982L211.529 96.3792L213.188 94.9401L214.846 93.3212H215.319L215.793 92.6016L216.741 91.5223L218.399 91.7022L218.873 90.8028L220.294 88.6442L221.004 87.7448Z" fill="#F3AC48"/>
<path d="M123.412 47.2706H126.728L129.334 47.8103L131.466 48.8896L133.361 50.3287L133.597 50.6884L135.966 50.3287H139.993V50.6884L141.177 51.0482V51.7677L139.519 52.4873H139.046V52.8471L137.151 53.3867L134.308 53.9264L133.597 54.1062L134.071 57.5241L135.256 58.9631L135.493 59.8626L133.597 60.762L133.124 62.2011L131.939 63.9999H131.466L130.992 64.8993L129.807 65.6189L128.149 66.3384L125.544 66.6982L125.781 68.497L127.676 69.2166L128.149 69.5763L128.386 71.9148L131.702 75.5125L133.597 77.6712L135.019 79.47V86.8453L134.545 92.2418H166.049V118.145L161.786 119.944L160.601 120.304V100.876L160.838 94.4004H124.833L125.07 94.0407L126.254 93.8608V85.9458L125.781 77.851L125.544 73.3539L123.412 73.174L120.806 72.0947L117.964 70.4758L117.016 69.5763V67.5976L117.49 66.6982V63.6401L115.832 61.6614L114.884 59.3229L113.7 56.085V53.5666L114.411 51.7677L115.832 50.1488L117.016 49.0695L118.911 48.3499H119.385L119.622 47.4505H122.227L123.412 47.2706Z" fill="#C77034"/>
<path d="M333.994 150.525H334.704V168.333L334.941 173.91L335.415 178.766L337.31 178.946V174.449L337.784 168.513L338.731 162.757L339.205 160.598L339.679 160.238L340.152 160.418L339.679 163.476L338.968 168.153L338.731 171.031L338.494 178.946H349.864V183.623H347.732L347.496 186.861L346.074 198.194L345.837 199.813L359.339 199.993V200.353L345.601 200.532L343.469 201.612H322.387L320.966 200.892L320.018 200.532L252.746 200.353L252.982 199.993L320.255 199.813L320.018 199.453L319.071 192.977L318.36 186.681L318.123 183.623H316.228V178.946H329.493L328.546 174.809L326.887 168.333L324.756 161.498V160.958H325.94L326.651 162.577L328.309 167.973L331.151 178.766L333.994 178.946L333.52 170.312V161.857L333.757 150.704L333.994 150.525Z" fill="#ED4746"/>
<path d="M321.203 38.4563H323.098V52.6672L322.861 52.8471L308.411 53.3867L280.46 54.2862L268.853 54.6459V41.8741L287.329 40.6149L296.331 40.0753L321.203 38.4563Z" fill="#E4E5E5"/>
<path d="M228.111 71.3751L229.532 72.0947L230.953 73.3539L233.796 76.5918L237.349 81.0889L239.481 83.9671L240.902 86.1257L241.849 87.7446L241.613 87.9245L241.849 89.1837L244.692 95.2998L247.534 102.675L249.666 109.511L251.324 115.807L252.746 121.743L253.93 124.081L254.878 125.7L255.825 126.78V127.679L254.878 127.499L253.93 126.6H253.456L254.641 128.219V129.298L253.693 129.118L252.272 127.679L252.983 129.478V130.737H252.035L251.088 128.938L250.614 127.679V130.197L249.666 130.018L248.956 128.399L248.482 126.78V126.06H248.008L247.534 127.139L247.061 127.679L246.35 127.499V123.002L243.981 117.965L243.034 115.807L241.613 112.928L239.718 109.151L238.296 106.453L235.928 102.315L234.033 99.4371L230.243 93.8607L229.295 92.7814L228.821 92.6015V94.5803L230.953 96.559L233.322 99.2573L235.217 102.675L236.164 105.373L236.875 108.791L237.112 114.727L239.954 121.383L242.797 127.859L245.876 135.054L248.245 140.451L248.008 141.17L246.113 141.53L245.403 141.35L244.692 140.811L242.56 135.774L238.533 126.06L236.164 120.664L234.033 115.447L233.559 114.368L233.796 112.209V110.05L233.085 106.992L231.427 103.215L229.532 100.337L226.926 97.0986L225.979 96.1992L226.216 94.5803L227.874 87.7446L228.584 85.4061L229.058 80.5492L229.769 76.7717L229.532 74.2533L228.584 72.2745L228.111 71.3751Z" fill="#D56C24"/>
<path d="M244.455 141.53L245.166 141.71H244.692L245.639 151.244L245.876 152.863L248.482 157.9L250.14 161.317L251.798 164.555L252.983 167.434L253.693 168.873L255.588 173.55L257.246 178.586L258.431 183.084V184.343L259.141 184.523L252.983 186.142L250.14 185.962L248.719 186.501L247.771 187.041L245.639 183.623L242.086 177.327L238.77 171.211L235.691 165.275L234.033 161.857L232.848 159.699L231.19 156.101L230.243 154.482L229.295 151.784L226.689 146.387L225.742 144.228L232.611 143.329L238.533 142.43L244.455 141.53Z" fill="#D4764B"/>
<path d="M255.114 172.47H264.116L264.352 178.407L273.827 180.925L287.566 184.523L295.62 186.681L309.359 190.279L318.834 192.797L319.307 193.157L319.544 195.496H263.879L262.221 192.977L260.799 191.718L259.615 187.221L259.141 185.242V184.343H258.431L257.009 178.586L255.114 173.01V172.47Z" fill="#102F34"/>
<path d="M362.419 128.039H362.656V134.335L362.182 139.911L360.997 148.006L359.576 154.842L357.444 162.217L355.312 168.333L352.47 175.169L350.338 179.666L349.864 179.126L338.494 178.946V171.031L338.968 166.354L339.916 161.138L340.152 160.778H343.232L345.364 159.699L347.496 157.36L349.154 154.662L350.338 151.784L351.996 144.049L352.944 140.991L355.076 136.673L357.444 133.256L359.813 130.557L361.945 128.579L362.419 128.039Z" fill="#9BE7F1"/>
<path d="M229.532 153.043L230.243 153.762L231.19 155.921L232.374 158.079L234.033 161.677L235.217 163.836L238.77 170.851L241.376 175.528L244.455 181.105L247.534 186.321L248.008 187.76L251.088 192.078L252.746 194.236L252.509 195.316L252.272 195.496H224.558L225.742 191.898V190.099L226.926 185.422L227.874 180.205L228.584 174.089L228.821 170.851V161.317L228.584 158.259V155.561L229.295 153.223L229.532 153.043Z" fill="#102F34"/>
<path d="M135.019 120.484H136.44L136.914 121.743L138.098 127.139V128.039L137.388 128.938L136.44 131.097L134.545 135.774L133.361 139.551L132.413 143.329L131.703 147.466L131.466 150.165V158.799L132.176 164.196L132.887 167.613L134.308 172.29L135.256 174.989L137.388 180.205L139.046 184.523L140.23 187.581L142.362 192.977L144.02 197.115V197.474H140.704L139.283 194.596L133.598 181.824L130.281 174.629L127.439 168.153L123.649 159.878L121.517 154.842L121.991 151.963L124.123 141.53L126.491 129.838L127.913 123.002L128.149 121.383L128.386 121.203L131.703 120.843L132.413 120.664H134.071L135.019 120.484Z" fill="#0F1428"/>
<path d="M50.9281 139.552H84.5644V164.735H91.9075V199.813L100.909 199.993V200.353L90.7231 200.532L88.5913 201.072L87.17 201.792H86.6963V202.151L84.5644 202.691V167.614H79.1163V141.71H43.585L44.0588 141.35L50.9281 139.552Z" fill="#D16C25"/>
<path d="M236.875 207.368H253.93L260.089 207.548L268.853 208.088L275.723 208.807L280.46 209.527L286.145 210.786L289.461 211.865L288.988 212.585L285.671 214.923L220.057 215.103L221.478 213.844L226.216 210.606H226.689V210.246L228.584 208.987L230.243 207.908L234.269 207.548L236.875 207.368Z" fill="#FAC863"/>
<path d="M215.319 189.559H217.688L218.872 190.099L219.583 190.639L218.872 194.416L218.162 197.654L217.214 199.273L215.793 200.712L214.372 201.432H210.819L209.634 201.072V200.712H158.232L162.259 201.612L162.733 201.971V203.411L154.679 203.59L152.547 203.95L151.6 204.13L148.284 204.31L147.099 204.49L142.599 204.67L133.597 204.85H121.754L113.7 204.67L109.673 204.49L108.489 204.31L105.172 204.13L103.751 203.77L101.382 203.59L100.909 200.712L90.7231 200.532V200.353H100.909V199.993H91.9075V199.813H100.909L101.146 198.194L101.382 197.654H112.279V198.014L113.463 198.374L114.647 199.453L115.121 199.633L141.177 199.813L141.414 197.654H152.311L153.258 198.374V198.734L154.679 199.273V199.813L211.766 199.633L214.372 198.374H214.846L214.609 197.654L214.135 191.718V189.919H215.319V189.559Z" fill="#D5DCDA"/>
<path d="M35.7681 200.532H36.005L36.2419 202.691L84.5644 202.871L83.8538 203.231L80.5375 204.67H80.0638L79.8269 205.209L76.5106 206.649L70.8256 209.167L67.0356 210.786L65.8513 210.606L21.5556 210.786L19.8975 210.966L18.7131 210.786L19.8975 209.886L24.8719 207.728L30.5569 205.209L35.5313 203.231L35.7681 202.871V200.532Z" fill="#E4E4E4"/>
<path d="M242.086 91.3423H242.797L244.692 95.2997L247.534 102.675L249.666 109.511L251.324 115.807L252.746 121.743L253.93 124.081L254.878 125.7L255.825 126.78V127.679L254.878 127.499L253.93 126.6H253.456L254.641 128.219V129.298L253.693 129.118L252.272 127.679L252.983 129.478V130.737H252.035L251.088 128.938L250.614 127.679V130.197L249.666 130.018L248.956 128.399L248.482 126.78V126.06H248.008L247.534 127.139L247.061 127.679L246.35 127.499V123.002L243.981 117.965L243.034 115.807L241.613 112.928L239.718 109.151L238.296 106.453L235.928 102.315L231.901 96.1992V95.2997L236.875 93.5009L241.376 91.7021L242.086 91.3423Z" fill="#D4754A"/>
<path d="M333.994 150.525H334.704V168.333L334.941 173.91L335.415 178.766L337.31 178.946V174.449L337.784 168.513L338.731 162.757L339.205 160.598L339.679 160.238L340.153 160.418L339.679 163.476L338.968 168.153L338.731 171.031L338.494 178.946H349.864V183.623H347.733L347.496 186.861L347.259 187.401H318.834L318.36 186.681L318.123 183.623H316.228V178.946H329.493L328.546 174.809L326.888 168.333L324.756 161.498V160.958H325.94L326.651 162.577L328.309 167.973L331.151 178.766L333.994 178.946L333.52 170.312V161.857L333.757 150.704L333.994 150.525Z" fill="#FC4846"/>
<path d="M214.372 75.5126V76.0522L210.819 80.0097L207.503 83.4275L206.555 84.3269L207.029 85.9459L209.634 88.1045L211.529 89.1838L215.083 90.6229L217.214 91.1625L215.793 92.7815L213.898 94.4005L212.24 95.8395L210.108 97.6384L207.976 99.0775L206.081 99.6171L203.949 99.797L201.581 99.4372L194.948 97.0987L190.448 95.2999L184.289 92.4217L179.078 89.9034L172.445 86.8453L171.024 86.1258L170.787 85.4062L170.076 85.2263L169.129 83.9672L168.892 83.0677L167.944 82.1683L168.181 81.6287L169.839 81.8085L172.208 82.708L174.103 83.2476L175.761 83.0677L175.998 81.9884L176.235 81.6287L177.183 81.9884L177.419 82.3482V83.6074L177.183 84.3269L179.314 84.8666L188.079 87.385L196.606 89.7235L201.818 90.9827L202.291 90.0832L204.423 87.5648L206.081 85.5861L205.844 84.5068L208.213 81.8085L211.056 78.7505L214.135 75.6925L214.372 75.5126Z" fill="#D4774B"/>
<path d="M10.6594 40.9746H35.2944L35.5313 41.3344V55.7252L34.5838 55.905L33.1625 55.5453V55.1855L31.5044 55.0056V54.6458L30.32 54.466L27.9513 53.7464L10.8963 53.5665L10.4225 52.847V41.874L10.6594 40.9746Z" fill="#F3AE4C"/>
<path d="M213.424 46.9109H217.688L220.768 47.6304L223.136 48.7097L224.321 49.6092L226.216 51.5879L227.163 53.9264L227.4 54.8258L227.637 61.1218L228.111 63.2804L229.058 65.0792L230.479 66.5183V66.8781H230.953L233.085 68.8568L235.454 70.8356L236.875 72.4545L237.823 74.793V76.5919L236.875 78.2108L235.928 79.2901L235.217 78.7505L232.848 75.6924L230.006 72.6344L228.111 71.3752L225.742 69.9361L223.373 69.2166L222.426 69.0367L222.189 63.4603L220.531 62.381L219.583 60.9419V60.0425L221.004 58.7833L221.241 58.4235V56.9844L220.294 56.4448H218.636L217.214 57.1643L216.267 57.704L215.083 56.9844L213.898 55.1856V52.8471L214.135 52.4873L210.345 53.2069H207.739L206.318 53.027L206.081 55.3655L205.608 55.7252V52.4873L206.318 50.5086L207.503 49.0695L208.924 48.1701L210.819 47.4505L213.424 46.9109Z" fill="#1B243D"/>
<path d="M90.96 27.843H109.673L109.91 28.2028V42.5936L108.962 42.7734L101.856 40.6148L90.96 40.4349L90.4863 39.8953V28.5626L90.96 27.843Z" fill="#FD4C46"/>
<path d="M319.308 195.496L319.781 195.855L320.255 199.813H254.167L255.114 199.273L257.72 198.374L262.221 196.755L263.642 196.395L263.879 195.675L319.308 195.496Z" fill="#D5ECEF"/>
<path d="M213.187 52.4873H214.135V55.1856L215.319 56.9844L216.504 57.5241L218.162 56.4448L218.636 56.2649H220.294L221.478 56.9844V58.4235L220.531 59.5028L219.82 60.0425L220.057 61.3017L221.241 62.7407L222.426 63.4603V69.0367L219.346 69.7562L217.214 70.8355L215.082 72.0947L211.529 73.3539L208.687 74.0735H207.976L208.45 73.3539L210.108 71.735H210.582L210.819 71.1953L211.529 70.6557L211.056 70.4758L208.45 66.1585L206.555 62.0212L206.081 60.9419V60.0425L204.423 59.6827L203.949 59.3229L204.186 58.2436L205.371 56.8045L206.081 54.1063L206.318 53.027H210.345L213.187 52.4873Z" fill="#D3754A"/>
<path d="M118.438 78.7505L118.674 79.47L116.306 86.1258L115.595 87.9246L115.832 89.1838L117.727 91.8821L119.859 93.8608L122.228 95.4798L124.833 96.739L125.07 110.41L126.965 112.209V112.569H127.439L128.386 113.648L128.623 114.188L136.677 114.368V115.627H128.86L127.676 114.907H127.202L125.307 113.108L122.464 110.59L120.333 108.611L117.727 106.273L115.595 104.294L112.753 101.776L110.621 99.797L108.015 97.4585L107.778 96.739L108.726 96.1993L108.252 95.2999L107.068 93.8608L107.304 93.3212L109.91 94.0407H110.621L113.937 87.5648L116.779 81.9884L118.438 78.7505Z" fill="#D2302F"/>
<path d="M50.9281 139.552H84.5644V165.455H84.0906V165.815L81.7219 166.714L80.5375 167.074V167.434L79.1163 167.614V141.71H43.585L44.0588 141.35L50.9281 139.552Z" fill="#D56D24"/>
<path d="M123.412 47.2706H126.728L129.334 47.8103L131.466 48.8896L133.361 50.3287L133.597 50.6884L135.966 50.3287H139.993V50.6884L141.177 51.0482V51.7677L139.519 52.4873H139.046V52.8471L137.151 53.3867L131.466 54.466L132.413 54.8258L132.176 55.5453L127.676 55.9051L127.912 55.1856L125.781 55.5453H124.833L124.596 56.8045L123.412 58.6034L122.464 58.9631L121.991 58.0637L120.806 57.3442H118.911L118.674 57.5241V59.3229L119.622 60.2223L120.096 60.4022V60.762H120.569L119.859 62.3809L118.674 63.6401L117.727 63.82L116.069 62.0212L115.121 60.2223L114.174 57.3442L113.7 56.085V53.5666L114.411 51.7677L115.832 50.1488L117.016 49.0695L118.911 48.3499H119.385L119.622 47.4505H122.227L123.412 47.2706Z" fill="#FD4946"/>
<path d="M221.004 87.7448H221.241L221.004 90.443L220.057 92.7815L219.109 94.4005L216.978 97.4585L215.083 100.876L213.424 104.294L212.24 107.712L211.056 112.389L210.582 116.886V122.283L211.529 142.25V145.668H208.924L208.687 145.488L208.45 142.25L207.739 103.215L207.503 99.0775L209.398 97.9982L211.529 96.3792L213.188 94.9401L214.846 93.3212H215.319L215.793 92.6016L216.741 91.5223L218.399 91.7022L218.873 90.8028L220.294 88.6442L221.004 87.7448Z" fill="#FAC862"/>
<path d="M154.916 39.5355H158.469L160.838 40.2551L162.733 41.3344L164.154 42.9533L164.865 44.2125V46.7309L163.918 48.8895L161.786 51.9476L158.469 55.905L157.522 56.6246L156.574 56.8045L155.39 56.2648L153.732 54.466L151.363 51.5878L149.468 48.7096L148.521 46.7309V44.3924L149.705 42.2338L151.126 40.9746H151.6V40.6148L153.969 39.7154L154.916 39.5355Z" fill="#9BE7F1"/>
<path d="M258.194 184.523H259.141L260.799 191.178L261.51 192.078L263.168 193.877L263.879 194.956V195.496H319.308V195.676H263.879L263.642 196.575L260.799 197.474L255.825 199.273L254.641 199.633L319.781 199.813V199.993L252.983 200.173L248.245 201.792L247.534 202.151L246.587 201.972L246.113 200.532L247.534 199.093L249.193 198.554L251.088 196.575L251.798 195.676H224.558V195.496L252.272 195.316L252.509 194.236L249.429 190.099L247.534 187.221L249.429 185.962L251.561 185.782L252.983 185.962L258.194 184.523Z" fill="#D6E2DE"/>
<path d="M228.348 85.766H228.584V89.0039L228.348 94.5803H228.821L230.953 96.5591L233.322 99.2573L235.217 102.675L236.164 105.373L236.875 108.791L237.112 114.727L239.954 121.383L242.797 127.859L245.876 135.054L248.245 140.451L248.008 141.17L246.113 141.53L245.403 141.35L244.692 140.811L242.56 135.774L238.533 126.06L236.164 120.664L234.033 115.447L233.559 114.368L233.796 112.209V110.05L233.085 106.992L231.427 103.215L229.532 100.337L226.926 97.0987L225.979 96.1993L226.216 94.5803L227.874 87.7447L228.348 85.766Z" fill="#E2883C"/>
<path d="M132.413 54.1063H133.361L134.071 57.5241L135.256 58.9632L135.492 59.8626L133.597 60.7621L133.124 62.2011L131.939 64H131.466L130.992 64.8994L129.807 65.6189L128.149 66.3385L125.544 66.6983L125.781 69.9362V71.735L125.307 71.9149L124.359 69.7563V69.3965L123.175 69.0368L118.437 67.4178L117.49 67.058L117.727 63.8201L118.911 63.2804L120.569 60.7621H120.096V60.4023L119.148 60.0425L118.437 59.323V57.5241L118.911 57.1644H120.806L122.464 58.2437V58.9632L123.649 58.0638L124.833 55.5454L126.491 55.1856H127.912L127.676 55.9052L129.571 55.5454L132.176 55.3655L132.413 54.8259L130.281 54.646V54.4661L132.413 54.1063Z" fill="#FAC761"/>
<path d="M128.149 72.2747L129.097 72.6344L133.597 77.6712L135.019 79.47V86.8453L134.545 91.7022L134.308 92.2419L131.939 92.6016L130.281 93.1413L127.676 93.6809H127.202L126.965 92.9614L126.728 84.1471L126.254 76.9517V73.1741L128.149 72.2747Z" fill="#FD4846"/>
<path d="M329.967 149.445H330.441V149.805L333.757 150.165V169.592L334.231 177.867L333.994 178.227H331.151L330.678 177.507L329.019 170.672L326.888 163.116L326.177 161.138V160.238L327.835 159.159L329.019 157L329.73 154.122L329.967 149.445Z" fill="#A4D6DE"/>
<path d="M291.356 60.9419H292.541V112.389H292.067V114.548H291.83V61.6614L273.591 62.0212H268.853V123.362L272.169 123.722L290.172 126.06L291.83 126.42V121.563H292.067L292.304 123.542L292.541 123.722V127.139L283.776 126.06L272.88 124.621L268.143 123.902L267.906 123.722V61.4815L268.853 61.3017L291.356 60.9419Z" fill="#A4D7DF"/>
<path d="M91.6706 165.095H91.9075V192.977L90.96 192.258L89.065 189.38L87.8806 185.962L86.9331 180.026L86.4594 174.449V166.714L90.2494 165.275L91.6706 165.095Z" fill="#E48B3D"/>
<path d="M229.532 153.043L230.243 153.762L231.19 155.921L232.374 158.079L234.033 161.677L235.217 163.836L238.77 170.851L239.481 172.111V172.65H229.058L228.821 161.317L228.584 158.259V155.561L229.295 153.223L229.532 153.043Z" fill="#1B474E"/>
<path d="M318.123 183.623H347.733L347.496 186.861L347.259 187.401H318.834L318.36 186.681L318.123 183.623Z" fill="#D3302F"/>
<path d="M224.321 195.496L251.798 195.675L251.324 196.575L249.429 198.554L248.482 199.093L247.297 199.453L246.824 199.813H224.321L223.847 197.654L224.084 197.474L224.321 195.496Z" fill="#D5EDF0"/>
<path d="M224.321 199.993H246.587L246.35 200.712L246.824 201.972L248.008 201.792H248.719L248.482 201.972L251.561 202.331L259.615 202.691L263.879 203.411L264.589 203.77L264.352 204.49L262.694 204.85L257.72 205.389L253.93 205.569L249.192 205.749L247.061 205.929L236.164 206.109L234.98 205.929L235.217 205.03L237.112 203.77L238.296 202.871L239.481 202.151L241.376 200.353H224.321V199.993Z" fill="#E38B3D"/>
<path d="M36.005 167.614H38.1369V202.691H84.0906V202.871H36.2419L36.005 202.691V200.532H12.7913V199.993L36.005 199.813V167.614Z" fill="#E2BE64"/>
<path d="M35.7681 200.532H36.005L36.2419 202.691L84.5644 202.871L83.8538 203.231L80.0638 204.85H68.4569L36.4788 205.03L32.9256 204.85V204.31L35.7681 203.051V200.532Z" fill="#D1C9BA"/>
<path d="M268.143 136.853L274.064 137.753L307.464 143.149L308.174 143.869L307.938 144.229L306.753 143.869L294.673 141.89L285.671 140.451L269.327 137.753L268.853 137.573V173.73L270.985 174.089L282.355 176.968L301.305 181.645L309.596 183.803L318.36 185.962V186.681L315.754 186.142L307.227 183.983L298.463 181.824L289.935 179.666L279.749 177.147L271.222 174.989L267.906 174.089V137.033L268.143 136.853Z" fill="#A5D7E0"/>
<path d="M215.319 189.559H217.688L218.872 190.099L219.583 190.639L218.872 194.416L218.162 197.654L217.214 199.273L215.793 200.712L214.372 201.432H210.819L209.634 201.072V200.712L156.574 200.532L155.39 199.993V199.813L211.766 199.633L214.372 198.374H214.846L214.609 197.654L214.135 191.718V189.919H215.319V189.559Z" fill="#81B8B5"/>
<path d="M170.076 74.0734H171.024H174.34V74.4331L176.946 74.613L177.893 74.7929L177.656 77.3113L176.946 80.909L175.998 82.3481L175.761 83.0676L174.814 83.4274L173.393 83.2475L171.024 82.5279L169.839 81.9883L167.708 81.8084L165.102 77.8509L164.391 76.5918L164.628 75.8722L166.76 75.1527H167.471L167.708 74.613L169.603 74.2532L170.076 74.0734Z" fill="#88D7B1"/>
<path d="M323.098 37.7367H323.808V53.3867L314.807 53.7464L277.854 55.0056L271.933 55.1855H267.906V41.5143L268.143 41.3344L278.802 40.6148L306.279 38.816L323.098 37.7367ZM321.203 38.4562L296.331 40.0752L282.118 40.9746L268.853 41.874V54.6459L319.071 53.0269L322.861 52.847L323.098 52.6671V38.4562H321.203Z" fill="#9AD7CE"/>
<path d="M252.509 200.173L308.411 200.352L307.938 200.532V200.892L306.043 202.151L299.884 206.469L297.989 207.728L294.436 210.246L289.698 213.484L287.093 215.283L286.619 215.823H220.057L221.241 214.923L286.382 214.743L290.409 211.865L292.304 210.426H292.778V210.066L295.383 208.447L297.278 207.008H297.752V206.648L299.647 205.389L300.358 205.209V204.85L302.963 203.231L304.148 202.331L305.095 201.971L305.569 201.252L306.516 200.712L252.272 200.532L252.509 200.173Z" fill="#EA8E4B"/>
<path d="M59.4556 92.2418H63.0088L62.7719 92.7815L59.6925 93.6809L51.4019 96.7389L45.7169 98.7177L45.0063 99.0774L44.7694 99.6171L45.7169 99.9769V100.337L43.1113 100.876L42.1638 100.696V97.2786L37.6631 93.8608V93.501L46.1906 92.9614L59.4556 92.2418Z" fill="#A2D6DC"/>
<path d="M63.2456 92.062H63.9563L63.4825 92.7816L61.1138 95.1201L58.0344 97.9982L55.6656 100.337L53.5338 102.315L51.165 104.654L50.4544 105.373L49.7438 105.194L46.6644 101.776L45.9538 101.056V100.696L45.48 100.517L45.2431 99.7971L44.7694 99.6172L45.0063 98.8976L48.7963 97.4586L55.6656 94.9402L61.3506 92.9614L62.7719 92.7816L63.2456 92.062Z" fill="#A3D7DE"/>
<path d="M323.808 123.362L324.519 123.901L326.414 127.679L327.124 130.737V133.615L326.651 137.573L326.414 142.07H325.94L323.808 139.551L320.492 135.954L318.123 133.076L316.465 130.557V130.197L322.624 130.917L323.808 131.097V123.362Z" fill="#E4E5E6"/>
<path d="M285.671 130.377L288.514 130.557L302.489 132.536L303.2 132.896V137.213L301.068 137.033L285.671 134.695V130.377Z" fill="#E3E5E5"/>
<path d="M160.838 93.8608H162.023L162.259 94.0407V97.0988L162.733 104.294L163.444 108.252L164.391 110.59L165.576 112.389V112.749H166.049V118.145L161.786 119.944L160.601 120.304V94.2206L160.838 93.8608Z" fill="#D56D24"/>
<path d="M107.778 72.2747L108.015 72.6344L106.357 76.412L103.988 82.3482L102.093 87.2051L99.7244 93.8608L98.7769 97.0988V99.2574L100.672 101.236L102.33 102.495V102.855L103.041 103.035L104.699 104.474L106.357 105.733L108.252 106.992L111.331 109.331L113.226 110.59L116.306 112.749L118.201 114.008L121.991 116.706L122.938 117.246L123.412 118.145H121.754L118.911 116.167L115.358 113.648L110.621 110.41L107.304 107.892L106.12 107.172V106.813L105.172 106.453L103.988 105.733L103.514 104.834L100.198 102.315L97.8294 99.9769L97.5925 99.4373V96.1993L98.3031 92.4217L99.9612 87.0252L103.041 80.1896L105.646 75.3327L107.541 72.4545L107.778 72.2747Z" fill="#E37B4C"/>
<path d="M232.138 75.3326L233.085 75.6924L237.349 81.089L239.481 83.9671L240.428 85.4062V86.3056L238.533 87.3849L236.638 87.9246H233.085L231.427 87.0251L230.953 86.4855V82.8878L231.664 76.4119L232.138 75.3326Z" fill="#E3893C"/>
<path d="M50.9281 139.552H84.5644V162.937H84.3275L84.0906 160.058L82.9063 158.619L81.7219 155.741L81.0113 152.323L80.5375 147.646V140.991L83.6169 139.911L50.9281 139.731V139.552Z" fill="#E58D3D"/>
<path d="M50.4544 139.731H84.3275L83.6169 140.091L79.1163 141.71H43.585L44.0588 141.35L50.4544 139.731Z" fill="#C46F34"/>
<path d="M336.599 149.445L336.836 149.805L336.599 151.604V154.302L337.073 156.82L338.021 158.799L339.205 160.058V161.677L338.258 166.714L337.784 170.851L337.31 178.946H335.415V151.244L335.652 149.985L336.599 149.445Z" fill="#D3ECEE"/>
<path d="M165.576 92.6016H166.049V112.749H165.576L163.918 110.23L162.97 107.172L162.496 104.294L162.023 97.0987V94.9401L162.259 93.6809L164.628 92.7814L165.576 92.6016Z" fill="#E38B3D"/>
<path d="M323.808 160.778H324.519L325.229 162.217L327.361 169.232L329.019 175.528V178.766H323.808V160.778Z" fill="#E2E5E4"/>
<path d="M250.14 185.782L252.509 185.962L253.456 187.401L255.351 192.438L255.588 193.337V195.136L254.404 197.474H253.93V197.834L252.035 198.554L251.088 198.734H249.429L249.903 197.834L251.798 195.676H224.558V195.496L252.272 195.316L252.509 194.236L249.429 190.099L247.534 187.221L249.429 185.962L250.14 185.782Z" fill="#A4D7DF"/>
<path d="M321.676 60.4022H323.808V92.4217L323.097 92.0619V61.1218L304.858 61.4815H296.567V112.209L295.857 112.389V60.9419L310.543 60.5821L321.676 60.4022Z" fill="#A4D7DF"/>
<path d="M80.7744 71.5551H82.4325V72.8142L84.0906 72.9941L85.275 73.3539L85.0381 74.4332L84.3275 74.9729L82.4325 74.4332V76.4119L83.8537 76.5918L85.275 77.3114L85.7487 77.6711L85.9856 78.9303L85.275 80.1895L84.0906 80.9091L82.4325 81.2688V82.3481L82.1956 82.528H80.7744V81.2688L78.6425 81.0889L76.9844 80.3694L77.4581 79.2901L77.695 78.9303L79.8269 79.47L80.7744 79.6499V77.851L78.4056 77.3114L77.2212 76.2321V74.4332L78.4056 73.3539L80.3006 72.8142H80.7744V71.5551Z" fill="#FEFEFE"/>
<path d="M117.253 67.0579L119.622 67.5975L123.649 69.0366L124.596 69.7561L125.544 71.7349V68.6768L126.965 68.8567L128.149 69.5762L128.386 71.9147V72.4544L126.728 73.1739H126.254L126.965 84.1469L127.202 93.8607H126.491L126.254 85.9458L125.781 77.8509L125.544 73.3538L123.412 73.1739L120.806 72.0946L117.964 70.4757L117.016 69.5762V67.5975L117.253 67.0579Z" fill="#E47C4D"/>
<path d="M221.478 63.4603H222.426V69.0368L219.346 69.7563L217.214 70.8356L215.083 72.0948L211.529 73.354L208.687 74.0735H207.976L208.45 73.354L210.108 71.735H210.582L210.819 71.1954L211.529 70.6557L211.056 70.2959L213.424 69.5764H214.135V67.7776L217.214 67.058L219.109 65.9787L220.768 64.5396L221.478 63.4603Z" fill="#D47749"/>
<path d="M123.412 47.2706H126.728L129.334 47.8103L131.466 48.8896L133.361 50.3287L133.834 51.2281L131.702 52.4873L127.676 54.1063L126.491 54.2861L126.017 52.3074L124.596 50.5086L122.464 49.0695L120.569 48.1701V47.8103L123.412 47.2706Z" fill="#D2312F"/>
<path d="M240.428 85.766L241.139 86.3056L241.849 87.7447L241.613 87.9246L241.849 89.1838L242.56 90.6229V91.3424L237.112 93.501L233.559 94.9401L232.611 95.2999H231.901L231.664 96.0194L229.532 92.9614L228.821 92.6016L228.584 94.5803H228.348V91.8821L229.769 92.2418L230.006 91.7022L230.479 92.062L232.611 91.5223L236.401 90.0832L238.059 89.1838L239.481 88.6441L240.191 87.5648L240.428 87.9246L240.902 87.7447V86.4855H240.428V85.766Z" fill="#C7673A"/>
<path d="M38.1369 197.294H58.5081V199.273L57.5606 199.453H38.1369V197.294Z" fill="#C46F35"/>
<path d="M127.676 114.727L129.334 115.807L130.518 116.346L133.597 117.426L133.361 117.965H131.466L131.702 118.685L133.361 119.764V120.124L135.019 120.304V120.664L134.071 120.843H131.939L130.518 121.203H126.728L126.017 120.664L124.596 120.304L124.122 118.865L123.175 117.965L122.701 117.606L123.412 117.426V117.066L124.359 116.706L125.307 115.987H125.781L126.017 115.447L127.676 114.727Z" fill="#F7C261"/>
<path d="M277.618 11.1138L278.328 11.2937L279.749 13.2724V13.6322L283.066 13.9919V14.7115L281.408 15.9707L281.171 16.8701L281.408 17.4097V19.0287H279.986L279.749 18.489L277.618 18.1293L276.196 18.6689H275.723V19.0287L274.301 19.3885L274.538 17.5896L275.012 16.1505L274.064 15.7908L272.88 14.8913L272.643 14.1718L274.301 13.812L276.433 13.6322L276.907 12.373L277.618 11.1138Z" fill="#F2B152"/>
<path d="M224.557 10.934L225.268 11.4736V12.1932H225.742L226.452 13.2725V13.6322L228.111 13.8121L228.347 13.992L230.006 14.1719L229.532 14.8914L227.874 16.3305L228.111 19.0288L226.452 18.8489V18.4891L224.321 18.1293L222.899 18.669H222.426V19.0288L221.004 19.3885L221.478 16.8702L221.715 16.1506L220.767 15.7908V15.4311L220.057 15.2512L219.346 14.7115L218.872 14.5317L219.109 13.992L222.189 13.6322L223.373 13.2725L224.084 11.4736L224.557 10.934Z" fill="#F2B051"/>
<path d="M251.088 11.1138H251.561L253.219 13.4523L255.351 13.9919L256.773 14.1718L256.299 14.8913L254.641 15.9707L254.404 17.2299L254.641 17.4097V19.2086L252.746 18.6689L251.798 18.3092L250.377 18.489L248.482 19.2086H247.771L248.008 16.3304L247.771 15.7908L246.587 15.2511L245.876 14.7115V14.1718L249.429 13.4523L249.666 13.0925H250.14L250.851 11.4735L251.088 11.1138Z" fill="#F2B052"/>
<path d="M236.875 11.1138H237.349L238.296 12.5528L238.533 13.6322L242.323 13.9919L242.56 14.3517L240.191 16.1505L240.428 19.0287L238.77 18.8488L237.349 18.1293L236.164 18.3092L234.033 19.2086L233.322 19.0287L233.796 17.7695V16.3304L231.664 14.7115L231.901 13.9919L234.743 13.6322L235.454 13.0925L236.875 11.1138Z" fill="#F2B051"/>
<path d="M264.589 11.2937L265.063 12.0132H265.537L266.011 13.4523L269.801 13.992L269.564 14.8914L268.143 16.1506L267.669 16.3305L267.906 19.0287H266.721L266.484 18.4891L264.116 17.9494V18.3092L261.984 19.0287H261.273V15.9707L258.904 14.5316V14.1719L262.694 13.4523L264.116 11.4736L264.589 11.2937Z" fill="#F2B050"/>
<path d="M122.938 202.511H137.861L142.125 202.691L141.414 202.871V203.411H145.204V203.59L143.546 203.95L136.44 204.31H118.437L113.7 203.95V203.59H112.042V203.411H122.701V202.871L122.227 202.691L122.938 202.511Z" fill="#D1C9BA"/>
<path d="M214.372 75.5126V76.0522L210.819 80.0097L207.503 83.4275L206.555 84.3269L207.029 85.9459L209.634 88.1045L211.529 89.1838L215.083 90.6229L217.214 91.1625L215.793 92.7815L214.609 93.6809L214.372 93.1413L212.24 92.7815L208.924 91.1625L205.844 89.0039L204.66 87.9246L204.897 87.0252L206.081 85.5861L205.844 84.5068L208.213 81.8085L211.056 78.7505L214.135 75.6925L214.372 75.5126Z" fill="#C6683A"/>
<path d="M135.966 50.3286H139.993V50.6884L141.177 51.0482V51.7677L139.519 52.4872H139.046V52.847L137.151 53.3867L131.466 54.466L132.413 54.8257L132.176 55.5453L127.676 55.905L127.912 55.1855L125.781 55.5453H124.833L124.596 56.2648L124.359 55.905L122.227 56.2648H121.043L121.517 55.905L126.254 54.466H126.965V54.1062L130.755 52.6671L133.124 51.5878L134.308 50.6884L135.966 50.3286Z" fill="#E47F50"/>
<path d="M43.3481 141.71H44.7694L45.0062 142.07L44.7694 167.613H43.3481L43.1112 165.635L43.3481 141.71Z" fill="#FBC963"/>
<path d="M227.4 202.871H238.296L237.823 203.411H237.349L237.112 203.95L235.217 205.209L234.033 206.109L233.559 205.929L234.033 205.389L224.558 205.029L219.82 204.67L218.873 204.49L218.636 203.95L219.109 203.59L221.478 203.231L227.4 202.871Z" fill="#D1C9BA"/>
<path d="M124.359 59.8625H126.728L127.912 60.4022L129.097 61.3016L129.334 62.0212V63.4602L128.386 64.5396L127.439 65.2591L126.491 65.6189H124.359L122.938 64.8993L122.227 64.3597L121.754 63.4602V61.6614L122.938 60.4022L124.359 59.8625Z" fill="#F4AD49"/>
<path d="M22.0294 81.4487H24.1612L25.8194 82.1683L27.0037 83.6073L26.7669 85.4062L25.8194 86.4855L24.635 87.0252L22.5031 87.205L20.845 86.6654L19.6606 85.5861L19.4237 85.0464V83.4275L20.3712 82.3482L21.3187 81.6286L22.0294 81.4487Z" fill="#9BE7F1"/>
<path d="M239.007 202.691L246.113 202.871L251.561 203.231L253.693 203.591L253.93 204.13L253.693 204.49L248.719 205.03L245.639 205.21H235.454L235.928 204.49L237.586 203.77L238.77 203.051L239.007 202.691Z" fill="#C46F35"/>
<path d="M268.379 172.291H268.616V173.73L270.274 173.909L282.355 176.968L301.305 181.645L309.596 183.803L318.36 185.962V186.681L315.754 186.142L307.227 183.983L298.462 181.824L289.935 179.666L279.749 177.147L268.379 174.269L268.142 173.909V172.65L268.379 172.291Z" fill="#9DD7D2"/>
<path d="M75.8 169.952H78.1687L79.8269 170.672L80.7744 172.111V173.37L79.59 174.809L78.4056 175.349L76.5106 175.528L74.8525 174.989L73.6681 173.909L73.4312 173.55V171.751L74.3787 170.672L75.8 169.952Z" fill="#C46F35"/>
<path d="M102.093 203.411H112.042L113.7 203.59V203.95H116.306L118.437 204.13H136.44L143.546 203.77L145.204 203.411H154.679V203.59L152.547 203.95L151.6 204.13L148.284 204.31L147.099 204.49L142.599 204.67L133.597 204.85H121.754L113.7 204.67L109.673 204.49L108.489 204.31L105.172 204.13L103.751 203.77L102.093 203.59V203.411Z" fill="#E4E5E5"/>
<path d="M117.49 200.532H140.941L141.177 202.151H136.44L122.701 201.972L120.806 201.432L117.49 200.712V200.532Z" fill="#FEFEFE"/>
<path d="M124.359 55.7252H124.596V56.8045L123.412 58.6034L122.464 58.9631L121.991 58.0637L120.806 57.3442H118.911L118.674 57.5241V59.3229L119.622 60.2223L120.096 60.4022V60.762H120.569L119.859 62.381L118.674 63.6401L117.727 63.82L116.069 62.0212L115.121 60.2223L114.647 58.0637L120.569 56.2649L124.359 55.7252Z" fill="#D23630"/>
<path d="M252.509 200.173L308.411 200.352L307.938 200.532V200.892L306.043 202.151L299.884 206.469L297.989 207.728L294.436 210.246L289.698 213.484L287.093 215.283L286.619 215.823H286.145L286.619 214.923L287.329 214.024L290.172 212.045L292.304 210.426H292.778V210.066L295.383 208.447L297.278 207.008H297.752V206.648L299.647 205.389L300.358 205.209V204.85L302.963 203.231L304.148 202.331L305.095 201.971L305.569 201.252L306.516 200.712L252.272 200.532L252.509 200.173Z" fill="#CE6F3F"/>
<path d="M267.906 42.7734H268.853V54.6458L270.511 54.4659L285.671 53.9263L292.304 53.7464H297.041V53.9263L298.936 54.1062V54.2861L271.933 55.1855H267.906V42.7734Z" fill="#A1D7D9"/>
<path d="M156.101 43.1332L158.232 43.3131L159.891 44.3924L160.127 45.1119V46.551L159.18 47.6303L157.759 48.3498H155.627L154.206 47.6303L153.495 46.9108L153.258 46.3711V45.1119L153.969 44.0326L155.153 43.3131L156.101 43.1332Z" fill="#FEFEFE"/>
<path d="M284.961 129.658L287.566 129.838L300.831 131.637L302.253 131.816L302.489 132.536L300.121 132.356L285.671 130.377V134.695L287.803 134.874L303.2 137.213V133.076H303.437L303.674 133.975L304.148 134.335L303.911 137.933L301.542 137.753L284.961 135.234V129.658Z" fill="#A1D7D9"/>
<path d="M124.833 94.4004H126.491V111.669H126.018L124.833 110.41V94.4004Z" fill="#FAC660"/>
<path d="M224.321 200.532H241.376L239.954 201.792L239.717 202.151L238.296 202.511V202.151L234.98 202.331H224.794L224.557 202.151L224.321 200.532Z" fill="#FDFDFD"/>
<path d="M295.857 60.9419H301.068V61.1218L302.726 61.3017V61.4815H296.567V112.209L295.857 112.389V60.9419Z" fill="#A5D7E0"/>
<path d="M333.994 150.525H334.704V168.333L334.941 173.91L335.178 176.788V178.766H334.231L333.994 178.407L333.52 170.312V161.857L333.757 150.704L333.994 150.525Z" fill="#1F2A45"/>
<path d="M324.756 160.958H325.94L326.651 162.577L328.309 167.973L330.441 176.068L330.914 178.766H329.73L329.256 177.687L327.598 171.031L325.466 163.656L324.756 161.497V160.958Z" fill="#242A41"/>
<path d="M70.3519 88.2844H72.7206L74.3788 89.3637L74.6156 89.9034V91.1626L73.6681 92.2419L72.7206 92.7815L70.8256 92.9614L69.4044 92.4218L68.4569 91.3425V89.7235L69.1675 88.8241L70.3519 88.2844Z" fill="#FEFEFE"/>
<path d="M221.004 89.9033H221.241L221.004 92.7815L220.768 94.2206V99.2573L221.952 103.934L224.084 111.13L227.637 122.822L231.664 136.134L232.138 137.753L231.901 138.472L228.821 129.118L224.084 114.008L220.531 101.416L220.057 98.8976V96.1993L220.531 91.3424L221.004 89.9033Z" fill="#C96E2F"/>
<path d="M323.097 37.7367H323.808V53.3867L314.807 53.7464L304.621 54.1062H293.962V53.9263L297.041 53.7464L297.515 53.5666L313.859 53.0269H323.334V38.2763L322.624 38.0965L323.097 37.7367Z" fill="#99D7CD"/>
<path d="M59.9294 93.1412L60.64 93.3211L51.4019 96.7389L45.7169 98.7177L44.5325 99.0774V99.4372L43.8219 99.9769H43.3481V100.337H42.8744L42.6375 100.696V97.6384L45.0062 96.9188L59.9294 93.1412Z" fill="#2A385F"/>
<path d="M335.415 149.445H335.652V177.507L335.178 178.227L334.704 173.37L334.467 167.793V154.302L334.704 149.805L335.415 149.445Z" fill="#9FD7D7"/>
<path d="M45.0063 163.476H59.6925L59.9294 163.656V165.095H45.0063V163.476Z" fill="#C46F35"/>
<path d="M207.503 63.4603L208.687 64.3598L210.582 65.4391L211.766 65.7988L213.898 66.1586V69.5764L212.003 70.2959H211.056L209.161 67.4178L207.503 64V63.4603Z" fill="#1C243D"/>
<path d="M38.1369 194.776H51.6387V196.215H38.1369V194.776Z" fill="#C46F35"/>
<path d="M224.321 199.993H246.587L246.35 200.712L246.824 201.972L248.008 201.792H248.719L247.771 202.331L239.717 202.151L240.191 201.432L241.376 200.353H224.321V199.993Z" fill="#96804E"/>
<path d="M277.854 138.652H279.749L292.777 140.811L306.279 142.969L307.701 143.329L308.174 144.229L304.621 143.509L289.224 140.991L279.512 139.372L277.854 138.832V138.652Z" fill="#A1D7DB"/>
<path d="M72.9575 143.329L74.8525 143.509L76.0369 144.408L76.2737 146.027L75.3262 147.107L74.6156 147.466H72.7206L71.2994 146.747L70.8256 145.847L71.0625 144.588L72.2469 143.509L72.9575 143.329Z" fill="#C46F35"/>
<path d="M154.679 96.0194L156.338 96.1993L157.522 96.9188L157.759 97.2786V99.0774L156.574 99.9769L156.101 100.157H154.206L152.784 99.2573L152.548 98.8976V97.2786L153.495 96.3792L154.679 96.0194Z" fill="#C46F35"/>
<path d="M328.783 158.439H329.019V169.952L328.546 169.592L326.651 163.296L326.177 161.857V160.958L327.835 159.879L328.783 158.439Z" fill="#DFE4E2"/>
<path d="M17.2919 91.3423H19.1869L20.3712 91.8819L21.0819 92.7814V93.8607L20.1344 94.94L19.1869 95.2997H17.5287L16.1075 94.5802L15.6337 93.8607L15.8706 92.4216L16.8181 91.5222L17.2919 91.3423Z" fill="#9BE7F1"/>
<path d="M339.442 160.238L340.153 160.418L339.679 163.476L338.968 168.153L338.731 171.031L338.494 178.766H337.547V170.851L338.258 165.275L339.205 160.598L339.442 160.238Z" fill="#262C45"/>
<path d="M222.189 145.128L223.847 145.488V146.027L223.136 146.387L222.662 146.207L222.189 146.927L220.057 147.107L218.399 146.927L217.925 147.287L216.03 147.466L215.319 148.006L211.292 147.646L211.056 146.387L211.292 145.847H212.477L212.003 146.747H213.898L215.319 146.567V145.847L218.399 145.488L221.715 145.308L222.189 145.128Z" fill="#D2302F"/>
<path d="M84.5644 164.735H91.9075L91.6706 165.275L89.5387 165.635L86.4594 166.894H85.0381L84.5644 167.614H79.8269L80.5375 167.434V167.074L82.4325 166.174L84.0906 165.815V165.455H84.5644V164.735Z" fill="#C46E35"/>
<path d="M101.619 202.691H122.227L122.701 202.871V203.411L121.28 203.591H101.382L101.619 202.691Z" fill="#A5D7DF"/>
<path d="M142.125 202.691H162.733V203.411H141.414V202.871L142.125 202.691Z" fill="#A5D7E0"/>
<path d="M78.6425 98.7177H80.0638L81.485 99.4372L81.7219 99.797V101.236L81.2481 101.956L80.3006 102.315H78.4056L77.2213 101.596L76.9844 99.9768L77.695 99.0774L78.6425 98.7177Z" fill="#FEFEFE"/>
<path d="M74.8525 68.6769H75.5631V69.2165L76.9844 69.3964L76.7475 70.2958L75.5631 70.116V71.0154L76.7475 71.1953L77.2212 71.555V72.8142L76.2737 73.3539H75.5631V74.0734H74.8525L74.6156 73.5338L72.9575 72.9941L73.4312 72.2746L74.8525 72.6343L74.6156 71.7349L73.1944 71.1953L72.9575 70.2958L73.6681 69.3964L74.8525 69.2165V68.6769Z" fill="#FDFDFD"/>
<path d="M291.83 121.563H292.067L292.304 123.542L292.541 123.722V127.139L283.776 126.06L274.301 124.801V124.441H277.618L290.172 126.06L291.83 126.42V121.563Z" fill="#A0D7D9"/>
<path d="M310.543 60.5822H321.676L322.387 60.9419L321.913 61.1218L304.858 61.4816L297.278 61.3017V61.1218L301.068 60.9419L301.542 60.762L310.543 60.5822Z" fill="#9CD7D2"/>
<path d="M130.755 116.346H141.414V117.786H133.834L130.755 116.526V116.346Z" fill="#C46F35"/>
<path d="M320.492 37.9166H322.861L323.334 38.2764V53.0269H319.071V52.8471L322.861 52.6672L323.097 38.4563L312.912 39.1758L310.069 39.3557H307.701V39.1758L309.596 38.9959L309.122 38.6362L320.492 37.9166Z" fill="#9AD7CE"/>
<path d="M299.647 181.645H301.305L309.596 183.803L318.36 185.962V186.681L315.754 186.142L300.831 182.364V182.004L299.647 181.824V181.645Z" fill="#99D7CC"/>
<path d="M323.098 37.7367H323.808V53.3867L320.729 53.5666H315.281L315.044 53.2068L317.649 53.0269H323.334V38.2763L322.624 38.0965L323.098 37.7367Z" fill="#97D7C9"/>
<path d="M128.149 114.188L136.677 114.368V115.627H128.86L127.676 114.907L127.202 114.727L128.149 114.188Z" fill="#CA7436"/>
<path d="M45.0063 161.677H54.955V162.757H45.0063V161.677Z" fill="#C46F35"/>
<path d="M221.241 63.2804L221.478 63.82L220.057 65.439L218.399 66.6982L216.03 67.5976L214.135 67.7775V69.5764H213.898V66.1586L216.741 65.7988L219.109 64.8994L221.241 63.2804Z" fill="#C76339"/>
<path d="M323.098 122.462L323.571 123.182L324.045 123.362L323.808 131.097L321.439 130.917L316.228 130.377L316.465 129.658L319.071 129.838L323.098 130.377V122.462Z" fill="#9ED7D5"/>
<path d="M287.566 130.018L290.409 130.197L300.831 131.637L302.252 131.816L302.489 132.536L300.121 132.356L287.092 130.557L287.566 130.018Z" fill="#A4D7DF"/>
<path d="M355.312 71.9148H356.971L357.918 72.6343V73.8935L356.734 74.793H355.312L354.128 73.8935V72.8142L355.312 71.9148Z" fill="#D5ECEF"/>
<path d="M303.2 133.076H303.437L303.674 133.975L304.147 134.335L303.911 137.933L301.542 137.753L294.672 136.673L293.725 136.134H296.331L303.2 137.213V133.076Z" fill="#A5D7E0"/>
<path d="M124.359 55.7252H124.596V56.8045L123.412 58.6034L122.464 58.9631L121.991 58.0637L120.806 57.3442H118.674L118.911 56.8045L120.569 56.2649L124.359 55.7252Z" fill="#D23930"/>
<path d="M97.3556 31.4408L99.0137 31.6207L99.7244 32.3402V33.4195L98.54 34.319L96.8819 34.1391L96.1712 33.2396L96.4081 31.9805L97.3556 31.4408Z" fill="#F0EDE9"/>
<path d="M101.619 33.9591H103.514L104.225 34.4988V36.1177L103.514 36.2976V36.6574L102.093 36.8373L100.909 35.9378V34.6786L101.619 33.9591Z" fill="#F3F1EE"/>
<path d="M221.004 89.9033H221.241L221.004 92.7815L220.768 94.2206V99.2573L221.952 103.934L222.899 107.172V107.892H222.426L221.004 103.215L220.057 98.8976V96.1993L220.531 91.3424L221.004 89.9033Z" fill="#D1712D"/>
<path d="M223.136 144.588L224.084 144.768L222.189 145.308L221.715 145.488L218.399 145.668L215.556 146.027L215.319 146.567L213.898 146.927H212.477L212.003 146.747L212.477 145.847H210.819V145.668L218.162 145.128L223.136 144.588Z" fill="#C66739"/>
<path d="M41.4531 126.96L43.1113 127.139L43.8219 127.859L43.585 129.118L42.6375 129.658L40.9794 129.478L40.2688 128.758L40.5056 127.499L41.4531 126.96Z" fill="#FEFEFE"/>
<path d="M347.259 92.6016H348.917L349.627 93.1412L349.864 94.4004L348.917 95.1199H347.259L346.311 94.2205L346.548 93.1412L347.259 92.6016Z" fill="#FEFEFE"/>
<path d="M306.279 38.816H310.069L309.596 39.1758L307.227 39.5356L301.779 39.8953H295.383V39.7155L297.752 39.5356L298.226 39.3557L306.279 38.816Z" fill="#98D7CC"/>
<path d="M42.4006 165.815H43.1113V167.614H36.2419L36.7156 167.254L42.4006 165.815Z" fill="#C77235"/>
<path d="M296.331 208.088H297.041V208.447L295.146 209.707L291.83 212.045L289.935 213.304L287.093 215.283L286.619 215.823H286.145L286.619 214.923L287.329 214.024L289.935 212.225L290.883 212.045L291.119 211.685H291.593L291.83 211.146L293.725 209.886L296.331 208.088Z" fill="#E78D4E"/>
<path d="M297.278 141.71L299.647 141.89L307.464 143.149L308.174 143.869L307.938 144.228L306.753 143.869L297.041 142.25L296.804 141.89L297.278 141.71Z" fill="#A2D7DB"/>
<path d="M222.426 107.892L223.136 108.072L226.453 118.865L226.216 119.764L225.742 119.224L224.084 114.008L222.426 108.251V107.892Z" fill="#C46F35"/>
<path d="M226.452 78.7505L226.689 79.1103L224.794 82.3482L222.426 85.766L220.531 88.6441L219.583 89.9033L218.872 91.1625L218.399 91.7022L217.925 91.5223L220.767 87.2051L223.373 83.0677L226.216 78.9304L226.452 78.7505Z" fill="#C46F34"/>
<path d="M102.093 31.4408H103.041L102.567 32.3402L98.7769 36.6575H97.5925L98.0662 35.758L101.619 31.8006L102.093 31.4408Z" fill="#EFEDE7"/>
<path d="M204.897 29.462H206.318L207.266 30.1816V31.2609L206.081 31.9804L204.66 31.8005L203.949 31.081L204.186 30.0017L204.897 29.462Z" fill="#D5ECEF"/>
<path d="M165.339 156.101L166.997 156.281L167.471 156.64V157.9L166.76 158.439H165.102L164.391 157.9V156.64H164.865V156.281L165.339 156.101Z" fill="#FEFEFE"/>
<path d="M226.926 149.085L227.637 149.625L228.111 149.445L228.584 150.884V151.424L229.295 152.323L228.111 155.921L227.4 155.561L227.163 154.842L227.4 154.482H228.111L228.348 152.503L227.4 152.323L227.163 151.604V151.244L226.926 150.884V149.085Z" fill="#D3302F"/>
<path d="M294.909 39.5355H297.752L298.699 40.0752L291.119 40.6148H288.04V40.2551L287.092 40.0752L294.909 39.5355Z" fill="#9DD7D3"/>
<path d="M268.379 172.291H268.616V173.73L270.274 173.909L276.67 175.528L276.907 176.068L274.775 175.888L268.379 174.269L268.142 173.909V172.65L268.379 172.291Z" fill="#96D7C8"/>
<path d="M342.521 58.0636H343.943L344.89 58.7831V59.6826L343.943 60.4021H342.521L341.811 59.8624V58.6033L342.521 58.0636Z" fill="#D5EDF0"/>
<path d="M320.729 37.9166H322.861L323.334 38.2764V53.0269H319.071V52.8471L322.861 52.6672L323.098 38.4563L321.203 38.6362H318.834V38.4563H320.492L320.729 37.9166Z" fill="#A5D7E0"/>
<path d="M301.542 60.762H310.069V60.9418L311.491 61.1217V61.3016L302.726 61.4815L297.278 61.3016V61.1217L301.068 60.9418L301.542 60.762Z" fill="#9FD7D7"/>
<path d="M313.859 53.027H317.649V53.2069L315.281 53.3867L314.807 53.7465L310.069 53.9264H306.042L306.279 53.3867L308.411 53.2069L313.859 53.027Z" fill="#A0D7D9"/>
<path d="M292.304 53.7465H297.041V53.9263L298.936 54.1062V54.2861L287.329 54.6459L287.566 54.2861H285.198L285.671 53.9263L292.304 53.7465Z" fill="#A5D7E0"/>
<path d="M121.754 106.633H124.596L124.833 107.532L124.596 109.87L123.412 108.971L121.991 107.532L121.517 106.812L121.754 106.633Z" fill="#27345B"/>
<path d="M274.301 124.441H277.618L284.487 125.341L284.724 125.88L279.749 125.52L274.301 124.801V124.441Z" fill="#96D7C8"/>
<path d="M214.372 75.5126V76.0522L210.819 80.0097L207.502 83.4275L206.318 84.5068V83.9672L208.213 81.8085L211.056 78.7505L214.135 75.6925L214.372 75.5126Z" fill="#C96F30"/>
<path d="M276.67 175.708L278.802 176.068L285.908 177.867L285.197 178.047H283.539L276.196 176.248L276.67 175.708Z" fill="#A2D7DC"/>
<path d="M279.512 61.1217H283.302L282.829 61.8412H270.511V61.4815L278.565 61.3016L279.512 61.1217Z" fill="#9AD7CD"/>
<path d="M284.013 40.2551H288.04V40.6149L284.961 40.9747H281.644L278.091 41.1546L278.802 40.9747V40.6149L284.013 40.2551Z" fill="#9BD7D0"/>
<path d="M280.46 54.1063H288.04L287.329 54.646L283.539 54.8259H280.934L278.328 54.646V54.4661L280.46 54.1063Z" fill="#99D7CC"/>
<path d="M295.146 130.917L302.252 131.816L302.489 132.536L300.121 132.356L294.909 131.637L295.146 130.917Z" fill="#9DD7D2"/>
<path d="M120.569 65.7987L122.701 66.5182L125.544 66.878V67.9573L125.307 68.3171L124.359 68.1372L122.464 67.4177L120.569 66.1585V65.7987Z" fill="#E37B4C"/>
<path d="M163.681 129.658H165.576V130.377L158.943 130.557L159.18 129.838L163.681 129.658Z" fill="#FEFEFE"/>
<path d="M286.145 135.054L288.04 135.414V135.054L290.409 135.234L294.909 135.954L294.199 136.493L290.883 136.134L286.145 135.414V135.054Z" fill="#A5D7E0"/>
<path d="M77.4581 134.695L79.8269 134.875L83.8538 135.414L84.0906 136.134L79.3531 135.594L77.4581 135.234V134.695Z" fill="#FEFEFE"/>
<path d="M199.212 134.155L200.396 134.335L204.186 135.774L205.371 136.314V136.853L204.186 136.673L199.686 134.875L199.212 134.695V134.155Z" fill="#FEFEFE"/>
<path d="M172.682 129.838H176.709L179.314 130.018L179.551 130.737L172.682 130.377V129.838Z" fill="#FEFEFE"/>
<path d="M218.636 56.2649H220.294L220.768 56.6247L220.294 56.8045L220.768 57.1643L220.531 58.4235H220.294L220.057 57.3442L219.109 57.5241L219.583 58.0637L219.346 59.3229H218.873V58.2436L218.399 57.8839L217.925 58.7833L217.451 58.6034L217.925 57.3442L218.399 56.8045L218.162 56.4448L218.636 56.2649Z" fill="#C9693A"/>
<path d="M299.884 205.209L300.358 205.389L298.462 206.828H297.989L297.752 207.368H297.278L297.041 208.088L295.857 208.627L292.304 211.146L291.593 211.685H291.119L290.882 212.225L290.172 212.045L292.304 210.426H292.777V210.066L295.383 208.447L297.278 207.008H297.752V206.649L299.647 205.389L299.884 205.209Z" fill="#E4883F"/>
<path d="M64.6669 131.277L66.0881 131.637L70.5887 133.076L70.8256 133.615L69.1675 133.435L64.6669 131.996V131.277Z" fill="#FEFEFE"/>
<path d="M45.0063 117.246L45.9538 117.605L47.8488 120.124L48.7963 121.203V121.743H48.0856L45.9538 119.224L45.0063 117.785V117.246Z" fill="#FEFEFE"/>
<path d="M41.4531 107.352H42.1637L42.4006 107.712L42.8744 110.77L43.1112 112.389H42.4006L41.4531 108.791V107.352Z" fill="#FEFEFE"/>
<path d="M119.385 57.3442L121.043 57.5241L121.991 58.4235L122.227 59.323L121.754 60.0425L121.28 58.6034L120.806 58.7833V60.2224L120.096 59.8626L119.859 58.9632L120.569 58.0638L119.385 57.8839V59.1431L118.911 58.9632L118.674 58.0638L118.911 57.5241L119.385 57.3442Z" fill="#F2AA49"/>
<path d="M149.942 130.557H152.074V131.097L147.099 131.637H145.204L145.441 131.097L149.942 130.557Z" fill="#FEFEFE"/>
<path d="M252.746 126.06L253.693 126.959L254.641 128.219V129.298L253.693 129.118L252.272 127.679L251.798 127.499L252.035 126.959L252.272 126.78V126.24L252.746 126.06Z" fill="#D47041"/>
<path d="M53.2969 125.52L54.4812 125.88L56.85 127.499L58.745 128.578V128.938L57.5606 128.758L54.2444 126.78L53.06 125.88L53.2969 125.52Z" fill="#FEFEFE"/>
<path d="M186.184 131.097H187.842L192.579 131.996L192.816 132.716L191.158 132.536L186.184 131.637V131.097Z" fill="#FEFEFE"/>
<path d="M277.854 138.652H279.749L284.961 139.552L284.724 140.091L282.592 139.911L279.039 139.192L277.854 138.832V138.652Z" fill="#9CD7D1"/>
<path d="M269.327 123.362L276.196 124.261V124.441L272.88 124.621L268.853 124.081L268.616 123.542L269.327 123.362Z" fill="#A1D7DA"/>
<path d="M133.124 61.8413H133.361V62.7407L131.939 64.5396L130.992 65.439L128.623 66.5183L126.017 67.058L125.781 68.497H125.544V66.6982L128.86 65.9787L130.992 64.7195L131.466 63.9999L132.176 63.4603L133.124 61.8413Z" fill="#D1C9BA"/>
<path d="M90.96 135.954H97.8294V136.493H90.96V135.954Z" fill="#FEFEFE"/>
<path d="M291.83 121.563H292.067L292.304 123.542L292.541 123.722V127.139L290.646 126.96L290.409 126.6L290.646 126.24L291.83 126.42V121.563Z" fill="#A2D7DC"/>
<path d="M81.2481 31.9805H82.6694L83.1431 32.3402V33.2397L82.4325 33.7793L81.2481 33.5994L80.7744 33.2397L81.0112 32.1604L81.2481 31.9805Z" fill="#D5EDF0"/>
<path d="M293.725 136.134H296.331L299.647 136.673L300.357 137.213H297.989L294.199 136.493L293.725 136.134Z" fill="#96D7C7"/>
<path d="M316.465 129.658L319.071 129.838L322.15 130.197L322.387 130.737H320.018L316.228 130.377L316.465 129.658Z" fill="#9CD7D2"/>
<path d="M322.624 121.563L323.098 121.923V130.377L322.15 130.197H322.861L322.624 123.901L321.676 123.722L321.913 122.642H322.624V121.563Z" fill="#E1F2F4"/>
<path d="M296.331 208.088H297.041V208.447L295.146 209.707L291.83 212.045L290.883 212.225L291.119 211.685H291.593L291.83 211.146L293.725 209.886L296.331 208.088Z" fill="#E88A4E"/>
<path d="M283.302 61.1217H288.987V61.3016L290.882 61.4815V61.6614H283.066L283.302 61.1217Z" fill="#A5D7E0"/>
<path d="M113.937 55.3654L115.358 55.5452L116.069 56.6245V56.9843L114.647 57.3441H114.174L113.937 56.8044V55.3654Z" fill="#D3312F"/>
<path d="M129.571 54.8257H132.413L132.176 55.5452L127.676 55.905L127.912 55.3653L129.571 54.8257Z" fill="#D24132"/>
<path d="M270.038 41.1545H271.459V41.5143L272.169 41.6942L271.459 41.8741H268.853V42.7735L268.379 42.9534L267.906 42.7735V41.5143L268.143 41.3344L270.038 41.1545Z" fill="#9FD7D7"/>
<path d="M223.136 144.588L224.084 144.768L222.189 145.308L221.715 145.488L218.399 145.668L216.741 145.847L216.267 145.308L223.136 144.588Z" fill="#C56B37"/>
<path d="M240.428 85.766L241.139 86.3056L241.849 87.7447L240.428 88.4643L239.244 89.3637L238.059 89.9033L236.638 90.443L236.164 90.2631L238.059 89.1838L239.481 88.6441L240.191 87.5648L240.428 87.9246L240.902 87.7447V86.4855H240.428V85.766Z" fill="#C56A35"/>
<path d="M323.334 52.847L323.571 53.2068H320.729V53.5666H315.281L315.044 53.2068L317.649 53.0269L323.334 52.847Z" fill="#8FD7BD"/>
<path d="M15.8706 46.1914L17.055 46.3713L17.2919 47.4506L16.8181 47.9903H15.3969L15.16 47.8104V46.7311L15.8706 46.1914Z" fill="#F4EFE6"/>
<path d="M227.163 156.281L227.637 156.461L228.111 157.72H228.348V160.598L227.874 160.778L227.4 158.44L226.926 157.9V156.461L227.163 156.281Z" fill="#D3302F"/>
<path d="M211.056 70.4758L211.766 70.6557L210.582 71.735L209.397 72.6344L208.213 73.7138L207.266 74.0735L207.739 73.1741L208.45 72.4546H208.924L209.161 71.735L211.056 70.4758Z" fill="#EBB668"/>
<path d="M275.959 54.2861H279.986L280.934 54.8258L277.854 55.0057H272.88V54.8258L275.486 54.6459L275.959 54.2861Z" fill="#A5D7E0"/>
<path d="M207.739 54.1063H209.871L211.766 54.8259L212.003 55.3655L210.345 55.0057L207.739 54.8259L207.266 54.646V54.2862L207.739 54.1063Z" fill="#D3302F"/>
<path d="M42.4006 98.7177H42.6375L42.8744 100.337H43.3481L43.585 99.6171L44.5325 99.4372L44.7694 99.0774V99.6171L45.7169 99.9768V100.337L43.1112 100.876L42.1637 100.696L42.4006 98.7177Z" fill="#80C9AA"/>
<path d="M198.027 105.733L199.212 106.093L199.449 106.812L198.975 107.352H197.554L197.08 106.453L198.027 105.733Z" fill="#FEFEFE"/>
<path d="M130.044 56.9844L131.229 57.1643L131.466 58.2436L130.755 58.7832L129.808 58.6033L129.571 57.3441L130.044 56.9844Z" fill="#D34733"/>
<path d="M22.9769 46.1914L24.1613 46.5512L23.9244 47.8104H22.5031V47.4506H22.0294L22.2663 46.5512L22.9769 46.1914Z" fill="#F6F4F2"/>
<path d="M303.911 134.335L304.621 134.874L305.332 136.493L304.858 136.853H304.148V137.933H303.911V134.335Z" fill="#E3ECED"/>
<path d="M29.3725 46.3712L30.7937 46.5511L31.0306 47.4505L30.5569 47.8103H29.1356L28.8987 47.6304V46.731L29.3725 46.3712Z" fill="#F7F6F3"/>
<path d="M308.411 53.2068H309.596V53.5666H311.727V53.7464L310.069 53.9263H306.042L306.279 53.3867L308.411 53.2068Z" fill="#A5D7E0"/>
<path d="M289.461 39.8954H290.646V40.2552H293.488V40.435L291.119 40.6149H288.04V40.2552L287.092 40.0753L289.461 39.8954Z" fill="#A5D7E0"/>
<path d="M209.634 80.3694H210.108L209.634 81.2688L206.555 84.3268L206.081 84.5067L206.555 83.6073L209.397 80.5493L209.634 80.3694Z" fill="#CD6D2B"/>
<path d="M207.739 56.2649L209.634 56.4448L209.871 56.6247V57.704L209.397 58.0637L208.45 57.8839L207.976 56.6247L207.739 56.2649Z" fill="#D3302F"/>
<path d="M284.25 177.867H286.145L288.988 178.586L289.224 179.126L285.671 178.586L284.25 178.227V177.867Z" fill="#9AD7CF"/>
<path d="M226.453 78.7505L226.689 79.1103L224.794 82.3482L223.847 83.6074H223.373L223.61 82.708L225.979 79.2901L226.453 78.7505Z" fill="#C86E32"/>
<path d="M299.647 181.645H301.305L304.147 182.544L304.384 182.904L302.252 182.724L300.831 182.364V182.004L299.647 181.824V181.645Z" fill="#99D7CC"/>
<path d="M226.926 149.085L227.637 149.625L228.111 149.445L228.584 150.884L228.348 151.244H227.163L226.926 150.884V149.085Z" fill="#D13530"/>
<path d="M220.057 98.5377H220.531L221.478 102.315V103.574L221.004 103.215L220.057 98.8975V98.5377Z" fill="#C66E32"/>
<path d="M287.092 178.766L288.751 178.946L289.224 179.126V178.766L291.83 179.306L292.067 179.846L289.935 179.666L287.092 178.946V178.766Z" fill="#A1D7DA"/>
<path d="M272.88 174.989H274.538L276.67 175.528L276.907 176.068L274.775 175.888L273.354 175.528V175.169L272.88 174.989Z" fill="#96D7C8"/>
<path d="M206.318 53.027L210.345 53.2069V53.3867H206.555L206.792 54.1063L206.555 54.2862L206.318 56.2649H205.608L206.081 54.1063L206.318 53.027Z" fill="#D56638"/>
<path d="M222.189 150.884L224.558 151.244L224.794 151.963L224.321 152.683L223.373 152.143V151.784H222.899L222.189 150.884Z" fill="#D3302F"/>
<path d="M221.004 87.2051L221.241 87.5648L218.872 91.1625L218.399 91.7022L217.925 91.5223L220.531 87.5648L221.004 87.2051Z" fill="#CA7436"/>
<path d="M284.961 139.552L288.514 140.091L288.04 140.271V140.631L285.671 140.451L284.724 140.091L284.961 139.552Z" fill="#A5D7E0"/>
<path d="M306.279 38.816H310.069L309.596 39.1758L307.701 39.3557H303.911V39.1758L306.043 38.9959L306.279 38.816Z" fill="#8ED7BA"/>
<path d="M269.564 137.033L272.169 137.393V138.112L269.327 137.753V137.393L268.853 137.213L269.564 137.033Z" fill="#A0D7D8"/>
<path d="M133.834 57.1643L134.782 57.8838L135.729 59.143V60.2223L133.834 60.9419L133.361 61.6614V60.762L135.256 59.8626L134.782 58.6034L133.834 57.5241V57.1643Z" fill="#D1C9BA"/>
<path d="M276.196 40.7948H278.802L279.512 40.9747L282.118 40.7948V41.1546L279.749 41.3345H276.67L275.959 40.9747L276.196 40.7948Z" fill="#A5D7E0"/>
<path d="M205.844 84.5068H206.318L207.266 86.1258L209.161 87.7448H208.45L207.266 86.8453L206.555 86.1258L205.608 86.4856L206.081 85.5861L205.844 84.5068Z" fill="#C87236"/>
<path d="M123.175 67.7776L125.307 68.3172L125.544 67.9575L125.781 68.677V71.7351L125.307 71.9149L125.07 70.8356L125.307 70.296V68.4971L123.886 68.3172L123.175 67.7776Z" fill="#F4AD49"/>
<path d="M102.33 34.4988L103.277 34.8585L103.041 36.1177L101.856 35.9379V34.6787L102.33 34.4988Z" fill="#F4684F"/>
<path d="M292.067 179.486L294.673 180.026L294.909 180.565L292.778 180.385L291.356 180.026L291.593 179.666L292.067 179.846V179.486Z" fill="#9DD7D4"/>
<path d="M326.177 138.292H326.414V142.07H325.94L325.229 141.171L325.703 140.451H326.177V138.292Z" fill="#E4EEEF"/>
<path d="M297.515 180.925L299.647 181.285L300.831 181.645L300.121 181.824L300.831 182.184L299.173 182.004L297.278 181.465L297.515 180.925Z" fill="#A5D7E0"/>
<path d="M176.235 81.6287L176.946 81.8085L176.472 81.9884L176.235 82.8879L175.524 83.4275L175.051 83.6074H173.629L171.734 82.8879L172.208 82.708L174.103 83.2476L175.761 83.0677L175.998 81.9884L176.235 81.6287Z" fill="#E48B3D"/>
<path d="M281.171 40.4349H282.829V40.7947L281.644 40.9746L278.091 41.1545L278.802 40.9746V40.6148L281.171 40.4349Z" fill="#96D7C8"/>
<path d="M304.621 201.971L305.095 202.151L303.911 203.231L301.305 204.85L300.358 205.209V204.85L302.963 203.231L304.148 202.331L304.621 201.971Z" fill="#E4893E"/>
<path d="M246.35 200.353H246.587L246.824 201.432L248.482 201.252L250.14 200.712L250.851 200.892L247.534 202.151L246.587 201.972L246.113 200.532L246.35 200.353Z" fill="#D1C9BA"/>
<path d="M129.571 60.4022L132.887 61.6614V62.0212L131.229 61.8413L129.808 61.1218L129.571 60.4022Z" fill="#F2AA49"/>
<path d="M229.295 152.683L230.006 152.863L229.769 153.403L229.532 153.223L228.821 155.561L228.348 155.022L228.584 153.762L229.058 152.863L229.295 152.683Z" fill="#CB5236"/>
<path d="M288.04 140.271H289.698L291.356 140.631L291.119 141.17L289.224 140.991L288.04 140.631V140.271Z" fill="#9ED7D5"/>
<path d="M277.854 138.652H279.749L281.881 139.012L281.407 139.552L279.512 139.372L277.854 138.832V138.652Z" fill="#9BD7CF"/>
<path d="M280.697 125.161H283.066L284.487 125.341L284.724 125.88L281.171 125.7V125.341L280.697 125.161Z" fill="#94D7C3"/>
<path d="M215.319 90.8026L217.214 91.1624L215.793 92.7813L214.609 93.6808L214.372 93.1411L215.556 92.2417H216.03L216.267 91.5222L215.319 91.1624V90.8026Z" fill="#C57035"/>
<path d="M292.777 141.17H295.146L297.278 141.53V141.89L295.857 142.07V141.71L293.962 141.53L292.777 141.35V141.17Z" fill="#96D7C8"/>
<path d="M299.884 136.853L302.253 137.033L302.963 137.393L302.726 137.753L300.358 137.573L299.173 137.393L299.884 136.853Z" fill="#A5D7E0"/>
<path d="M309.122 38.6362H311.491V38.996H312.912V39.1759L310.069 39.3558H307.701V39.1759L309.596 38.996L309.122 38.6362Z" fill="#A3D7DD"/>
<path d="M285.434 134.335L285.671 134.695L287.803 134.874L288.04 135.414L284.961 135.234V134.515L285.434 134.335Z" fill="#9DD7D3"/>
<path d="M97.5925 32.1603L98.54 32.3402L98.7769 33.0597L98.3031 33.5994L97.3556 33.4195V32.3402L97.5925 32.1603Z" fill="#F65C48"/>
<path d="M299.173 131.637L302.253 131.816L302.489 132.536L300.121 132.356V131.816L299.173 131.637Z" fill="#A6D7E0"/>
<path d="M306.99 200.532H307.938V200.892L306.279 201.792L305.095 201.972L305.569 201.252L306.99 200.532Z" fill="#E68C44"/>
<path d="M282.355 177.147L283.776 177.327L285.908 177.867L285.197 178.047H283.539L282.118 177.687L282.355 177.147Z" fill="#A5D7E0"/>
<path d="M292.067 135.594L294.909 135.954L294.199 136.493L292.067 136.314L291.119 135.774L292.067 135.594Z" fill="#A0D7D8"/>
<path d="M134.308 91.7021L134.545 92.4217H136.677V92.6016L134.071 92.7815L133.361 92.6016L131.702 92.7815L131.939 92.4217L132.65 92.2418H134.308V91.7021Z" fill="#CA663B"/>
<path d="M246.587 126.06L247.298 126.24L247.534 127.139L247.061 127.679L246.35 127.499V126.24L246.587 126.06Z" fill="#D9703F"/>
<path d="M328.783 166.894H329.019V169.952L328.546 169.592L328.309 168.873V167.613L328.783 166.894Z" fill="#CBE6E5"/>
<path d="M209.397 59.8625L210.108 60.0424L208.45 61.1217L206.555 61.3016L206.792 60.9419L208.45 60.4022L209.397 59.8625Z" fill="#C6693A"/>
<path d="M118.911 57.1643H120.806L122.464 58.2436V58.6034L121.754 58.4235L120.569 57.5241H118.911L118.674 58.2436L118.438 57.5241L118.911 57.1643Z" fill="#F8BF5B"/>
<path d="M229.769 91.7021L230.479 92.4217L228.821 92.6016L228.584 94.5803H228.348V91.882L229.769 92.2418V91.7021Z" fill="#CB5433"/>
<path d="M222.426 86.1257L222.662 86.4855L221.715 88.824H221.478V87.0252L222.426 86.1257Z" fill="#FAC862"/>
<path d="M305.569 201.612H306.279L305.806 202.331L303.911 203.411L304.148 202.691L305.569 201.612Z" fill="#E8884F"/>
<path d="M303.437 136.134L303.911 136.853V137.933H302.726V137.573L301.779 137.393L303.2 137.033L303.437 136.134Z" fill="#97D7C9"/>
<path d="M253.456 127.859H253.93V128.399L254.641 128.219V129.298L253.693 129.118L252.983 128.399V128.039L253.456 127.859Z" fill="#D16F3D"/>
<path d="M251.798 129.118L252.272 129.838L252.982 129.478V130.737H252.035L251.561 130.018L251.798 129.118Z" fill="#D3683F"/>
<path d="M284.487 125.52H285.908V126.24L282.592 125.88V125.7H284.487V125.52Z" fill="#A3D7DC"/>
<path d="M292.777 210.066L293.251 210.246L292.304 211.146L291.593 211.685H291.119L290.882 212.225L290.172 212.045L292.304 210.426H292.777V210.066Z" fill="#E48B3D"/>
<path d="M304.147 182.544L306.279 182.904L306.042 183.263L306.516 183.623L304.384 183.263L303.674 182.904L304.147 182.544Z" fill="#A5D7E0"/>
<path d="M271.696 174.449L273.827 174.809L273.354 175.349L271.222 174.989L270.511 174.629H271.696V174.449Z" fill="#A5D7E0"/>
<path d="M279.039 124.801L281.644 124.981L281.171 125.521L278.328 125.341L279.039 124.801Z" fill="#A5D7E0"/>
<path d="M168.655 82.5281L170.313 83.2476L170.787 83.9672H169.366L168.892 83.0677L168.655 82.5281Z" fill="#E48B3D"/>
<path d="M80.3006 74.4332H80.7744V75.8723L79.8269 75.6924L79.59 74.9729L80.3006 74.4332Z" fill="#D6ECEF"/>
<path d="M228.111 71.3751L229.532 72.0947L230.479 72.8142V73.174L229.532 72.9941L228.111 71.7349V71.3751Z" fill="#C95D35"/>
<path d="M250.14 185.782L252.509 185.962V186.142H250.377L249.192 186.681L248.008 187.041L248.956 186.142L250.14 185.782Z" fill="#D1C9BA"/>
<path d="M309.833 183.983L311.964 184.343L311.728 184.702L312.201 185.062L310.78 184.882L309.359 184.523L309.833 183.983Z" fill="#A4D7DE"/>
<path d="M221.715 16.3304L221.952 17.05L221.715 18.8488L222.426 19.0287L221.004 19.3885L221.478 16.8701L221.715 16.3304Z" fill="#E6C98D"/>
<path d="M316.228 185.602L318.36 185.962V186.681L316.465 186.322L316.702 185.962L316.228 185.602Z" fill="#A1D7DA"/>
<path d="M226.689 152.683H227.637L227.874 153.762H226.689V152.683Z" fill="#D3302F"/>
<path d="M273.354 123.901L276.196 124.261V124.441L272.88 124.621V124.261H273.354V123.901Z" fill="#A5D7E0"/>
<path d="M209.161 87.9246L211.056 89.0039L212.714 89.7234L211.766 89.9033L209.871 88.824L209.161 88.2843V87.9246Z" fill="#C56F36"/>
<path d="M211.056 78.7505L211.766 78.9304L210.345 80.5493L209.634 80.1896L211.056 78.7505Z" fill="#C46E34"/>
<path d="M303.437 203.231H303.911L303.437 203.95L301.779 205.03V204.49L303.437 203.231Z" fill="#EA8E4F"/>
<path d="M338.021 176.968H338.258V178.766H337.547V177.327L338.021 176.968Z" fill="#18263B"/>
<path d="M221.952 105.373L222.426 105.733L222.899 107.172V107.892H222.426L221.952 106.453V105.373Z" fill="#D56D24"/>
<path d="M209.161 72.2747V72.8143L208.213 73.7137L207.266 74.0735L207.739 73.1741L208.687 72.4545L209.161 72.2747Z" fill="#EABA6F"/>
<path d="M59.9294 93.1412L60.64 93.3211L58.2712 94.2205H57.5606L57.7975 93.6809L59.9294 93.1412Z" fill="#2F4164"/>
<path d="M82.4325 78.2108L83.38 78.5706V79.2901L82.1956 79.47L82.4325 78.2108Z" fill="#D5EDF0"/>
<path d="M320.729 37.9166H321.913L321.676 38.4563L321.203 38.6362H318.834V38.4563H320.492L320.729 37.9166Z" fill="#A2D7DC"/>
</svg>
