<svg width="367" height="227" viewBox="0 0 367 227" fill="none" xmlns="http://www.w3.org/2000/svg">
<path d="M67.7373 19.8857H116.3L116.479 82.849L119.347 80.3571L120.78 79.1941L122.572 77.699L124.723 75.8715L126.335 74.5425L128.307 73.7119L130.278 73.2135L131.174 73.3796L132.787 75.3732L133.324 76.3699V77.2006L131.353 79.1941L131.532 80.1909L132.428 80.6893L135.116 81.8522V82.1845L135.833 82.5167L140.313 86.67L141.747 87.8329L142.822 88.6636V88.9958L143.539 89.3281L145.868 91.4878L147.302 92.6507L148.019 93.1491L148.735 92.4845L148.377 92.1523L148.556 91.3216L151.065 88.8297L152.678 87.1684L154.111 85.8393L155.724 84.6764L156.441 84.178V81.1877L156.083 80.1909L154.649 80.3571L153.753 80.8554H151.961L150.707 80.1909L149.631 78.6958L149.273 78.5296L146.764 78.3635L145.689 77.699L145.151 76.8683V75.7054L145.51 74.8748L145.331 73.7119L144.614 72.8812L144.255 72.0506V70.5554L144.793 69.3925L146.047 68.3957L147.839 67.565L148.556 66.7344L149.273 62.9134L150.169 61.4182L151.423 60.4215L151.961 60.2553L154.47 60.0892L155.545 59.4247L156.979 57.9295L158.591 57.0989L159.308 56.9327H161.638L163.43 57.7634L164.146 58.7602L164.505 59.5908L165.938 60.4215L166.655 61.5844L168.089 61.9166L169.164 62.5811L170.239 63.7441L170.777 64.7408V66.7344L170.598 68.2296L172.21 68.8941L173.106 69.5586L173.465 70.8876L173.286 71.8844L174.002 72.8812L174.54 74.0441L174.361 75.3732L173.644 76.3699L172.569 76.8683L171.135 77.2006L169.881 78.6958L168.985 79.028H167.91L167.372 78.8619L167.193 79.1941H166.655V82.5167L167.91 83.8458L168.806 85.1748L169.164 86.67V91.82L168.626 94.4781L166.476 100.957L162.713 111.922L162.175 113.417L162.354 117.072L165.042 123.385L165.401 124.215L165.222 124.88L165.938 127.372L166.118 128.701V130.861L165.58 133.186L164.684 135.18L163.071 137.174L162.354 137.838L162.534 141.493L164.326 165.748L164.863 169.237L165.401 174.054V182.195L164.146 196.648H163.788V202.463L163.609 202.629L151.782 202.961V202.629L141.209 202.961H135.116L135.833 202.296L138.879 200.801L142.822 199.306H143.18V196.98L142.643 196.814L141.388 175.383L140.671 165.914L140.313 163.422V160.099L141.388 149.467L141.747 146.643L140.492 146.477V143.32L140.671 142.49L138.879 142.324L136.191 141.493L134.399 140.33L132.966 139.001L132.07 137.34L131.891 136.675V133.851L133.683 128.036L133.862 127.04V125.711L133.324 123.717L132.249 120.727V118.567L132.966 116.407L134.579 113.085L135.475 110.759L135.654 108.599L134.937 106.439V106.107L133.324 105.775L129.561 104.612L128.307 105.277H127.948L128.307 107.935L129.023 116.241V118.069H128.307L127.59 115.743V118.069H124.364V103.117L124.006 100.459L124.364 99.9604L122.572 99.6281L120.601 98.9636L120.78 101.289L122.035 112.254L123.11 122.388H122.751L123.289 124.049V124.548H126.156L127.59 125.212L128.486 126.375L128.665 127.04V128.202L128.127 129.365L126.694 131.857L125.977 133.186L126.335 135.18L127.948 140.994V141.991L125.977 141.659L122.572 140.994L121.318 140.828H115.942L113.612 141.161L110.745 142.157L108.236 143.653L106.982 144.815L107.878 144.151L109.849 142.822L111.641 141.991L114.508 141.161L115.583 140.994H121.318L128.307 142.157L129.561 146.809L129.382 147.64L121.497 148.138L117.196 148.304L116.838 149.301L114.688 153.122L112.896 156.278L110.208 160.93L108.236 164.419L108.057 169.901H70.9629L69.7085 169.237L68.9917 168.406L68.6333 167.409L68.8125 165.914L69.3501 165.083L70.0669 164.419L69.1709 164.253H65.5869L61.6445 165.083L58.7773 166.412L56.627 168.24L55.3726 169.403L53.2222 170.4L49.9966 171.23L47.4878 171.562L43.9038 179.537L42.6494 182.361L42.291 182.527L38.707 181.032L32.7935 178.706L32.2559 178.54L32.4351 177.377L35.123 170.233L34.5854 169.901L34.9438 168.406L36.3774 164.751L38.707 164.087L40.6782 163.754H43.3662L42.6494 163.588H40.1406L37.4526 164.253L36.7358 164.419L36.915 163.256L39.7822 155.78L40.8574 155.448L43.187 155.282H41.0366L40.1406 155.448L40.3198 154.451L42.4702 148.803L43.7246 146.145L44.7998 144.649L46.4126 143.154L49.9966 141.161L53.4014 139.167L54.835 138.503L57.7021 137.672L66.6621 135.678L77.5933 133.186L79.9229 131.525L83.1484 129.199L90.1372 124.215L93.3628 121.89L95.1548 120.727L67.7373 120.561V19.8857Z" fill="#FC725C"/>
<path d="M196.044 18.2245H244.607V92.6507L242.098 94.1459L240.844 95.3088L239.769 96.9701H239.589V23.0423H201.062V107.602L200.882 113.915H239.589V105.941L240.306 106.772L242.098 107.769V106.44L241.919 105.775H241.202L240.844 106.107L239.948 105.277V103.449L240.665 102.619H242.098L242.277 103.449L242.815 104.612L244.069 104.778L244.428 104.612L244.965 102.619L245.145 101.456L246.937 99.7943L247.295 99.2959L249.445 98.9637L249.625 98.6314L248.191 98.4653V98.133H248.549L248.908 97.3024L250.7 95.4749L252.312 94.4781L254.284 94.1459L255.359 94.8104L256.434 95.9733L257.33 98.4653L257.509 99.9604V106.772L257.151 108.931L256.076 110.925L254.821 112.088L253.029 112.919V114.746L258.405 115.577L261.272 116.407L262.168 117.238L263.96 119.73L267.544 125.544L267.903 127.04L270.232 130.362L272.741 134.017L272.92 134.183L278.117 135.014L278.834 135.18L281.701 135.678L281.88 135.845L282.06 135.014H282.956L283.314 136.177L285.285 136.343L291.378 137.34L292.632 137.672L293.17 135.678L293.887 134.848L296.575 133.851L298.725 133.685L300.696 134.848L302.847 135.845V135.18H303.743L303.922 135.678L311.269 133.353H311.627L311.807 130.861L312.703 123.385V122.222L311.09 120.893L310.731 120.062L312.882 116.74L314.674 114.248L316.107 112.919L318.258 111.922L323.634 110.759V108.101L322.559 107.935L321.483 107.27L320.05 105.775L319.333 103.948L318.975 101.788L318.795 98.2991L317.899 96.3056L317.541 94.1459L317.899 92.1523L318.795 90.491L320.946 88.4975L322.738 87.5007L325.247 86.8362L327.039 86.67H329.189L331.339 87.3346L333.669 88.6636L334.565 88.4975H335.999L337.791 89.3281L338.866 90.6572L339.583 92.4846L339.941 95.6411L340.479 100.625L341.195 104.778V106.273L340.658 106.606L337.432 106.938L336.357 106.606L336.178 106.44L335.999 107.104H333.311L333.49 109.762L337.611 110.427L340.299 111.091L342.271 112.254L343.525 113.749L344.421 115.743L344.958 117.404L345.675 121.723V123.219L345.496 123.385L344.242 123.551L343.883 131.193L343.525 134.682L342.629 137.838L341.554 140.33L340.299 142.49L339.583 143.154L339.045 143.32L339.403 143.985L341.554 147.141L342.987 149.799L343.704 151.959V155.116L342.808 159.103L341.733 161.096L340.479 162.591L338.866 163.588L341.554 163.92L343.167 164.917L343.883 165.914L344.242 167.741L343.704 169.403L342.808 170.4L341.375 171.064L340.658 171.23H318.616L317.003 170.732L316.107 170.067V197.479L317.003 199.306V199.805L316.107 200.137L315.928 204.124H341.912V204.29H310.015V204.124H312.165V202.13L305.355 205.287L302.667 206.616H302.309L302.667 205.785L303.743 204.29L271.845 204.456H12.3647L11.4688 203.958L11.2896 203.792V202.629L12.1855 201.964L39.9614 201.798L41.7534 201.134L42.6494 200.469L43.5454 199.14L43.9038 197.977V196.482L43.187 194.655L41.7534 193.325L36.5566 191.332L26.5215 187.677L16.3071 183.856L15.4111 183.025L15.5903 182.029L16.1279 181.53H17.3823L37.6318 189.006L42.4702 190.834L44.083 191.83L45.5166 193.325L46.4126 195.153L46.5918 195.984V198.476L46.0542 200.137L44.979 201.798L43.7246 202.961L41.7534 203.958L271.845 204.124L271.666 179.869V144.816H266.648V144.649H268.44V141.327L268.62 141.161L267.186 140.662L265.752 139.167L264.14 137.174V157.774L265.036 164.087L266.111 165.25L266.469 166.08V167.409L265.752 168.738L264.856 169.403L264.14 169.735H263.064V172.725L261.989 181.032L259.839 195.319L259.48 196.482L258.943 196.814V201.964L258.764 202.13V202.961H252.312V196.98L252.492 196.648H251.596L251.417 196.482L250.162 171.064V169.735H244.249L243.711 173.224L241.023 185.684L238.514 196.482L238.335 196.814H237.977L237.797 200.469L237.439 203.127L231.346 202.795L230.988 202.629V200.469L231.525 196.15H230.988V193.159L232.242 173.224L233.138 170.067L233.317 169.735H229.375L227.941 168.904L227.225 167.908L227.045 166.246L227.583 165.083L227.404 164.419L226.687 162.591V158.438L227.404 154.783L228.658 150.796L228.837 150.298V146.145L227.583 145.148L226.508 143.653L225.97 142.157V140.662L226.329 138.004L227.583 132.854L228.3 130.528V130.03L226.329 129.365L226.866 127.538L229.017 122.72L230.629 119.398L230.988 118.899H196.044V18.2245Z" fill="#FDC09C"/>
<path d="M268.62 141.161H321.125V143.653L334.207 143.486L338.866 143.32L341.016 146.311L342.45 148.636L343.525 151.295L343.704 151.959V155.116L342.808 159.103L341.733 161.096L340.479 162.591L338.866 163.588L341.554 163.92L343.167 164.917L343.883 165.914L344.242 167.741L343.704 169.403L342.808 170.4L341.375 171.064L340.658 171.23H318.616L317.003 170.732L316.107 170.067V197.479L317.003 199.306V199.805L316.107 200.137L315.928 204.124H341.912V204.29H310.015V204.124H312.165V202.13L305.355 205.287L302.667 206.616H302.309L302.667 205.785L303.743 204.29L271.845 204.456H12.3647L11.4688 203.958L11.2896 203.792V202.629L12.1855 201.964L39.9614 201.798L41.7534 201.134L42.6494 200.469L43.5454 199.14L43.9038 197.977V196.482L43.187 194.654L41.7534 193.325L36.5566 191.332L26.5215 187.677L16.3071 183.856L15.4111 183.025L15.5903 182.029L16.1279 181.53H17.3823L37.6318 189.006L42.4702 190.834L44.083 191.83L45.5166 193.325L46.4126 195.153L46.5918 195.984V198.475L46.0542 200.137L44.979 201.798L43.7246 202.961L41.7534 203.958L271.845 204.124L271.666 179.869V144.816H266.648V144.649H268.44V141.327L268.62 141.161Z" fill="#192E35"/>
<path d="M72.7549 24.7035H111.104L111.283 24.8696V88.8297L108.595 89.1619L105.907 89.9926L103.04 91.4877L101.248 92.9829L100.352 94.312L99.6348 96.8039L98.918 101.289L98.3804 107.602L98.022 114.58L97.8428 115.577L72.7549 115.743V24.7035Z" fill="#D6EFF3"/>
<path d="M245.861 120.062L248.908 120.228L251.417 120.727L254.284 121.723L256.792 123.219L259.122 125.046L260.556 126.707L260.914 126.873L262.348 129.532L263.244 131.525L263.781 133.519L263.96 135.014L264.14 157.774L265.036 164.087L266.111 165.249L266.469 166.08V167.409L265.752 168.738L264.856 169.403L264.14 169.735H263.064V172.725L261.989 181.032L259.839 195.319L259.48 196.482L258.943 196.814V201.964L258.764 202.13V202.961H252.312V196.98L252.492 196.648H251.596L251.417 196.482L250.162 171.064V169.735H244.249L243.711 173.224L241.023 185.683L238.514 196.482L238.335 196.814H237.977L237.797 200.469L237.439 203.127L231.346 202.795L230.988 202.629V200.469L231.525 196.15H230.988V193.159L232.242 173.224L233.138 170.067L233.317 169.735H229.375L227.941 168.904L227.225 167.908L227.045 166.246L227.583 165.083L227.404 164.419L226.687 162.591V158.438L227.404 154.783L228.658 150.796L228.837 150.298L229.017 134.183L229.733 131.193L231.525 127.704L233.317 125.544L235.109 123.883L237.439 122.388L240.306 121.059L242.815 120.394L245.861 120.062Z" fill="#365762"/>
<path d="M134.937 106.107L135.475 106.606L136.012 108.101V110.26L135.295 112.586L133.324 116.573L132.787 118.235L132.607 119.896L132.966 121.723L134.041 124.381L134.22 125.046V127.538L133.503 130.196L132.607 132.688L132.249 134.349V136.343L132.966 138.17L134.041 139.499L135.475 140.662L137.804 141.659L140.492 142.157L141.567 124.215L142.105 117.238L142.643 113.915L143.539 111.257L144.435 109.928L146.585 110.26L149.094 110.759L150.348 111.091L153.395 111.589L161.996 113.251L162.175 113.417L162.354 117.072L165.042 123.385L165.401 124.215L165.222 124.88L165.938 127.372L166.118 128.701V130.861L165.58 133.186L164.684 135.18L163.071 137.173L162.354 137.838L162.534 141.493L164.326 165.748L164.863 169.237L165.401 174.054V182.195L164.146 196.648H163.788V202.463L163.609 202.629L151.782 202.961V202.629L141.209 202.961H135.116L135.833 202.296L138.879 200.801L142.822 199.306H143.18V196.98L142.643 196.814L141.388 175.383L140.671 165.914L140.313 163.422V160.099L141.388 149.467L141.747 146.643L140.492 146.477V143.32L140.671 142.49L138.879 142.324L136.191 141.493L134.399 140.33L132.966 139.001L132.07 137.34L131.891 136.675V133.851L133.683 128.036L133.862 127.04V125.711L133.324 123.717L132.249 120.727V118.567L132.966 116.407L134.579 113.085L135.475 110.759L135.654 108.599L134.937 106.439V106.107Z" fill="#192E35"/>
<path d="M182.425 131.359H187.801V142.656H212.53V198.143L210.559 198.309L211.813 199.306L212.351 200.801L211.993 202.297L210.917 203.459L209.484 203.958L208.05 203.792L206.975 203.127L206.258 202.297L206.079 201.964V200.137L206.617 199.14L207.692 198.309H184.934L186.009 199.14L186.546 200.137V201.798L185.83 202.961L184.934 203.626L183.321 203.958L181.708 203.459L180.812 202.629L180.274 201.466L180.454 199.971L181.17 198.974L182.066 198.309L179.378 198.143L179.199 197.977V142.656H182.246V131.525L182.425 131.359Z" fill="#375863"/>
<path d="M159.308 56.9327H161.638L163.43 57.7634L164.146 58.7602L164.505 59.5908L165.938 60.4215L166.655 61.5844L168.089 61.9166L169.164 62.5812L170.239 63.7441L170.777 64.7408V66.7344L170.598 68.2296L172.21 68.8941L173.106 69.5586L173.465 70.8877L173.286 71.8844L174.002 72.8812L174.54 74.0441L174.361 75.3732L173.644 76.3699L172.569 76.8683L171.135 77.2006L169.881 78.6958L168.985 79.028H167.91L167.372 78.8619L167.193 79.1942H166.655V82.5168L167.91 83.8458L168.806 85.1748L169.164 86.67V91.82L168.626 94.4781L166.476 100.957L162.713 111.922L162.175 113.251L160.383 113.085L151.782 111.423L149.631 111.091L147.66 110.593L144.972 110.094L144.255 110.26L143.18 112.586L142.643 114.58L142.105 119.398L141.209 132.854L140.671 142.157L140.313 142.324L137.804 141.825L134.937 140.496L133.324 139.001L132.249 137.007L132.07 136.343V134.349L132.787 131.691L133.862 128.535L134.041 127.538V125.046L132.607 121.059L132.428 119.398L132.966 117.072L134.22 114.414L135.475 111.59L135.833 110.26V108.101L135.116 106.273L129.561 104.612L128.307 105.277H127.948L128.307 107.935L129.023 116.241V118.069H128.307L127.59 115.743V118.069H124.364V103.117L124.006 100.459L125.439 98.9636L126.515 98.6314L125.619 97.8007L124.185 96.9701L123.289 96.1394L120.422 94.1459L118.451 92.6507L117.375 91.82L116.3 90.6571V88.6636L117.913 86.0055L119.884 84.8426L127.948 81.0216L128.665 80.8555L129.203 82.3506L127.948 82.849L128.307 83.6797L128.665 84.8426L128.844 85.8394L129.74 86.1716V87.0023L131.174 87.1684L133.145 86.8361L133.683 86.67V85.6732L132.966 84.8426L132.607 84.0119V82.5168L131.711 81.0216L131.891 80.5232L134.937 81.6861L135.116 82.1845L135.833 82.5168L140.313 86.67L141.747 87.8329L142.822 88.6636V88.9958L143.539 89.3281L145.868 91.4878L147.302 92.6507L148.019 93.1491L148.735 92.4846L148.377 92.1523L148.556 91.3216L151.065 88.8297L152.678 87.1684L154.111 85.8394L155.724 84.6764L156.441 84.1781V81.1877L156.083 80.1909L154.649 80.3571L153.753 80.8555H151.961L150.707 80.1909L149.631 78.6958L149.273 78.5296L146.764 78.3635L145.689 77.699L145.151 76.8683V75.7054L145.51 74.8748L145.331 73.7119L144.614 72.8812L144.255 72.0506V70.5554L144.793 69.3925L146.047 68.3957L147.839 67.5651L148.556 66.7344L149.273 62.9134L150.169 61.4182L151.423 60.4215L151.961 60.2553L154.47 60.0892L155.545 59.4247L156.979 57.9295L158.591 57.0989L159.308 56.9327Z" fill="#FB735D"/>
<path d="M67.7373 19.8857H116.3L116.479 82.849L119.347 80.3571L120.78 79.1941L122.572 77.699L124.723 75.8715L126.335 74.5425L128.307 73.7119L130.278 73.2135L131.174 73.3796L132.787 75.3732L133.324 76.3699V77.2006L131.353 79.1941L131.532 80.1909L132.787 82.5167V84.0119L133.503 85.341L133.862 85.6732V86.67L132.607 87.1684L130.278 87.3345L129.561 87.0023L129.382 86.1716L128.844 85.8393L128.307 84.6764L127.948 83.5135L127.769 82.849L128.665 82.3506H129.203L128.665 80.8554L122.931 83.5135L119.526 85.1748L117.913 86.1716L116.479 88.6636V90.6571L117.913 92.1523L120.422 93.9797L122.751 95.641L124.185 96.6378L124.723 97.1362L126.335 98.133L126.515 98.6313L125.081 99.462L124.723 99.9604L123.11 99.7943L120.601 98.9636L120.78 101.289L122.035 112.254L123.11 122.388L122.572 122.222L120.959 116.573L119.705 114.248L118.988 113.417L117.375 112.42L116.121 111.756V105.277L117.913 104.778L118.451 103.948V101.788L117.734 100.957L117.196 100.791H115.583L115.225 102.286L113.792 101.622L112.537 100.127L111.283 97.4684L110.924 96.6378H108.057L108.236 96.1394L108.774 95.9733H110.208L110.924 96.3055L110.208 94.1458L108.953 92.3184L108.236 91.4878H106.265L104.115 92.4845L103.04 93.3152L101.964 94.9765L101.427 96.8039L101.248 99.9604V103.117L101.606 105.775L102.323 107.769L103.398 109.264L105.011 110.26L106.265 110.593V113.085L105.011 113.749L102.502 115.577L99.2764 117.902L96.4092 119.896L95.5132 120.561H67.7373V19.8857ZM72.7549 24.7035V115.743L97.8428 115.577L98.022 114.58L98.5596 105.277L99.0972 99.9604L99.814 95.9733L100.531 93.9797L101.785 92.4845L103.577 91.1555L106.444 89.8265L109.312 88.9958L111.283 88.8297V24.8696L111.104 24.7035H72.7549Z" fill="#365762"/>
<path d="M105.728 139.167L106.086 139.499L106.624 146.975L106.803 145.314L108.057 143.985L109.849 142.822L111.641 141.991L114.508 141.161L115.583 140.995H121.318L128.307 142.157L129.561 146.809L129.382 147.64L121.497 148.138L117.196 148.304L116.838 149.301L114.688 153.122L112.896 156.279L110.208 160.93L108.236 164.419L108.057 169.901H70.9629L69.7085 169.237L68.9917 168.406L68.6333 167.409L68.8125 165.914L69.3501 165.083L70.0669 164.419L69.1709 164.253H65.5869L61.6445 165.083L58.7773 166.412L56.627 168.24L55.3726 169.403L53.2222 170.4L49.9966 171.23L47.4878 171.562L43.9038 179.537L42.6494 182.361L42.291 182.527L38.707 181.032L32.7935 178.706L32.2559 178.54L32.4351 177.377L35.123 170.233L34.5854 169.901L34.9438 168.406L36.3774 164.751L38.707 164.087L40.6782 163.754H43.3662L42.6494 163.588H40.1406L37.4526 164.253L36.7358 164.419L36.915 163.256L39.7822 155.78L40.8574 155.448H44.6206L46.5918 156.445L46.9502 156.777V158.272L45.6958 164.917L45.5166 167.575L46.0542 168.904H47.4878L48.2046 168.738L48.7422 167.077H47.1294L45.6958 166.579L45.875 166.246L47.8462 166.579H48.7422L48.3838 160.099L48.2046 159.435L46.9502 159.103V158.604L48.563 158.77V159.269H50.355L51.6094 159.103V158.77L53.043 158.272L54.4766 158.106V157.608L55.3726 157.441V157.109H55.9102V156.777L56.4478 156.611L57.3438 155.78L58.7773 154.285L59.1357 154.451L58.9565 156.445L59.4941 152.624L60.9277 151.793L61.2861 151.295L62.1821 151.128H64.8701L65.7661 151.461L66.4829 157.275V158.77H66.8413L66.6621 158.272L67.5581 158.438L68.4541 158.77L66.6621 153.454L66.4829 152.291L68.9917 152.624H73.8301L76.6973 152.125L76.8765 151.959H78.3101V151.627L79.5645 150.962L80.8188 149.966L82.6108 147.806L83.3276 146.809H83.5068L83.3276 149.633L83.1484 153.454L83.5068 150.298L83.686 144.483L84.9404 143.819L86.0156 143.486H88.166L89.2412 143.985L89.4204 144.151L89.5996 147.806L89.7788 148.803L90.1372 155.282H90.4956L91.75 156.611L93.1836 157.275L93.9004 157.441H95.5132L96.4092 157.109L96.7676 156.611V154.285L94.6172 154.119V153.787H92.8252L92.1084 153.288L96.5884 153.62L95.6924 151.627L92.4668 145.646V144.982H96.23L98.022 144.649L98.918 144.317H99.4556V143.985L100.71 143.653V143.32L101.964 142.656L103.756 141.161L105.728 139.167Z" fill="#FC735D"/>
<path d="M196.044 18.2245H244.607V92.6507L242.098 94.1459L240.844 95.3088L239.769 96.9701H239.589V23.0423H201.062V107.602L200.882 113.915H239.589V105.941L240.306 106.772L242.277 107.935L242.457 109.43L242.636 112.752V115.078L238.693 115.909L235.647 116.407L233.317 117.072L232.063 117.736L230.988 118.899H196.044V18.2245Z" fill="#365762"/>
<path d="M275.608 144.816H311.986V149.135L309.656 148.969L303.563 148.304L301.413 148.138H297.471L295.32 148.637L294.066 149.467L293.17 150.962L292.812 152.624L292.453 158.438L291.916 174.553V179.537L301.592 180.367L301.413 183.025L301.234 184.354L296.754 184.521H292.632V185.85V186.182L292.453 186.514L291.557 185.85L292.812 186.846V189.505L292.274 190.003L288.869 191.166L286.002 192.495L284.568 193.326L294.424 193.159H301.055L301.234 189.172L301.592 188.674L303.743 193.658V194.156L310.373 191.83L311.986 191.332L312.165 192.163L308.043 194.156L305.714 195.319V195.817L307.864 199.638L307.506 200.469L305.355 202.629L304.101 204.124H275.608L275.429 203.626L275.608 144.816Z" fill="#FAFAFA"/>
<path d="M327.039 86.67H329.189L331.339 87.3346L333.669 88.6636L334.565 88.4975H335.999L337.791 89.3281L338.866 90.6572L339.583 92.4846L339.941 95.6411L340.479 100.625L341.195 104.778V106.273L340.658 106.606L337.432 106.938L336.357 106.606L336.178 106.44L335.999 107.104H333.311L333.49 109.762L337.611 110.427L340.299 111.091L342.271 112.254L343.525 113.749L344.421 115.743L344.958 117.404L345.675 121.723V123.219L345.496 123.385L336.178 124.049L335.819 130.196L335.461 135.346L335.282 136.011L325.247 138.004L317.899 139.499L317.003 139.333L315.928 138.336L315.749 135.845L315.57 130.528L315.391 127.538V123.883L314.674 123.551L311.807 121.557L310.731 120.394L311.09 119.564L312.882 116.74L314.674 114.248L316.107 112.919L318.258 111.922L323.634 110.759V108.101L322.559 107.935L321.483 107.27L320.05 105.775L319.333 103.948L318.975 101.788L318.795 98.2991L317.899 96.3056L317.541 94.1459L317.899 92.1523L318.795 90.491L320.946 88.4975L322.738 87.5007L325.247 86.8362L327.039 86.67Z" fill="#FC725C"/>
<path d="M67.7373 19.8857H116.121L115.763 20.5503L113.792 22.5438L111.462 24.5374H72.7549L72.0381 24.039L72.3965 24.5374V115.909L70.9629 117.238L71.8589 116.573L72.5757 115.909H97.8428V118.899L95.5132 120.561H67.7373V19.8857Z" fill="#365762"/>
<path d="M337.791 143.32H338.866L341.016 146.311L342.45 148.636L343.525 151.295L343.704 151.959V155.116L342.808 159.103L341.733 161.096L340.479 162.591L338.866 163.588L341.554 163.92L343.167 164.917L343.883 165.914L344.242 167.741L343.704 169.403L342.808 170.399L341.375 171.064L340.658 171.23H318.616L317.003 170.732L315.749 169.901L315.57 152.624V144.982L312.344 144.815V149.135L311.627 149.301L311.986 149.135V144.649H315.928L316.107 145.646L316.645 144.649H321.125V143.653L334.207 143.486L337.791 143.32Z" fill="#192E35"/>
<path d="M268.62 141.161H321.125L321.304 144.151L321.125 144.649L316.645 144.816L316.107 145.978H315.928V144.649L311.986 144.816H275.608V203.958H304.101L305.714 202.13L307.506 200.303L307.685 199.638L305.355 195.485L306.251 194.821L311.986 192.163L312.165 198.309V202.13L305.355 205.287L302.667 206.616H302.309L302.667 205.785L303.743 204.29L271.845 204.456H12.3647L11.4688 203.958L11.2896 203.792V202.629L12.1855 201.964L39.9614 201.798L41.7534 201.134L42.6494 200.469L43.5454 199.14L43.9038 197.977V196.482L43.187 194.654L41.7534 193.325L36.5566 191.332L26.5215 187.677L16.3071 183.856L15.4111 183.025L15.5903 182.029L16.1279 181.53H17.3823L37.6318 189.006L42.4702 190.834L44.083 191.83L45.5166 193.325L46.4126 195.153L46.5918 195.984V198.475L46.0542 200.137L44.979 201.798L43.7246 202.961L41.7534 203.958L271.845 204.124L271.666 179.869V144.816H266.648V144.649H268.44V141.327L268.62 141.161Z" fill="#2F4E58"/>
<path d="M156.441 89.6604L159.667 90.3249V90.6572L160.921 90.8233L166.476 92.4846L165.938 92.6507L165.401 94.312L162.892 99.9605L161.458 102.619L160.025 104.944L158.412 106.938L156.441 109.43L154.649 110.593L152.499 111.257L151.782 111.423L149.631 111.091L147.66 110.593L144.972 110.094L144.255 110.261L143.18 112.586L142.643 114.58L142.105 119.398L141.209 132.854L140.671 142.157L140.313 142.324L137.804 141.825L134.937 140.496L133.324 139.001L132.249 137.007L132.07 136.343V134.349L132.787 131.691L133.862 128.535L134.041 127.538V125.046L132.607 121.059L132.428 119.398L132.966 117.072L134.22 114.414L135.475 111.59L135.833 110.261V108.101L135.116 106.273L129.561 104.612L128.307 105.277H127.948L128.307 107.935L129.023 116.241V118.069H128.307L127.59 115.743V118.069H124.364V103.117L124.006 100.459L125.439 98.9637L126.515 98.6314L125.619 97.8008L124.185 96.9701V96.1395L125.798 96.3056L129.561 98.133L130.457 99.1298L131.353 99.9605L131.532 98.6314H131.711V100.127L134.041 100.293L148.556 102.452L149.631 102.619H151.065L152.499 99.4621L154.649 94.4782L156.441 90.4911L156.799 89.8265L156.441 89.6604Z" fill="#CA6560"/>
<path d="M134.937 106.107L135.475 106.606L136.012 108.101V110.26L135.295 112.586L133.324 116.573L132.787 118.235L132.607 119.896L132.966 121.723L134.041 124.381L134.22 125.046V127.538L133.503 130.196L132.607 132.688L132.249 134.349V136.343L132.966 138.17L134.041 139.499L135.475 140.662L137.804 141.659L140.492 142.157L141.567 124.215L142.105 117.238L142.643 113.915L143.539 111.257L144.435 109.928L146.585 110.26L149.094 110.759L150.348 111.091L153.395 111.589L161.996 113.251L162.175 113.417L162.354 117.072L165.042 123.385L165.401 124.215V124.714L158.591 125.711H158.054L157.875 127.87L154.47 146.975L153.753 147.141L141.03 146.643L140.492 146.477V143.32L140.671 142.49L138.879 142.324L136.191 141.493L134.399 140.33L132.966 139.001L132.07 137.34L131.891 136.675V133.851L133.683 128.036L133.862 127.04V125.711L133.324 123.717L132.249 120.727V118.567L132.966 116.407L134.579 113.085L135.475 110.759L135.654 108.599L134.937 106.439V106.107Z" fill="#365762"/>
<path d="M253.746 94.1459L254.642 94.312L255.896 95.3088L256.613 96.4717L257.33 98.4653L257.509 99.9604V106.772L257.151 108.931L256.076 110.925L254.821 112.088L253.029 112.919V114.746L258.405 115.577L261.272 116.407L262.168 117.238L263.96 119.73L267.544 125.544L267.724 126.209L266.29 127.372L263.602 130.03L263.064 130.528H262.706L261.272 127.87L260.914 127.372V126.873L260.376 126.707L258.764 124.88L256.613 123.219L254.284 121.89L250.879 120.727L247.116 120.228L244.069 120.394L241.561 120.893L239.052 121.723L236.543 123.052L234.572 124.548L233.138 125.877L231.525 128.036L229.913 131.193L229.196 134.183L229.017 135.346L228.837 146.145L227.583 145.148L226.508 143.653L225.97 142.157V140.662L226.329 138.004L227.583 132.854L228.3 130.528V130.03L226.329 129.365L226.866 127.538L229.017 122.72L230.629 119.398L231.705 117.902L232.78 117.072L234.751 116.407L237.26 115.909L240.306 115.411L242.636 115.078L242.098 106.439L241.919 105.775H241.202L240.844 106.107L239.948 105.277V103.449L240.665 102.619H242.098L242.277 103.449L242.815 104.612L244.069 104.778L244.428 104.612L244.965 102.619L245.145 101.456L246.937 99.7943L247.295 99.2959L249.445 98.9636L249.625 98.6314L248.191 98.4653V98.133H248.549L248.908 97.3023L250.7 95.4749L252.312 94.4781L253.746 94.1459Z" fill="#FC725C"/>
<path d="M327.039 86.67H329.189L331.339 87.3346L333.669 88.6636L334.565 88.4975H335.999L337.791 89.3281L338.866 90.6572L339.583 92.4846L339.941 95.6411L340.479 100.625L341.195 104.778V106.273L340.658 106.606L337.432 106.938L336.357 106.606L336.178 106.44L335.999 107.104H333.311L333.49 110.094L332.056 111.756L330.623 113.085L328.472 114.081H326.322L324.888 113.417L323.992 112.088L323.634 110.759V108.101L322.559 107.935L321.483 107.27L320.05 105.775L319.333 103.948L318.975 101.788L318.795 98.2991L317.899 96.3056L317.541 94.1459L317.899 92.1523L318.795 90.491L320.946 88.4975L322.738 87.5007L325.247 86.8362L327.039 86.67Z" fill="#FABE9B"/>
<path d="M115.046 148.304H117.196L116.838 149.301L114.688 153.122L112.896 156.278L110.208 160.93L108.236 164.419L108.057 169.901H70.9629L69.7085 169.237L68.9917 168.406L68.6333 167.409L68.8125 165.914L69.3501 165.083L70.0669 164.419H73.2925L77.4141 164.087L80.1021 163.588L81.5356 163.09L82.79 162.093L83.1484 161.428V157.94L83.686 156.777L84.7612 156.278H88.5244L89.4204 156.777L90.4956 157.94L91.75 158.438L94.2588 158.937H98.022L100.889 157.94L102.86 156.777L104.832 155.282L106.982 153.454L107.52 153.288V152.956L108.953 151.793L111.462 149.799L113.612 148.636L115.046 148.304Z" fill="#375863"/>
<path d="M270.77 33.3423L271.487 33.5084V34.0068H274.175V34.8375H271.487V36.4988H272.741L272.92 36.6649V37.8278H273.996L274.533 38.3262L274.712 39.323L274.533 39.4891H271.487V46.4666H274.533L274.712 47.6295L274.175 48.4601H277.759L277.221 48.1279L277.042 47.6295L277.221 38.1601L277.759 37.8278H279.013V36.6649L280.088 36.3326L280.268 33.5084L280.984 33.3423L281.343 33.8407L283.852 34.0068V34.8375H281.343V36.4988H282.418L282.597 36.6649V37.8278H283.672L284.389 38.4923V39.4891H281.343V46.4666H284.21L284.389 46.6327V47.7956L283.852 48.4601H287.436L286.898 47.9617V38.3262L287.436 37.8278H288.69V36.6649L288.869 36.4988H289.944V33.5084L290.661 33.3423L291.02 33.8407L293.528 34.0068L293.708 34.6713L293.528 34.8375H291.02V36.4988H292.274L292.453 37.6617L293.708 37.9939L294.066 38.4923V39.4891H291.02V46.4666H293.887L294.066 46.6327V47.9617L293.528 48.4601H297.112L296.575 47.9617V38.3262L297.112 37.8278L298.367 37.6617L298.546 36.4988L299.442 36.3326L299.621 33.5084L300.338 33.3423L300.696 34.0068H303.384V34.8375H300.696V36.4988H301.771L302.13 37.6617L303.384 37.9939L303.743 38.4923V39.4891H300.696V46.4666H303.563L303.743 46.6327V47.9617L303.205 48.4601L313.061 48.6262V51.6166H258.047V48.6262L267.903 48.4601L267.365 47.7956V38.4923L268.082 37.8278H269.336V36.4988H270.412V33.6745L270.77 33.3423Z" fill="#365762"/>
<path d="M244.428 18.2245H244.607V92.6507L242.098 94.1459L240.844 95.3088L239.769 96.9701H239.589V66.7344L239.769 23.0423L241.919 20.8826L243.89 18.889L244.069 18.5567H244.428V18.2245Z" fill="#375863"/>
<path d="M112.896 23.0422V23.5406L111.82 24.5374L111.641 79.028H111.462L111.283 39.6552L111.104 24.8697L72.7549 24.7035V115.743L74.3677 115.577H97.8428L98.2012 107.602L98.7388 101.289L99.4556 96.8039L100.172 94.312L101.427 92.6507L103.04 91.3217L105.907 89.8265L108.595 88.9958L111.641 88.8297L114.15 89.3281L115.763 90.1587L117.375 91.4878L118.271 92.3184L119.884 93.6475L124.185 96.6378L124.723 97.1362L126.335 98.133L126.515 98.6314L125.081 99.462L124.723 99.9604L123.11 99.7943L120.601 98.9636L120.78 101.289L122.035 112.254L123.11 122.388L122.572 122.222L120.959 116.573L119.705 114.248L118.988 113.417L117.375 112.42L116.121 111.756V105.277L117.913 104.778L118.451 103.948V101.788L117.734 100.957L117.196 100.791H115.583L115.225 102.286L113.792 101.622L112.537 100.127L111.283 97.4685L110.924 96.6378H108.057L108.236 96.1394L108.774 95.9733H110.208L110.924 96.3056L110.208 94.1459L108.953 92.3184L108.236 91.4878H106.265L104.115 92.4846L103.04 93.3152L101.964 94.9765L101.427 96.8039L101.248 99.9604V103.117L101.606 105.775L102.323 107.769L103.398 109.264L105.011 110.26L106.265 110.593V113.085L105.011 113.749L102.502 115.577L99.2764 117.902L98.022 118.733H97.6636L97.8428 115.909L72.5757 116.075L70.9629 117.57V117.072L72.2173 115.909V24.5374L71.6797 23.7068L72.3965 24.039L72.7549 24.3713H111.462L112.896 23.0422Z" fill="#1B3038"/>
<path d="M265.932 59.2585H274.533L274.712 59.4247V62.5811L269.157 62.7473V64.0763L274.712 64.2424V65.4054H276.146V59.4247L276.325 59.2585H284.748L284.927 59.4247V62.7473H279.372L279.192 64.2424L284.927 64.0763V65.4054H286.898V59.2585H295.5V62.7473H289.765L289.944 64.0763L295.5 64.2424V65.4054H297.65V59.4247L297.829 59.2585H306.251L306.431 59.4247V62.7473H300.875L300.696 64.2424L306.431 64.0763V65.4054H312.882V68.5618H257.868V65.4054H265.932V59.2585Z" fill="#375863"/>
<path d="M250.341 169.735H263.064V172.725L261.989 181.032L259.839 195.319L259.48 196.482L258.943 196.814V201.964L258.764 202.13V202.961H252.312V196.98L252.492 196.648H251.596L251.417 196.482L250.341 174.719V169.735Z" fill="#192E35"/>
<path d="M233.317 169.735H244.069V171.23L242.636 178.374L239.948 190.335L238.514 196.482L238.335 196.814H237.977L237.797 200.469L237.439 203.127L231.346 202.795L230.988 202.629V200.469L231.525 196.15H230.988V193.159L232.242 173.224L233.138 170.067L233.317 169.735Z" fill="#192E35"/>
<path d="M159.308 56.9327H161.638L163.43 57.7634L164.146 58.7602L164.505 59.5908L165.938 60.4215L166.655 61.5844L168.089 61.9166L169.164 62.5812L170.239 63.7441L170.777 64.7408V66.7344L170.598 68.2296L172.21 68.8941L173.106 69.5586L173.465 70.8877L173.286 71.8844L174.002 72.8812L174.54 74.0441L174.361 75.3732L173.644 76.3699L172.569 76.8683L171.135 77.2006L169.881 78.6958L168.985 79.028H167.91L167.372 78.8619L167.193 79.1942H166.655L166.297 76.5361L165.401 76.0377L165.042 75.3732L165.222 74.0441L165.938 73.5457L167.91 73.7119L168.268 72.7151V71.5522L167.91 70.7215L167.372 70.3893H166.118L165.401 70.8877L164.505 70.7215L163.967 70.057L163.609 68.5618V67.3989L162.175 66.0699L161.638 64.907L161.458 63.2457L160.204 63.5779L157.337 63.4118L156.799 63.5779L156.441 64.5747L155.724 65.4054L155.187 65.5715H153.215L152.678 65.7376L152.319 67.2328L152.14 70.8877V73.878L152.499 76.2038L153.215 77.8651L154.649 79.3603L155.724 79.8587L155.187 80.1909L153.753 80.8555H151.961L150.707 80.1909L149.631 78.6958L149.273 78.5296L146.764 78.3635L145.689 77.699L145.151 76.8683V75.7054L145.51 74.8748L145.331 73.7119L144.614 72.8812L144.255 72.0506V70.5554L144.793 69.3925L146.047 68.3957L147.839 67.5651L148.556 66.7344L149.273 62.9134L150.169 61.4182L151.423 60.4215L151.961 60.2553L154.47 60.0892L155.545 59.4247L156.979 57.9295L158.591 57.0989L159.308 56.9327Z" fill="#1A2F36"/>
<path d="M135.295 106.273L141.747 108.267L144.255 109.098L144.435 109.762L144.793 109.928L144.076 110.593L143.001 113.251L142.463 115.743L141.926 121.557L141.03 136.177L140.671 142.157L140.313 142.324L137.804 141.825L134.937 140.496L133.324 139.001L132.249 137.007L132.07 136.343V134.349L132.787 131.691L133.862 128.535L134.041 127.538V125.046L132.607 121.059L132.428 119.398L132.966 117.072L134.22 114.414L135.475 111.589L135.833 110.26V108.101L135.295 106.273Z" fill="#FBFAFA"/>
<path d="M128.307 80.8555H128.665L129.203 82.3506L127.948 82.849L128.307 83.6797L128.665 84.8426L128.844 85.8394L129.74 86.1716V87.0023L131.174 87.1684L133.145 86.8361H133.862L136.191 89.9926L136.55 90.8233H136.908L137.625 91.9862L142.643 98.9636L143.18 99.9604L143.359 101.622L143.001 101.788L131.711 100.127L131.532 99.462L131.353 99.9604L130.636 99.6282L129.561 98.2991L125.798 96.4717L124.185 96.1394L124.006 96.6378L120.601 94.312L118.271 92.4846L117.375 91.82L116.3 90.6571V88.6636L117.913 86.0055L119.884 84.8426L127.948 81.0216L128.307 80.8555Z" fill="#F9F9F9"/>
<path d="M272.024 144.816H275.25L275.429 144.982L275.608 186.348V203.958H304.101L305.714 202.13L307.506 200.303L307.685 199.638L305.355 195.485L306.251 194.821L311.986 192.163L312.165 198.309V202.13L305.355 205.287L302.667 206.616H302.309L302.667 205.785L303.743 204.29L272.024 204.456V144.816Z" fill="#375863"/>
<path d="M106.265 91.3217H108.236L109.67 92.983L110.745 94.9765L110.924 96.3056L110.208 96.1394H108.774L108.236 96.3056L108.057 96.6378L111.104 96.4717L112.179 99.1298L113.075 100.625L113.792 101.456L115.046 102.12L115.583 100.791L115.942 100.625H117.196L118.092 101.123L118.63 101.788V103.948L117.913 104.944L117.017 105.277H116.121V111.756H113.971L106.803 113.085L106.265 112.919V110.593L105.011 110.427L103.398 109.43L102.323 108.101L101.606 106.439L101.248 104.778L101.068 103.117V99.9604L101.248 96.8039L101.964 94.6443L103.219 92.983L104.652 91.9862L106.265 91.3217Z" fill="#FABE9C"/>
<path d="M253.746 94.1459L254.642 94.312L255.896 95.3088L256.613 96.4717L257.33 98.4653L257.509 99.9604V106.772L257.151 108.931L256.076 110.925L254.821 112.088L253.029 112.919V114.912H249.266L242.636 115.078L242.098 106.439L241.919 105.775H241.202L240.844 106.107L239.948 105.277V103.449L240.665 102.619H242.098L242.277 103.449L242.815 104.612L244.069 104.778L244.428 104.612L244.965 102.619L245.145 101.456L246.937 99.7943L247.295 99.2959L249.445 98.9636L249.625 98.6314L248.191 98.4653V98.133H248.549L248.908 97.3023L250.7 95.4749L252.312 94.4781L253.746 94.1459Z" fill="#FBBE9B"/>
<path d="M157.337 63.2457L160.204 63.4119L161.458 63.2457L161.996 65.4054L162.713 66.4022L163.788 67.399L163.967 69.5587L164.505 70.5554L165.401 70.7216L166.118 70.2232H167.372L168.268 70.8877L168.447 71.5522V72.7151L167.91 73.7119L167.193 73.878L165.938 73.7119L165.401 74.0442L165.222 75.3732L165.58 76.0377L166.476 76.5361L166.655 78.5297V82.5168L167.91 83.8458L167.73 84.1781L166.834 83.1813L165.58 82.5168H163.25L160.562 83.5136L160.742 82.8491L158.95 83.8458L156.799 85.341H156.441V81.1878L156.083 80.191L154.47 79.3603L153.036 77.8652L152.319 76.2039L151.961 73.878V70.8877L152.14 67.2328L152.499 65.7377L153.215 65.4054H155.187L156.083 64.907L156.799 63.578L157.337 63.2457Z" fill="#C86560"/>
<path d="M270.053 76.0377H270.949L271.308 78.0313V79.1942L272.204 79.3603L272.562 79.6926V81.6861L272.204 82.0184H279.013V79.3603L279.909 79.1942L280.268 76.0377H281.164L281.701 79.0281L282.597 79.5264L282.776 79.6926V81.8523L282.597 82.0184H289.048V80.0248V79.3603L289.944 79.1942L290.124 76.5361L290.303 76.0377H291.199L291.557 78.1974V79.1942L292.453 79.3603L292.632 79.5264V81.8523L292.453 82.0184H299.263L299.083 81.52H299.442L299.263 79.3603L300.159 79.1942L300.338 76.8684L300.517 76.0377H301.413L301.771 78.1974V79.1942L302.667 79.3603L303.026 79.8587V81.6861L302.667 82.0184L312.882 82.1845V85.1749H257.868V82.1845L268.799 82.0184V79.3603L269.695 79.1942L270.053 76.0377Z" fill="#365762"/>
<path d="M312.344 144.816H315.57L315.749 145.148V155.116L315.928 169.901L316.107 197.479L317.003 199.306V199.805L316.107 200.137L315.928 204.124H341.912V204.29H310.015V204.124H312.165L312.344 144.816Z" fill="#365762"/>
<path d="M327.039 86.67H329.189L331.339 87.3346L333.669 88.6636L334.565 88.4975H335.999L337.791 89.3281L338.866 90.6572L339.583 92.4846L339.941 95.6411L340.479 100.625L341.195 104.778V106.273L340.658 106.606L337.432 106.938L336.357 106.606L336.178 106.44L335.999 107.104H333.311V103.283L334.923 102.785L335.461 101.954V99.7943L334.923 99.1298L334.386 98.9637H332.952H332.235L331.698 98.2991L331.16 96.804L330.264 96.3056L329.189 95.8072L328.651 95.4749L325.784 95.3088V94.9765L326.143 94.8104H327.935L328.293 94.9765L328.114 93.3152L327.576 92.8169L325.605 92.3185L323.992 91.3217L323.096 89.9926L320.587 92.3185L319.512 93.8136L319.154 94.9765L318.975 98.133L318.437 97.4685L317.72 95.6411L317.541 94.1459L317.899 92.1523L318.795 90.491L320.946 88.4975L322.738 87.5007L325.247 86.8362L327.039 86.67Z" fill="#1A2F36"/>
<path d="M163.25 82.3506H165.58L167.193 83.3474L168.089 84.178L168.806 85.1748L169.164 86.67V91.82L168.626 94.4781L166.476 100.957L162.713 111.922L162.175 113.251L160.383 113.085L152.678 111.589L152.319 111.091L154.649 110.427L156.441 109.264L158.412 106.772L160.383 104.114L161.817 101.788L163.788 97.6345L165.938 92.6506L165.401 92.3184L160.562 90.8232L159.667 90.6571V90.3248L158.054 90.1587L156.979 89.8264L155.724 89.6603L155.903 88.9958L157.516 86.3377L159.308 84.178L160.204 83.5135L161.458 83.0151L163.25 82.3506Z" fill="#FD745E"/>
<path d="M268.62 141.161H321.125L321.304 144.151L321.125 144.649L316.645 144.816L316.107 145.978H315.928V144.649L311.807 144.816L288.152 144.649H275.608L271.666 144.816H266.648V144.649H268.44V141.327L268.62 141.161Z" fill="#375863"/>
<path d="M267.365 126.209L267.724 126.707L269.874 129.864L272.741 134.017L272.92 134.183L278.117 135.014L278.834 135.18L281.701 135.678L281.88 135.845L282.06 135.014H282.956L283.493 138.17L284.389 138.503L284.568 138.835V140.496L284.031 141.161L281.164 141.327L269.336 141.161L267.365 140.828L265.752 139.167L264.14 137.174L263.96 137.007L263.602 133.519L262.885 131.027L263.064 130.362L265.036 128.535L266.29 127.206L267.365 126.209Z" fill="#FDC09C"/>
<path d="M338.149 163.588L340.837 163.754L342.271 164.253L343.346 165.083L344.062 166.412L344.242 167.741L343.704 169.403L342.808 170.399L341.375 171.064L340.658 171.23H318.616L317.003 170.732L315.928 169.901V169.07L318.616 167.908L324.171 165.582L327.576 164.253L335.461 163.92L337.97 163.754L338.149 163.588Z" fill="#375863"/>
<path d="M154.111 180.866H154.291L154.47 182.029L155.007 194.322V196.648H163.788V202.463L163.609 202.629L151.782 202.961V202.629L141.209 202.961H135.116L135.833 202.296L138.879 200.801L142.822 199.306H143.18L143.359 197.146H144.614L145.151 197.313V196.98L152.14 196.814L152.319 194.488L153.753 183.856L154.111 180.866Z" fill="#365661"/>
<path d="M184.396 198.143H208.05L207.154 198.808L206.438 199.638L206.258 200.137V201.964L206.975 202.961L208.05 203.625L209.484 203.958V204.124H183.5L183.679 203.792L185.292 203.293L186.188 202.296L186.367 201.798V200.137L185.471 198.808L184.396 198.309V198.143Z" fill="#FBFBFB"/>
<path d="M35.3022 170.067L39.9614 170.898L43.187 171.23L47.4878 171.396L45.6958 175.55L42.6494 182.361L42.291 182.527L38.707 181.032L32.7935 178.706L32.2559 178.54L32.4351 177.377L35.123 170.233L35.3022 170.067Z" fill="#192F36"/>
<path d="M130.278 73.2135L131.174 73.3796L132.787 75.3732L133.324 76.37V77.2006L131.353 79.1942L131.532 80.191L132.787 82.5168V84.0119L133.503 85.341L133.862 85.6732V86.67L132.607 87.1684L130.278 87.3345L129.561 87.0023L129.382 86.1716L128.844 85.8394L128.307 84.6765L127.948 83.5136L127.769 82.849L128.665 82.3506H129.203L128.665 80.8555L122.931 83.5136L120.243 84.8426L119.526 84.6765L117.734 82.1845L118.092 81.52L119.347 80.3571L120.78 79.1942L122.572 77.699L124.723 75.8716L126.335 74.5425L128.307 73.7119L130.278 73.2135Z" fill="#1A3037"/>
<path d="M298.188 133.685L299.083 133.851L300.696 134.848L302.667 135.845V138.336L304.101 138.503L304.28 138.004L305.355 139.167V140.995L305.893 141.161H284.031L284.389 140.496V138.835L283.314 137.838V136.177L285.285 136.343L291.378 137.34L292.632 137.672L293.17 135.678L293.887 134.848L296.575 133.851L298.188 133.685Z" fill="#FDC09C"/>
<path d="M83.3276 146.809H83.5068L83.3276 149.633L83.1484 152.956L82.79 153.953L81.1772 156.445L79.5645 158.106L77.7725 159.103L76.1597 159.601L75.0845 159.767H70.4253L67.9165 159.103L66.8413 158.77L66.6621 158.272L67.5581 158.438L68.4541 158.77L66.6621 153.454L66.4829 152.291L68.9917 152.624H73.8301L76.6973 152.125L76.8765 151.959H78.3101V151.627L79.5645 150.962L80.8188 149.966L82.6108 147.806L83.3276 146.809Z" fill="#FD725C"/>
<path d="M109.132 92.3185L109.849 92.6507L110.924 93.4814L111.82 93.8137L112.716 94.4782L113.612 95.3088L117.196 97.3024L119.705 98.4653L120.601 98.6314V100.127L121.497 107.27L123.11 122.388L122.572 122.222L120.959 116.573L119.705 114.248L118.988 113.417L117.375 112.42L116.121 111.756V105.277L117.913 104.778L118.451 103.948V101.788L117.734 100.957L117.196 100.791H115.583L115.225 102.286L113.792 101.622L112.537 100.127L111.283 97.4685L110.924 96.6379H108.057L108.236 96.1395L108.774 95.9733H110.208L110.924 96.3056L110.208 94.1459L109.132 92.3185Z" fill="#1A3037"/>
<path d="M131.711 80.5232L134.041 81.3538L135.116 81.8522V82.1845L135.833 82.5168L140.313 86.67L141.747 87.8329L142.822 88.6636V88.9958L143.539 89.3281L145.868 91.4878L147.302 92.6507L148.019 93.1491L150.527 90.8233L150.707 90.491L151.065 90.6571L149.811 91.9862L149.094 92.8168L147.66 93.9797L146.047 95.3088L144.435 97.1362L143.718 98.133L143.359 99.7943H143.001L141.209 97.1362L139.955 95.4749L137.087 91.4878L136.908 90.8233H136.55L135.295 88.9958L133.683 86.8361V85.6732L132.966 84.8426L132.607 84.0119V82.5168L131.711 81.0216V80.5232Z" fill="#C96560"/>
<path d="M296.754 184.354H301.592V188.674L301.413 189.172L301.234 192.661L301.055 193.159L284.389 193.492L285.106 192.827L287.794 191.498L291.199 190.169L292.632 189.837V186.846L291.378 185.85L291.557 185.517L292.453 186.182V185.684L292.632 184.521L296.754 184.354Z" fill="#365761"/>
<path d="M163.25 82.3506H165.58L167.193 83.3474L168.089 84.178L168.447 84.6764L168.626 85.6732V89.328L167.73 92.8168L166.834 92.9829L166.476 92.8168V92.4845L164.863 92.1523L160.562 90.8232L159.667 90.6571V90.3248L158.054 90.1587L156.979 89.8264L155.724 89.6603L155.903 88.9958L157.516 86.3377L159.308 84.178L160.204 83.5135L161.458 83.0151L163.25 82.3506Z" fill="#F56F5B"/>
<path d="M32.6143 178.706L33.6895 178.872L39.0654 181.032L41.2158 181.863L40.6782 183.358L39.4238 186.016L38.5278 188.175L38.3486 188.508L36.5566 188.009L21.8623 182.693V182.195L24.7295 181.863H31.3599L32.4351 179.038L32.6143 178.706Z" fill="#F7735D"/>
<path d="M89.5996 136.509L89.958 137.007L90.1372 140.33L91.2124 142.822L92.1084 144.649L91.9292 144.982L89.7788 144.151V144.483L92.4668 145.48L94.2588 148.637L95.6924 151.295L96.5884 153.122V153.62H93.9004L92.646 153.454L92.8252 153.62L94.6172 153.787V154.119H96.7676L96.9468 154.285V156.611L96.23 157.441L95.5132 157.608H93.9004L92.1084 156.943L90.6748 155.78L90.4956 155.282H90.1372L89.958 154.783L89.5996 148.803V136.509Z" fill="#AA4C40"/>
<path d="M40.8574 155.448H44.6206L46.5918 156.445L46.9502 156.777V158.272L45.6958 164.917H44.979L43.5454 164.087L43.3662 163.754L42.6494 163.588H40.1406L37.4526 164.253L36.7358 164.419L36.915 163.256L39.7822 155.78L40.8574 155.448Z" fill="#FD755F"/>
<path d="M242.277 20.218V20.7164L240.665 22.2116L239.948 23.0422L239.769 66.7344H239.589V23.0422H201.062V107.602L200.882 113.915H239.769L241.023 115.078H240.485L239.769 114.414H200.703L200.524 114.746H200.166L200.524 114.081V22.71L199.449 21.5471L200.166 21.8793L200.882 22.5438L239.948 22.71L240.306 22.0454L242.277 20.218Z" fill="#223B43"/>
<path d="M311.807 192.163H311.986L312.165 198.309V202.13L305.355 205.287L302.667 206.616H302.309L302.667 205.785L303.743 204.29H275.429V204.124L304.101 203.958L305.714 202.13L307.506 200.303L307.685 199.638L305.355 195.485L306.251 194.821L311.627 192.329L311.807 192.163Z" fill="#34535E"/>
<path d="M270.77 33.3423L271.487 33.5084V34.0068H274.175V34.8375H271.487V36.4988H272.741L272.92 36.6649V37.8278H273.996L274.533 38.3262L274.712 39.323L274.533 39.4891H271.487V46.4666H274.533L274.712 47.6295L274.175 48.4601L273.637 48.6262H268.261L267.365 47.7956V38.4923L268.082 37.8278H269.336V36.4988H270.412V33.6745L270.77 33.3423Z" fill="#FB7861"/>
<path d="M280.447 33.3423L281.164 33.5084L281.343 33.8407L283.852 34.0068V34.8375H281.343V36.4988H282.418L282.597 36.6649V37.8278H283.672L284.389 38.4923V39.4891H281.343V46.4666H284.21L284.389 46.6327V47.7956L283.493 48.6262H277.938L277.221 48.1279L277.042 47.6295L277.221 38.1601L277.759 37.8278H279.013V36.6649L280.088 36.3326L280.268 33.5084L280.447 33.3423Z" fill="#FB7862"/>
<path d="M299.979 33.3423L300.696 33.6745V34.0068H303.384V34.8375H300.696V36.4988H301.771L302.13 37.6617L303.384 37.9939L303.743 38.4923V39.4891H300.696V46.4666H303.563L303.743 46.6327V47.9617L302.847 48.6262H297.471L296.754 48.294L296.575 47.9617V38.3262L297.112 37.8278L298.367 37.6617L298.546 36.4988L299.442 36.3326L299.621 33.5084L299.979 33.3423Z" fill="#FB7761"/>
<path d="M290.303 33.3423L290.84 33.5084L291.02 33.8407L293.528 34.0068L293.708 34.6713L293.528 34.8375H291.02V36.4988H292.274L292.453 37.6617L293.708 37.9939L294.066 38.4923V39.4891H291.02V46.4666H293.887L294.066 46.6327V47.9617L293.17 48.6262H287.794L287.077 48.294L286.898 47.9617V38.3262L287.436 37.8278H288.69V36.6649L288.869 36.4988H289.944V33.5084L290.303 33.3423Z" fill="#FC7963"/>
<path d="M182.425 131.359H187.801V142.656L187.622 142.822H182.425L182.246 142.656V131.525L182.425 131.359Z" fill="#FD7760"/>
<path d="M112.896 23.0422V23.5406L111.82 24.5374L111.641 79.028H111.462L111.283 39.6552L111.104 24.8697L72.7549 24.7035V115.743H97.4844V115.909L72.5757 116.075L70.9629 117.57V117.072L72.2173 115.909V24.5374L71.6797 23.7068L72.3965 24.039L72.7549 24.3713H111.462L112.896 23.0422Z" fill="#213A42"/>
<path d="M190.668 136.675H199.449V142.656L199.27 142.822H190.668V136.675Z" fill="#EB6F5C"/>
<path d="M124.543 103.449L125.081 103.615L125.439 104.28L127.948 105.277L128.307 107.935L129.023 116.241V118.069H128.307L127.59 115.743V118.069H124.364V110.925L124.543 103.449Z" fill="#1A3037"/>
<path d="M276.325 59.2585H284.748L284.927 59.4247V62.7473H279.372L279.192 64.2424L284.927 64.0763V65.4054H276.146V59.4247L276.325 59.2585Z" fill="#FB7761"/>
<path d="M297.829 59.2585H306.251L306.431 59.4247V62.7473H300.875L300.696 64.2424L306.431 64.0763V65.4054H297.65V59.4247L297.829 59.2585Z" fill="#EB6F5C"/>
<path d="M265.932 59.2585H274.533L274.712 59.4247V62.5811L269.157 62.7473V64.0763L274.712 64.2424V65.4054H265.932V59.2585Z" fill="#FB735D"/>
<path d="M286.898 59.2585H295.5V62.7473H289.765L289.944 64.0763L295.5 64.2424V65.4054H286.898V59.2585Z" fill="#EC6E5B"/>
<path d="M231.525 196.15L233.855 196.316L234.93 196.648L235.468 196.482L237.977 196.814L237.797 200.469L237.439 203.127L231.346 202.795L230.988 202.629V200.469L231.525 196.15Z" fill="#E16958"/>
<path d="M160.025 116.906H162.175L162.892 118.235L165.401 124.215V124.714L159.487 125.544H158.054L159.487 117.57L159.667 117.072L160.025 116.906Z" fill="#FA735D"/>
<path d="M258.405 196.482L258.943 196.648V201.964L258.764 202.13V202.961H252.312V196.98L252.492 196.814H255.717V197.645L255 197.811H255.896V196.814L258.405 196.482Z" fill="#F4735D"/>
<path d="M293.349 179.869H295.858L301.592 180.367L301.413 183.025L301.234 184.354H293.17V180.367L293.349 179.869Z" fill="#FDC19E"/>
<path d="M154.111 180.866H154.291L154.47 182.029L155.007 194.322L155.187 196.648V198.974L154.649 199.472L152.499 200.303H151.961V196.814L153.395 186.68L154.111 180.866Z" fill="#FBFBFB"/>
<path d="M228.3 129.864L230.092 130.362L229.913 131.193L229.196 134.183L229.017 135.346L228.837 146.145L227.583 145.148L226.508 143.653L225.97 142.157V140.662L226.329 138.004L227.583 132.854L228.3 130.528V129.864Z" fill="#FDC09D"/>
<path d="M182.246 177.875H209.484L209.663 178.706L209.484 189.006H209.305V178.208L200.882 178.374L199.807 179.371H191.922L190.847 178.374L182.604 178.208V191.498L202.854 191.664L203.033 191.996H182.246V177.875Z" fill="#192E35"/>
<path d="M277.221 135.014H278.117L278.834 135.18L281.701 135.678L281.88 135.844L282.06 135.014H282.956L283.493 138.17L284.389 138.503L284.568 138.835V140.496L284.031 141.161L281.164 141.327L279.372 141.161L279.551 140.33H279.372V138.669L278.655 138.336L277.042 138.17V136.177L277.221 135.014Z" fill="#FCBF9C"/>
<path d="M48.2046 152.125H48.3838L48.0254 155.448L48.2046 155.614L48.3838 158.937L47.3086 158.77L46.9502 158.604L47.3086 159.103L48.3838 159.435L48.563 160.099L48.7422 163.09V166.579L47.8462 166.745L45.875 166.412L46.4126 166.745L48.7422 167.077L48.563 168.24L47.8462 168.904L47.4878 169.071H46.0542L45.5166 168.24L45.3374 167.575L45.5166 164.917L46.771 158.272L48.0254 152.624L48.2046 152.125Z" fill="#B34C3F"/>
<path d="M182.425 161.761H192.639L209.484 161.927L209.663 162.425L209.484 172.891H209.305V162.093L201.062 162.259L200.166 162.924L199.807 163.422H192.102L190.847 162.259H182.604V175.55H191.743L206.975 175.716V175.882H182.246V161.927L182.425 161.761Z" fill="#192E35"/>
<path d="M182.783 198.143H184.038L185.113 198.475L186.009 199.14L186.546 200.137V201.798L185.83 202.961L184.934 203.625L183.321 203.958L181.708 203.459L180.812 202.629L180.274 201.466L180.454 199.971L181.17 198.974L182.066 198.309L182.783 198.143Z" fill="#1A2F36"/>
<path d="M208.767 197.977L209.842 198.143L211.097 198.642L211.993 199.638L212.351 201.134L211.813 202.629L210.559 203.625L209.484 203.958L208.05 203.792L206.975 203.127L206.258 202.296L206.079 201.964V200.137L206.617 199.14L207.692 198.309L208.767 197.977Z" fill="#1A2F36"/>
<path d="M182.246 145.812H209.484L209.663 146.145L209.484 156.943H209.305L209.125 146.145H201.241L199.807 147.307H191.922L190.847 146.311L190.31 146.145H182.425L182.604 147.806V159.601H207.513V159.767L182.246 159.933V145.812Z" fill="#192E35"/>
<path d="M123.289 124.548H126.156L127.59 125.212L128.486 126.375L128.665 127.04V128.202L128.127 129.365L126.694 131.857L125.977 133.186H125.619L123.827 126.541L123.289 124.548Z" fill="#375863"/>
<path d="M190.668 136.675H199.449V142.656H199.27V141.493H193.894L193.714 141.327V139.998H199.27V138.669H190.668V136.675Z" fill="#FE7861"/>
<path d="M228.837 150.464H229.017L229.196 163.422L229.375 163.92L228.121 164.585L227.404 164.419L226.687 162.591V158.438L227.404 154.783L228.658 150.796L228.837 150.464Z" fill="#1A2F36"/>
<path d="M276.863 105.609H281.88V110.261H277.042L276.863 110.094V105.609Z" fill="#FE7760"/>
<path d="M311.627 170.732H311.986L312.165 175.051V183.358L311.807 183.192L308.581 172.227L309.119 171.729L311.627 170.732Z" fill="#FBFBFB"/>
<path d="M90.1372 152.624L92.646 153.454L92.8252 153.62L94.6172 153.787V154.119H96.7676L96.9468 154.285V156.611L96.23 157.441L95.5132 157.608H93.9004L92.1084 156.943L90.6748 155.78L90.4956 155.282H90.1372L89.958 154.119L90.1372 152.624Z" fill="#B44C3F"/>
<path d="M239.589 105.941L240.306 106.772L242.277 107.935L242.457 109.43L242.636 112.752V115.078L240.844 115.41L240.485 114.746L239.589 113.915V105.941Z" fill="#375863"/>
<path d="M265.932 59.2585H274.533L274.712 59.4247V60.9198L274.533 61.7505H266.111L265.932 61.5844V59.2585Z" fill="#EB7460"/>
<path d="M276.325 59.2585H284.748V61.7505H276.325V59.2585Z" fill="#EB735F"/>
<path d="M297.829 59.2585H306.251L306.431 59.4247V62.7473H306.251V61.4182H297.829V65.4054H297.65V59.4247L297.829 59.2585Z" fill="#FE7E65"/>
<path d="M286.898 59.2585H295.5V61.5844L286.898 61.4182V59.2585Z" fill="#FE7760"/>
<path d="M252.492 196.814H255.717V197.645L255 197.811L255.538 197.977V202.13L252.85 202.296L252.312 202.13V196.98L252.492 196.814Z" fill="#FC7760"/>
<path d="M129.203 82.1844H131.353L131.711 82.849L131.174 83.1812L131.891 83.6796L131.711 84.3441L132.428 84.8425V86.3377L131.711 86.67L131.891 87.1683L130.278 87.3345L129.561 87.0022L129.382 86.1716L128.844 85.8393L128.307 84.6764L127.948 83.5135L127.769 82.849L129.203 82.1844Z" fill="#CB6660"/>
<path d="M300.517 76.0377H301.413L301.771 78.1974V79.1942L302.667 79.3603L303.026 79.8587V81.6861L302.488 82.1845H299.442L299.083 81.52H299.442L299.263 79.3603L300.159 79.1942L300.338 76.8684L300.517 76.0377Z" fill="#EF715D"/>
<path d="M280.268 76.0377H281.164L281.701 79.0281L282.597 79.5264L282.776 79.6926V81.8523L282.239 82.1845H279.192L279.013 81.52V79.3603L279.909 79.1942L280.268 76.0377Z" fill="#EF715D"/>
<path d="M270.053 76.0377H270.949L271.308 78.0313V79.1942L272.204 79.3603L272.562 79.6926V81.6861L272.024 82.1845H268.978L268.799 81.52V79.3603L269.695 79.1942L270.053 76.0377Z" fill="#F0715D"/>
<path d="M282.06 135.014H282.956L283.493 138.17L284.389 138.503L284.568 138.835V140.496L284.031 141.161L281.164 141.327L280.626 140.496H280.984L280.805 138.503L281.522 138.17L281.701 137.838L282.06 135.014Z" fill="#F16D59"/>
<path d="M290.303 76.0377H291.199L291.557 78.1974V79.1942L292.453 79.3603L292.632 79.5264V81.8523L292.274 82.1845H289.228L289.048 81.3539V80.0248V79.3603L289.944 79.1942L290.124 76.5361L290.303 76.0377Z" fill="#F06F5C"/>
<path d="M130.995 79.1942L132.428 81.8523L132.787 82.8491V84.012L133.503 85.341L133.862 85.6733V86.6701L132.607 87.1685L131.711 87.0023V86.6701L132.249 86.3378V84.8426L131.532 84.3442L131.711 83.6797L130.815 83.3475L131.532 82.8491L131.353 82.3507L129.203 82.1846L128.486 80.6894L129.203 80.191L130.995 79.1942Z" fill="#1F363D"/>
<path d="M21.3247 182.361L22.2207 182.693L28.3135 184.853L37.0942 188.009L38.1694 188.508L37.9902 189.006L36.1982 188.674L20.9663 183.025V182.527L21.3247 182.361Z" fill="#FDC9AB"/>
<path d="M233.855 197.811H234.572L234.393 200.967L234.213 202.13L230.988 201.964V200.469L231.167 198.808H231.705L233.855 197.811Z" fill="#FA745E"/>
<path d="M234.751 197.977H235.826L237.26 199.14L237.439 199.472L237.797 199.14L237.618 202.13L237.439 202.296H235.826L234.393 202.13L234.572 199.971L234.751 197.977Z" fill="#F9735E"/>
<path d="M278.117 99.1298H280.805L282.956 99.6282L284.927 100.625L286.719 102.12L287.973 103.948L288.69 105.775L288.869 106.606V108.931L288.332 110.925L287.256 112.919L285.823 114.414L284.031 115.577L281.701 116.407L280.626 116.573H278.296L276.146 116.075L273.996 115.078L273.458 114.414L276.325 115.743L277.58 116.075H281.164L282.956 115.577L284.927 114.58L286.719 112.919L287.973 110.759L288.332 109.43V106.107L287.615 104.28L286.54 102.618L285.644 101.622L283.852 100.459L282.06 99.7943L280.268 99.462H278.476L276.146 99.9604L274.175 100.957H273.637L275.25 99.9604L277.221 99.2959L278.117 99.1298Z" fill="#2A4750"/>
<path d="M276.684 138.17H278.655L279.551 138.669V139.998L279.73 140.496L279.372 141.161H275.967L275.788 140.33V138.835L276.146 138.336L276.684 138.17Z" fill="#F2F3F4"/>
<path d="M304.101 138.004L305.176 138.835L305.355 139.167V140.994L305.893 141.161H301.413V138.835L302.309 138.336L304.101 138.503V138.004Z" fill="#F0F2F3"/>
<path d="M67.0205 158.604L68.9917 159.269L69.8877 161.595L69.7085 162.757L68.8125 163.256L67.5581 163.09L67.1997 162.425L66.8413 159.601V158.77L67.0205 158.604Z" fill="#B44C3F"/>
<path d="M311.807 191.332L312.165 191.498V192.163L308.043 194.156L306.251 194.987L305.535 194.821L305.176 194.156V193.658L310.373 191.83L311.807 191.332Z" fill="#FBC1A2"/>
<path d="M193.714 139.998H199.27V141.327L199.09 141.493H193.894L193.714 141.327V139.998Z" fill="#FBFAFA"/>
<path d="M65.7661 152.291L66.6621 152.458L67.3789 155.116L68.6333 158.604L68.4541 158.937L66.8413 158.438V158.77H66.4829L65.7661 152.956V152.291Z" fill="#A04C42"/>
<path d="M115.942 140.662H121.318L125.26 141.327L127.948 141.991L128.127 141.659V142.157L126.335 141.991L121.318 141.161H115.583L112.537 141.825L110.387 142.656L108.057 144.151L106.982 145.314L106.803 144.815L108.416 143.32L110.745 141.991L113.612 140.994L115.942 140.662Z" fill="#FCE3D5"/>
<path d="M113.612 133.519H118.271L121.855 134.183L125.619 135.346L126.156 135.844L124.185 135.346L121.318 134.515L117.913 134.017H113.971L111.283 134.515L108.953 135.346L106.624 136.841L106.086 137.174L106.444 136.509L108.236 135.18L110.566 134.183L113.612 133.519Z" fill="#FCD4BD"/>
<path d="M165.938 73.5458L167.193 73.7119L167.73 74.2103L167.91 74.5426V75.5393L167.193 76.37L166.297 76.5361L165.401 76.0377L165.042 75.3732L165.222 74.0442L165.938 73.5458Z" fill="#375863"/>
<path d="M48.2046 152.125H48.3838L48.0254 155.448L48.2046 155.614L48.3838 158.937L47.3086 158.77L46.9502 158.604L46.771 160.432L45.875 165.25H45.6958L45.875 163.09L46.771 158.272L48.0254 152.624L48.2046 152.125Z" fill="#794844"/>
<path d="M89.5996 136.509L89.958 137.007L90.1372 140.33L91.2124 142.822L92.1084 144.649L91.9292 144.982L89.7788 144.151L89.5996 136.509Z" fill="#B54E41"/>
<path d="M161.996 78.8619L162.534 79.0281L161.1 80.3571L158.95 81.1878H156.441V80.191L159.846 79.6926L161.996 78.8619Z" fill="#B44C3F"/>
<path d="M153.753 160.598L153.932 161.262L153.753 161.927V164.253L154.649 171.562V176.713L154.47 180.201V182.029L154.111 182.195L153.932 183.856H153.753V181.53L153.932 178.872L154.291 176.38V171.729L153.215 163.256L153.395 161.595L153.753 160.598Z" fill="#375863"/>
<path d="M299.979 33.3423L300.696 33.6745V34.0068H303.384V34.8375H300.696V36.4988H299.621V33.5084L299.979 33.3423Z" fill="#1B3139"/>
<path d="M270.77 33.3423L271.487 33.5084V34.0068H274.175V34.8375H271.487V36.4988H270.591L270.412 36.3326V33.6745L270.77 33.3423Z" fill="#1D333B"/>
<path d="M231.525 196.15L233.855 196.316L234.751 196.482V197.645L232.959 197.977L231.346 198.808L231.525 196.15Z" fill="#ED6D5C"/>
<path d="M290.303 33.3423L290.84 33.5084L291.02 33.8407L293.528 34.0068L293.708 34.6713L293.528 34.8375H291.02V36.3326L290.84 36.4988H289.944V33.5084L290.303 33.3423Z" fill="#1C323A"/>
<path d="M280.447 33.3423L281.164 33.5084L281.343 33.8407L283.852 34.0068V34.8375H281.343V36.3326L281.164 36.4988H280.268V33.5084L280.447 33.3423Z" fill="#1C323A"/>
<path d="M290.84 36.3326L292.274 36.4988V37.9939H288.869L288.69 37.6617V36.6649L288.869 36.4988L290.84 36.3326Z" fill="#ED6E5A"/>
<path d="M82.6108 153.62L82.79 153.953L81.1772 156.445L79.5645 158.106L77.7725 159.103L76.1597 159.601L75.0845 159.767H70.4253L68.8125 159.269L69.5293 159.103L70.4253 159.269H74.9053L76.3389 159.103L77.9517 158.438H78.4893V158.106H79.0269V157.774L79.9229 157.275L80.6396 156.278H80.998L81.3564 155.448L82.4316 153.786L82.6108 153.62Z" fill="#FDCEB3"/>
<path d="M252.312 202.13H258.764V202.961H252.312V202.13Z" fill="#1F363D"/>
<path d="M258.405 196.482L258.943 196.648L258.764 199.638L258.405 199.472V199.14H258.047L257.509 198.642V198.309L256.792 198.143V197.811H255.896V196.814L258.405 196.482Z" fill="#DF6959"/>
<path d="M151.244 118.401H151.423V122.554L151.244 125.877L150.886 127.538L149.811 129.033L148.377 130.03L146.764 130.694L145.151 131.027H141.926V130.861L145.51 130.528L147.839 129.864L149.273 128.867L150.169 127.87L150.707 126.375L151.244 118.401Z" fill="#192E35"/>
<path d="M230.988 201.964H234.393L237.439 202.296V203.127L231.346 202.795L230.988 202.629V201.964Z" fill="#1E353D"/>
<path d="M252.492 196.814H255.717V197.645L254.463 197.811V198.309L253.029 198.974L252.85 199.306H252.492V196.814Z" fill="#DF6959"/>
<path d="M302.847 135.18H303.743L304.101 137.173V138.503H302.667L302.488 138.336L302.667 135.844L302.847 135.18Z" fill="#27373E"/>
<path d="M280.088 36.3326L282.418 36.4988L282.597 36.6649V37.9939L282.418 37.6617H279.013V36.6649L280.088 36.3326Z" fill="#FB7660"/>
<path d="M299.442 36.3326L301.771 36.4988L301.951 36.6649V37.9939L301.771 37.6617H298.367L298.546 36.4988L299.442 36.3326Z" fill="#FC7660"/>
<path d="M290.303 76.0377H291.199L291.557 78.1974V79.1942H289.944L290.124 76.5361L290.303 76.0377Z" fill="#1C333A"/>
<path d="M277.221 135.014H278.117L278.476 136.509L278.655 138.17H277.042V136.177L277.221 135.014Z" fill="#22343B"/>
<path d="M306.072 76.0377H306.968L307.506 79.1942H305.714L305.893 76.8684L306.072 76.0377Z" fill="#1C333A"/>
<path d="M295.679 76.0377H296.575L296.933 78.0313V79.1942H295.32L295.5 76.8684L295.679 76.0377Z" fill="#1D333B"/>
<path d="M285.464 76.0377H286.36L286.719 78.1974V79.1942H285.106L285.285 76.7022L285.464 76.0377Z" fill="#1C333A"/>
<path d="M300.517 76.0377H301.413L301.771 78.1974V79.1942H300.159L300.338 76.8684L300.517 76.0377Z" fill="#1C333A"/>
<path d="M275.429 76.0377H276.325L276.863 79.1942H275.071L275.429 76.0377Z" fill="#1C323A"/>
<path d="M265.215 76.0377H266.111L266.648 79.1942H264.856L265.215 76.0377Z" fill="#1C323A"/>
<path d="M280.268 76.0377H281.164L281.701 79.1942H279.909L280.268 76.0377Z" fill="#1B3139"/>
<path d="M270.053 76.0377H270.949L271.308 78.0313V79.1942H269.695L270.053 76.0377Z" fill="#1B3239"/>
<path d="M282.06 135.014H282.956L283.314 136.675V138.17H281.88V136.177L282.06 135.014Z" fill="#1F3239"/>
<path d="M158.233 73.7119L158.95 73.878L159.308 74.5426L159.129 75.5393L158.233 75.8716L157.516 75.7055L156.799 74.8748L156.979 74.2103L158.233 73.7119Z" fill="#B85145"/>
<path d="M60.3901 144.317H60.5693L60.3901 147.141L59.8525 152.125L59.4941 153.787L58.9565 157.774H58.7773V156.278L59.4941 150.796L59.8525 147.64L60.3901 144.317Z" fill="#755353"/>
<path d="M76.8765 151.959L77.5933 152.125L76.5181 152.624L74.0093 153.122H68.9917L66.6621 152.624L66.4829 152.291L68.9917 152.624H73.8301L76.6973 152.125L76.8765 151.959Z" fill="#FDCAAD"/>
<path d="M263.96 158.272L264.319 158.77L264.856 162.924V164.087L263.602 163.754L263.781 163.09L263.96 158.272Z" fill="#1D333B"/>
<path d="M330.264 120.561H330.623L330.802 122.056L331.16 121.723L332.056 121.89L332.235 122.554H331.877L331.339 122.056V122.72H330.981L330.623 123.551L329.727 123.385L329.547 122.72L330.443 122.222L329.189 121.225L329.727 121.059L330.085 121.391L330.264 120.561Z" fill="#FDBB9F"/>
<path d="M151.961 91.8201H152.319L152.857 93.1491L153.574 93.3152L153.753 93.9798L153.574 94.312H152.678L152.319 93.9798L152.14 94.1459H151.244L151.065 93.4814L151.782 92.6507L151.961 91.8201Z" fill="#FCD3C1"/>
<path d="M105.907 147.141L106.086 147.64L105.19 149.301L103.936 150.796L102.144 152.291L99.2764 153.62H98.2012L98.3804 153.288L99.814 152.956L102.144 151.793L102.323 151.461L103.219 150.962L104.473 149.633L105.907 147.141Z" fill="#FDD2BA"/>
<path d="M120.601 140.662L123.647 140.994L127.411 141.825L127.948 141.991L128.127 141.659V142.157L126.335 141.991L121.318 141.161L116.121 140.994V140.828L120.601 140.662Z" fill="#FDC5A4"/>
<path d="M231.525 196.15L233.855 196.316L234.572 196.648V197.146L234.213 197.313L231.525 197.146V196.15Z" fill="#B75044"/>
<path d="M151.603 73.0474H151.961L152.319 75.8716L151.423 75.5393L150.886 74.7087L151.065 73.5458L151.603 73.0474Z" fill="#375863"/>
<path d="M118.809 133.685L120.422 133.851L124.185 134.848L125.977 135.512L126.156 135.845L124.185 135.346L121.318 134.515L117.913 134.017V133.851L118.809 133.685Z" fill="#FDC5A4"/>
<path d="M40.1406 163.422H42.6494L43.5454 163.754V163.921H40.6782L37.9902 164.419L36.5566 164.751L36.7358 164.253L40.1406 163.422Z" fill="#FDD1B7"/>
<path d="M63.0781 156.278H65.5869L65.9453 156.611L63.2573 156.777L61.2861 157.441L59.6733 158.438L58.7773 159.269L58.9565 158.604L59.8525 157.774H60.2109V157.441H60.7485V157.109L63.0781 156.278Z" fill="#FDCBAE"/>
<path d="M83.5068 146.643H83.686V150.298L83.1484 154.783H82.9692V152.457L83.3276 148.138L83.5068 146.643Z" fill="#875553"/>
<path d="M234.751 197.313L234.93 197.645L235.826 197.811V197.977H234.751V199.971L234.393 201.964H234.213L234.393 198.974L234.572 197.811L232.601 198.476L231.346 199.14L231.705 198.476L233.317 197.645H234.751V197.313Z" fill="#7A4F4C"/>
<path d="M83.3276 146.311L83.5068 146.809L81.894 148.969L80.2812 150.63L78.8477 151.627H78.3101V151.295L79.3853 150.796L80.2812 149.966L81.894 148.304L83.3276 146.311Z" fill="#FDCBAD"/>
<path d="M111.104 134.017L112 134.183L111.283 134.515L108.953 135.346L106.624 136.841L106.086 137.174L106.444 136.509L108.236 135.18L110.566 134.183L111.104 134.017Z" fill="#FDC9AB"/>
<path d="M235.109 196.482L237.977 196.814V197.479L234.93 197.313L235.109 196.482Z" fill="#B64E42"/>
<path d="M258.405 196.482L258.943 196.648V197.313H255.896V196.814L258.405 196.482Z" fill="#B55044"/>
<path d="M65.2285 147.307L65.5869 147.806L66.1245 150.464L66.3037 152.125H65.7661L65.2285 148.304V147.307Z" fill="#814D49"/>
<path d="M252.492 196.814H255.717V197.645L255.538 197.313L252.492 197.479V196.814Z" fill="#B44C3F"/>
<path d="M105.728 139.167V139.666L104.115 141.327L102.502 142.822L101.248 143.653H100.71V143.32L101.964 142.656L103.756 141.161L105.728 139.167Z" fill="#FDCDB1"/>
<path d="M58.7773 154.285L59.1357 154.451L57.7021 156.112L55.9102 157.441L55.0142 157.94H54.4766V157.608L55.3726 157.441V157.109H55.9102V156.777L56.4478 156.611L57.3438 155.78L58.7773 154.285Z" fill="#FDC3A1"/>
<path d="M86.0156 143.486H88.166L89.2412 143.985L89.062 144.317L88.3452 143.985H86.374L84.582 144.483L84.0444 144.815L84.2236 144.151L86.0156 143.486Z" fill="#FDC7A8"/>
<path d="M48.7422 164.419H48.9214V167.409L48.7422 167.077H47.1294L45.6958 166.579L45.875 166.246L47.8462 166.579H48.7422V164.419Z" fill="#DB6D62"/>
<path d="M85.2988 150.298H88.5244L89.4204 150.796L89.2412 151.129L87.9868 150.63H86.1948L83.8652 151.295H83.5068V150.962L85.2988 150.298Z" fill="#FDD2BA"/>
<path d="M92.4668 144.982H97.4844L97.3052 145.314L96.4092 145.48H92.646L92.2876 145.148L92.4668 144.982Z" fill="#FCD4BD"/>
<path d="M108.774 95.9733H110.208L110.924 96.3055L111.104 95.9733L110.924 96.6378H108.057L108.236 96.1394L108.774 95.9733Z" fill="#2B4048"/>
<path d="M162.175 82.1844H165.58V82.3506L163.25 82.5167L160.562 83.5135L160.921 82.6828L162.175 82.1844Z" fill="#715353"/>
<path d="M159.487 66.0699H161.1L161.817 66.5683V66.9006L159.667 66.7345L159.129 66.5683V66.2361L159.487 66.0699Z" fill="#213A42"/>
<path d="M297.65 189.006L298.546 189.172L298.725 190.003L298.367 190.335L297.471 190.169L297.292 189.338L297.65 189.006Z" fill="#FBFBFB"/>
<path d="M148.377 198.475L149.273 198.642L149.452 199.472L148.556 199.805L148.019 199.306L148.198 198.642L148.377 198.475Z" fill="#FBFBFB"/>
<path d="M160.204 198.475L161.1 198.642L161.279 199.472L160.383 199.805L159.846 199.306L160.025 198.642L160.204 198.475Z" fill="#FBFBFB"/>
<path d="M158.233 73.7119L158.95 73.878L159.308 74.5426L159.129 75.5393L157.875 75.7055L158.591 75.3732L158.771 74.7087L158.591 74.0442L157.337 74.5426L156.799 74.3764L158.233 73.7119Z" fill="#2D4A54"/>
<path d="M326.143 94.8104H327.935H328.472L328.831 95.3088L327.935 95.4749L325.784 95.3088V94.9766L326.143 94.8104Z" fill="#2C3D44"/>
<path d="M76.8765 151.959L77.5933 152.125L76.5181 152.624L75.0845 152.956H73.2925L73.8301 152.624L76.6973 152.125L76.8765 151.959Z" fill="#FCD8C3"/>
<path d="M330.264 120.561H330.623L330.802 122.056H331.16L330.981 122.554L330.623 122.886L330.085 122.388L330.443 122.222L329.189 121.225L329.727 121.059L330.085 121.391L330.264 120.561Z" fill="#FCDECE"/>
<path d="M52.147 165.748H52.5054V166.08L50.1758 166.911H48.9214L49.1006 166.579L51.7886 165.914L52.147 165.748Z" fill="#FCD6BF"/>
<path d="M109.849 142.49L110.208 142.822L108.236 143.985L106.982 145.314L106.803 144.816L108.416 143.32L109.849 142.49Z" fill="#FEC09C"/>
<path d="M102.681 95.641H103.756L104.115 95.8071V96.3055H101.964L102.681 95.641Z" fill="#243E46"/>
<path d="M255 102.286L255.717 102.452L255.896 103.117L255.538 103.449H254.821L254.642 102.619L255 102.286Z" fill="#2E3D44"/>
<path d="M144.435 109.43L145.689 109.596L147.123 110.094V110.26H145.868L144.793 109.928L144.435 109.762V109.43Z" fill="#F17360"/>
<path d="M249.983 106.107L250.341 106.273L250.879 107.436L251.775 107.768V108.101H250.879V107.768L250.341 107.602L249.983 107.104V106.107Z" fill="#654E50"/>
<path d="M249.087 102.286H249.804L249.983 103.117L249.804 103.449L248.908 103.283V102.452L249.087 102.286Z" fill="#313B41"/>
<path d="M108.416 99.9604L109.312 100.127L109.491 100.791L109.312 100.957H108.416L108.236 100.127L108.416 99.9604Z" fill="#2F3D44"/>
<path d="M102.681 99.9604L103.577 100.127L103.398 100.957H102.502L102.323 100.127L102.681 99.9604Z" fill="#313B41"/>
<path d="M153.395 69.8909H154.291L154.47 70.7215L154.291 70.8876H153.395L153.215 70.2231L153.395 69.8909Z" fill="#213941"/>
<path d="M152.857 93.149L153.574 93.3152L153.753 93.9797L153.574 94.312H152.678V93.6474L152.857 93.149Z" fill="#FDAD8E"/>
<path d="M154.111 66.0699L155.187 66.2361L155.366 66.7345H153.215L153.574 66.2361L154.111 66.0699Z" fill="#1F373F"/>
<path d="M36.1982 183.358L37.0942 183.524V184.354L36.3774 184.521L36.019 184.188L36.1982 183.358Z" fill="#FBFBFB"/>
<path d="M50.1758 158.937H51.6094L51.251 159.269L50.355 159.435H48.563L48.3838 159.103L50.1758 158.937Z" fill="#FDD3BA"/>
<path d="M268.62 79.5264L268.978 79.8586V81.5199L268.62 81.8522L268.44 81.5199V79.8586L268.62 79.5264Z" fill="#FEC09C"/>
<path d="M159.308 69.8909L160.204 70.057L160.025 70.8876L159.129 70.7215V70.057L159.308 69.8909Z" fill="#203941"/>
<path d="M89.7788 144.151L92.4668 144.982L92.2876 145.314L90.6748 144.982L89.7788 144.483V144.151Z" fill="#DD6A5F"/>
<path d="M299.083 79.5264L299.442 79.8586V81.5199L298.904 81.6861V79.8586L299.083 79.5264Z" fill="#FEC09C"/>
<path d="M108.057 103.948L108.416 104.28L108.057 105.11L107.161 105.609H106.265V105.277L107.34 104.944L107.878 104.446L108.057 103.948Z" fill="#40464C"/>
<path d="M325.605 97.9668H326.501L326.68 98.6313L326.322 98.9636L325.605 98.7974V97.9668Z" fill="#2B3B42"/>
<path d="M320.408 97.9668L321.304 98.1329L321.125 98.9636L320.229 98.7974L320.408 97.9668Z" fill="#29383F"/>
<path d="M320.229 93.9797H321.663L322.021 94.1459V94.4781H319.871L320.229 93.9797Z" fill="#1D343C"/>
<path d="M288.69 79.8586L289.228 80.0248V81.3538L288.869 81.8522L288.69 81.6861V79.8586Z" fill="#FEC09C"/>
<path d="M286.36 113.251L286.719 113.417L285.823 114.414L284.568 115.244V114.746L286.002 113.583L286.36 113.251Z" fill="#2B4750"/>
<path d="M254.463 98.7975H256.076L256.255 99.2959H254.463V98.7975Z" fill="#FBFBFB"/>
<path d="M76.5181 158.937L77.2349 159.103L76.8765 159.435L76.1597 159.601H74.5469L74.9053 159.269L76.3389 159.103L76.5181 158.937Z" fill="#FCD7C1"/>
<path d="M56.4478 156.611L56.8062 156.777L55.0142 157.94H54.4766V157.607L55.3726 157.441V157.109H55.9102V156.777L56.4478 156.611Z" fill="#FCD7C1"/>
<path d="M114.329 140.828L115.583 140.994V141.161L113.792 141.493H112.896L113.075 141.161L114.329 140.828Z" fill="#FDD2BA"/>
<path d="M46.9502 158.604L48.563 158.77V160.099L48.2046 159.435L46.9502 159.103V158.604Z" fill="#DB695E"/>
<path d="M66.6621 158.272L67.5581 158.438L68.8125 158.77V159.269L67.9165 159.103L66.8413 158.77L66.6621 158.272Z" fill="#D8695F"/>
</svg>
