<svg width="60" height="60" viewBox="0 0 60 60" fill="none" xmlns="http://www.w3.org/2000/svg">
<path d="M30 60C46.5685 60 60 46.5685 60 30C60 13.4315 46.5685 0 30 0C13.4315 0 0 13.4315 0 30C0 46.5685 13.4315 60 30 60Z" fill="#8D2D6D"/>
<path d="M57.3364 40.1635H39.3682V26.7086H53.2488L57.3364 40.1635Z" fill="#76CDCE"/>
<path d="M60.0004 50.4345C60.0004 51.1938 59.3847 51.8095 58.6253 51.8095H55.6823C55.6887 51.692 55.6925 51.5732 55.6925 51.4544C55.6925 50.6241 55.5418 49.8207 55.2441 49.0594H58.6253C59.3847 49.0594 60.0004 49.6751 60.0004 50.4345Z" fill="#E6E6E6"/>
<path d="M52.2998 25.335H37.2998V51.8095H42.4808C42.4744 51.692 42.4705 51.5732 42.4705 51.4544C42.4705 47.8088 45.4353 44.8441 49.0809 44.8441C51.6279 44.8441 53.9054 46.2658 55.0231 48.5548C55.1036 48.7209 55.1777 48.8882 55.2441 49.0594H58.6253V37.3585C58.6253 37.0102 58.5581 36.6652 58.4273 36.3424L54.5944 26.8811C54.2158 25.9466 53.3081 25.335 52.2998 25.335ZM40.1087 37.3779V28.1452H52.0737L55.8138 37.3779H40.1087Z" fill="#D40200"/>
<path d="M43.6316 51.8095C43.624 51.692 43.6201 51.5732 43.6201 51.4544C43.6201 48.4386 46.065 45.9937 49.0808 45.9937C51.2383 45.9937 53.1032 47.2442 53.9897 49.0594C54.3435 49.7824 54.5428 50.596 54.5428 51.4544C54.5428 51.5732 54.539 51.692 54.5313 51.8082C54.3486 54.6606 51.9791 56.9164 49.0808 56.9164C46.1838 56.9164 43.8143 54.6606 43.6316 51.8095ZM51.3213 51.4544C51.3213 50.2192 50.316 49.2139 49.0808 49.2139C47.8456 49.2139 46.8403 50.2192 46.8403 51.4544C46.8403 52.6896 47.8456 53.6949 49.0808 53.6949C50.316 53.6949 51.3213 52.6896 51.3213 51.4544Z" fill="#07140D"/>
<path d="M49.0813 49.2139C50.3165 49.2139 51.3218 50.2191 51.3218 51.4544C51.3218 52.6896 50.3165 53.6948 49.0813 53.6948C47.8461 53.6948 46.8408 52.6896 46.8408 51.4544C46.8408 50.2191 47.8461 49.2139 49.0813 49.2139Z" fill="#E6E6E6"/>
<path d="M37.2971 19.0836V51.8095H17.6297C17.6361 51.692 17.6399 51.5732 17.6399 51.4544C17.6399 47.8088 14.6751 44.8441 11.0296 44.8441C8.47996 44.8441 6.20371 46.267 5.08858 48.5535C5.00683 48.7196 4.93274 48.8882 4.86632 49.0594H1.37402V19.0836H37.2971Z" fill="#FBCA3F"/>
<path d="M16.492 51.4544C16.492 51.5732 16.4882 51.692 16.4805 51.8095C16.2979 54.6606 13.9284 56.9164 11.0313 56.9164C8.13299 56.9164 5.76349 54.6606 5.58083 51.8095C5.57317 51.692 5.56934 51.5732 5.56934 51.4544C5.56934 50.596 5.76733 49.7836 6.12243 49.0606C7.00764 47.2442 8.87386 45.9937 11.0313 45.9937C14.0472 45.9937 16.492 48.4386 16.492 51.4544ZM13.2718 51.4544C13.2718 50.2192 12.2665 49.2139 11.0313 49.2139C9.79611 49.2139 8.79083 50.2192 8.79083 51.4544C8.79083 52.6896 9.79611 53.6949 11.0313 53.6949C12.2665 53.6949 13.2718 52.6896 13.2718 51.4544Z" fill="#07140D"/>
<path d="M11.0305 49.2139C12.2657 49.2139 13.271 50.2192 13.271 51.4544C13.271 52.6896 12.2657 53.6949 11.0305 53.6949C9.79532 53.6949 8.79004 52.6896 8.79004 51.4544C8.79004 50.2192 9.79532 49.2139 11.0305 49.2139Z" fill="#E6E6E6"/>
<path d="M4.41902 51.4544C4.41902 51.5732 4.42285 51.6932 4.42923 51.8095H1.37507C0.615686 51.8095 0 51.1938 0 50.4344C0 49.675 0.615686 49.0593 1.37507 49.0593H4.86737C4.56974 49.8194 4.41902 50.6228 4.41902 51.4544Z" fill="#E6E6E6"/>
<path d="M56.7715 45.6749H55.8582C55.3043 45.6749 54.8555 45.2259 54.8555 44.6722V42.3411C54.8555 41.7872 55.3045 41.3384 55.8582 41.3384H56.7715V45.6749Z" fill="#F7CF52"/>
<path d="M34.4524 21.8735H4.22168V23.7895H34.4524V21.8735Z" fill="#DB481B"/>
<path d="M34.4514 28.0615H4.2207V29.9776H34.4514V28.0615Z" fill="#DB481B"/>
<path d="M34.4514 40.4377H4.2207V42.3537H34.4514V40.4377Z" fill="#DB481B"/>
<path d="M34.4524 34.2496H4.22168V36.1657H34.4524V34.2496Z" fill="#DB481B"/>
<path d="M41.2412 28.1452L50.5838 37.3779H55.8133L52.0732 28.1452H41.2412Z" fill="#96E0DE"/>
</svg>
