<svg width="60" height="60" viewBox="0 0 60 60" fill="none" xmlns="http://www.w3.org/2000/svg">
<path d="M30 60C46.5685 60 60 46.5685 60 30C60 13.4315 46.5685 0 30 0C13.4315 0 0 13.4315 0 30C0 46.5685 13.4315 60 30 60Z" fill="#00C78A"/>
<path d="M49.8307 54.9314C49.8307 52.5512 47.9005 50.621 45.5203 50.621C43.1401 50.621 41.21 52.5512 41.21 54.9314C41.21 57.3116 43.1401 59.2418 45.5203 59.2418C47.9005 59.2417 49.8307 57.3115 49.8307 54.9314Z" fill="#363A32"/>
<path d="M54.4607 46.0938L50.6927 44.586L48.4323 35.5473C48.241 34.7801 47.5512 34.2413 46.7599 34.2413H36.0374V43.7241H5.00293V54.0689C5.00293 54.5457 5.38827 54.931 5.865 54.931H10.1754C10.1754 52.5508 12.1046 50.6207 14.4857 50.6207C16.8659 50.6207 18.7961 52.5508 18.7961 54.931H37.7616H41.2099C41.2099 52.5508 43.1392 50.6207 45.5202 50.6207C47.9004 50.6207 49.8306 52.5508 49.8306 54.931H54.141C54.6168 54.931 55.003 54.5457 55.003 54.0689V46.8939C55.0029 46.5421 54.7883 46.2249 54.4607 46.0938Z" fill="#F56551"/>
<path d="M21.3789 36.8279H33.4479V24.759H21.3789V36.8279Z" fill="#C69666"/>
<path d="M9.31641 36.8279H21.3853V28.2073H9.31641V36.8279Z" fill="#896745"/>
<path d="M18.7965 54.9314C18.7965 52.5512 16.8663 50.621 14.4861 50.621C12.106 50.621 10.1758 52.5512 10.1758 54.9314C10.1758 57.3116 12.106 59.2418 14.4861 59.2418C16.8663 59.2418 18.7965 57.3115 18.7965 54.9314Z" fill="#363A32"/>
<path d="M14.4859 56.6554C13.5342 56.6554 12.7617 55.883 12.7617 54.9312C12.7617 53.9795 13.5341 53.2071 14.4859 53.2071C15.4376 53.2071 16.21 53.9795 16.21 54.9312C16.21 55.883 15.4376 56.6554 14.4859 56.6554Z" fill="#C0C0C0"/>
<path d="M45.5191 56.6554C44.5674 56.6554 43.7949 55.883 43.7949 54.9312C43.7949 53.9795 44.5673 53.2071 45.5191 53.2071C46.4708 53.2071 47.2432 53.9795 47.2432 54.9312C47.2432 55.883 46.4707 56.6554 45.5191 56.6554Z" fill="#C0C0C0"/>
<path d="M42.9309 48.8971H41.2068C40.731 48.8971 40.3447 48.5109 40.3447 48.035C40.3447 47.5592 40.731 47.173 41.2068 47.173H42.9309C43.4068 47.173 43.793 47.5592 43.793 48.035C43.793 48.5109 43.4068 48.8971 42.9309 48.8971Z" fill="#FCAF9F"/>
<path d="M17.9342 33.3796L15.3479 31.6555L12.7617 33.3796V28.2073H17.9342V33.3796Z" fill="#E8D5B2"/>
<path d="M30.0006 29.9313L27.4143 28.2073L24.8281 29.9313V24.759H30.0006V29.9313Z" fill="#E8D5B2"/>
<path d="M7.58984 43.7245H36.0381V36.8279H7.58984V43.7245Z" fill="#8F7255"/>
<path d="M42.0689 38.5522C42.0689 38.0764 41.6826 37.6901 41.2068 37.6901C40.731 37.6901 40.3447 38.0764 40.3447 38.5522V44.5867C40.3447 45.0625 40.731 45.4488 41.2068 45.4488H52.8448L50.6896 44.5867L50.4741 43.7246H42.069V38.5522H42.0689Z" fill="#FCA788"/>
</svg>
